<svg xmlns="http://www.w3.org/2000/svg" width="467.864" height="468.409" viewBox="0 0 467.864 468.409">
  <g id="Grupo_147149" data-name="Grupo 147149" transform="translate(-333 682.409)">
    <path id="Trazado_99501" data-name="Trazado 99501" d="M1113.982,515.3c-121.251,0-219.542-98.4-219.542-219.79A219.657,219.657,0,0,1,1113.982,75.72c102.458,0,188.512,70.262,212.736,165.318a220.4,220.4,0,0,1,6.794,54.472" transform="translate(-547.05 -743.715)" fill="none" stroke="#fda929" stroke-miterlimit="10" stroke-width="5" opacity="0.61"/>
    <path id="Trazado_99502" data-name="Trazado 99502" d="M1116.572,64.9c128.641,0,232.932,104.415,232.932,233.2s-104.291,233.2-232.932,233.2S883.64,426.894,883.64,298.1" transform="translate(-549.64 -746.309)" fill="none" stroke="rgba(1,234,254,0.38)" stroke-miterlimit="10" stroke-width="2"/>
    <path id="Trazado_99503" data-name="Trazado 99503" d="M1112.548,465.376c-117.16,0-212.128-95.092-212.128-212.376" transform="translate(-545.616 -701.205)" fill="none" stroke="#9fa8da" stroke-miterlimit="10" stroke-width="1"/>
    <path id="Trazado_99504" data-name="Trazado 99504" d="M1071.52,81.7c117.148,0,212.128,95.092,212.128,212.376a212.425,212.425,0,0,1-126.781,194.473" transform="translate(-504.588 -742.281)" fill="none" stroke="#9fa8da" stroke-miterlimit="10" stroke-width="1"/>
    <path id="Trazado_262184" data-name="Trazado 262184" d="M0,192.229Z" transform="translate(374.926 -640.434)" fill="#9fa8da"/>
  </g>
</svg>
