<svg xmlns="http://www.w3.org/2000/svg" width="180" height="180" viewBox="0 0 180 180">
  <g id="Grupo_172657" data-name="Grupo 172657" transform="translate(-10546 -989.31)">
    <circle id="Elipse_6370" data-name="Elipse 6370" cx="90" cy="90" r="90" transform="translate(10546 989.31)" fill="#eef8ff"/>
    <g id="Grupo_162764" data-name="Grupo 162764" transform="translate(127.824 -915.053)">
      <path id="Trazado_270191" data-name="Trazado 270191" d="M10432.5,2021h23l11,17H10430l-3-7Z" fill="#20cb7d"/>
      <rect id="Rectángulo_298384" data-name="Rectángulo 298384" width="73" height="45" rx="10" transform="translate(10429 2037)" fill="#fff"/>
      <path id="Trazado_270190" data-name="Trazado 270190" d="M10574.5,1923l12.5,10v81h-70v-91Z" fill="#fff"/>
      <path id="Trazado_270189" data-name="Trazado 270189" d="M10048.5,1999.01l5.758,4.9,9.436-4.9,5.662,4.9-5.662,9.525,8.807,4.808v10.818h-8.807v3.005l5.662,7.813-5.662,7.212-9.436-4.207-8.178,9.616h-6.919v-9.616l-12.579,4.207-8.179-7.212,3.774-7.813-8.178-3.005v-10.818h8.178V2010l-3.774-6.09,8.179-4.9,9.435,4.9,3.145-10.91h7.953Z" transform="translate(414.5 -70)" fill="#fda929"/>
      <path id="Trazado_270148" data-name="Trazado 270148" d="M163.821,12.255l-11.5-11.5A2.572,2.572,0,0,0,150.5,0H91.01a2.572,2.572,0,0,0-2.571,2.571V94.585a2.572,2.572,0,0,0,2.571,2.571H162a2.572,2.572,0,0,0,2.571-2.571V14.074a2.572,2.572,0,0,0-.753-1.818ZM153.072,8.779l2.723,2.723h-2.723ZM93.581,92.014V5.143h54.348v8.931a2.572,2.572,0,0,0,2.571,2.571h8.931V92.014Zm56.506-60.967a2.572,2.572,0,0,1-2.571,2.571H105.5a2.571,2.571,0,0,1,0-5.143h42.019a2.572,2.572,0,0,1,2.571,2.571Zm0,12.383A2.572,2.572,0,0,1,147.515,46H105.5a2.571,2.571,0,0,1,0-5.143h42.019a2.571,2.571,0,0,1,2.571,2.571Zm0,12.383a2.572,2.572,0,0,1-2.571,2.571H105.5a2.571,2.571,0,0,1,0-5.143h42.019a2.572,2.572,0,0,1,2.571,2.571Zm0,12.383a2.572,2.572,0,0,1-2.571,2.571H105.5a2.571,2.571,0,0,1,0-5.143h42.019a2.572,2.572,0,0,1,2.571,2.571Zm0,12.383a2.572,2.572,0,0,1-2.571,2.571H105.5a2.571,2.571,0,0,1,0-5.143h42.019a2.572,2.572,0,0,1,2.571,2.571ZM102.925,18.664a2.572,2.572,0,0,1,2.571-2.571H135.66a2.571,2.571,0,0,1,0,5.143H105.5A2.572,2.572,0,0,1,102.925,18.664ZM69.241,115.676H43.235l-7.379-12.762A9.535,9.535,0,0,0,27.41,98.04H8.9a8.907,8.907,0,0,0-8.9,8.9v48.741a8.907,8.907,0,0,0,8.9,8.9H69.241a8.907,8.907,0,0,0,8.9-8.9V124.572a8.907,8.907,0,0,0-8.9-8.9ZM8.9,103.183H27.41a4.453,4.453,0,0,1,3.994,2.3l5.891,10.188H5.143v-8.739A3.758,3.758,0,0,1,8.9,103.183Zm64.1,52.494a3.758,3.758,0,0,1-3.754,3.754H8.9a3.758,3.758,0,0,1-3.754-3.754V120.819h64.1a3.758,3.758,0,0,1,3.754,3.754ZM32.78,47.417A14.638,14.638,0,1,0,18.142,32.78,14.654,14.654,0,0,0,32.78,47.417Zm0-24.133a9.495,9.495,0,1,1-9.495,9.495A9.506,9.506,0,0,1,32.78,23.284ZM2.165,39.4l7.193,1.151a24.576,24.576,0,0,0,1.364,3.289l-4.273,5.9a2.571,2.571,0,0,0,.264,3.326l5.775,5.775a2.572,2.572,0,0,0,3.327.265l5.9-4.273a24.533,24.533,0,0,0,3.29,1.364l1.151,7.193A2.572,2.572,0,0,0,28.7,65.558h8.166A2.571,2.571,0,0,0,39.4,63.394L40.553,56.2a24.537,24.537,0,0,0,3.289-1.364l5.9,4.273a2.572,2.572,0,0,0,3.327-.265l5.775-5.775a2.572,2.572,0,0,0,.264-3.326l-4.273-5.9a24.5,24.5,0,0,0,1.364-3.29L63.393,39.4a2.571,2.571,0,0,0,2.165-2.539V28.7a2.571,2.571,0,0,0-2.165-2.539L56.2,25.006a24.56,24.56,0,0,0-1.364-3.289l4.273-5.9a2.572,2.572,0,0,0-.264-3.326L53.071,6.714a2.572,2.572,0,0,0-3.327-.265l-5.9,4.273a24.487,24.487,0,0,0-3.289-1.364L39.4,2.165A2.572,2.572,0,0,0,36.863,0H28.7a2.571,2.571,0,0,0-2.539,2.165L25.006,9.358a24.506,24.506,0,0,0-3.29,1.364l-5.9-4.273a2.572,2.572,0,0,0-3.327.265L6.713,12.488a2.572,2.572,0,0,0-.264,3.327l4.273,5.9a24.594,24.594,0,0,0-1.364,3.289L2.165,26.157A2.571,2.571,0,0,0,0,28.7v8.166A2.571,2.571,0,0,0,2.165,39.4Zm2.978-8.513,6.63-1.061a2.572,2.572,0,0,0,2.085-1.9,19.425,19.425,0,0,1,2.111-5.091,2.571,2.571,0,0,0-.129-2.82L11.9,14.574,14.574,11.9l5.441,3.939a2.572,2.572,0,0,0,2.82.129,19.386,19.386,0,0,1,5.091-2.111,2.572,2.572,0,0,0,1.9-2.085l1.062-6.63H34.67l1.061,6.63a2.572,2.572,0,0,0,1.9,2.085,19.385,19.385,0,0,1,5.09,2.111,2.571,2.571,0,0,0,2.82-.129L50.984,11.9l2.674,2.674-3.939,5.441a2.571,2.571,0,0,0-.129,2.819A19.407,19.407,0,0,1,51.7,27.925a2.572,2.572,0,0,0,2.085,1.9l6.63,1.061V34.67l-6.63,1.061a2.572,2.572,0,0,0-2.085,1.9,19.386,19.386,0,0,1-2.111,5.09,2.571,2.571,0,0,0,.129,2.82l3.939,5.441-2.673,2.674-5.441-3.939a2.57,2.57,0,0,0-2.819-.129A19.4,19.4,0,0,1,37.634,51.7a2.571,2.571,0,0,0-1.9,2.085l-1.061,6.63H30.889l-1.061-6.63a2.572,2.572,0,0,0-1.9-2.085,19.382,19.382,0,0,1-5.091-2.111,2.572,2.572,0,0,0-2.82.129l-5.441,3.939L11.9,50.984l3.939-5.441a2.571,2.571,0,0,0,.129-2.819,19.408,19.408,0,0,1-2.111-5.091,2.572,2.572,0,0,0-2.085-1.9L5.143,34.67Zm30.231,55.6v6.429a2.571,2.571,0,0,1-5.143,0V86.489a2.571,2.571,0,0,1,5.143,0Zm0-7.634a2.571,2.571,0,0,1-5.143,0V72.427a2.571,2.571,0,0,1,5.143,0Zm102.82,40.9v6.429a2.571,2.571,0,0,1-5.143,0v-6.429a2.571,2.571,0,0,1,5.143,0ZM96.007,140.249a2.572,2.572,0,0,1-2.571,2.571H87.006a2.571,2.571,0,0,1,0-5.143h6.429A2.571,2.571,0,0,1,96.007,140.249Zm14.062,0a2.572,2.572,0,0,1-2.571,2.571h-6.429a2.571,2.571,0,1,1,0-5.143H107.5A2.571,2.571,0,0,1,110.069,140.249Zm28.125-34.554v6.429a2.571,2.571,0,0,1-5.143,0v-6.429a2.571,2.571,0,0,1,5.143,0Zm0,28.125v6.429a2.572,2.572,0,0,1-2.571,2.571h-6.429a2.571,2.571,0,1,1,0-5.143h3.857V133.82a2.571,2.571,0,1,1,5.143,0Zm-14.062,6.429a2.572,2.572,0,0,1-2.571,2.571h-6.429a2.571,2.571,0,1,1,0-5.143h6.429A2.571,2.571,0,0,1,124.132,140.249ZM82.645,32.78a2.572,2.572,0,0,1-2.571,2.571H73.644a2.571,2.571,0,0,1,0-5.143h6.429A2.571,2.571,0,0,1,82.645,32.78Z" transform="translate(10425.176 1919.789)"/>
    </g>
  </g>
</svg>
