<svg xmlns="http://www.w3.org/2000/svg" width="182.824" height="180" viewBox="0 0 182.824 180">
  <g id="Grupo_172655" data-name="Grupo 172655" transform="translate(-9844.176 -988.94)">
    <circle id="Elipse_6369" data-name="Elipse 6369" cx="90" cy="90" r="90" transform="translate(9844.176 988.94)" fill="#fff"/>
    <g id="Grupo_162748" data-name="Grupo 162748" transform="translate(9862.431 999.393)">
      <path id="Trazado_270121" data-name="Trazado 270121" d="M102.926,10h-85.5A6.428,6.428,0,0,0,11,16.429V161.717a6.428,6.428,0,0,0,6.429,6.429H127.995a6.429,6.429,0,0,0,6.429-6.429V41.5Z" transform="translate(-7.786 -6.786)" fill="#fff"/>
      <path id="Trazado_270122" data-name="Trazado 270122" d="M379.094,388.962,405.8,415.67A7.685,7.685,0,0,0,416.67,404.8l-26.708-26.708Z" transform="translate(-257.562 -256.562)" fill="#20cb7d"/>
      <path id="Trazado_270123" data-name="Trazado 270123" d="M268.148,228.572A38.572,38.572,0,1,1,229.576,190,38.573,38.573,0,0,1,268.148,228.572Z" transform="translate(-129.93 -128.928)" fill="#fff"/>
      <path id="Trazado_270124" data-name="Trazado 270124" d="M283.148,257.072A25.072,25.072,0,1,1,258.076,232,25.072,25.072,0,0,1,283.148,257.072Z" transform="translate(-158.43 -157.427)" fill="#f7c4ff"/>
      <path id="Trazado_270125" data-name="Trazado 270125" d="M303.417,41.5h25.067L296.988,10V35.071A6.428,6.428,0,0,0,303.417,41.5Z" transform="translate(-201.847 -6.788)" fill="#ffb954"/>
      <path id="Trazado_270126" data-name="Trazado 270126" d="M251.29,222a28.286,28.286,0,1,0,28.286,28.286A28.318,28.318,0,0,0,251.29,222Zm0,50.144a21.858,21.858,0,1,1,21.858-21.858A21.882,21.882,0,0,1,251.29,272.144Z" transform="translate(-151.644 -150.642)"/>
      <path id="Trazado_270127" data-name="Trazado 270127" d="M162.381,145.967l-25.51-25.511a41.717,41.717,0,0,0-6.02-49.658V34.711h-.008a3.208,3.208,0,0,0-.933-2.273L98.414.942A3.206,3.206,0,0,0,96.139.009a.021.021,0,0,1,0-.009h-85.5A9.654,9.654,0,0,0,1,9.643V154.931a9.654,9.654,0,0,0,9.643,9.643H121.209a9.654,9.654,0,0,0,9.643-9.643v-9.666l16.115,16.117a10.9,10.9,0,1,0,15.414-15.415ZM100.646,135A35.358,35.358,0,1,1,136,99.645,35.4,35.4,0,0,1,100.646,135ZM99.355,10.975,119.877,31.5H102.569a3.218,3.218,0,0,1-3.214-3.214Zm25.068,143.956a3.218,3.218,0,0,1-3.214,3.214H10.643a3.217,3.217,0,0,1-3.214-3.214V9.643a3.217,3.217,0,0,1,3.214-3.214H92.926V28.282a9.654,9.654,0,0,0,9.643,9.643h21.853V65.3A41.777,41.777,0,0,0,60.9,112.543H21.621a3.214,3.214,0,1,0,0,6.429H62.667a3.188,3.188,0,0,0,.874-.124,41.758,41.758,0,0,0,57.916,17.022l2.967,2.967Zm33.413,1.9a4.473,4.473,0,0,1-6.322,0L126.848,132.17a42.149,42.149,0,0,0,6.322-6.322l24.667,24.665A4.475,4.475,0,0,1,157.836,156.836Z" transform="translate(-1)"/>
      <path id="Trazado_270128" data-name="Trazado 270128" d="M304.218,265a3.214,3.214,0,0,0,0,6.429,8.044,8.044,0,0,1,8.035,8.035,3.214,3.214,0,0,0,6.429,0A14.479,14.479,0,0,0,304.218,265Z" transform="translate(-204.572 -179.823)"/>
      <path id="Trazado_270129" data-name="Trazado 270129" d="M87.294,280.793H58.366a3.214,3.214,0,1,0,0,6.429H87.294a3.214,3.214,0,0,0,0-6.429Z" transform="translate(-37.746 -190.537)"/>
      <path id="Trazado_270130" data-name="Trazado 270130" d="M89.2,211.461H58.366a3.214,3.214,0,1,0,0,6.429H89.2a3.214,3.214,0,0,0,0-6.429Z" transform="translate(-37.746 -143.49)"/>
      <path id="Trazado_270131" data-name="Trazado 270131" d="M184.214,419.461a3.211,3.211,0,1,0,2.275.942A3.231,3.231,0,0,0,184.214,419.461Z" transform="translate(-123.142 -284.632)"/>
      <path id="Trazado_270132" data-name="Trazado 270132" d="M85.617,419.461H58.366a3.214,3.214,0,1,0,0,6.429H85.617a3.214,3.214,0,1,0,0-6.429Z" transform="translate(-37.746 -284.632)"/>
      <path id="Trazado_270133" data-name="Trazado 270133" d="M58.362,148.558a3.215,3.215,0,1,0-2.273-.942A3.233,3.233,0,0,0,58.362,148.558Z" transform="translate(-37.743 -96.444)"/>
      <path id="Trazado_270134" data-name="Trazado 270134" d="M148.8,142.129H100.753a3.214,3.214,0,0,0,0,6.429H148.8a3.214,3.214,0,0,0,0-6.429Z" transform="translate(-66.508 -96.444)"/>
      <path id="Trazado_270135" data-name="Trazado 270135" d="M58.366,79.222h61.667a3.214,3.214,0,0,0,0-6.429H58.366a3.214,3.214,0,0,0,0,6.429Z" transform="translate(-37.746 -49.395)"/>
    </g>
  </g>
</svg>
