<svg xmlns="http://www.w3.org/2000/svg" width="189" height="180" viewBox="0 0 189 180">
  <g id="Grupo_172656" data-name="Grupo 172656" transform="translate(-10195 -988.94)">
    <path id="Trazado_266993" data-name="Trazado 266993" d="M90,0A90,90,0,1,1,0,90,90,90,0,0,1,90,0Z" transform="translate(10195 988.94)" fill="#eef8ff"/>
    <g id="Grupo_162762" data-name="Grupo 162762" transform="translate(40 -924.288)">
      <rect id="Rectángulo_298378" data-name="Rectángulo 298378" width="116" height="133" rx="8" transform="translate(10173 1939)" fill="#fff"/>
      <ellipse id="Elipse_6411" data-name="Elipse 6411" cx="10.5" cy="7.5" rx="10.5" ry="7.5" transform="translate(10221 1933)" fill="#fda929"/>
      <rect id="Rectángulo_298379" data-name="Rectángulo 298379" width="50" height="18" transform="translate(10208 1939)" fill="#fda929"/>
      <path id="Polígono_7" data-name="Polígono 7" d="M51.646,22.618a17,17,0,0,1,28.707,0l35.077,55.273A17,17,0,0,1,101.077,104H30.923A17,17,0,0,1,16.569,77.891Z" transform="translate(10212 1968)" fill="#20cb7d"/>
      <path id="Polígono_8" data-name="Polígono 8" d="M41.425,10.616a7,7,0,0,1,12.151,0L89,72.523A7,7,0,0,1,82.929,83H12.071A7,7,0,0,1,6,72.523Z" transform="translate(10231 1981)" fill="#fda929"/>
      <path id="Trazado_270149" data-name="Trazado 270149" d="M53.446,88.428a2.571,2.571,0,0,1-.176,3.633L40.352,103.784a2.572,2.572,0,0,1-3.546-.086L31.487,98.38a2.571,2.571,0,0,1,3.637-3.636L38.71,98.33l11.1-10.077a2.571,2.571,0,0,1,3.632.176Zm9.7-4.847h36.951a2.571,2.571,0,1,0,0-5.143H63.143a2.571,2.571,0,1,0,0,5.143ZM49.814,132.654l-11.1,10.077-3.586-3.587a2.572,2.572,0,1,0-3.637,3.637l5.319,5.319a2.571,2.571,0,0,0,3.546.086L53.27,136.462a2.571,2.571,0,1,0-3.456-3.808Zm0-22.2L38.71,120.53l-3.586-3.587a2.572,2.572,0,0,0-3.637,3.637l5.319,5.319a2.571,2.571,0,0,0,3.546.086L53.27,114.261a2.571,2.571,0,0,0-3.456-3.808ZM63.143,70.527h36.951a2.571,2.571,0,1,0,0-5.143H63.143a2.571,2.571,0,1,0,0,5.143ZM35.124,72.542a2.571,2.571,0,0,0-3.637,3.636L36.806,81.5a2.571,2.571,0,0,0,3.546.086L53.27,69.859a2.571,2.571,0,0,0-3.456-3.809L38.71,76.128ZM67.086,37.271a3.082,3.082,0,1,0,3.082,3.082A3.085,3.085,0,0,0,67.086,37.271Zm97.8,128.3a18.105,18.105,0,0,1-16.044,9.263H17.067A9.077,9.077,0,0,1,8,165.766V46.24a9.078,9.078,0,0,1,9.067-9.067H54.486a13.623,13.623,0,0,1,25.2,0h37.419a9.078,9.078,0,0,1,9.067,9.067V82.423a18.883,18.883,0,0,1,4.436,5.245h0l34.281,59.377A18.1,18.1,0,0,1,164.89,165.571ZM117.106,42.316H94.667V46.21h19.9a2.572,2.572,0,0,1,2.571,2.571V78.572a18.449,18.449,0,0,1,3.894.943V46.24a3.929,3.929,0,0,0-3.924-3.924ZM44.649,54.062H89.524V42.316h-11.7a2.572,2.572,0,0,1-2.5-1.968,8.474,8.474,0,0,0-16.47,0,2.572,2.572,0,0,1-2.5,1.969h-11.7V54.062Zm-2.571,5.143a2.572,2.572,0,0,1-2.571-2.571V51.352H22.179v109.3H62.234a17.891,17.891,0,0,1,1.082-11.8h-.173a2.571,2.571,0,1,1,0-5.143h3.022l4.568-7.911H63.143a2.571,2.571,0,1,1,0-5.143H73.7l4.568-7.911H63.143a2.571,2.571,0,1,1,0-5.143h18.1l4.568-7.911H63.143a2.571,2.571,0,1,1,0-5.143H88.775l4.568-7.911h-30.2a2.571,2.571,0,1,1,0-5.143H96.312l2.208-3.825a18.034,18.034,0,0,1,13.472-9.1V51.353H94.667v5.281A2.572,2.572,0,0,1,92.1,59.206H42.077ZM67.418,169.691a19.151,19.151,0,0,1-3.043-3.894H19.608a2.572,2.572,0,0,1-2.571-2.571V48.781a2.572,2.572,0,0,1,2.571-2.571h19.9V42.316H17.067a3.929,3.929,0,0,0-3.924,3.924V165.766a3.929,3.929,0,0,0,3.924,3.924Zm93.018-20.075L126.155,90.239h0a13.383,13.383,0,0,0-23.18,0L68.693,149.616a13.383,13.383,0,0,0,11.591,20.075h68.562a13.383,13.383,0,0,0,11.59-20.075Zm-2.809,1.622a10.139,10.139,0,0,1-8.781,15.209H80.284A10.139,10.139,0,0,1,71.5,151.238l34.281-59.377a10.14,10.14,0,0,1,17.562,0Zm-4.453,2.571L118.893,94.433a5,5,0,0,0-8.655,0L75.956,153.809a5,5,0,0,0,4.328,7.495h68.562a5,5,0,0,0,4.327-7.495Zm-45.291-44.871c0-.03,0-.059,0-.088a6.053,6.053,0,0,1,5.883-6.2h1.6a6.053,6.053,0,0,1,5.883,6.2c0,.03,0,.059,0,.088l-.908,26.371a5.779,5.779,0,1,1-11.548,0Zm5.142-.121.908,26.355c0,.03,0,.059,0,.088,0,.527.339.935.631.935s.631-.409.631-.935c0-.03,0-.059,0-.088l.907-26.354c-.014-.587-.4-1.022-.74-1.022h-1.6C113.421,107.8,113.038,108.23,113.024,108.817Zm8.474,39.737a6.933,6.933,0,1,1-6.933-6.933A6.941,6.941,0,0,1,121.5,148.554Zm-5.143,0a1.79,1.79,0,1,0-1.79,1.79A1.792,1.792,0,0,0,116.355,148.554Z" transform="translate(10164.604 1900.295)"/>
    </g>
  </g>
</svg>
