<svg xmlns="http://www.w3.org/2000/svg" xmlns:xlink="http://www.w3.org/1999/xlink" width="190" height="100" viewBox="0 0 190 100">
  <defs>
    <linearGradient id="linear-gradient" x1="0.5" x2="0.5" y2="1" gradientUnits="objectBoundingBox">
      <stop offset="0" stop-color="#ba68c8"/>
      <stop offset="0.19" stop-color="#9139af"/>
      <stop offset="0.31" stop-color="#7b1fa2"/>
      <stop offset="1" stop-color="#45147b"/>
    </linearGradient>
    <linearGradient id="linear-gradient-2" x1="0.5" x2="0.5" y2="1" gradientUnits="objectBoundingBox">
      <stop offset="0" stop-color="#7e89be"/>
      <stop offset="1" stop-color="#29398a"/>
    </linearGradient>
  </defs>
  <g id="Grupo_158238" data-name="Grupo 158238" transform="translate(-180 -1546)">
    <rect id="Rectángulo_295777" data-name="Rectángulo 295777" width="190" height="100" transform="translate(180 1546)" fill="none"/>
    <g id="Grupo_148647" data-name="Grupo 148647" transform="translate(223.748 1549)" opacity="0.76">
      <g id="Grupo_145732" data-name="Grupo 145732" transform="translate(77.894 43.139)">
        <path id="Trazado_145968" data-name="Trazado 145968" d="M25.886,0A25.886,25.886,0,1,0,51.773,25.886,25.886,25.886,0,0,0,25.886,0Z" transform="translate(0 0)" opacity="0.444" fill="url(#linear-gradient)" style="mix-blend-mode: multiply;isolation: isolate"/>
      </g>
      <path id="Trazado_145969" data-name="Trazado 145969" d="M17.688,0A17.688,17.688,0,1,0,35.376,17.688,17.688,17.688,0,0,0,17.688,0Z" transform="translate(-10 0)" opacity="0.6" fill="url(#linear-gradient-2)" style="mix-blend-mode: multiply;isolation: isolate"/>
      <path id="Trazado_145971" data-name="Trazado 145971" d="M11.181,0A11.181,11.181,0,1,0,22.362,11.181,11.181,11.181,0,0,0,11.181,0Z" transform="translate(-27.748 68.048)" fill="#fda929" opacity="0.444" style="mix-blend-mode: multiply;isolation: isolate"/>
    </g>
    <g id="lista-de-quehaceres" transform="translate(203.832 1546)">
      <g id="Grupo_158233" data-name="Grupo 158233" transform="translate(27.771 1.465)">
        <path id="Trazado_266950" data-name="Trazado 266950" d="M33.806,65.807v77.012a2.93,2.93,0,0,0,2.93,2.93H75.659V108.5a1.953,1.953,0,0,1,1.953-1.953h26.154V65.807Z" transform="translate(-33.806 -54.419)" fill="#eaf9fa"/>
        <path id="Trazado_266951" data-name="Trazado 266951" d="M47.087,143.624V66.807H33.806v76.817a2.93,2.93,0,0,0,2.93,2.93H50.017A2.93,2.93,0,0,1,47.087,143.624Z" transform="translate(-33.806 -55.224)" fill="#d4f2f6"/>
        <g id="Grupo_158230" data-name="Grupo 158230">
          <path id="Trazado_266952" data-name="Trazado 266952" d="M100.836,7.5h-64.1a2.93,2.93,0,0,0-2.93,2.93v8.654h69.96V10.43A2.93,2.93,0,0,0,100.836,7.5Z" transform="translate(-33.806 -7.5)" fill="#20cb7d"/>
        </g>
        <g id="Grupo_158231" data-name="Grupo 158231">
          <path id="Trazado_266953" data-name="Trazado 266953" d="M50.017,7.5H36.736a2.93,2.93,0,0,0-2.93,2.93v8.654H47.087V10.43A2.93,2.93,0,0,1,50.017,7.5Z" transform="translate(-33.806 -7.5)" fill="#19a264"/>
        </g>
        <g id="Grupo_158232" data-name="Grupo 158232" transform="translate(9.625 42.573)">
          <path id="Trazado_266954" data-name="Trazado 266954" d="M88.178,231.15h-4.5a.586.586,0,0,1-.586-.586v-4.5a.586.586,0,0,1,.586-.586h4.5a.586.586,0,0,1,.586.586v4.5A.586.586,0,0,1,88.178,231.15Z" transform="translate(-83.088 -225.474)" fill="#fff"/>
          <path id="Trazado_266955" data-name="Trazado 266955" d="M88.178,288.792h-4.5a.586.586,0,0,1-.586-.586v-4.5a.586.586,0,0,1,.586-.586h4.5a.586.586,0,0,1,.586.586v4.5A.586.586,0,0,1,88.178,288.792Z" transform="translate(-83.088 -271.858)" fill="#fff"/>
          <path id="Trazado_266956" data-name="Trazado 266956" d="M88.178,346.435h-4.5a.586.586,0,0,1-.586-.586v-4.5a.586.586,0,0,1,.586-.586h4.5a.586.586,0,0,1,.586.586v4.5A.586.586,0,0,1,88.178,346.435Z" transform="translate(-83.088 -318.242)" fill="#fff"/>
          <path id="Trazado_266957" data-name="Trazado 266957" d="M88.178,404.077h-4.5a.586.586,0,0,1-.586-.586v-4.5a.586.586,0,0,1,.586-.586h4.5a.586.586,0,0,1,.586.586v4.5A.586.586,0,0,1,88.178,404.077Z" transform="translate(-83.088 -364.625)" fill="#fff"/>
        </g>
      </g>
      <g id="Grupo_158236" data-name="Grupo 158236" transform="translate(69.623 53.593)">
        <g id="Grupo_158234" data-name="Grupo 158234">
          <path id="Trazado_266958" data-name="Trazado 266958" d="M291.08,319.339H250.044a1.953,1.953,0,0,1-1.953-1.953V276.35a1.953,1.953,0,0,1,1.953-1.953H291.08a1.953,1.953,0,0,1,1.953,1.953v41.036A1.953,1.953,0,0,1,291.08,319.339Z" transform="translate(-248.091 -274.397)" fill="#fdbf60"/>
        </g>
        <g id="Grupo_158235" data-name="Grupo 158235">
          <path id="Trazado_266959" data-name="Trazado 266959" d="M258.034,317.386V276.35a1.953,1.953,0,0,1,1.953-1.953h-9.943a1.953,1.953,0,0,0-1.953,1.953v41.036a1.953,1.953,0,0,0,1.953,1.953h9.943A1.953,1.953,0,0,1,258.034,317.386Z" transform="translate(-248.091 -274.397)" fill="#fda929"/>
        </g>
      </g>
      <g id="Grupo_158237" data-name="Grupo 158237" transform="translate(26.306)">
        <path id="Trazado_266960" data-name="Trazado 266960" d="M134.21,120.152h39.546a1.465,1.465,0,0,0,0-2.93H134.21a1.465,1.465,0,0,0,0,2.93Z" transform="translate(-111.956 -94.327)"/>
        <path id="Trazado_266961" data-name="Trazado 266961" d="M82.225,105.034a1.465,1.465,0,0,0-2.068.124l-2.811,3.171-1.6-1.895a1.465,1.465,0,0,0-2.241,1.887l2.687,3.191a1.465,1.465,0,0,0,1.1.521h.019a1.464,1.464,0,0,0,1.1-.493l3.935-4.439a1.464,1.464,0,0,0-.124-2.067Z" transform="translate(-64.014 -84.223)"/>
        <path id="Trazado_266962" data-name="Trazado 266962" d="M84.194,220.025a2.053,2.053,0,0,0-2.051-2.051h-4.5a2.053,2.053,0,0,0-2.051,2.051v4.5a2.053,2.053,0,0,0,2.051,2.051h4.5a2.053,2.053,0,0,0,2.051-2.051Zm-2.93,3.626H78.518V220.9h2.747Z" transform="translate(-65.963 -175.401)"/>
        <path id="Trazado_266963" data-name="Trazado 266963" d="M134.21,235.436h39.546a1.465,1.465,0,0,0,0-2.93H134.21a1.465,1.465,0,0,0,0,2.93Z" transform="translate(-111.956 -187.095)"/>
        <path id="Trazado_266964" data-name="Trazado 266964" d="M84.194,277.667a2.053,2.053,0,0,0-2.051-2.051h-4.5a2.053,2.053,0,0,0-2.051,2.051v4.5a2.053,2.053,0,0,0,2.051,2.051h4.5a2.053,2.053,0,0,0,2.051-2.051Zm-2.93,3.626H78.518v-2.747h2.747Z" transform="translate(-65.963 -221.785)"/>
        <path id="Trazado_266965" data-name="Trazado 266965" d="M84.194,335.309a2.053,2.053,0,0,0-2.051-2.051h-4.5a2.053,2.053,0,0,0-2.051,2.051v4.5a2.053,2.053,0,0,0,2.051,2.051h4.5a2.053,2.053,0,0,0,2.051-2.051Zm-2.93,3.626H78.518v-2.747h2.747Z" transform="translate(-65.963 -268.169)"/>
        <path id="Trazado_266966" data-name="Trazado 266966" d="M82.143,390.9h-4.5a2.053,2.053,0,0,0-2.051,2.051v4.5a2.053,2.053,0,0,0,2.051,2.051h4.5a2.053,2.053,0,0,0,2.051-2.051v-4.5A2.053,2.053,0,0,0,82.143,390.9Zm-.879,5.676H78.518V393.83h2.747Z" transform="translate(-65.963 -314.552)"/>
        <path id="Trazado_266967" data-name="Trazado 266967" d="M134.21,177.309h39.546a1.465,1.465,0,1,0,0-2.93H134.21a1.465,1.465,0,1,0,0,2.93Z" transform="translate(-111.956 -140.321)"/>
        <path id="Trazado_266968" data-name="Trazado 266968" d="M82.225,162.191a1.465,1.465,0,0,0-2.068.124l-2.811,3.17-1.6-1.895a1.465,1.465,0,0,0-2.241,1.887L76.2,168.67a1.464,1.464,0,0,0,1.1.521h.019a1.465,1.465,0,0,0,1.1-.493l3.935-4.439A1.464,1.464,0,0,0,82.225,162.191Z" transform="translate(-64.014 -130.216)"/>
        <path id="Trazado_266969" data-name="Trazado 266969" d="M114.565,75.293a1.465,1.465,0,0,0,1.465-1.465V55.546a3.422,3.422,0,0,0-3.418-3.418H99.2V4.395A4.4,4.4,0,0,0,94.8,0H30.7a4.4,4.4,0,0,0-4.395,4.395V89.865A4.4,4.4,0,0,0,30.7,94.26h17.03a1.465,1.465,0,0,0,0-2.93H30.7a1.467,1.467,0,0,1-1.465-1.465V14.513H78.59a1.465,1.465,0,0,0,0-2.93H29.236V4.395A1.467,1.467,0,0,1,30.7,2.93H94.8a1.467,1.467,0,0,1,1.465,1.465v7.189H85.426a1.465,1.465,0,0,0,0,2.93h10.84V52.129H71.577a3.422,3.422,0,0,0-3.418,3.418V56.67H48.56a1.465,1.465,0,1,0,0,2.93h19.6v8.329H48.56a1.465,1.465,0,1,0,0,2.93h19.6v8.329H48.56a1.465,1.465,0,1,0,0,2.93h19.6V91.33H54.567a1.465,1.465,0,0,0,0,2.93H68.159v2.322A3.422,3.422,0,0,0,71.577,100h41.036a3.422,3.422,0,0,0,3.418-3.418V80.664a1.465,1.465,0,1,0-2.93,0V96.582a.489.489,0,0,1-.488.488H71.577a.489.489,0,0,1-.488-.488V55.546a.489.489,0,0,1,.488-.488h41.036a.489.489,0,0,1,.488.488V73.828A1.465,1.465,0,0,0,114.565,75.293Z" transform="translate(-26.306)"/>
        <path id="Trazado_266970" data-name="Trazado 266970" d="M354.955,314.075H336.329a1.465,1.465,0,0,0,0,2.93h18.626a1.465,1.465,0,1,0,0-2.93Z" transform="translate(-274.599 -252.732)"/>
        <path id="Trazado_266971" data-name="Trazado 266971" d="M289.473,303.1a1.465,1.465,0,0,0-2.068.124l-2.429,2.74-1.335-1.585a1.465,1.465,0,0,0-2.241,1.887l2.427,2.882a1.464,1.464,0,0,0,1.1.521h.019a1.464,1.464,0,0,0,1.1-.493l3.554-4.009A1.465,1.465,0,0,0,289.473,303.1Z" transform="translate(-231.3 -243.607)"/>
        <path id="Trazado_266972" data-name="Trazado 266972" d="M354.955,360.042H336.329a1.465,1.465,0,0,0,0,2.93h18.626a1.465,1.465,0,1,0,0-2.93Z" transform="translate(-274.599 -289.721)"/>
        <path id="Trazado_266973" data-name="Trazado 266973" d="M289.473,349.07a1.465,1.465,0,0,0-2.068.124l-2.429,2.74-1.335-1.586a1.465,1.465,0,0,0-2.241,1.887l2.427,2.882a1.465,1.465,0,0,0,1.1.521h.019a1.464,1.464,0,0,0,1.1-.493l3.554-4.009A1.465,1.465,0,0,0,289.473,349.07Z" transform="translate(-231.3 -280.596)"/>
        <path id="Trazado_266974" data-name="Trazado 266974" d="M354.955,406.009H336.329a1.465,1.465,0,0,0,0,2.93h18.626a1.465,1.465,0,1,0,0-2.93Z" transform="translate(-274.599 -326.71)"/>
        <path id="Trazado_266975" data-name="Trazado 266975" d="M289.473,395.038a1.465,1.465,0,0,0-2.068.124l-2.429,2.74-1.335-1.585A1.465,1.465,0,0,0,281.4,398.2l2.427,2.882a1.465,1.465,0,0,0,1.1.521h.019a1.464,1.464,0,0,0,1.1-.493l3.554-4.009A1.465,1.465,0,0,0,289.473,395.038Z" transform="translate(-231.3 -317.585)"/>
        <path id="Trazado_266976" data-name="Trazado 266976" d="M354.955,451.976H336.329a1.465,1.465,0,0,0,0,2.93h18.626a1.465,1.465,0,1,0,0-2.93Z" transform="translate(-274.599 -363.7)"/>
        <path id="Trazado_266977" data-name="Trazado 266977" d="M289.473,441a1.465,1.465,0,0,0-2.068.124l-2.429,2.74-1.335-1.586a1.465,1.465,0,0,0-2.241,1.887l2.427,2.882a1.464,1.464,0,0,0,1.1.521h.019a1.464,1.464,0,0,0,1.1-.493l3.554-4.009a1.465,1.465,0,0,0-.125-2.068Z" transform="translate(-231.3 -354.574)"/>
      </g>
    </g>
  </g>
</svg>
