<svg xmlns="http://www.w3.org/2000/svg" width="180" height="180" viewBox="0 0 180 180">
  <g id="Grupo_172653" data-name="Grupo 172653" transform="translate(-716 -752.37)">
    <path id="Trazado_266731" data-name="Trazado 266731" d="M90,0A90,90,0,1,1,0,90,90,90,0,0,1,90,0Z" transform="translate(716 752.37)" fill="#eef8ff"/>
    <g id="Grupo_162750" data-name="Grupo 162750" transform="translate(725.284 759.153)">
      <ellipse id="Elipse_6402" data-name="Elipse 6402" cx="30.858" cy="30.858" rx="30.858" ry="30.858" transform="translate(48.858 2.571)" fill="#20cb7d"/>
      <ellipse id="Elipse_6403" data-name="Elipse 6403" cx="30.858" cy="30.858" rx="30.858" ry="30.858" transform="translate(2.571 95.145)" fill="#20cb7d"/>
      <ellipse id="Elipse_6404" data-name="Elipse 6404" cx="30.858" cy="30.858" rx="30.858" ry="30.858" transform="translate(95.145 95.145)" fill="#20cb7d"/>
      <g id="Grupo_162749" data-name="Grupo 162749" transform="translate(28.286 28.286)">
        <ellipse id="Elipse_6405" data-name="Elipse 6405" cx="5.143" cy="5.143" rx="5.143" ry="5.143" transform="translate(92.573 92.573)" fill="#ff8088"/>
        <ellipse id="Elipse_6406" data-name="Elipse 6406" cx="5.143" cy="5.143" rx="5.143" ry="5.143" transform="translate(74.573 92.573)" fill="#ff8088"/>
        <ellipse id="Elipse_6407" data-name="Elipse 6407" cx="5.143" cy="5.143" rx="5.143" ry="5.143" transform="translate(110.573 92.573)" fill="#ff8088"/>
        <ellipse id="Elipse_6408" data-name="Elipse 6408" cx="5.143" cy="5.143" rx="5.143" ry="5.143" transform="translate(55.287)" fill="#ff8088"/>
        <ellipse id="Elipse_6409" data-name="Elipse 6409" cx="5.143" cy="5.143" rx="5.143" ry="5.143" transform="translate(37.286)" fill="#ff8088"/>
        <ellipse id="Elipse_6410" data-name="Elipse 6410" cx="5.143" cy="5.143" rx="5.143" ry="5.143" transform="translate(0 92.573)" fill="#ff8088"/>
      </g>
      <path id="Trazado_270136" data-name="Trazado 270136" d="M185.429,74.858A33.429,33.429,0,1,0,152,41.429,33.468,33.468,0,0,0,185.429,74.858Zm0-61.715a28.286,28.286,0,1,1-28.286,28.286A28.32,28.32,0,0,1,185.429,13.143Z" transform="translate(-105.713 -8)"/>
      <path id="Trazado_270137" data-name="Trazado 270137" d="M41.429,296a33.429,33.429,0,1,0,33.429,33.429A33.468,33.468,0,0,0,41.429,296Zm0,61.715a28.286,28.286,0,1,1,28.286-28.286A28.32,28.32,0,0,1,41.429,357.715Z" transform="translate(-8 -203.427)"/>
      <path id="Trazado_270138" data-name="Trazado 270138" d="M329.429,296a33.429,33.429,0,1,0,33.429,33.429A33.468,33.468,0,0,0,329.429,296Zm0,61.715a28.286,28.286,0,1,1,28.286-28.286A28.32,28.32,0,0,1,329.429,357.715Z" transform="translate(-203.427 -203.427)"/>
      <path id="Trazado_270139" data-name="Trazado 270139" d="M383.714,376a7.714,7.714,0,1,0,7.714,7.714A7.724,7.724,0,0,0,383.714,376Zm0,10.286a2.571,2.571,0,1,1,2.572-2.571A2.572,2.572,0,0,1,383.714,386.286Z" transform="translate(-257.712 -257.712)"/>
      <path id="Trazado_270140" data-name="Trazado 270140" d="M327.714,376a7.714,7.714,0,1,0,7.714,7.714A7.724,7.724,0,0,0,327.714,376Zm0,10.286a2.571,2.571,0,1,1,2.571-2.571A2.572,2.572,0,0,1,327.714,386.286Z" transform="translate(-219.713 -257.712)"/>
      <path id="Trazado_270141" data-name="Trazado 270141" d="M432,383.714A7.714,7.714,0,1,0,439.714,376,7.724,7.724,0,0,0,432,383.714Zm10.286,0a2.571,2.571,0,1,1-2.572-2.571A2.572,2.572,0,0,1,442.286,383.714Z" transform="translate(-295.712 -257.712)"/>
      <path id="Trazado_270142" data-name="Trazado 270142" d="M267.714,103.429A7.714,7.714,0,1,0,260,95.714,7.724,7.724,0,0,0,267.714,103.429Zm0-10.286a2.571,2.571,0,1,1-2.571,2.571A2.572,2.572,0,0,1,267.714,93.143Z" transform="translate(-178.999 -62.285)"/>
      <path id="Trazado_270143" data-name="Trazado 270143" d="M211.714,103.429A7.714,7.714,0,1,0,204,95.714,7.724,7.724,0,0,0,211.714,103.429Zm0-10.286a2.571,2.571,0,1,1-2.571,2.571A2.572,2.572,0,0,1,211.714,93.143Z" transform="translate(-140.999 -62.285)"/>
      <path id="Trazado_270144" data-name="Trazado 270144" d="M95.714,376a7.714,7.714,0,1,0,7.714,7.714A7.724,7.724,0,0,0,95.714,376Zm0,10.286a2.571,2.571,0,1,1,2.571-2.571A2.572,2.572,0,0,1,95.714,386.286Z" transform="translate(-62.285 -257.712)"/>
      <path id="Trazado_270145" data-name="Trazado 270145" d="M77.827,117.714,74.738,113.6A66.348,66.348,0,0,0,48,167.087c0,.895.018,1.782.054,2.669l5.138-.2c-.031-.82-.049-1.646-.049-2.474a61.244,61.244,0,0,1,24.684-49.372Z" transform="translate(-35.143 -79.657)"/>
      <path id="Trazado_270146" data-name="Trazado 270146" d="M207.312,466.44l-1.232,4.991a67.358,67.358,0,0,0,32.089,0l-1.232-4.991a62.588,62.588,0,0,1-29.626,0Z" transform="translate(-142.41 -319.082)"/>
      <path id="Trazado_270147" data-name="Trazado 270147" d="M400.986,169.756c.036-.887.054-1.774.054-2.669A66.353,66.353,0,0,0,374.3,113.6l-3.088,4.114A61.248,61.248,0,0,1,395.9,167.087c0,.828-.018,1.653-.049,2.474Z" transform="translate(-254.466 -79.657)"/>
    </g>
  </g>
</svg>
