<svg xmlns="http://www.w3.org/2000/svg" xmlns:xlink="http://www.w3.org/1999/xlink" width="433.268" height="308" viewBox="0 0 433.268 308">
  <defs>
    <linearGradient id="linear-gradient" x1="0.5" x2="0.5" y2="1" gradientUnits="objectBoundingBox">
      <stop offset="0" stop-color="#ba68c8"/>
      <stop offset="0.19" stop-color="#9139af"/>
      <stop offset="0.31" stop-color="#7b1fa2"/>
      <stop offset="1" stop-color="#45147b"/>
    </linearGradient>
    <linearGradient id="linear-gradient-2" x1="0.5" x2="0.5" y2="1" gradientUnits="objectBoundingBox">
      <stop offset="0" stop-color="#93eac2"/>
      <stop offset="1" stop-color="#20cb7d"/>
    </linearGradient>
    <clipPath id="clip-path">
      <ellipse id="Elipse_3994" data-name="Elipse 3994" cx="153.5" cy="154" rx="153.5" ry="154" transform="translate(0.122 -0.403)" fill="#fff"/>
    </clipPath>
  </defs>
  <g id="Grupo_172661" data-name="Grupo 172661" transform="translate(-10544 -5288.604)">
    <g id="Grupo_150206" data-name="Grupo 150206" transform="translate(10544 5288.607)">
      <g id="Grupo_130729" data-name="Grupo 130729" transform="translate(0 8.17)">
        <g id="Grupo_79815" data-name="Grupo 79815" transform="translate(0 0)">
          <g id="Grupo_79776" data-name="Grupo 79776" transform="translate(0 0)">
            <g id="Grupo_79644" data-name="Grupo 79644">
              <path id="Trazado_145968" data-name="Trazado 145968" d="M81.274,0A81.274,81.274,0,1,1,0,81.274,81.274,81.274,0,0,1,81.274,0Z" transform="translate(242.997 125.425)" fill="#fda929" opacity="0.28" style="mix-blend-mode: multiply;isolation: isolate"/>
              <path id="Trazado_145969" data-name="Trazado 145969" d="M55.535,0A55.535,55.535,0,1,1,0,55.535,55.535,55.535,0,0,1,55.535,0Z" transform="translate(45.408 20.614)" opacity="0.6" fill="url(#linear-gradient)" style="mix-blend-mode: multiply;isolation: isolate"/>
              <rect id="Rectángulo_34812" data-name="Rectángulo 34812" width="433.268" height="299.48" fill="none"/>
              <path id="Trazado_145971" data-name="Trazado 145971" d="M35.1,0A35.1,35.1,0,1,1,0,35.1,35.1,35.1,0,0,1,35.1,0Z" transform="translate(60.324 199.013)" opacity="0.444" fill="url(#linear-gradient-2)" style="mix-blend-mode: multiply;isolation: isolate"/>
              <g id="Grupo_78276" data-name="Grupo 78276" transform="translate(273.506 164.283)">
                <g id="Grupo_53306" data-name="Grupo 53306" transform="translate(0)">
                  <path id="Trazado_99200" data-name="Trazado 99200" d="M416.421,51.279a1.1,1.1,0,1,1-1.1-1.055A1.08,1.08,0,0,1,416.421,51.279Z" transform="translate(-414.214 -50.224)" fill="#fff"/>
                  <path id="Trazado_99201" data-name="Trazado 99201" d="M424.867,51.279a1.1,1.1,0,1,1-1.1-1.055A1.08,1.08,0,0,1,424.867,51.279Z" transform="translate(-412.728 -50.224)" fill="#fff"/>
                  <path id="Trazado_99202" data-name="Trazado 99202" d="M433.313,51.279a1.1,1.1,0,1,1-1.1-1.055A1.08,1.08,0,0,1,433.313,51.279Z" transform="translate(-411.242 -50.224)" fill="#fff"/>
                  <path id="Trazado_99203" data-name="Trazado 99203" d="M441.76,51.279a1.1,1.1,0,1,1-1.1-1.055A1.08,1.08,0,0,1,441.76,51.279Z" transform="translate(-409.756 -50.224)" fill="#fff"/>
                  <path id="Trazado_99204" data-name="Trazado 99204" d="M450.206,51.279a1.1,1.1,0,1,1-1.1-1.055A1.08,1.08,0,0,1,450.206,51.279Z" transform="translate(-408.269 -50.224)" fill="#fff"/>
                  <path id="Trazado_99205" data-name="Trazado 99205" d="M458.652,51.279a1.1,1.1,0,1,1-1.1-1.055A1.08,1.08,0,0,1,458.652,51.279Z" transform="translate(-406.784 -50.224)" fill="#fff"/>
                  <path id="Trazado_99206" data-name="Trazado 99206" d="M467.1,51.279a1.1,1.1,0,1,1-1.1-1.055A1.081,1.081,0,0,1,467.1,51.279Z" transform="translate(-405.297 -50.224)" fill="#fff"/>
                  <path id="Trazado_99207" data-name="Trazado 99207" d="M475.545,51.279a1.1,1.1,0,1,1-1.1-1.055A1.08,1.08,0,0,1,475.545,51.279Z" transform="translate(-403.811 -50.224)" fill="#fff"/>
                  <path id="Trazado_99208" data-name="Trazado 99208" d="M483.991,51.279a1.1,1.1,0,1,1-1.1-1.055A1.08,1.08,0,0,1,483.991,51.279Z" transform="translate(-402.325 -50.224)" fill="#fff"/>
                  <path id="Trazado_99209" data-name="Trazado 99209" d="M492.438,51.279a1.1,1.1,0,1,1-1.1-1.055A1.081,1.081,0,0,1,492.438,51.279Z" transform="translate(-400.839 -50.224)" fill="#fff"/>
                  <path id="Trazado_99210" data-name="Trazado 99210" d="M500.884,51.279a1.1,1.1,0,1,1-1.1-1.055A1.08,1.08,0,0,1,500.884,51.279Z" transform="translate(-399.353 -50.224)" fill="#fff"/>
                </g>
                <g id="Grupo_53307" data-name="Grupo 53307" transform="translate(0 8.443)">
                  <path id="Trazado_99211" data-name="Trazado 99211" d="M416.421,58.787a1.1,1.1,0,1,1-1.1-1.055A1.08,1.08,0,0,1,416.421,58.787Z" transform="translate(-414.214 -57.732)" fill="#fff"/>
                  <path id="Trazado_99212" data-name="Trazado 99212" d="M424.867,58.787a1.1,1.1,0,1,1-1.1-1.055A1.08,1.08,0,0,1,424.867,58.787Z" transform="translate(-412.728 -57.732)" fill="#fff"/>
                  <path id="Trazado_99213" data-name="Trazado 99213" d="M433.313,58.787a1.1,1.1,0,1,1-1.1-1.055A1.08,1.08,0,0,1,433.313,58.787Z" transform="translate(-411.242 -57.732)" fill="#fff"/>
                  <path id="Trazado_99214" data-name="Trazado 99214" d="M441.76,58.787a1.1,1.1,0,1,1-1.1-1.055A1.08,1.08,0,0,1,441.76,58.787Z" transform="translate(-409.756 -57.732)" fill="#fff"/>
                  <path id="Trazado_99215" data-name="Trazado 99215" d="M450.206,58.787a1.1,1.1,0,1,1-1.1-1.055A1.08,1.08,0,0,1,450.206,58.787Z" transform="translate(-408.269 -57.732)" fill="#fff"/>
                  <path id="Trazado_99216" data-name="Trazado 99216" d="M458.652,58.787a1.1,1.1,0,1,1-1.1-1.055A1.08,1.08,0,0,1,458.652,58.787Z" transform="translate(-406.784 -57.732)" fill="#fff"/>
                  <path id="Trazado_99217" data-name="Trazado 99217" d="M467.1,58.787a1.1,1.1,0,1,1-1.1-1.055A1.081,1.081,0,0,1,467.1,58.787Z" transform="translate(-405.297 -57.732)" fill="#fff"/>
                  <path id="Trazado_99218" data-name="Trazado 99218" d="M475.545,58.787a1.1,1.1,0,1,1-1.1-1.055A1.08,1.08,0,0,1,475.545,58.787Z" transform="translate(-403.811 -57.732)" fill="#fff"/>
                  <path id="Trazado_99219" data-name="Trazado 99219" d="M483.991,58.787a1.1,1.1,0,1,1-1.1-1.055A1.08,1.08,0,0,1,483.991,58.787Z" transform="translate(-402.325 -57.732)" fill="#fff"/>
                  <path id="Trazado_99220" data-name="Trazado 99220" d="M492.438,58.787a1.1,1.1,0,1,1-1.1-1.055A1.081,1.081,0,0,1,492.438,58.787Z" transform="translate(-400.839 -57.732)" fill="#fff"/>
                  <path id="Trazado_99221" data-name="Trazado 99221" d="M500.884,58.787a1.1,1.1,0,1,1-1.1-1.055A1.08,1.08,0,0,1,500.884,58.787Z" transform="translate(-399.353 -57.732)" fill="#fff"/>
                </g>
                <g id="Grupo_53308" data-name="Grupo 53308" transform="translate(0 16.887)">
                  <ellipse id="Elipse_3955" data-name="Elipse 3955" cx="1.104" cy="1.055" rx="1.104" ry="1.055" fill="#fff"/>
                  <path id="Trazado_99222" data-name="Trazado 99222" d="M424.867,66.295a1.1,1.1,0,1,1-1.1-1.055A1.081,1.081,0,0,1,424.867,66.295Z" transform="translate(-412.728 -65.24)" fill="#fff"/>
                  <ellipse id="Elipse_3956" data-name="Elipse 3956" cx="1.104" cy="1.055" rx="1.104" ry="1.055" transform="translate(19.865)" fill="#fff"/>
                  <path id="Trazado_99223" data-name="Trazado 99223" d="M441.76,66.295a1.1,1.1,0,1,1-1.1-1.055A1.081,1.081,0,0,1,441.76,66.295Z" transform="translate(-409.756 -65.24)" fill="#fff"/>
                  <path id="Trazado_99224" data-name="Trazado 99224" d="M450.206,66.295a1.1,1.1,0,1,1-1.1-1.055A1.081,1.081,0,0,1,450.206,66.295Z" transform="translate(-408.269 -65.24)" fill="#fff"/>
                  <ellipse id="Elipse_3957" data-name="Elipse 3957" cx="1.104" cy="1.055" rx="1.104" ry="1.055" transform="translate(49.662)" fill="#fff"/>
                  <path id="Trazado_99225" data-name="Trazado 99225" d="M467.1,66.295A1.1,1.1,0,1,1,466,65.24,1.082,1.082,0,0,1,467.1,66.295Z" transform="translate(-405.297 -65.24)" fill="#fff"/>
                  <ellipse id="Elipse_3958" data-name="Elipse 3958" cx="1.104" cy="1.055" rx="1.104" ry="1.055" transform="translate(69.527)" fill="#fff"/>
                  <ellipse id="Elipse_3959" data-name="Elipse 3959" cx="1.104" cy="1.055" rx="1.104" ry="1.055" transform="translate(79.459)" fill="#fff"/>
                  <path id="Trazado_99226" data-name="Trazado 99226" d="M492.438,66.295a1.1,1.1,0,1,1-1.1-1.055A1.082,1.082,0,0,1,492.438,66.295Z" transform="translate(-400.839 -65.24)" fill="#fff"/>
                  <path id="Trazado_99227" data-name="Trazado 99227" d="M500.884,66.295a1.1,1.1,0,1,1-1.1-1.055A1.081,1.081,0,0,1,500.884,66.295Z" transform="translate(-399.353 -65.24)" fill="#fff"/>
                </g>
                <g id="Grupo_53309" data-name="Grupo 53309" transform="translate(0 25.329)">
                  <ellipse id="Elipse_3960" data-name="Elipse 3960" cx="1.104" cy="1.055" rx="1.104" ry="1.055" transform="translate(0 0)" fill="#fff"/>
                  <path id="Trazado_99228" data-name="Trazado 99228" d="M424.867,73.8a1.1,1.1,0,1,1-1.1-1.056A1.08,1.08,0,0,1,424.867,73.8Z" transform="translate(-412.728 -72.747)" fill="#fff"/>
                  <ellipse id="Elipse_3961" data-name="Elipse 3961" cx="1.104" cy="1.055" rx="1.104" ry="1.055" transform="translate(19.865 0)" fill="#fff"/>
                  <path id="Trazado_99229" data-name="Trazado 99229" d="M441.76,73.8a1.1,1.1,0,1,1-1.1-1.056A1.08,1.08,0,0,1,441.76,73.8Z" transform="translate(-409.756 -72.747)" fill="#fff"/>
                  <path id="Trazado_99230" data-name="Trazado 99230" d="M450.206,73.8a1.1,1.1,0,1,1-1.1-1.056A1.08,1.08,0,0,1,450.206,73.8Z" transform="translate(-408.269 -72.747)" fill="#fff"/>
                  <ellipse id="Elipse_3962" data-name="Elipse 3962" cx="1.104" cy="1.055" rx="1.104" ry="1.055" transform="translate(49.662 0)" fill="#fff"/>
                  <path id="Trazado_99231" data-name="Trazado 99231" d="M467.1,73.8a1.1,1.1,0,1,1-1.1-1.056A1.081,1.081,0,0,1,467.1,73.8Z" transform="translate(-405.297 -72.747)" fill="#fff"/>
                  <ellipse id="Elipse_3963" data-name="Elipse 3963" cx="1.104" cy="1.055" rx="1.104" ry="1.055" transform="translate(69.527 0)" fill="#fff"/>
                  <ellipse id="Elipse_3964" data-name="Elipse 3964" cx="1.104" cy="1.055" rx="1.104" ry="1.055" transform="translate(79.459 0)" fill="#fff"/>
                  <path id="Trazado_99232" data-name="Trazado 99232" d="M492.438,73.8a1.1,1.1,0,1,1-1.1-1.056A1.081,1.081,0,0,1,492.438,73.8Z" transform="translate(-400.839 -72.747)" fill="#fff"/>
                  <path id="Trazado_99233" data-name="Trazado 99233" d="M500.884,73.8a1.1,1.1,0,1,1-1.1-1.056A1.08,1.08,0,0,1,500.884,73.8Z" transform="translate(-399.353 -72.747)" fill="#fff"/>
                </g>
                <g id="Grupo_53310" data-name="Grupo 53310" transform="translate(0 33.772)">
                  <path id="Trazado_99234" data-name="Trazado 99234" d="M416.421,81.311a1.1,1.1,0,1,1-1.1-1.056A1.08,1.08,0,0,1,416.421,81.311Z" transform="translate(-414.214 -80.255)" fill="#fff"/>
                  <path id="Trazado_99235" data-name="Trazado 99235" d="M424.867,81.311a1.1,1.1,0,1,1-1.1-1.056A1.08,1.08,0,0,1,424.867,81.311Z" transform="translate(-412.728 -80.255)" fill="#fff"/>
                  <path id="Trazado_99236" data-name="Trazado 99236" d="M433.313,81.311a1.1,1.1,0,1,1-1.1-1.056A1.08,1.08,0,0,1,433.313,81.311Z" transform="translate(-411.242 -80.255)" fill="#fff"/>
                  <path id="Trazado_99237" data-name="Trazado 99237" d="M441.76,81.311a1.1,1.1,0,1,1-1.1-1.056A1.08,1.08,0,0,1,441.76,81.311Z" transform="translate(-409.756 -80.255)" fill="#fff"/>
                  <path id="Trazado_99238" data-name="Trazado 99238" d="M450.206,81.311a1.1,1.1,0,1,1-1.1-1.056A1.08,1.08,0,0,1,450.206,81.311Z" transform="translate(-408.269 -80.255)" fill="#fff"/>
                  <path id="Trazado_99239" data-name="Trazado 99239" d="M458.652,81.311a1.1,1.1,0,1,1-1.1-1.056A1.08,1.08,0,0,1,458.652,81.311Z" transform="translate(-406.784 -80.255)" fill="#fff"/>
                  <path id="Trazado_99240" data-name="Trazado 99240" d="M467.1,81.311a1.1,1.1,0,1,1-1.1-1.056A1.081,1.081,0,0,1,467.1,81.311Z" transform="translate(-405.297 -80.255)" fill="#fff"/>
                  <path id="Trazado_99241" data-name="Trazado 99241" d="M475.545,81.311a1.1,1.1,0,1,1-1.1-1.056A1.08,1.08,0,0,1,475.545,81.311Z" transform="translate(-403.811 -80.255)" fill="#fff"/>
                  <path id="Trazado_99242" data-name="Trazado 99242" d="M483.991,81.311a1.1,1.1,0,1,1-1.1-1.056A1.08,1.08,0,0,1,483.991,81.311Z" transform="translate(-402.325 -80.255)" fill="#fff"/>
                  <path id="Trazado_99243" data-name="Trazado 99243" d="M492.438,81.311a1.1,1.1,0,1,1-1.1-1.056A1.081,1.081,0,0,1,492.438,81.311Z" transform="translate(-400.839 -80.255)" fill="#fff"/>
                  <path id="Trazado_99244" data-name="Trazado 99244" d="M500.884,81.311a1.1,1.1,0,1,1-1.1-1.056A1.08,1.08,0,0,1,500.884,81.311Z" transform="translate(-399.353 -80.255)" fill="#fff"/>
                </g>
                <g id="Grupo_53311" data-name="Grupo 53311" transform="translate(0 42.216)">
                  <ellipse id="Elipse_3965" data-name="Elipse 3965" cx="1.104" cy="1.055" rx="1.104" ry="1.055" transform="translate(0 0)" fill="#fff"/>
                  <path id="Trazado_99245" data-name="Trazado 99245" d="M424.867,88.819a1.1,1.1,0,1,1-1.1-1.056A1.08,1.08,0,0,1,424.867,88.819Z" transform="translate(-412.728 -87.763)" fill="#fff"/>
                  <ellipse id="Elipse_3966" data-name="Elipse 3966" cx="1.104" cy="1.055" rx="1.104" ry="1.055" transform="translate(19.865 0)" fill="#fff"/>
                  <path id="Trazado_99246" data-name="Trazado 99246" d="M441.76,88.819a1.1,1.1,0,1,1-1.1-1.056A1.08,1.08,0,0,1,441.76,88.819Z" transform="translate(-409.756 -87.763)" fill="#fff"/>
                  <path id="Trazado_99247" data-name="Trazado 99247" d="M450.206,88.819a1.1,1.1,0,1,1-1.1-1.056A1.08,1.08,0,0,1,450.206,88.819Z" transform="translate(-408.269 -87.763)" fill="#fff"/>
                  <ellipse id="Elipse_3967" data-name="Elipse 3967" cx="1.104" cy="1.055" rx="1.104" ry="1.055" transform="translate(49.662 0)" fill="#fff"/>
                  <path id="Trazado_99248" data-name="Trazado 99248" d="M467.1,88.819a1.1,1.1,0,1,1-1.1-1.056A1.081,1.081,0,0,1,467.1,88.819Z" transform="translate(-405.297 -87.763)" fill="#fff"/>
                  <ellipse id="Elipse_3968" data-name="Elipse 3968" cx="1.104" cy="1.055" rx="1.104" ry="1.055" transform="translate(69.527 0)" fill="#fff"/>
                  <ellipse id="Elipse_3969" data-name="Elipse 3969" cx="1.104" cy="1.055" rx="1.104" ry="1.055" transform="translate(79.459 0)" fill="#fff"/>
                  <path id="Trazado_99249" data-name="Trazado 99249" d="M492.438,88.819a1.1,1.1,0,1,1-1.1-1.056A1.081,1.081,0,0,1,492.438,88.819Z" transform="translate(-400.839 -87.763)" fill="#fff"/>
                  <path id="Trazado_99250" data-name="Trazado 99250" d="M500.884,88.819a1.1,1.1,0,1,1-1.1-1.056A1.08,1.08,0,0,1,500.884,88.819Z" transform="translate(-399.353 -87.763)" fill="#fff"/>
                </g>
                <g id="Grupo_53312" data-name="Grupo 53312" transform="translate(0 50.659)">
                  <ellipse id="Elipse_3970" data-name="Elipse 3970" cx="1.104" cy="1.055" rx="1.104" ry="1.055" fill="#fff"/>
                  <path id="Trazado_99251" data-name="Trazado 99251" d="M424.867,96.326a1.1,1.1,0,1,1-1.1-1.055A1.08,1.08,0,0,1,424.867,96.326Z" transform="translate(-412.728 -95.271)" fill="#fff"/>
                  <ellipse id="Elipse_3971" data-name="Elipse 3971" cx="1.104" cy="1.055" rx="1.104" ry="1.055" transform="translate(19.865)" fill="#fff"/>
                  <path id="Trazado_99252" data-name="Trazado 99252" d="M441.76,96.326a1.1,1.1,0,1,1-1.1-1.055A1.08,1.08,0,0,1,441.76,96.326Z" transform="translate(-409.756 -95.271)" fill="#fff"/>
                  <path id="Trazado_99253" data-name="Trazado 99253" d="M450.206,96.326a1.1,1.1,0,1,1-1.1-1.055A1.08,1.08,0,0,1,450.206,96.326Z" transform="translate(-408.269 -95.271)" fill="#fff"/>
                  <ellipse id="Elipse_3972" data-name="Elipse 3972" cx="1.104" cy="1.055" rx="1.104" ry="1.055" transform="translate(49.662)" fill="#fff"/>
                  <path id="Trazado_99254" data-name="Trazado 99254" d="M467.1,96.326a1.1,1.1,0,1,1-1.1-1.055A1.081,1.081,0,0,1,467.1,96.326Z" transform="translate(-405.297 -95.271)" fill="#fff"/>
                  <ellipse id="Elipse_3973" data-name="Elipse 3973" cx="1.104" cy="1.055" rx="1.104" ry="1.055" transform="translate(69.527)" fill="#fff"/>
                  <ellipse id="Elipse_3974" data-name="Elipse 3974" cx="1.104" cy="1.055" rx="1.104" ry="1.055" transform="translate(79.459)" fill="#fff"/>
                  <path id="Trazado_99255" data-name="Trazado 99255" d="M492.438,96.326a1.1,1.1,0,1,1-1.1-1.055A1.081,1.081,0,0,1,492.438,96.326Z" transform="translate(-400.839 -95.271)" fill="#fff"/>
                  <path id="Trazado_99256" data-name="Trazado 99256" d="M500.884,96.326a1.1,1.1,0,1,1-1.1-1.055A1.08,1.08,0,0,1,500.884,96.326Z" transform="translate(-399.353 -95.271)" fill="#fff"/>
                </g>
                <g id="Grupo_53313" data-name="Grupo 53313" transform="translate(0 59.102)">
                  <path id="Trazado_99257" data-name="Trazado 99257" d="M416.421,103.834a1.1,1.1,0,1,1-1.1-1.055A1.08,1.08,0,0,1,416.421,103.834Z" transform="translate(-414.214 -102.779)" fill="#fff"/>
                  <path id="Trazado_99258" data-name="Trazado 99258" d="M424.867,103.834a1.1,1.1,0,1,1-1.1-1.055A1.08,1.08,0,0,1,424.867,103.834Z" transform="translate(-412.728 -102.779)" fill="#fff"/>
                  <path id="Trazado_99259" data-name="Trazado 99259" d="M433.313,103.834a1.1,1.1,0,1,1-1.1-1.055A1.08,1.08,0,0,1,433.313,103.834Z" transform="translate(-411.242 -102.779)" fill="#fff"/>
                  <path id="Trazado_99260" data-name="Trazado 99260" d="M441.76,103.834a1.1,1.1,0,1,1-1.1-1.055A1.08,1.08,0,0,1,441.76,103.834Z" transform="translate(-409.756 -102.779)" fill="#fff"/>
                  <path id="Trazado_99261" data-name="Trazado 99261" d="M450.206,103.834a1.1,1.1,0,1,1-1.1-1.055A1.08,1.08,0,0,1,450.206,103.834Z" transform="translate(-408.269 -102.779)" fill="#fff"/>
                  <path id="Trazado_99262" data-name="Trazado 99262" d="M458.652,103.834a1.1,1.1,0,1,1-1.1-1.055A1.08,1.08,0,0,1,458.652,103.834Z" transform="translate(-406.784 -102.779)" fill="#fff"/>
                  <path id="Trazado_99263" data-name="Trazado 99263" d="M467.1,103.834a1.1,1.1,0,1,1-1.1-1.055A1.081,1.081,0,0,1,467.1,103.834Z" transform="translate(-405.297 -102.779)" fill="#fff"/>
                  <path id="Trazado_99264" data-name="Trazado 99264" d="M475.545,103.834a1.1,1.1,0,1,1-1.1-1.055A1.08,1.08,0,0,1,475.545,103.834Z" transform="translate(-403.811 -102.779)" fill="#fff"/>
                  <path id="Trazado_99265" data-name="Trazado 99265" d="M483.991,103.834a1.1,1.1,0,1,1-1.1-1.055A1.08,1.08,0,0,1,483.991,103.834Z" transform="translate(-402.325 -102.779)" fill="#fff"/>
                  <path id="Trazado_99266" data-name="Trazado 99266" d="M492.438,103.834a1.1,1.1,0,1,1-1.1-1.055A1.081,1.081,0,0,1,492.438,103.834Z" transform="translate(-400.839 -102.779)" fill="#fff"/>
                  <path id="Trazado_99267" data-name="Trazado 99267" d="M500.884,103.834a1.1,1.1,0,1,1-1.1-1.055A1.08,1.08,0,0,1,500.884,103.834Z" transform="translate(-399.353 -102.779)" fill="#fff"/>
                </g>
                <g id="Grupo_53314" data-name="Grupo 53314" transform="translate(0 67.546)">
                  <ellipse id="Elipse_3975" data-name="Elipse 3975" cx="1.104" cy="1.055" rx="1.104" ry="1.055" fill="#fff"/>
                  <path id="Trazado_99268" data-name="Trazado 99268" d="M424.867,111.342a1.1,1.1,0,1,1-1.1-1.055A1.081,1.081,0,0,1,424.867,111.342Z" transform="translate(-412.728 -110.287)" fill="#fff"/>
                  <ellipse id="Elipse_3976" data-name="Elipse 3976" cx="1.104" cy="1.055" rx="1.104" ry="1.055" transform="translate(19.865)" fill="#fff"/>
                  <path id="Trazado_99269" data-name="Trazado 99269" d="M441.76,111.342a1.1,1.1,0,1,1-1.1-1.055A1.081,1.081,0,0,1,441.76,111.342Z" transform="translate(-409.756 -110.287)" fill="#fff"/>
                  <path id="Trazado_99270" data-name="Trazado 99270" d="M450.206,111.342a1.1,1.1,0,1,1-1.1-1.055A1.081,1.081,0,0,1,450.206,111.342Z" transform="translate(-408.269 -110.287)" fill="#fff"/>
                  <ellipse id="Elipse_3977" data-name="Elipse 3977" cx="1.104" cy="1.055" rx="1.104" ry="1.055" transform="translate(49.662)" fill="#fff"/>
                  <path id="Trazado_99271" data-name="Trazado 99271" d="M467.1,111.342a1.1,1.1,0,1,1-1.1-1.055A1.082,1.082,0,0,1,467.1,111.342Z" transform="translate(-405.297 -110.287)" fill="#fff"/>
                  <ellipse id="Elipse_3978" data-name="Elipse 3978" cx="1.104" cy="1.055" rx="1.104" ry="1.055" transform="translate(69.527)" fill="#fff"/>
                  <ellipse id="Elipse_3979" data-name="Elipse 3979" cx="1.104" cy="1.055" rx="1.104" ry="1.055" transform="translate(79.459)" fill="#fff"/>
                  <path id="Trazado_99272" data-name="Trazado 99272" d="M492.438,111.342a1.1,1.1,0,1,1-1.1-1.055A1.082,1.082,0,0,1,492.438,111.342Z" transform="translate(-400.839 -110.287)" fill="#fff"/>
                  <path id="Trazado_99273" data-name="Trazado 99273" d="M500.884,111.342a1.1,1.1,0,1,1-1.1-1.055A1.081,1.081,0,0,1,500.884,111.342Z" transform="translate(-399.353 -110.287)" fill="#fff"/>
                </g>
                <g id="Grupo_53315" data-name="Grupo 53315" transform="translate(0 75.988)">
                  <path id="Trazado_99274" data-name="Trazado 99274" d="M416.421,118.85a1.1,1.1,0,1,1-1.1-1.056A1.081,1.081,0,0,1,416.421,118.85Z" transform="translate(-414.214 -117.794)" fill="#fff"/>
                  <path id="Trazado_99275" data-name="Trazado 99275" d="M424.867,118.85a1.1,1.1,0,1,1-1.1-1.056A1.081,1.081,0,0,1,424.867,118.85Z" transform="translate(-412.728 -117.794)" fill="#fff"/>
                  <path id="Trazado_99276" data-name="Trazado 99276" d="M433.313,118.85a1.1,1.1,0,1,1-1.1-1.056A1.081,1.081,0,0,1,433.313,118.85Z" transform="translate(-411.242 -117.794)" fill="#fff"/>
                  <path id="Trazado_99277" data-name="Trazado 99277" d="M441.76,118.85a1.1,1.1,0,1,1-1.1-1.056A1.081,1.081,0,0,1,441.76,118.85Z" transform="translate(-409.756 -117.794)" fill="#fff"/>
                  <path id="Trazado_99278" data-name="Trazado 99278" d="M450.206,118.85a1.1,1.1,0,1,1-1.1-1.056A1.081,1.081,0,0,1,450.206,118.85Z" transform="translate(-408.269 -117.794)" fill="#fff"/>
                  <path id="Trazado_99279" data-name="Trazado 99279" d="M458.652,118.85a1.1,1.1,0,1,1-1.1-1.056A1.081,1.081,0,0,1,458.652,118.85Z" transform="translate(-406.784 -117.794)" fill="#fff"/>
                  <path id="Trazado_99280" data-name="Trazado 99280" d="M467.1,118.85a1.1,1.1,0,1,1-1.1-1.056A1.082,1.082,0,0,1,467.1,118.85Z" transform="translate(-405.297 -117.794)" fill="#fff"/>
                  <path id="Trazado_99281" data-name="Trazado 99281" d="M475.545,118.85a1.1,1.1,0,1,1-1.1-1.056A1.081,1.081,0,0,1,475.545,118.85Z" transform="translate(-403.811 -117.794)" fill="#fff"/>
                  <path id="Trazado_99282" data-name="Trazado 99282" d="M483.991,118.85a1.1,1.1,0,1,1-1.1-1.056A1.081,1.081,0,0,1,483.991,118.85Z" transform="translate(-402.325 -117.794)" fill="#fff"/>
                  <path id="Trazado_99283" data-name="Trazado 99283" d="M492.438,118.85a1.1,1.1,0,1,1-1.1-1.056A1.082,1.082,0,0,1,492.438,118.85Z" transform="translate(-400.839 -117.794)" fill="#fff"/>
                  <path id="Trazado_99284" data-name="Trazado 99284" d="M500.884,118.85a1.1,1.1,0,1,1-1.1-1.056A1.081,1.081,0,0,1,500.884,118.85Z" transform="translate(-399.353 -117.794)" fill="#fff"/>
                </g>
                <g id="Grupo_53316" data-name="Grupo 53316" transform="translate(0 84.431)">
                  <ellipse id="Elipse_3980" data-name="Elipse 3980" cx="1.104" cy="1.055" rx="1.104" ry="1.055" transform="translate(0 0)" fill="#fff"/>
                  <path id="Trazado_99285" data-name="Trazado 99285" d="M424.867,126.358a1.1,1.1,0,1,1-1.1-1.056A1.08,1.08,0,0,1,424.867,126.358Z" transform="translate(-412.728 -125.302)" fill="#fff"/>
                  <ellipse id="Elipse_3981" data-name="Elipse 3981" cx="1.104" cy="1.055" rx="1.104" ry="1.055" transform="translate(19.865 0)" fill="#fff"/>
                  <path id="Trazado_99286" data-name="Trazado 99286" d="M441.76,126.358a1.1,1.1,0,1,1-1.1-1.056A1.08,1.08,0,0,1,441.76,126.358Z" transform="translate(-409.756 -125.302)" fill="#fff"/>
                  <path id="Trazado_99287" data-name="Trazado 99287" d="M450.206,126.358a1.1,1.1,0,1,1-1.1-1.056A1.08,1.08,0,0,1,450.206,126.358Z" transform="translate(-408.269 -125.302)" fill="#fff"/>
                  <ellipse id="Elipse_3982" data-name="Elipse 3982" cx="1.104" cy="1.055" rx="1.104" ry="1.055" transform="translate(49.662 0)" fill="#fff"/>
                  <path id="Trazado_99288" data-name="Trazado 99288" d="M467.1,126.358A1.1,1.1,0,1,1,466,125.3,1.081,1.081,0,0,1,467.1,126.358Z" transform="translate(-405.297 -125.302)" fill="#fff"/>
                  <ellipse id="Elipse_3983" data-name="Elipse 3983" cx="1.104" cy="1.055" rx="1.104" ry="1.055" transform="translate(69.527 0)" fill="#fff"/>
                  <ellipse id="Elipse_3984" data-name="Elipse 3984" cx="1.104" cy="1.055" rx="1.104" ry="1.055" transform="translate(79.459 0)" fill="#fff"/>
                  <path id="Trazado_99289" data-name="Trazado 99289" d="M492.438,126.358a1.1,1.1,0,1,1-1.1-1.056A1.081,1.081,0,0,1,492.438,126.358Z" transform="translate(-400.839 -125.302)" fill="#fff"/>
                  <path id="Trazado_99290" data-name="Trazado 99290" d="M500.884,126.358a1.1,1.1,0,1,1-1.1-1.056A1.08,1.08,0,0,1,500.884,126.358Z" transform="translate(-399.353 -125.302)" fill="#fff"/>
                </g>
                <g id="Grupo_53317" data-name="Grupo 53317" transform="translate(0 92.876)">
                  <ellipse id="Elipse_3985" data-name="Elipse 3985" cx="1.104" cy="1.055" rx="1.104" ry="1.055" transform="translate(0 0)" fill="#fff"/>
                  <path id="Trazado_99291" data-name="Trazado 99291" d="M424.867,133.866a1.1,1.1,0,1,1-1.1-1.056A1.08,1.08,0,0,1,424.867,133.866Z" transform="translate(-412.728 -132.81)" fill="#fff"/>
                  <ellipse id="Elipse_3986" data-name="Elipse 3986" cx="1.104" cy="1.055" rx="1.104" ry="1.055" transform="translate(19.865 0)" fill="#fff"/>
                  <path id="Trazado_99292" data-name="Trazado 99292" d="M441.76,133.866a1.1,1.1,0,1,1-1.1-1.056A1.08,1.08,0,0,1,441.76,133.866Z" transform="translate(-409.756 -132.81)" fill="#fff"/>
                  <path id="Trazado_99293" data-name="Trazado 99293" d="M450.206,133.866a1.1,1.1,0,1,1-1.1-1.056A1.08,1.08,0,0,1,450.206,133.866Z" transform="translate(-408.269 -132.81)" fill="#fff"/>
                  <ellipse id="Elipse_3987" data-name="Elipse 3987" cx="1.104" cy="1.055" rx="1.104" ry="1.055" transform="translate(49.662 0)" fill="#fff"/>
                  <path id="Trazado_99294" data-name="Trazado 99294" d="M467.1,133.866a1.1,1.1,0,1,1-1.1-1.056A1.081,1.081,0,0,1,467.1,133.866Z" transform="translate(-405.297 -132.81)" fill="#fff"/>
                  <ellipse id="Elipse_3988" data-name="Elipse 3988" cx="1.104" cy="1.055" rx="1.104" ry="1.055" transform="translate(69.527 0)" fill="#fff"/>
                  <ellipse id="Elipse_3989" data-name="Elipse 3989" cx="1.104" cy="1.055" rx="1.104" ry="1.055" transform="translate(79.459 0)" fill="#fff"/>
                  <path id="Trazado_99295" data-name="Trazado 99295" d="M492.438,133.866a1.1,1.1,0,1,1-1.1-1.056A1.081,1.081,0,0,1,492.438,133.866Z" transform="translate(-400.839 -132.81)" fill="#fff"/>
                  <path id="Trazado_99296" data-name="Trazado 99296" d="M500.884,133.866a1.1,1.1,0,1,1-1.1-1.056A1.08,1.08,0,0,1,500.884,133.866Z" transform="translate(-399.353 -132.81)" fill="#fff"/>
                </g>
              </g>
            </g>
          </g>
        </g>
      </g>
      <g id="Enmascarar_grupo_130580" data-name="Enmascarar grupo 130580" transform="translate(85.146 0.4)" clip-path="url(#clip-path)">
        <rect id="_2205_w022_n001_639b_p15_639-_Convertido_" data-name="2205_w022_n001_639b_p15_639-[Convertido]" width="307.597" height="308.366" transform="translate(0 -0.347)" fill="#eef8ff"/>
      </g>
    </g>
    <g id="Grupo_163401" data-name="Grupo 163401" transform="translate(1886.109 -562)">
      <path id="Trazado_271516" data-name="Trazado 271516" d="M8911.066,6079.533h-67.933l-8.067-8-6.667-16,3.134-80h-34.2l-15.133-4.867-3.066-24.934h25.732V5904.4l11.533-11.533h149.4l8.867,11.533v80.467Z" fill="#fda929"/>
      <ellipse id="Elipse_6521" data-name="Elipse 6521" cx="59.5" cy="57.5" rx="59.5" ry="57.5" transform="translate(8899 5987)" fill="#cde6fa"/>
      <g id="Grupo_163394" data-name="Grupo 163394" transform="translate(8774.891 5889.045)">
        <path id="Trazado_271465" data-name="Trazado 271465" d="M645.393,5003.58H607.487a16.628,16.628,0,0,0,2.516-8.787v-3.062h28.371a3.982,3.982,0,0,0,0-7.964H606.022a3.981,3.981,0,0,0-3.981,3.982v7.044a8.787,8.787,0,1,1-17.574,0V4834.849a16.179,16.179,0,0,0-2.324-8.346H706.8a12.085,12.085,0,0,1,12.072,12.071V4901.6a3.982,3.982,0,0,0,7.964,0v-63.021A20.058,20.058,0,0,0,706.8,4818.54H567.936c-.076,0-.147.018-.221.022a16.317,16.317,0,0,0-15.867,16.287v38.125H527.293a3.981,3.981,0,0,0-3.982,3.98v14.269a18.271,18.271,0,0,0,18.25,18.25H576.5v85.319a16.769,16.769,0,0,0,16.75,16.751h52.14a3.982,3.982,0,1,0,0-7.964ZM531.274,4891.223v-10.286h20.573v10.286a10.286,10.286,0,0,1-20.573,0Zm25.348,10.284a18.128,18.128,0,0,0,3.189-10.284v-56.374a8.346,8.346,0,0,1,16.692,0v66.658Z" transform="translate(-523.311 -4818.54)" fill="#1e2235"/>
        <path id="Trazado_271466" data-name="Trazado 271466" d="M682.781,4848.379h-6.9a3.981,3.981,0,1,0,0,7.963h6.9a3.981,3.981,0,1,0,0-7.963Z" transform="translate(-503.938 -4814.649)" fill="#1e2235"/>
        <path id="Trazado_271467" data-name="Trazado 271467" d="M673.12,4856.342a3.981,3.981,0,1,0,0-7.963H611.537a3.981,3.981,0,0,0,0,7.963Z" transform="translate(-512.327 -4814.649)" fill="#1e2235"/>
        <path id="Trazado_271468" data-name="Trazado 271468" d="M594.629,4856.342h7.963a3.981,3.981,0,0,0,0-7.963h-7.963a3.981,3.981,0,1,0,0,7.963Z" transform="translate(-514.532 -4814.649)" fill="#1e2235"/>
        <path id="Trazado_271469" data-name="Trazado 271469" d="M683.945,4866.694H666.957a3.982,3.982,0,1,0,0,7.964h16.987a3.982,3.982,0,1,0,0-7.964Z" transform="translate(-505.102 -4812.261)" fill="#1e2235"/>
        <path id="Trazado_271470" data-name="Trazado 271470" d="M594.629,4874.658h67.955a3.982,3.982,0,0,0,0-7.964H594.629a3.982,3.982,0,1,0,0,7.964Z" transform="translate(-514.532 -4812.261)" fill="#1e2235"/>
        <path id="Trazado_271471" data-name="Trazado 271471" d="M692.091,4888.054a3.981,3.981,0,0,0-3.982-3.98H635.019a3.982,3.982,0,0,0,0,7.964h53.089A3.982,3.982,0,0,0,692.091,4888.054Z" transform="translate(-509.266 -4809.996)" fill="#1e2235"/>
        <path id="Trazado_271472" data-name="Trazado 271472" d="M594.629,4892.037h21.235a3.982,3.982,0,1,0,0-7.964H594.629a3.982,3.982,0,1,0,0,7.964Z" transform="translate(-514.532 -4809.996)" fill="#1e2235"/>
        <path id="Trazado_271473" data-name="Trazado 271473" d="M656.478,4905.9a3.98,3.98,0,0,0-3.981-3.98H594.629a3.982,3.982,0,1,0,0,7.964H652.5A3.98,3.98,0,0,0,656.478,4905.9Z" transform="translate(-514.532 -4807.668)" fill="#1e2235"/>
        <path id="Trazado_271474" data-name="Trazado 271474" d="M627.013,4937.613H594.629a3.982,3.982,0,1,0,0,7.964h32.384a3.982,3.982,0,1,0,0-7.964Z" transform="translate(-514.532 -4803.014)" fill="#1e2235"/>
        <path id="Trazado_271475" data-name="Trazado 271475" d="M634.711,4923.749a3.982,3.982,0,0,0-3.981-3.982h-36.1a3.982,3.982,0,0,0,0,7.965h36.1A3.982,3.982,0,0,0,634.711,4923.749Z" transform="translate(-514.532 -4805.34)" fill="#1e2235"/>
        <path id="Trazado_271476" data-name="Trazado 271476" d="M694.043,4900.148a62.881,62.881,0,1,0,62.881,62.88A62.952,62.952,0,0,0,694.043,4900.148Zm0,117.8a54.917,54.917,0,1,1,54.918-54.918A54.979,54.979,0,0,1,694.043,5017.946Z" transform="translate(-509.25 -4807.9)" fill="#1e2235"/>
        <path id="Trazado_271477" data-name="Trazado 271477" d="M689.7,4923.289a3.983,3.983,0,0,0-3.982,3.981v29.2H665.547a3.982,3.982,0,0,0,0,7.964H689.7a3.983,3.983,0,0,0,3.982-3.983v-33.18A3.982,3.982,0,0,0,689.7,4923.289Z" transform="translate(-505.286 -4804.883)" fill="#1e2235"/>
      </g>
    </g>
  </g>
</svg>
