<svg xmlns="http://www.w3.org/2000/svg" width="180" height="181.596" viewBox="0 0 180 181.596">
  <g id="Grupo_172652" data-name="Grupo 172652" transform="translate(-365.176 -752.37)">
    <circle id="Elipse_6159" data-name="Elipse 6159" cx="90" cy="90" r="90" transform="translate(365.176 752.37)" fill="#fff"/>
    <g id="Grupo_162759" data-name="Grupo 162759" transform="translate(370 769.392)">
      <g id="Grupo_162751" data-name="Grupo 162751" transform="translate(3.214 3.214)">
        <path id="Trazado_270150" data-name="Trazado 270150" d="M10,43.849H168.146V17.1a7.118,7.118,0,0,0-7.1-7.1H17.1A7.112,7.112,0,0,0,10,17.1Z" transform="translate(-10 -10)" fill="#7453d8" fill-rule="evenodd"/>
      </g>
      <g id="Grupo_162752" data-name="Grupo 162752" transform="translate(3.214 37.063)">
        <path id="Trazado_270151" data-name="Trazado 270151" d="M45.972,184.251A43.1,43.1,0,1,1,119.6,214.673h41.448a7.124,7.124,0,0,0,7.1-7.1V115.305H10v92.271a7.118,7.118,0,0,0,7.1,7.1H58.545A42.962,42.962,0,0,1,45.972,184.251Z" transform="translate(-10 -115.305)" fill="#fff" fill-rule="evenodd"/>
      </g>
      <g id="Grupo_162753" data-name="Grupo 162753" transform="translate(39.186 62.921)">
        <path id="Trazado_270152" data-name="Trazado 270152" d="M138.8,238.839a26.209,26.209,0,0,1,26.2-26.2V195.751a43.092,43.092,0,0,0-43.1,43.088Z" transform="translate(-121.91 -195.751)" fill="#ffec80" fill-rule="evenodd"/>
      </g>
      <g id="Grupo_162754" data-name="Grupo 162754" transform="translate(82.283 62.921)">
        <path id="Trazado_270153" data-name="Trazado 270153" d="M255.986,212.634a26.211,26.211,0,0,1,26.213,26.2h16.883a43.093,43.093,0,0,0-43.1-43.088Z" transform="translate(-255.986 -195.751)" fill="#ffec80" fill-rule="evenodd"/>
      </g>
      <g id="Grupo_162755" data-name="Grupo 162755" transform="translate(82.283 106.009)">
        <path id="Trazado_270154" data-name="Trazado 270154" d="M255.986,372.9a43.084,43.084,0,0,0,43.1-43.1H282.2a26.212,26.212,0,0,1-26.213,26.213Z" transform="translate(-255.986 -329.799)" fill="#ffec80" fill-rule="evenodd"/>
      </g>
      <g id="Grupo_162756" data-name="Grupo 162756" transform="translate(39.186 106.009)">
        <path id="Trazado_270155" data-name="Trazado 270155" d="M134.484,360.222A42.962,42.962,0,0,0,165.007,372.9V356.012A26.211,26.211,0,0,1,138.8,329.8H121.91a42.964,42.964,0,0,0,12.574,30.423Z" transform="translate(-121.91 -329.799)" fill="#ffec80" fill-rule="evenodd"/>
      </g>
      <g id="Grupo_162757" data-name="Grupo 162757" transform="translate(56.078 79.804)">
        <path id="Trazado_270156" data-name="Trazado 270156" d="M200.667,300.694a26.209,26.209,0,1,0-26.2-26.213A26.212,26.212,0,0,0,200.667,300.694Z" transform="translate(-174.463 -248.276)" fill="#a0e5a5" fill-rule="evenodd"/>
      </g>
      <g id="Grupo_162758" data-name="Grupo 162758">
        <path id="Trazado_270157" data-name="Trazado 270157" d="M384.146,55.853a3.215,3.215,0,0,0-3.214-3.214h-.018a3.214,3.214,0,1,0,3.233,3.214Z" transform="translate(-256.3 -35.719)"/>
        <path id="Trazado_270158" data-name="Trazado 270158" d="M438.117,55.853a3.215,3.215,0,0,0-3.214-3.214h-.018a3.214,3.214,0,1,0,3.233,3.214Z" transform="translate(-292.923 -35.719)"/>
        <path id="Trazado_270159" data-name="Trazado 270159" d="M330.176,55.853a3.215,3.215,0,0,0-3.214-3.214h-.018a3.214,3.214,0,1,0,3.233,3.214Z" transform="translate(-219.678 -35.719)"/>
        <path id="Trazado_270160" data-name="Trazado 270160" d="M60.263,55.853a3.214,3.214,0,0,0,3.214,3.214h48.3a3.214,3.214,0,0,0,0-6.429h-48.3A3.214,3.214,0,0,0,60.263,55.853Z" transform="translate(-40.892 -35.719)"/>
        <path id="Trazado_270161" data-name="Trazado 270161" d="M154.262,0H53.646a3.214,3.214,0,1,0,0,6.429H154.262a3.888,3.888,0,0,1,3.883,3.883V33.849H6.429V10.312a3.888,3.888,0,0,1,3.884-3.883h14.46a3.214,3.214,0,1,0,0-6.429H10.312A10.324,10.324,0,0,0,0,10.312V129.334a10.324,10.324,0,0,0,10.312,10.312H50.491a46.14,46.14,0,0,0,28.577,12.561v9.154a3.214,3.214,0,1,0,6.429,0v-9.154a46.152,46.152,0,0,0,28.583-12.561h40.182a10.324,10.324,0,0,0,10.312-10.312V10.312A10.323,10.323,0,0,0,154.262,0ZM79.068,145.761a39.942,39.942,0,0,1-36.529-36.538h10.5A29.477,29.477,0,0,0,79.068,135.26ZM42.539,102.794A39.937,39.937,0,0,1,79.068,66.265v10.5a29.473,29.473,0,0,0-26.028,26.028Zm39.743,26.213a22.994,22.994,0,1,1,23-23,23.021,23.021,0,0,1-23,23ZM85.5,76.766v-10.5a39.942,39.942,0,0,1,36.538,36.529h-10.5A29.477,29.477,0,0,0,85.5,76.766Zm0,68.995v-10.5a29.482,29.482,0,0,0,26.037-26.037h10.5A39.946,39.946,0,0,1,85.5,145.761Zm72.649-16.428a3.888,3.888,0,0,1-3.883,3.883H119.734a46.044,46.044,0,0,0,8.747-23.994h9.154a3.214,3.214,0,1,0,0-6.429H128.48A46.374,46.374,0,0,0,85.5,59.82V50.666a3.214,3.214,0,0,0-6.429,0V59.82a46.37,46.37,0,0,0-42.974,42.974H26.94a3.214,3.214,0,1,0,0,6.429h9.154a46.049,46.049,0,0,0,8.745,23.994H10.312a3.888,3.888,0,0,1-3.884-3.883V40.277H158.146Z"/>
        <path id="Trazado_270162" data-name="Trazado 270162" d="M241.252,298.694a3.214,3.214,0,0,0-4.528.4l-9.7,11.573-3.785-3.205a3.214,3.214,0,1,0-4.155,4.906l6.25,5.294a3.246,3.246,0,0,0,4.541-.389l11.772-14.049a3.214,3.214,0,0,0-.4-4.528Z" transform="translate(-147.894 -202.174)"/>
        <path id="Trazado_270163" data-name="Trazado 270163" d="M115.209,6.429h.009a3.219,3.219,0,1,0-.009,0Z" transform="translate(-75.996 0)"/>
      </g>
    </g>
  </g>
</svg>
