<svg xmlns="http://www.w3.org/2000/svg" xmlns:xlink="http://www.w3.org/1999/xlink" width="180" height="180" viewBox="0 0 180 180">
  <defs>
    <clipPath id="clip-path">
      <rect id="Rectángulo_298377" data-name="Rectángulo 298377" width="166.5" height="166.5" fill="none"/>
    </clipPath>
  </defs>
  <g id="Grupo_172654" data-name="Grupo 172654" transform="translate(-1067 -752.74)">
    <circle id="Elipse_6161" data-name="Elipse 6161" cx="90" cy="90" r="90" transform="translate(1067 752.74)" fill="#eef8ff"/>
    <g id="Grupo_162763" data-name="Grupo 162763" transform="translate(-8881 -1168)">
      <rect id="Rectángulo_298383" data-name="Rectángulo 298383" width="56" height="85" rx="14" transform="translate(10046 1931)" fill="#20cb7d"/>
      <path id="Trazado_270188" data-name="Trazado 270188" d="M10046,2002.076l7.5-4.076,4.5,4.076-4.5,7.924,7,4v9l-2.5,2.5v6.5l-4.5,6-7.5-3.5-6.5,8h-5.5v-8l-10,3.5-6.5-6,3-6.5-6.5-2.5v-9h6.5l-3-11.924,6.5-4.076,7.5,4.076,2.5-9.076h9.5Z" fill="#fda929"/>
      <g id="Rectángulo_298382" data-name="Rectángulo 298382" transform="translate(9984 1931)" fill="#cde6fa" stroke="#707070" stroke-width="1">
        <rect width="44" height="46" rx="8" stroke="none"/>
        <rect x="0.5" y="0.5" width="43" height="45" rx="7.5" fill="none"/>
      </g>
      <rect id="Rectángulo_298380" data-name="Rectángulo 298380" width="46" height="15" transform="translate(9973 2077)" fill="#fda929"/>
      <rect id="Rectángulo_298381" data-name="Rectángulo 298381" width="46" height="15" transform="translate(10056 2077)" fill="#fda929"/>
      <path id="Trazado_270186" data-name="Trazado 270186" d="M9963,1997.5V2037l11,16,4,23.5h38.5V2065s7-17-5-28-10-19-10-19l-5-5.5-6,3V2039l-7.5-5-5-11.5-4-29-8-3Z" fill="#fff"/>
      <path id="Trazado_270187" data-name="Trazado 270187" d="M10018.529,1997.5V2037l-11,16-4,23.5h-38.5V2065s-7-17,5-28,10-19,10-19l5-5.5,6,3V2039l7.5-5,5-11.5,4-29,8-3Z" transform="translate(93.471)" fill="#fff"/>
      <g id="g5466" transform="translate(9954.676 1929.023)">
        <g id="g5468" transform="translate(0 0)">
          <g id="Grupo_162761" data-name="Grupo 162761">
            <g id="Grupo_162760" data-name="Grupo 162760" clip-path="url(#clip-path)">
              <g id="g5470" transform="translate(6.536 0)">
                <path id="Trazado_270164" data-name="Trazado 270164" d="M115.912,618.515H69.045a2.439,2.439,0,0,1-2.439-2.439V600.261a2.439,2.439,0,0,1,2.439-2.439h46.867a2.439,2.439,0,0,1,2.439,2.439v15.815A2.439,2.439,0,0,1,115.912,618.515Zm-44.428-4.878h41.989V602.7H71.484Z" transform="translate(-56.897 -452.016)"/>
                <g id="g5478" transform="translate(27.171 103.592)">
                  <path id="Trazado_270165" data-name="Trazado 270165" d="M148.887,441.4a2.431,2.431,0,0,1-1.725-.715l-5.744-5.746a10.907,10.907,0,0,1-3.214-7.761,2.439,2.439,0,0,1,4.878,0,6.062,6.062,0,0,0,1.786,4.313l5.744,5.746a2.439,2.439,0,0,1-1.725,4.163Z" transform="translate(-138.204 -424.74)"/>
                </g>
                <g id="g5482" transform="translate(0 59.913)">
                  <path id="Trazado_270166" data-name="Trazado 270166" d="M81.764,336.422H43a2.439,2.439,0,0,1-2.439-2.439v-13.39a12.5,12.5,0,0,0-2.391-7.379l-4.378-6.044a36.523,36.523,0,0,1-6.99-21.562V254.56a9.037,9.037,0,0,1,2.7-6.407,8.6,8.6,0,0,1,6.208-2.5,8.787,8.787,0,0,1,8.572,8.594l3.269,29.1a12.293,12.293,0,0,0,6.479,9.522q-.055-.547-.055-1.1V274.941a7.658,7.658,0,0,1,7.134-7.705,7.585,7.585,0,0,1,7.94,6.384l1.594,10.111a7.089,7.089,0,0,0,2,3.925l7.468,7.468a2.439,2.439,0,1,1-3.449,3.449l-7.468-7.468a11.939,11.939,0,0,1-3.369-6.612l-1.594-10.108a2.719,2.719,0,0,0-.915-1.635,2.69,2.69,0,0,0-1.923-.644,2.812,2.812,0,0,0-2.54,2.836v16.827a6.049,6.049,0,0,0,1.079,3.457,2.439,2.439,0,0,1-2.312,3.807A17.15,17.15,0,0,1,42.7,283.894l-3.283-29.229a2.418,2.418,0,0,1-.015-.272,3.883,3.883,0,0,0-3.787-3.865,3.754,3.754,0,0,0-2.7,1.1,4.13,4.13,0,0,0-1.238,2.926v31.048a31.675,31.675,0,0,0,6.063,18.7l4.378,6.045a17.352,17.352,0,0,1,3.318,10.24v10.951H79.325v-4.682a11.236,11.236,0,0,1,1.124-4.884,20.747,20.747,0,0,0,1.386-14.533,2.439,2.439,0,1,1,4.706-1.284,25.625,25.625,0,0,1-1.7,17.95,6.328,6.328,0,0,0-.633,2.751v7.121A2.439,2.439,0,0,1,81.764,336.422Z" transform="translate(-26.799 -245.651)"/>
                </g>
                <g id="g5486" transform="translate(91.973 145.806)">
                  <path id="Trazado_270167" data-name="Trazado 270167" d="M453.206,618.515H426.849a2.439,2.439,0,0,1,0-4.878h23.918V602.7H408.778v10.938h6.854a2.439,2.439,0,1,1,0,4.878h-9.292a2.439,2.439,0,0,1-2.439-2.439V600.261a2.439,2.439,0,0,1,2.439-2.439h46.867a2.439,2.439,0,0,1,2.439,2.439v15.815A2.439,2.439,0,0,1,453.206,618.515Z" transform="translate(-403.9 -597.822)"/>
                </g>
                <g id="g5490" transform="translate(113.134 103.592)">
                  <path id="Trazado_270168" data-name="Trazado 270168" d="M493.1,441.4a2.439,2.439,0,0,1-1.725-4.163l5.744-5.746a6.062,6.062,0,0,0,1.786-4.313,2.439,2.439,0,0,1,4.878,0,10.906,10.906,0,0,1-3.214,7.761l-5.744,5.746A2.43,2.43,0,0,1,493.1,441.4Z" transform="translate(-490.662 -424.74)"/>
                </g>
                <g id="g5494" transform="translate(92.811 59.913)">
                  <path id="Trazado_270169" data-name="Trazado 270169" d="M451.753,336.422H412.986a2.439,2.439,0,0,1-2.439-2.439v-7.121a6.326,6.326,0,0,0-.633-2.75h0a25.374,25.374,0,0,1,4.06-28.3q.327-.35.669-.692l7.469-7.468a7.09,7.09,0,0,0,2-3.927l1.593-10.1a7.584,7.584,0,0,1,15.074,1.316v16.827q0,.556-.055,1.1a12.294,12.294,0,0,0,6.479-9.523l3.268-29.1a8.787,8.787,0,0,1,8.571-8.594,8.587,8.587,0,0,1,6.209,2.5,9.036,9.036,0,0,1,2.7,6.407v31.048a36.523,36.523,0,0,1-6.991,21.563l-4.377,6.044a12.5,12.5,0,0,0-2.392,7.379v13.39A2.439,2.439,0,0,1,451.753,336.422Zm-36.328-4.878h33.889V320.593a17.348,17.348,0,0,1,3.319-10.24l4.377-6.045a31.676,31.676,0,0,0,6.063-18.7V254.56a4.128,4.128,0,0,0-1.238-2.926,3.733,3.733,0,0,0-2.7-1.1,3.882,3.882,0,0,0-3.786,3.864,2.412,2.412,0,0,1-.015.272l-3.283,29.228a17.15,17.15,0,0,1-14.916,15.139,2.439,2.439,0,0,1-2.312-3.807,6.048,6.048,0,0,0,1.078-3.457V274.941a2.812,2.812,0,0,0-2.539-2.836,2.709,2.709,0,0,0-2.84,2.285l-1.592,10.1a11.939,11.939,0,0,1-3.369,6.614l-7.468,7.468q-.283.283-.557.576a20.468,20.468,0,0,0-3.235,22.831h0a11.237,11.237,0,0,1,1.124,4.883Z" transform="translate(-407.335 -245.651)"/>
                </g>
                <g id="g5498" transform="translate(50.051 62.778)">
                  <path id="Trazado_270170" data-name="Trazado 270170" d="M260.365,310.722h-3.378a5.5,5.5,0,0,1-5.3-4.044l-.733-2.686a.6.6,0,0,0-.345-.4l-.049-.02a.6.6,0,0,0-.525.036l-2.419,1.381a5.5,5.5,0,0,1-6.6-.886l-2.388-2.388a5.5,5.5,0,0,1-.886-6.6l1.381-2.417a.608.608,0,0,0,.035-.529l-.018-.044a.6.6,0,0,0-.4-.348l-2.685-.733a5.5,5.5,0,0,1-4.043-5.3V282.37a5.5,5.5,0,0,1,4.043-5.3l2.687-.733a.6.6,0,0,0,.4-.354l.012-.03h0a.606.606,0,0,0-.032-.537L237.743,273a5.5,5.5,0,0,1,.886-6.6l2.388-2.388a5.5,5.5,0,0,1,6.6-.886l2.418,1.381a.605.605,0,0,0,.531.034l.023-.01a.61.61,0,0,0,.366-.406l.733-2.685a5.5,5.5,0,0,1,5.3-4.043h3.378a5.5,5.5,0,0,1,5.3,4.044l.733,2.685a.6.6,0,0,0,.353.4l.039.016a.6.6,0,0,0,.527-.035l2.418-1.381a5.5,5.5,0,0,1,6.6.886l2.388,2.388a5.5,5.5,0,0,1,.885,6.6l-1.38,2.417a.6.6,0,0,0-.032.536l.019.046a.6.6,0,0,0,.394.339l2.685.733a5.5,5.5,0,0,1,4.044,5.3v3.378a5.5,5.5,0,0,1-4.044,5.3l-2.685.733a.6.6,0,0,0-.4.354l-.016.04a.6.6,0,0,0,.036.526l1.38,2.418a5.5,5.5,0,0,1-.885,6.6l-2.388,2.388a5.5,5.5,0,0,1-6.6.885l-2.417-1.38a.6.6,0,0,0-.529-.035l-.049.02a.6.6,0,0,0-.342.4l-.733,2.686A5.5,5.5,0,0,1,260.365,310.722Zm-7.907-11.641.014.005a5.449,5.449,0,0,1,3.192,3.622l.733,2.686a.613.613,0,0,0,.59.45h3.378a.613.613,0,0,0,.59-.45l.733-2.686a5.45,5.45,0,0,1,3.192-3.622l.024-.01a5.52,5.52,0,0,1,4.83.3l2.416,1.379a.612.612,0,0,0,.736-.1l2.388-2.388a.613.613,0,0,0,.1-.736l-1.38-2.417a5.448,5.448,0,0,1-.3-4.829l.01-.024a5.449,5.449,0,0,1,3.622-3.192l2.685-.733a.613.613,0,0,0,.451-.59V282.37a.614.614,0,0,0-.451-.59l-2.685-.733a5.451,5.451,0,0,1-3.623-3.193l-.013-.033a5.515,5.515,0,0,1,.3-4.82l1.379-2.417a.613.613,0,0,0-.1-.736l-2.388-2.388a.613.613,0,0,0-.737-.1l-2.417,1.38a5.523,5.523,0,0,1-4.828.3l-.036-.015a5.514,5.514,0,0,1-3.181-3.617l-.733-2.685a.613.613,0,0,0-.59-.451h-3.378a.613.613,0,0,0-.59.45l-.734,2.685a5.448,5.448,0,0,1-3.188,3.62h0l-.026.011a5.45,5.45,0,0,1-4.828-.3l-2.417-1.38a.612.612,0,0,0-.735.1l-2.388,2.388a.612.612,0,0,0-.1.735l1.38,2.418a5.525,5.525,0,0,1,.3,4.829l-.01.024a5.45,5.45,0,0,1-3.621,3.192l-2.687.733a.613.613,0,0,0-.45.59v3.378a.613.613,0,0,0,.45.59l2.686.733a5.45,5.45,0,0,1,3.622,3.192l0,.009.006.015a5.451,5.451,0,0,1-.3,4.828l-1.381,2.418a.613.613,0,0,0,.1.736l2.388,2.388a.612.612,0,0,0,.735.1l2.419-1.38a5.518,5.518,0,0,1,4.828-.3Zm.066.029,0,0Zm-.01,0,.01,0Zm0,0h0Zm12.359-.012h0Zm.089-.036h0Zm.012,0-.011,0Z" transform="translate(-232.013 -257.396)"/>
                </g>
                <g id="g5502" transform="translate(65.18 77.907)">
                  <path id="Trazado_270171" data-name="Trazado 270171" d="M305.578,342.494a11.534,11.534,0,1,1,11.534-11.534A11.547,11.547,0,0,1,305.578,342.494Zm0-18.19a6.656,6.656,0,1,0,6.656,6.656A6.663,6.663,0,0,0,305.578,324.3Z" transform="translate(-294.044 -319.427)"/>
                </g>
                <g id="g5506" transform="translate(83.369 0)">
                  <path id="Trazado_270172" data-name="Trazado 270172" d="M426.532,65.795a2.439,2.439,0,0,1-2.439-2.439V12.81a7.941,7.941,0,0,0-7.932-7.932H381.432A7.941,7.941,0,0,0,373.5,12.81v21.4a2.439,2.439,0,0,1-4.878,0V12.81A12.824,12.824,0,0,1,381.432,0h34.729a12.824,12.824,0,0,1,12.81,12.809V63.356A2.439,2.439,0,0,1,426.532,65.795Z" transform="translate(-368.622 -0.001)"/>
                </g>
                <g id="g5510" transform="translate(83.369 43.414)">
                  <path id="Trazado_270173" data-name="Trazado 270173" d="M371.061,209.335a2.439,2.439,0,0,1-2.439-2.439V180.439a2.439,2.439,0,0,1,4.878,0V206.9A2.439,2.439,0,0,1,371.061,209.335Z" transform="translate(-368.622 -178)"/>
                </g>
                <g id="g5514" transform="translate(98.379 84.473)">
                  <path id="Trazado_270174" data-name="Trazado 270174" d="M445.787,351.225H432.6a2.439,2.439,0,1,1,0-4.878h13.186a2.439,2.439,0,0,1,0,4.878Z" transform="translate(-430.162 -346.347)"/>
                </g>
                <g id="g5518" transform="translate(120.863 82.822)">
                  <path id="Trazado_270175" data-name="Trazado 270175" d="M532.4,346.109h-7.607a2.439,2.439,0,0,1,0-4.878H532.4a7.9,7.9,0,0,0,4.293-1.26,2.439,2.439,0,1,1,2.644,4.1A12.766,12.766,0,0,1,532.4,346.109Z" transform="translate(-522.35 -339.581)"/>
                </g>
                <g id="g5522" transform="translate(83.369 15.427)">
                  <path id="Trazado_270176" data-name="Trazado 270176" d="M426.532,68.131H371.061a2.439,2.439,0,1,1,0-4.878h55.471a2.439,2.439,0,0,1,0,4.878Z" transform="translate(-368.622 -63.253)"/>
                </g>
                <path id="Trazado_270177" data-name="Trazado 270177" d="M420.928,121h-9.643a2.439,2.439,0,0,1-2.439-2.439v-9.643a2.439,2.439,0,0,1,2.439-2.439h9.643a2.439,2.439,0,0,1,2.439,2.439v9.643A2.439,2.439,0,0,1,420.928,121Zm-7.2-4.878h4.765v-4.765h-4.765Z" transform="translate(-315.666 -80.512)"/>
                <path id="Trazado_270178" data-name="Trazado 270178" d="M420.928,203.773h-9.643a2.439,2.439,0,0,1-2.439-2.439v-9.643a2.439,2.439,0,0,1,2.439-2.439h9.643a2.439,2.439,0,0,1,2.439,2.439v9.643A2.439,2.439,0,0,1,420.928,203.773Zm-7.2-4.878h4.765V194.13h-4.765Z" transform="translate(-315.666 -143.094)"/>
                <g id="g5530" transform="translate(112.262 30.792)">
                  <path id="Trazado_270179" data-name="Trazado 270179" d="M505.8,131.129H489.526a2.439,2.439,0,1,1,0-4.878H505.8a2.439,2.439,0,1,1,0,4.878Z" transform="translate(-487.087 -126.251)"/>
                </g>
                <g id="g5534" transform="translate(112.262 46.158)">
                  <path id="Trazado_270180" data-name="Trazado 270180" d="M505.8,194.129H489.526a2.439,2.439,0,1,1,0-4.878H505.8a2.439,2.439,0,1,1,0,4.878Z" transform="translate(-487.087 -189.251)"/>
                </g>
                <g id="g5538" transform="translate(112.262 55.801)">
                  <path id="Trazado_270181" data-name="Trazado 270181" d="M498.642,233.669h-9.116a2.439,2.439,0,0,1,0-4.878h9.116a2.439,2.439,0,0,1,0,4.878Z" transform="translate(-487.087 -228.791)"/>
                </g>
                <g id="g5542" transform="translate(19.741)">
                  <path id="Trazado_270182" data-name="Trazado 270182" d="M150.248,50.317h-34.7a7.816,7.816,0,0,1-7.807-7.807V7.807A7.816,7.816,0,0,1,115.545,0h34.7a7.816,7.816,0,0,1,7.807,7.807v34.7A7.816,7.816,0,0,1,150.248,50.317Zm-34.7-45.439a2.932,2.932,0,0,0-2.929,2.929v34.7a2.932,2.932,0,0,0,2.929,2.929h34.7a2.932,2.932,0,0,0,2.929-2.929V7.807a2.932,2.932,0,0,0-2.929-2.929Z" transform="translate(-107.738)"/>
                </g>
                <g id="g5546" transform="translate(50.029 29.466)">
                  <path id="Trazado_270183" data-name="Trazado 270183" d="M234.36,141.666a2.439,2.439,0,0,1-1.769-4.117l15.152-15.973a2.439,2.439,0,0,1,3.539,3.357L236.13,140.906A2.434,2.434,0,0,1,234.36,141.666Z" transform="translate(-231.921 -120.815)"/>
                </g>
                <g id="g5550" transform="translate(31.963 13.113)">
                  <path id="Trazado_270184" data-name="Trazado 270184" d="M181.285,58.641H160.29a2.439,2.439,0,1,1,0-4.878h20.995a2.439,2.439,0,0,1,0,4.878Z" transform="translate(-157.851 -53.763)"/>
                </g>
                <g id="g5554" transform="translate(31.963 24.685)">
                  <path id="Trazado_270185" data-name="Trazado 270185" d="M174.057,106.089H160.29a2.439,2.439,0,0,1,0-4.878h13.767a2.439,2.439,0,1,1,0,4.878Z" transform="translate(-157.851 -101.211)"/>
                </g>
              </g>
            </g>
          </g>
        </g>
      </g>
    </g>
  </g>
</svg>
