<svg id="Page-1" xmlns="http://www.w3.org/2000/svg" width="194.078" height="194.043" viewBox="0 0 194.078 194.043">
  <g id="_061---Motherboard-Repair" data-name="061---Motherboard-Repair">
    <path id="Path" d="M333.91,282.155a51.755,51.755,0,0,1-99.726,19.408,50.987,50.987,0,0,1-3.785-19.408,51.755,51.755,0,0,1,103.51,0Z" transform="translate(-143.063 -143.063)" fill="#fda929" fill-rule="evenodd"/>
    <path id="Path-2" data-name="Path" d="M339.071,358.352,335,321.625a3.085,3.085,0,0,1,1.688-3.047,25.861,25.861,0,0,0,.86-45.2,2.216,2.216,0,0,0-3.3,1.941v12.868a3.2,3.2,0,0,1-1.423,2.659l-6.5,4.335a3.115,3.115,0,0,1-3.558,0l-6.47-4.3a3.262,3.262,0,0,1-1.456-2.714V275.314a2.216,2.216,0,0,0-3.293-1.941,25.832,25.832,0,0,0,.773,45.13,3.234,3.234,0,0,1,1.756,3.176l-4.056,36.672Z" transform="translate(-185.455 -169.572)" fill="#9e9e9e" fill-rule="evenodd"/>
    <path id="Path-3" data-name="Path" d="M380.292,318.578a25.861,25.861,0,0,0,.86-45.2,2.216,2.216,0,0,0-3.3,1.941v3.4a25.771,25.771,0,0,1-7.262,39.861,3.085,3.085,0,0,0-1.688,3.047l4.066,36.723h9.7L378.6,321.625a3.085,3.085,0,0,1,1.688-3.047Z" transform="translate(-229.054 -169.572)" fill="#707070" fill-rule="evenodd"/>
    <path id="Path-4" data-name="Path" d="M167.926,11.768V94.252a51.845,51.845,0,0,0-64.694,50.137,50.987,50.987,0,0,0,3.785,19.408H28.835a3.235,3.235,0,0,1-3.235-3.235V89.4h9.7a3.235,3.235,0,0,0,3.235-3.235V73.227A3.234,3.234,0,0,0,35.3,69.992H25.6V37.645h9.7a3.234,3.234,0,0,0,3.235-3.235v-9.7A3.234,3.234,0,0,0,35.3,21.472H25.6v-9.7a3.235,3.235,0,0,1,3.235-3.235H164.691A3.235,3.235,0,0,1,167.926,11.768Z" transform="translate(-15.896 -5.298)" fill="#20cb7d" fill-rule="evenodd"/>
    <path id="Path-5" data-name="Path" d="M261.407,230.646c-1.617-.146-3.215-.246-4.852-.246A51.755,51.755,0,0,0,204.8,282.155a50.987,50.987,0,0,0,3.785,19.408h9.7a50.987,50.987,0,0,1-3.785-19.408A51.729,51.729,0,0,1,261.407,230.646Z" transform="translate(-127.167 -143.063)" fill="#549414" fill-rule="evenodd"/>
    <path id="Path-6" data-name="Path" d="M376.637,8.533h-9.7a3.235,3.235,0,0,1,3.235,3.235V92.735a51.1,51.1,0,0,1,9.7,1.517V11.768A3.235,3.235,0,0,0,376.637,8.533Z" transform="translate(-227.842 -5.298)" fill="#549414" fill-rule="evenodd"/>
    <rect id="Rectangle" width="19.408" height="16.173" rx="8.087" transform="translate(3.235 16.173)" fill="#9e9e9e"/>
    <path id="Path-7" data-name="Path" d="M35.3,42.667H25.6A3.234,3.234,0,0,1,28.835,45.9v9.7A3.234,3.234,0,0,1,25.6,58.84h9.7a3.234,3.234,0,0,0,3.235-3.235V45.9A3.234,3.234,0,0,0,35.3,42.667Z" transform="translate(-15.896 -26.493)" fill="#707070" fill-rule="evenodd"/>
    <rect id="Rectangle-2" data-name="Rectangle" width="19.408" height="19.408" rx="8.533" transform="translate(3.235 64.694)" fill="#9e9e9e"/>
    <path id="Path-8" data-name="Path" d="M35.3,170.667H25.6a3.234,3.234,0,0,1,3.235,3.235V186.84a3.235,3.235,0,0,1-3.235,3.235h9.7a3.235,3.235,0,0,0,3.235-3.235V173.9A3.234,3.234,0,0,0,35.3,170.667Z" transform="translate(-15.896 -105.973)" fill="#707070" fill-rule="evenodd"/>
    <rect id="Rectangle-3" data-name="Rectangle" width="45.286" height="45.286" rx="8.533" transform="translate(35.582 16.173)" fill="#9e9e9e"/>
    <path id="Path-9" data-name="Path" d="M188.9,42.667h-9.7a3.234,3.234,0,0,1,3.235,3.235V84.718a3.234,3.234,0,0,1-3.235,3.235h9.7a3.234,3.234,0,0,0,3.235-3.235V45.9A3.234,3.234,0,0,0,188.9,42.667Z" transform="translate(-111.272 -26.493)" fill="#606060" fill-rule="evenodd"/>
    <rect id="Rectangle-4" data-name="Rectangle" width="12.939" height="58.224" rx="6.469" transform="translate(100.275 16.173)" fill="#fda929"/>
    <rect id="Rectangle-5" data-name="Rectangle" width="12.939" height="58.224" rx="6.469" transform="translate(126.153 16.173)" fill="#fda929"/>
    <path id="Path-10" data-name="Path" d="M144.107,294.539H88.568a3.235,3.235,0,0,1-3.235-3.235v-6.47a3.235,3.235,0,0,1,3.235-3.235h63.109" transform="translate(-52.986 -174.855)" fill="#fda929" fill-rule="evenodd"/>
    <path id="Path-11" data-name="Path" d="M140.743,362.806H88.568a3.235,3.235,0,0,1-3.235-3.235V353.1a3.235,3.235,0,0,1,3.235-3.235h52.175" transform="translate(-52.986 -217.245)" fill="#fda929" fill-rule="evenodd"/>
    <circle id="Oval" cx="9.704" cy="9.704" r="9.704" transform="translate(35.582 74.398)" fill="#9e9e9e"/>
    <circle id="Oval-2" data-name="Oval" cx="9.704" cy="9.704" r="9.704" transform="translate(67.928 74.398)" fill="#9e9e9e"/>
    <g id="Grupo_162778" data-name="Grupo 162778">
      <path id="Shape" d="M155.265,86.537V6.469A6.469,6.469,0,0,0,148.8,0H12.939A6.469,6.469,0,0,0,6.469,6.469v6.469A6.469,6.469,0,0,0,0,19.408v9.7a6.469,6.469,0,0,0,6.469,6.469V61.459A6.469,6.469,0,0,0,0,67.928V80.867a6.469,6.469,0,0,0,6.469,6.469v67.928a6.469,6.469,0,0,0,6.469,6.469h76.1a54.964,54.964,0,1,0,66.227-75.2ZM6.469,19.408H19.408v9.7H6.469Zm0,48.52H19.408V80.867H6.469Zm6.469,87.337V103.51h9.7a3.235,3.235,0,1,0,0-6.469h-9.7v-9.7h6.47a6.469,6.469,0,0,0,6.469-6.469V67.928a6.469,6.469,0,0,0-6.469-6.47h-6.47v-9.7h9.7a3.235,3.235,0,1,0,0-6.469h-9.7v-9.7h6.47a6.469,6.469,0,0,0,6.469-6.469v-9.7a6.469,6.469,0,0,0-6.469-6.47h-6.47V6.469H148.8V85.011a54.394,54.394,0,0,0-51.554,18.5H35.582a6.469,6.469,0,0,0-6.469,6.469v6.47a6.469,6.469,0,0,0,6.469,6.469H86.537a54.381,54.381,0,0,0-1.526,6.469H35.582a6.469,6.469,0,0,0-6.469,6.469v6.47a6.469,6.469,0,0,0,6.469,6.469H85.011a54.37,54.37,0,0,0,1.526,6.47Zm71.328-12.939H35.582v-6.47H84.267c-.065,1.077-.165,2.141-.165,3.235S84.2,141.249,84.267,142.326Zm4.771-25.878H35.582v-6.47h56.93a54.775,54.775,0,0,0-3.474,6.47Zm39.055,69.869,3.746-33.848a6.47,6.47,0,0,0-3.423-6.392,22.487,22.487,0,0,1-11.751-16.934,22.72,22.72,0,0,1,9.487-21.549v11a6.469,6.469,0,0,0,2.911,5.412l6.408,4.257a6.33,6.33,0,0,0,7.2.042l6.505-4.335a6.421,6.421,0,0,0,2.85-5.36V107.6a22.624,22.624,0,0,1-2.316,38.558,6.3,6.3,0,0,0-3.38,6.256l3.755,33.909a47.018,47.018,0,0,1-22,0Zm28.284-1.941-3.623-32.512a29.093,29.093,0,0,0,.97-50.846,5.331,5.331,0,0,0-5.412,0,5.48,5.48,0,0,0-2.753,4.723l.016,12.835-6.486,4.341-6.469-4.335V105.742A5.5,5.5,0,0,0,129.87,101a5.343,5.343,0,0,0-5.4,0,29.161,29.161,0,0,0-14.233,28.95,28.789,28.789,0,0,0,15.18,21.8L121.8,184.377a48.52,48.52,0,1,1,34.582,0Z"/>
      <path id="Path-12" data-name="Path" d="M361.635,426.667A3.235,3.235,0,0,0,358.4,429.9V442.84a3.235,3.235,0,1,0,6.47,0V429.9A3.235,3.235,0,0,0,361.635,426.667Z" transform="translate(-222.543 -264.933)" fill-rule="evenodd"/>
      <path id="Shape-2" data-name="Shape" d="M91.8,85.888h38.816a6.447,6.447,0,0,0,5.57-3.235h4.134a3.235,3.235,0,1,0,0-6.469h-3.235v-6.47h3.235a3.235,3.235,0,0,0,0-6.469h-3.235V56.776h3.235a3.235,3.235,0,0,0,0-6.469h-3.235v-6.47h3.235a3.235,3.235,0,1,0,0-6.469h-4.134a6.447,6.447,0,0,0-5.57-3.235H91.8a6.469,6.469,0,0,0-6.47,6.47V79.419A6.469,6.469,0,0,0,91.8,85.888Zm0-45.286h38.816V79.419H91.8Z" transform="translate(-52.986 -21.194)"/>
      <circle id="Oval-3" data-name="Oval" cx="3.235" cy="3.235" r="3.235" transform="translate(45.286 25.877)"/>
      <circle id="Oval-4" data-name="Oval" cx="3.235" cy="3.235" r="3.235" transform="translate(64.694 45.286)"/>
      <path id="Shape-3" data-name="Shape" d="M262.469,98.827h6.469a6.469,6.469,0,0,0,6.47-6.469V40.6a6.469,6.469,0,0,0-6.47-6.47h-6.469A6.469,6.469,0,0,0,256,40.6V92.357A6.469,6.469,0,0,0,262.469,98.827Zm0-58.224h6.469V92.357h-6.469Z" transform="translate(-158.959 -21.194)"/>
      <path id="Shape-4" data-name="Shape" d="M330.736,98.827h6.47a6.469,6.469,0,0,0,6.469-6.469V40.6a6.469,6.469,0,0,0-6.469-6.47h-6.47a6.469,6.469,0,0,0-6.469,6.47V92.357A6.469,6.469,0,0,0,330.736,98.827Zm0-58.224h6.47V92.357h-6.47Z" transform="translate(-201.349 -21.194)"/>
      <path id="Shape-5" data-name="Shape" d="M98.272,213.611a12.939,12.939,0,1,0-12.939-12.939A12.939,12.939,0,0,0,98.272,213.611Zm0-19.408a6.469,6.469,0,1,1-6.469,6.469A6.469,6.469,0,0,1,98.272,194.2Z" transform="translate(-52.986 -116.57)"/>
      <path id="Shape-6" data-name="Shape" d="M183.606,187.733a12.939,12.939,0,1,0,12.939,12.939A12.939,12.939,0,0,0,183.606,187.733Zm0,19.408a6.469,6.469,0,1,1,6.47-6.469A6.469,6.469,0,0,1,183.606,207.141Z" transform="translate(-105.973 -116.57)"/>
    </g>
  </g>
</svg>
