<svg id="Grupo_162783" data-name="Grupo 162783" xmlns="http://www.w3.org/2000/svg" width="202.421" height="148.442" viewBox="0 0 202.421 148.442">
  <circle id="Elipse_6459" data-name="Elipse 6459" cx="3.5" cy="3.5" r="3.5" transform="translate(20.991 111.491)" fill="#1081e0"/>
  <path id="Trazado_270368" data-name="Trazado 270368" d="M4,12.5V120.458H30.989v13.495h80.968V120.458h77.595V12.5ZM179.431,113.71a3.374,3.374,0,1,1,3.374-3.374A3.375,3.375,0,0,1,179.431,113.71Zm0-87.716a3.374,3.374,0,1,1,3.374-3.374A3.375,3.375,0,0,1,179.431,25.995Z" transform="translate(10.594 4.368)" fill="#20cb7d"/>
  <path id="Trazado_270369" data-name="Trazado 270369" d="M13.495,7.5H3.374a3.374,3.374,0,1,0,0,6.747h6.747V152.568a3.374,3.374,0,0,0,6.747,0V10.874A3.371,3.371,0,0,0,13.495,7.5Z" transform="translate(1.099 -7.5)" fill="#cbd4d8"/>
  <rect id="Rectángulo_298386" data-name="Rectángulo 298386" width="10" height="13" transform="translate(0.991 27.491)" fill="#fff"/>
  <rect id="Rectángulo_298387" data-name="Rectángulo 298387" width="13" height="13" transform="translate(17.991 27.491)" fill="#38454f"/>
  <rect id="Rectángulo_298388" data-name="Rectángulo 298388" width="10" height="14" transform="translate(0.991 50.491)" fill="#fda929"/>
  <rect id="Rectángulo_298389" data-name="Rectángulo 298389" width="13" height="14" transform="translate(17.991 50.491)" fill="#38454f"/>
  <rect id="Rectángulo_298390" data-name="Rectángulo 298390" width="10" height="13" transform="translate(0.991 74.491)" fill="#7453d8"/>
  <rect id="Rectángulo_298391" data-name="Rectángulo 298391" width="13" height="13" transform="translate(17.991 74.491)" fill="#38454f"/>
  <g id="Grupo_162779" data-name="Grupo 162779" transform="translate(48.52 131.763)">
    <rect id="Rectángulo_298392" data-name="Rectángulo 298392" width="6" height="7" transform="translate(0.471 -0.272)" fill="#f3cc6d"/>
    <rect id="Rectángulo_298393" data-name="Rectángulo 298393" width="7" height="7" transform="translate(9.471 -0.272)" fill="#f3cc6d"/>
    <rect id="Rectángulo_298394" data-name="Rectángulo 298394" width="6" height="7" transform="translate(20.471 -0.272)" fill="#f3cc6d"/>
    <rect id="Rectángulo_298395" data-name="Rectángulo 298395" width="6" height="7" transform="translate(30.471 -0.272)" fill="#f3cc6d"/>
    <rect id="Rectángulo_298396" data-name="Rectángulo 298396" width="7" height="7" transform="translate(40.471 -0.272)" fill="#f3cc6d"/>
    <rect id="Rectángulo_298397" data-name="Rectángulo 298397" width="7" height="7" transform="translate(50.471 -0.272)" fill="#f3cc6d"/>
    <rect id="Rectángulo_298398" data-name="Rectángulo 298398" width="7" height="7" transform="translate(60.471 -0.272)" fill="#f3cc6d"/>
  </g>
  <g id="Grupo_162780" data-name="Grupo 162780" transform="translate(142.907 27.141)">
    <rect id="Rectángulo_298399" data-name="Rectángulo 298399" width="7" height="71" transform="translate(30.084 0.35)" fill="#153a17"/>
    <rect id="Rectángulo_298400" data-name="Rectángulo 298400" width="7" height="71" transform="translate(20.084 0.35)" fill="#153a17"/>
    <rect id="Rectángulo_298401" data-name="Rectángulo 298401" width="7" height="71" transform="translate(10.084 0.35)" fill="#153a17"/>
    <rect id="Rectángulo_298402" data-name="Rectángulo 298402" width="7" height="71" transform="translate(0.084 0.35)" fill="#153a17"/>
  </g>
  <rect id="Rectángulo_298403" data-name="Rectángulo 298403" width="7" height="10" transform="translate(98.991 27.491)" fill="#f3cc6d"/>
  <rect id="Rectángulo_298404" data-name="Rectángulo 298404" width="7" height="10" transform="translate(108.991 27.491)" fill="#f3cc6d"/>
  <rect id="Rectángulo_298405" data-name="Rectángulo 298405" width="7" height="10" transform="translate(118.991 27.491)" fill="#f3cc6d"/>
  <rect id="Rectángulo_298406" data-name="Rectángulo 298406" width="7" height="10" transform="translate(98.991 57.491)" fill="#f3cc6d"/>
  <rect id="Rectángulo_298407" data-name="Rectángulo 298407" width="7" height="10" transform="translate(108.991 57.491)" fill="#f3cc6d"/>
  <rect id="Rectángulo_298408" data-name="Rectángulo 298408" width="7" height="10" transform="translate(118.991 57.491)" fill="#f3cc6d"/>
  <rect id="Rectángulo_298409" data-name="Rectángulo 298409" width="6" height="10" transform="translate(48.991 27.491)" fill="#f3cc6d"/>
  <rect id="Rectángulo_298410" data-name="Rectángulo 298410" width="7" height="10" transform="translate(57.991 27.491)" fill="#f3cc6d"/>
  <rect id="Rectángulo_298411" data-name="Rectángulo 298411" width="6" height="10" transform="translate(68.991 27.491)" fill="#f3cc6d"/>
  <rect id="Rectángulo_298412" data-name="Rectángulo 298412" width="6" height="10" transform="translate(48.991 57.491)" fill="#f3cc6d"/>
  <rect id="Rectángulo_298413" data-name="Rectángulo 298413" width="7" height="10" transform="translate(57.991 57.491)" fill="#f3cc6d"/>
  <rect id="Rectángulo_298414" data-name="Rectángulo 298414" width="6" height="10" transform="translate(68.991 57.491)" fill="#f3cc6d"/>
  <ellipse id="Elipse_6460" data-name="Elipse 6460" cx="3" cy="3.5" rx="3" ry="3.5" transform="translate(68.991 70.491)" fill="#f3cc6d"/>
  <ellipse id="Elipse_6461" data-name="Elipse 6461" cx="3.5" cy="3" rx="3.5" ry="3" transform="translate(20.991 101.491)" fill="#f3cc6d"/>
  <circle id="Elipse_6462" data-name="Elipse 6462" cx="3.5" cy="3.5" r="3.5" transform="translate(57.991 70.491)" fill="#f3cc6d"/>
  <ellipse id="Elipse_6463" data-name="Elipse 6463" cx="3" cy="3.5" rx="3" ry="3.5" transform="translate(48.991 70.491)" fill="#f3cc6d"/>
  <path id="Trazado_270370" data-name="Trazado 270370" d="M30.121,40.247H23.374a3.374,3.374,0,1,1,0-6.747h6.747a3.374,3.374,0,1,1,0,6.747Z" transform="translate(48.573 54.216)" fill="#f3cc6d"/>
  <path id="Trazado_270371" data-name="Trazado 270371" d="M30.121,43.247H23.374a3.374,3.374,0,0,1,0-6.747h6.747a3.374,3.374,0,0,1,0,6.747Z" transform="translate(48.573 61.337)" fill="#f3cc6d"/>
  <path id="Trazado_270372" data-name="Trazado 270372" d="M22.121,40.247H15.374a3.374,3.374,0,1,1,0-6.747h6.747a3.374,3.374,0,1,1,0,6.747Z" transform="translate(29.583 54.216)" fill="#f3cc6d"/>
  <path id="Trazado_270373" data-name="Trazado 270373" d="M22.121,43.247H15.374a3.374,3.374,0,0,1,0-6.747h6.747a3.374,3.374,0,0,1,0,6.747Z" transform="translate(29.583 61.337)" fill="#f3cc6d"/>
  <circle id="Elipse_6464" data-name="Elipse 6464" cx="3.5" cy="3.5" r="3.5" transform="translate(118.991 70.491)" fill="#f3cc6d"/>
  <circle id="Elipse_6465" data-name="Elipse 6465" cx="3.5" cy="3.5" r="3.5" transform="translate(108.991 70.491)" fill="#f3cc6d"/>
  <circle id="Elipse_6466" data-name="Elipse 6466" cx="3.5" cy="3.5" r="3.5" transform="translate(142.991 104.491)" fill="#f3cc6d"/>
  <circle id="Elipse_6467" data-name="Elipse 6467" cx="3.5" cy="3.5" r="3.5" transform="translate(152.991 104.491)" fill="#f3cc6d"/>
  <circle id="Elipse_6468" data-name="Elipse 6468" cx="3.5" cy="3.5" r="3.5" transform="translate(162.991 104.491)" fill="#f3cc6d"/>
  <circle id="Elipse_6469" data-name="Elipse 6469" cx="3.5" cy="3.5" r="3.5" transform="translate(172.991 104.491)" fill="#f3cc6d"/>
  <circle id="Elipse_6470" data-name="Elipse 6470" cx="3.5" cy="3.5" r="3.5" transform="translate(98.991 70.491)" fill="#f3cc6d"/>
  <path id="Trazado_270374" data-name="Trazado 270374" d="M45.121,40.247H38.374a3.374,3.374,0,0,1,0-6.747h6.747a3.374,3.374,0,0,1,0,6.747Z" transform="translate(84.178 54.216)" fill="#f3cc6d"/>
  <path id="Trazado_270375" data-name="Trazado 270375" d="M45.121,43.247H38.374a3.374,3.374,0,0,1,0-6.747h6.747a3.374,3.374,0,0,1,0,6.747Z" transform="translate(84.178 61.337)" fill="#f3cc6d"/>
  <path id="Trazado_270376" data-name="Trazado 270376" d="M37.121,40.247H30.374a3.374,3.374,0,1,1,0-6.747h6.747a3.374,3.374,0,1,1,0,6.747Z" transform="translate(65.189 54.216)" fill="#f3cc6d"/>
  <path id="Trazado_270377" data-name="Trazado 270377" d="M37.121,43.247H30.374a3.374,3.374,0,0,1,0-6.747h6.747a3.374,3.374,0,0,1,0,6.747Z" transform="translate(65.189 61.337)" fill="#f3cc6d"/>
  <rect id="Rectángulo_298415" data-name="Rectángulo 298415" width="33" height="20" transform="translate(95.991 37.491)" fill="#38454f"/>
  <rect id="Rectángulo_298416" data-name="Rectángulo 298416" width="34" height="20" transform="translate(44.991 37.491)" fill="#38454f"/>
  <rect id="Rectángulo_298417" data-name="Rectángulo 298417" width="20" height="23" transform="translate(51.991 84.491)" fill="#38454f"/>
  <rect id="Rectángulo_298418" data-name="Rectángulo 298418" width="20" height="23" transform="translate(101.991 84.491)" fill="#38454f"/>
  <g id="Grupo_162782" data-name="Grupo 162782" transform="translate(0 0)">
    <g id="Grupo_162781" data-name="Grupo 162781">
      <path id="Trazado_270378" data-name="Trazado 270378" d="M201.421,20.995H15.868V10.874A3.371,3.371,0,0,0,12.495,7.5H2.374a3.374,3.374,0,1,0,0,6.747H9.121V31.116H-1V51.358H9.121v3.374H-1V74.974H9.121v3.374H-1V98.589H9.121v53.979a3.374,3.374,0,0,0,6.747,0V135.7H36.11v13.495h87.716V135.7h77.595ZM15.868,37.863h6.747V44.61H15.868ZM5.747,44.61V37.863H9.121V44.61ZM15.868,61.479h6.747v6.747H15.868ZM5.747,68.226V61.479H9.121v6.747ZM15.868,85.095h6.747v6.747H15.868ZM5.747,91.842V85.095H9.121v6.747Zm111.331,50.605h-3.374v-3.374h-6.747v3.374h-3.374v-3.374H96.837v3.374H93.463v-3.374H86.716v3.374H83.342v-3.374H76.595v3.374H73.221v-3.374H66.474v3.374H63.1v-3.374H56.353v3.374H52.979v-3.374H46.231v3.374H42.858V135.7h74.221Zm77.595-13.495H15.868V98.589H29.363V78.347H15.868V74.974H29.363V54.731H15.868V51.358H29.363V31.116H15.868V27.742h178.8Z" transform="translate(1 -7.5)"/>
      <path id="Trazado_270379" data-name="Trazado 270379" d="M32.747,55.984h6.747V49.237h3.374v6.747h6.747V49.237h3.374v6.747h6.747V49.237h6.747V22.247H59.737V15.5H52.989v6.747H49.616V15.5H42.868v6.747H39.495V15.5H32.747v6.747H26V49.237h6.747Zm0-26.989H59.737V42.489H32.747Z" transform="translate(65.089 11.489)"/>
      <path id="Trazado_270380" data-name="Trazado 270380" d="M17.747,55.984h6.747V49.237h3.374v6.747h6.747V49.237h3.374v6.747h6.747V49.237h6.747V22.247H44.737V15.5H37.989v6.747H34.616V15.5H27.868v6.747H24.495V15.5H17.747v6.747H11V49.237h6.747Zm0-26.989H44.737V42.489H17.747Z" transform="translate(29.484 11.489)"/>
      <circle id="Elipse_6474" data-name="Elipse 6474" cx="3.5" cy="3.5" r="3.5" transform="translate(66.991 70.491)"/>
      <circle id="Elipse_6476" data-name="Elipse 6476" cx="3.5" cy="3.5" r="3.5" transform="translate(56.991 70.491)"/>
      <circle id="Elipse_6477" data-name="Elipse 6477" cx="3.5" cy="3.5" r="3.5" transform="translate(46.991 70.491)"/>
      <path id="Trazado_270381" data-name="Trazado 270381" d="M14.374,48.368a3.374,3.374,0,0,0,0,6.747h3.374v6.747H44.737V55.116H48.11a3.374,3.374,0,1,0,0-6.747H44.737V44.995H48.11a3.374,3.374,0,1,0,0-6.747H44.737V31.5H17.747v6.747H14.374a3.374,3.374,0,1,0,0,6.747h3.374v3.374ZM24.495,38.247H37.989V55.116H24.495Z" transform="translate(29.484 49.468)"/>
      <circle id="Elipse_6478" data-name="Elipse 6478" cx="3.5" cy="3.5" r="3.5" transform="translate(117.991 70.491)"/>
      <circle id="Elipse_6479" data-name="Elipse 6479" cx="3.5" cy="3.5" r="3.5" transform="translate(107.991 70.491)"/>
      <circle id="Elipse_6484" data-name="Elipse 6484" cx="3.5" cy="3.5" r="3.5" transform="translate(97.991 70.491)"/>
      <path id="Trazado_270382" data-name="Trazado 270382" d="M29.374,48.368a3.374,3.374,0,0,0,0,6.747h3.374v6.747H59.737V55.116H63.11a3.374,3.374,0,0,0,0-6.747H59.737V44.995H63.11a3.374,3.374,0,0,0,0-6.747H59.737V31.5H32.747v6.747H29.374a3.374,3.374,0,0,0,0,6.747h3.374v3.374ZM39.495,38.247H52.989V55.116H39.495Z" transform="translate(65.089 49.468)"/>
    </g>
  </g>
</svg>
