<svg id="filled_color_copy" data-name="filled color copy" xmlns="http://www.w3.org/2000/svg" width="181.951" height="181.951" viewBox="0 0 181.951 181.951">
  <rect id="Rectángulo_298385" data-name="Rectángulo 298385" width="176" height="158" rx="8" transform="translate(3.314 21)" fill="#20cb7d"/>
  <path id="Trazado_270192" data-name="Trazado 270192" d="M218.2,33.1V24h-12.13v9.1H200v9.1h24.26V33.1Z" transform="translate(-130.252 -20.967)" fill="#454545"/>
  <path id="Trazado_270193" data-name="Trazado 270193" d="M444.13,33.1V24h-9.1v9.1H432v9.1h15.163V33.1Z" transform="translate(-274.309 -20.967)" fill="#454545"/>
  <path id="Trazado_270194" data-name="Trazado 270194" d="M329.358,33.1V24H302.065v9.1H296v9.1h39.423V33.1Z" transform="translate(-189.862 -20.967)" fill="#454545"/>
  <path id="Trazado_270195" data-name="Trazado 270195" d="M424,136h12.13v9.1H424Z" transform="translate(-269.342 -90.512)" fill="#ffcc46"/>
  <circle id="Elipse_6412" data-name="Elipse 6412" cx="6" cy="6" r="6" transform="translate(30.314 121)" fill="#ffcc46"/>
  <path id="Trazado_270196" data-name="Trazado 270196" d="M384,424h12.13v12.13H384Z" transform="translate(-244.504 -269.342)" fill="#7453d8"/>
  <path id="Trazado_270197" data-name="Trazado 270197" d="M176,128h12.13v12.13H176Z" transform="translate(-115.35 -85.545)" fill="#ababab"/>
  <circle id="Elipse_6413" data-name="Elipse 6413" cx="3" cy="3" r="3" transform="translate(42.314 149)"/>
  <circle id="Elipse_6414" data-name="Elipse 6414" cx="3" cy="3" r="3" transform="translate(54.314 149)"/>
  <ellipse id="Elipse_6415" data-name="Elipse 6415" cx="3" cy="3.5" rx="3" ry="3.5" transform="translate(48.314 139)"/>
  <circle id="Elipse_6416" data-name="Elipse 6416" cx="3" cy="3" r="3" transform="translate(45.314 118)"/>
  <circle id="Elipse_6417" data-name="Elipse 6417" cx="3" cy="3" r="3" transform="translate(57.314 118)"/>
  <circle id="Elipse_6418" data-name="Elipse 6418" cx="3" cy="3" r="3" transform="translate(69.314 118)"/>
  <ellipse id="Elipse_6419" data-name="Elipse 6419" cx="3" cy="3.5" rx="3" ry="3.5" transform="translate(115.314 42)"/>
  <circle id="Elipse_6420" data-name="Elipse 6420" cx="3" cy="3" r="3" transform="translate(12.314 30)"/>
  <circle id="Elipse_6421" data-name="Elipse 6421" cx="3" cy="3" r="3" transform="translate(24.314 30)"/>
  <circle id="Elipse_6422" data-name="Elipse 6422" cx="3" cy="3" r="3" transform="translate(36.314 30)"/>
  <ellipse id="Elipse_6423" data-name="Elipse 6423" cx="3" cy="3.5" rx="3" ry="3.5" transform="translate(127.314 42)"/>
  <ellipse id="Elipse_6424" data-name="Elipse 6424" cx="3" cy="3.5" rx="3" ry="3.5" transform="translate(139.314 42)"/>
  <ellipse id="Elipse_6425" data-name="Elipse 6425" cx="3.5" cy="3" rx="3.5" ry="3" transform="translate(163.314 164)"/>
  <circle id="Elipse_6426" data-name="Elipse 6426" cx="3" cy="3" r="3" transform="translate(12.314 164)"/>
  <ellipse id="Elipse_6427" data-name="Elipse 6427" cx="3.5" cy="3" rx="3.5" ry="3" transform="translate(163.314 30)"/>
  <circle id="Elipse_6428" data-name="Elipse 6428" cx="3" cy="3" r="3" transform="translate(24.314 97)"/>
  <path id="Trazado_270198" data-name="Trazado 270198" d="M152,192h30.325v42.455H152Z" transform="translate(-100.447 -125.285)" fill="#454545"/>
  <path id="Trazado_270199" data-name="Trazado 270199" d="M332.65,180.13l-9.1-12.13H281.1L272,180.13v36.39l9.1,12.13h42.455l9.1-12.13Z" transform="translate(-174.959 -110.382)" fill="#feb314"/>
  <g id="Grupo_162771" data-name="Grupo 162771" transform="translate(51.553 21.228)">
    <path id="Trazado_270200" data-name="Trazado 270200" d="M312,208h30.325v30.325H312Z" transform="translate(-251.35 -156.447)" fill="#ababab"/>
    <path id="Trazado_270201" data-name="Trazado 270201" d="M152,224h30.325v18.2H152Z" transform="translate(-152 -166.382)" fill="#ababab"/>
    <path id="Trazado_270202" data-name="Trazado 270202" d="M296,72h39.423v9.1a3.033,3.033,0,0,1-3.033,3.033H299.033A3.033,3.033,0,0,1,296,81.1V72Z" transform="translate(-241.415 -72)" fill="#ababab"/>
    <path id="Trazado_270203" data-name="Trazado 270203" d="M200,72h24.26v9.1a3.033,3.033,0,0,1-3.033,3.033h-18.2A3.033,3.033,0,0,1,200,81.1V72Z" transform="translate(-181.805 -72)" fill="#ababab"/>
  </g>
  <path id="Trazado_270204" data-name="Trazado 270204" d="M191.886,34.2V28.13h-3.033v-9.1A3.033,3.033,0,0,0,185.821,16h-9.1a3.033,3.033,0,0,0-3.033,3.033v9.1h-3.033V34.2h-6.065V28.13h-6.065V34.2H125.171V28.13h-6.065V34.2h-6.065V28.13h-6.065V34.2H88.78V28.13H82.715V34.2H76.65V28.13H70.585V34.2H64.52V28.13H58.455V34.2H22.065A6.065,6.065,0,0,0,16,40.26V191.886a6.065,6.065,0,0,0,6.065,6.065H191.886a6.065,6.065,0,0,0,6.065-6.065V40.26A6.065,6.065,0,0,0,191.886,34.2ZM176.724,28.13h3.033V22.065h3.033V28.13h3.033V34.2h-9.1Zm-18.2,18.2H125.171V40.26h33.358Zm-51.553,0H88.78V40.26h18.2ZM22.065,191.886V40.26h60.65v6.065A6.065,6.065,0,0,0,88.78,52.39h18.2a6.065,6.065,0,0,0,6.065-6.065V40.26h6.065v6.065a6.065,6.065,0,0,0,6.065,6.065h33.358a6.065,6.065,0,0,0,6.065-6.065V40.26h27.293V191.886Z" transform="translate(-16 -16)"/>
  <path id="Trazado_270205" data-name="Trazado 270205" d="M310.065,22.065h21.228V28.13h6.065v-9.1A3.033,3.033,0,0,0,334.325,16H307.033A3.033,3.033,0,0,0,304,19.033v9.1h6.065Z" transform="translate(-194.829 -16)"/>
  <path id="Trazado_270206" data-name="Trazado 270206" d="M214.065,22.065h6.065V28.13H226.2v-9.1A3.033,3.033,0,0,0,223.163,16h-12.13A3.033,3.033,0,0,0,208,19.033v9.1h6.065Z" transform="translate(-135.22 -16)"/>
  <path id="Trazado_270207" data-name="Trazado 270207" d="M48,128h6.065v63.683H48Z" transform="translate(-35.87 -85.545)"/>
  <path id="Trazado_270208" data-name="Trazado 270208" d="M80,128h6.065v21.228H80Z" transform="translate(-55.74 -85.545)"/>
  <path id="Trazado_270209" data-name="Trazado 270209" d="M112,128h6.065v69.748H112Z" transform="translate(-75.61 -85.545)"/>
  <path id="Trazado_270210" data-name="Trazado 270210" d="M325.751,206.331V180.385a6.047,6.047,0,0,0-3.033-11.287,5.912,5.912,0,0,0-.7.07l-5.968-7.954A3.033,3.033,0,0,0,313.621,160H271.166a3.033,3.033,0,0,0-2.426,1.213l-5.968,7.954a5.911,5.911,0,0,0-.7-.07,6.047,6.047,0,0,0-3.033,11.287v25.946a6.047,6.047,0,0,0,3.033,11.287,5.911,5.911,0,0,0,.7-.07l5.968,7.954a3.033,3.033,0,0,0,2.426,1.213h42.455a3.033,3.033,0,0,0,2.426-1.213l5.968-7.954a5.912,5.912,0,0,0,.7.07,6.047,6.047,0,0,0,3.033-11.287ZM312.1,220.65H272.682l-5.037-6.717a6.023,6.023,0,0,0-2.544-7.6V180.385a6.023,6.023,0,0,0,2.544-7.6l5.037-6.717H312.1l5.037,6.717a6.022,6.022,0,0,0,2.544,7.6v25.946a6.022,6.022,0,0,0-2.544,7.6Z" transform="translate(-165.028 -105.415)"/>
  <path id="Trazado_270211" data-name="Trazado 270211" d="M337.358,200H307.033A3.033,3.033,0,0,0,304,203.033v30.325a3.033,3.033,0,0,0,3.033,3.033h30.325a3.033,3.033,0,0,0,3.033-3.033V203.033A3.033,3.033,0,0,0,337.358,200Zm-3.033,30.325h-24.26v-24.26h24.26Z" transform="translate(-194.829 -130.252)"/>
  <path id="Trazado_270212" data-name="Trazado 270212" d="M216,352h81.878v6.065H216Z" transform="translate(-140.187 -224.634)"/>
  <path id="Trazado_270213" data-name="Trazado 270213" d="M184,352h6.065v6.065H184Z" transform="translate(-120.317 -224.634)"/>
  <path id="Trazado_270214" data-name="Trazado 270214" d="M448,352h6.065v6.065H448Z" transform="translate(-284.244 -224.634)"/>
  <path id="Trazado_270215" data-name="Trazado 270215" d="M216,384h81.878v6.065H216Z" transform="translate(-140.187 -244.504)"/>
  <path id="Trazado_270216" data-name="Trazado 270216" d="M184,384h6.065v6.065H184Z" transform="translate(-120.317 -244.504)"/>
  <path id="Trazado_270217" data-name="Trazado 270217" d="M448,384h6.065v6.065H448Z" transform="translate(-284.244 -244.504)"/>
  <path id="Trazado_270218" data-name="Trazado 270218" d="M240,416h6.065v6.065H240Z" transform="translate(-155.089 -264.374)"/>
  <path id="Trazado_270219" data-name="Trazado 270219" d="M240,448h6.065v6.065H240Z" transform="translate(-155.089 -284.244)"/>
  <path id="Trazado_270220" data-name="Trazado 270220" d="M272,416h6.065v6.065H272Z" transform="translate(-174.959 -264.374)"/>
  <path id="Trazado_270221" data-name="Trazado 270221" d="M272,448h6.065v6.065H272Z" transform="translate(-174.959 -284.244)"/>
  <path id="Trazado_270222" data-name="Trazado 270222" d="M304,416h6.065v6.065H304Z" transform="translate(-194.829 -264.374)"/>
  <path id="Trazado_270223" data-name="Trazado 270223" d="M304,448h6.065v6.065H304Z" transform="translate(-194.829 -284.244)"/>
  <path id="Trazado_270224" data-name="Trazado 270224" d="M336,416h6.065v6.065H336Z" transform="translate(-214.699 -264.374)"/>
  <path id="Trazado_270225" data-name="Trazado 270225" d="M336,448h6.065v6.065H336Z" transform="translate(-214.699 -284.244)"/>
  <path id="Trazado_270226" data-name="Trazado 270226" d="M54.065,336H48v12.13h6.065V345.1H57.1v-6.065H54.065Z" transform="translate(-35.87 -214.699)"/>
  <path id="Trazado_270227" data-name="Trazado 270227" d="M54.065,384H48v12.13h6.065V393.1H57.1v-6.065H54.065Z" transform="translate(-35.87 -244.504)"/>
  <path id="Trazado_270228" data-name="Trazado 270228" d="M94.065,432H88v12.13h6.065V441.1H97.1v-6.065H94.065Z" transform="translate(-60.707 -274.309)"/>
  <path id="Trazado_270229" data-name="Trazado 270229" d="M94.065,384H88v12.13h6.065V393.1H97.1v-6.065H94.065Z" transform="translate(-60.707 -244.504)"/>
  <path id="Trazado_270230" data-name="Trazado 270230" d="M106.2,337.1a9.1,9.1,0,1,0-9.1,9.1A9.1,9.1,0,0,0,106.2,337.1Zm-9.1,3.033a3.033,3.033,0,1,1,3.033-3.033A3.033,3.033,0,0,1,97.1,340.13Z" transform="translate(-60.707 -209.732)"/>
  <path id="Trazado_270231" data-name="Trazado 270231" d="M431.163,128h-12.13A3.033,3.033,0,0,0,416,131.033v9.1h6.065v-6.065h6.065v6.065H434.2v-9.1A3.033,3.033,0,0,0,431.163,128Z" transform="translate(-264.374 -85.545)"/>
  <path id="Trazado_270232" data-name="Trazado 270232" d="M163.033,130.2a3.033,3.033,0,0,0,3.033,3.033H169.1v3.033h6.065v-3.033H178.2a3.033,3.033,0,0,0,3.033-3.033v-3.033h3.033V121.1h-3.033v-3.033a3.033,3.033,0,0,0-3.033-3.033h-3.033V112H169.1v3.033h-3.033a3.033,3.033,0,0,0-3.033,3.033V121.1H160v6.065h3.033Zm6.065-9.1h6.065v6.065H169.1Z" transform="translate(-105.415 -75.61)"/>
  <path id="Trazado_270233" data-name="Trazado 270233" d="M389.228,414.065a3.033,3.033,0,0,0-3.033-3.033h-3.033V408H377.1v3.033h-3.033a3.033,3.033,0,0,0-3.033,3.033V417.1H368v6.065h3.033V426.2a3.033,3.033,0,0,0,3.033,3.033H377.1v3.033h6.065v-3.033H386.2a3.033,3.033,0,0,0,3.033-3.033v-3.033h3.033V417.1h-3.033Zm-6.065,9.1H377.1V417.1h6.065Z" transform="translate(-234.569 -259.407)"/>
  <path id="Trazado_270234" data-name="Trazado 270234" d="M128,448h33.358v6.065H128Z" transform="translate(-85.545 -284.244)"/>
  <path id="Trazado_270235" data-name="Trazado 270235" d="M80,200h6.065v9.1H80Z" transform="translate(-55.74 -130.252)"/>
  <path id="Trazado_270236" data-name="Trazado 270236" d="M147.033,232.52h30.325a3.033,3.033,0,0,0,3.033-3.033V187.033A3.033,3.033,0,0,0,177.358,184H147.033A3.033,3.033,0,0,0,144,187.033v42.455A3.033,3.033,0,0,0,147.033,232.52Zm3.033-6.065V220.39h24.26v6.065Zm0-24.26h24.26v12.13h-24.26Zm24.26-12.13v6.065h-24.26v-6.065Z" transform="translate(-95.48 -120.317)"/>
</svg>
