<svg xmlns="http://www.w3.org/2000/svg" xmlns:xlink="http://www.w3.org/1999/xlink" width="500.037" height="355" viewBox="0 0 500.037 355">
  <defs>
    <linearGradient id="linear-gradient" x1="0.5" x2="0.5" y2="1" gradientUnits="objectBoundingBox">
      <stop offset="0" stop-color="#ba68c8"/>
      <stop offset="0.19" stop-color="#9139af"/>
      <stop offset="0.31" stop-color="#7b1fa2"/>
      <stop offset="1" stop-color="#45147b"/>
    </linearGradient>
    <linearGradient id="linear-gradient-2" x1="0.5" x2="0.5" y2="1" gradientUnits="objectBoundingBox">
      <stop offset="0" stop-color="#93eac2"/>
      <stop offset="1" stop-color="#20cb7d"/>
    </linearGradient>
    <clipPath id="clip-path">
      <ellipse id="Elipse_3994" data-name="Elipse 3994" cx="177.5" cy="177.5" rx="177.5" ry="177.5" transform="translate(960 5132)" fill="#fff"/>
    </clipPath>
  </defs>
  <g id="Grupo_172654" data-name="Grupo 172654" transform="translate(-16543.732 -1791)">
    <g id="Grupo_150206" data-name="Grupo 150206" transform="translate(15682 -3341)">
      <g id="Grupo_130729" data-name="Grupo 130729" transform="translate(861.732 5141.368)">
        <g id="Grupo_79815" data-name="Grupo 79815" transform="translate(0 0)">
          <g id="Grupo_79776" data-name="Grupo 79776" transform="translate(0 0)">
            <g id="Grupo_79644" data-name="Grupo 79644">
              <path id="Trazado_145968" data-name="Trazado 145968" d="M93.8,0A93.8,93.8,0,1,1,0,93.8,93.8,93.8,0,0,1,93.8,0Z" transform="translate(280.445 144.754)" fill="#fda929" opacity="0.28" style="mix-blend-mode: multiply;isolation: isolate"/>
              <path id="Trazado_145969" data-name="Trazado 145969" d="M64.093,0A64.093,64.093,0,1,1,0,64.093,64.093,64.093,0,0,1,64.093,0Z" transform="translate(52.406 23.791)" opacity="0.6" fill="url(#linear-gradient)" style="mix-blend-mode: multiply;isolation: isolate"/>
              <rect id="Rectángulo_34812" data-name="Rectángulo 34812" width="500.037" height="345.632" fill="none"/>
              <path id="Trazado_145971" data-name="Trazado 145971" d="M40.514,0A40.514,40.514,0,1,1,0,40.514,40.514,40.514,0,0,1,40.514,0Z" transform="translate(69.62 229.682)" opacity="0.444" fill="url(#linear-gradient-2)" style="mix-blend-mode: multiply;isolation: isolate"/>
              <g id="Grupo_78276" data-name="Grupo 78276" transform="translate(315.655 189.6)">
                <g id="Grupo_53306" data-name="Grupo 53306" transform="translate(0)">
                  <path id="Trazado_99200" data-name="Trazado 99200" d="M416.761,51.441a1.275,1.275,0,1,1-1.275-1.217A1.247,1.247,0,0,1,416.761,51.441Z" transform="translate(-414.214 -50.224)" fill="#fff"/>
                  <path id="Trazado_99201" data-name="Trazado 99201" d="M425.207,51.441a1.275,1.275,0,1,1-1.273-1.217A1.246,1.246,0,0,1,425.207,51.441Z" transform="translate(-411.197 -50.224)" fill="#fff"/>
                  <path id="Trazado_99202" data-name="Trazado 99202" d="M433.653,51.441a1.275,1.275,0,1,1-1.273-1.217A1.246,1.246,0,0,1,433.653,51.441Z" transform="translate(-408.181 -50.224)" fill="#fff"/>
                  <path id="Trazado_99203" data-name="Trazado 99203" d="M442.1,51.441a1.275,1.275,0,1,1-1.274-1.217A1.247,1.247,0,0,1,442.1,51.441Z" transform="translate(-405.164 -50.224)" fill="#fff"/>
                  <path id="Trazado_99204" data-name="Trazado 99204" d="M450.546,51.441a1.275,1.275,0,1,1-1.273-1.217A1.247,1.247,0,0,1,450.546,51.441Z" transform="translate(-402.147 -50.224)" fill="#fff"/>
                  <path id="Trazado_99205" data-name="Trazado 99205" d="M458.992,51.441a1.275,1.275,0,1,1-1.273-1.217A1.246,1.246,0,0,1,458.992,51.441Z" transform="translate(-399.13 -50.224)" fill="#fff"/>
                  <path id="Trazado_99206" data-name="Trazado 99206" d="M467.44,51.441a1.275,1.275,0,1,1-1.274-1.217A1.248,1.248,0,0,1,467.44,51.441Z" transform="translate(-396.113 -50.224)" fill="#fff"/>
                  <path id="Trazado_99207" data-name="Trazado 99207" d="M475.886,51.441a1.275,1.275,0,1,1-1.273-1.217A1.247,1.247,0,0,1,475.886,51.441Z" transform="translate(-393.097 -50.224)" fill="#fff"/>
                  <path id="Trazado_99208" data-name="Trazado 99208" d="M484.332,51.441a1.275,1.275,0,1,1-1.273-1.217A1.247,1.247,0,0,1,484.332,51.441Z" transform="translate(-390.08 -50.224)" fill="#fff"/>
                  <path id="Trazado_99209" data-name="Trazado 99209" d="M492.778,51.441a1.275,1.275,0,1,1-1.274-1.217A1.247,1.247,0,0,1,492.778,51.441Z" transform="translate(-387.063 -50.224)" fill="#fff"/>
                  <path id="Trazado_99210" data-name="Trazado 99210" d="M501.224,51.441a1.275,1.275,0,1,1-1.274-1.217A1.247,1.247,0,0,1,501.224,51.441Z" transform="translate(-384.047 -50.224)" fill="#fff"/>
                </g>
                <g id="Grupo_53307" data-name="Grupo 53307" transform="translate(0 9.744)">
                  <path id="Trazado_99211" data-name="Trazado 99211" d="M416.761,58.949a1.275,1.275,0,1,1-1.275-1.217A1.247,1.247,0,0,1,416.761,58.949Z" transform="translate(-414.214 -57.732)" fill="#fff"/>
                  <path id="Trazado_99212" data-name="Trazado 99212" d="M425.207,58.949a1.275,1.275,0,1,1-1.273-1.217A1.246,1.246,0,0,1,425.207,58.949Z" transform="translate(-411.197 -57.732)" fill="#fff"/>
                  <path id="Trazado_99213" data-name="Trazado 99213" d="M433.653,58.949a1.275,1.275,0,1,1-1.273-1.217A1.246,1.246,0,0,1,433.653,58.949Z" transform="translate(-408.181 -57.732)" fill="#fff"/>
                  <path id="Trazado_99214" data-name="Trazado 99214" d="M442.1,58.949a1.275,1.275,0,1,1-1.274-1.217A1.247,1.247,0,0,1,442.1,58.949Z" transform="translate(-405.164 -57.732)" fill="#fff"/>
                  <path id="Trazado_99215" data-name="Trazado 99215" d="M450.546,58.949a1.275,1.275,0,1,1-1.273-1.217A1.247,1.247,0,0,1,450.546,58.949Z" transform="translate(-402.147 -57.732)" fill="#fff"/>
                  <path id="Trazado_99216" data-name="Trazado 99216" d="M458.992,58.949a1.275,1.275,0,1,1-1.273-1.217A1.246,1.246,0,0,1,458.992,58.949Z" transform="translate(-399.13 -57.732)" fill="#fff"/>
                  <path id="Trazado_99217" data-name="Trazado 99217" d="M467.44,58.949a1.275,1.275,0,1,1-1.274-1.217A1.248,1.248,0,0,1,467.44,58.949Z" transform="translate(-396.113 -57.732)" fill="#fff"/>
                  <path id="Trazado_99218" data-name="Trazado 99218" d="M475.886,58.949a1.275,1.275,0,1,1-1.273-1.217A1.247,1.247,0,0,1,475.886,58.949Z" transform="translate(-393.097 -57.732)" fill="#fff"/>
                  <path id="Trazado_99219" data-name="Trazado 99219" d="M484.332,58.949a1.275,1.275,0,1,1-1.273-1.217A1.247,1.247,0,0,1,484.332,58.949Z" transform="translate(-390.08 -57.732)" fill="#fff"/>
                  <path id="Trazado_99220" data-name="Trazado 99220" d="M492.778,58.949a1.275,1.275,0,1,1-1.274-1.217A1.247,1.247,0,0,1,492.778,58.949Z" transform="translate(-387.063 -57.732)" fill="#fff"/>
                  <path id="Trazado_99221" data-name="Trazado 99221" d="M501.224,58.949a1.275,1.275,0,1,1-1.274-1.217A1.247,1.247,0,0,1,501.224,58.949Z" transform="translate(-384.047 -57.732)" fill="#fff"/>
                </g>
                <g id="Grupo_53308" data-name="Grupo 53308" transform="translate(0 19.489)">
                  <ellipse id="Elipse_3955" data-name="Elipse 3955" cx="1.274" cy="1.218" rx="1.274" ry="1.218" fill="#fff"/>
                  <path id="Trazado_99222" data-name="Trazado 99222" d="M425.207,66.457a1.275,1.275,0,1,1-1.273-1.217A1.247,1.247,0,0,1,425.207,66.457Z" transform="translate(-411.197 -65.239)" fill="#fff"/>
                  <ellipse id="Elipse_3956" data-name="Elipse 3956" cx="1.274" cy="1.218" rx="1.274" ry="1.218" transform="translate(22.926)" fill="#fff"/>
                  <path id="Trazado_99223" data-name="Trazado 99223" d="M442.1,66.457a1.275,1.275,0,1,1-1.274-1.217A1.248,1.248,0,0,1,442.1,66.457Z" transform="translate(-405.164 -65.239)" fill="#fff"/>
                  <path id="Trazado_99224" data-name="Trazado 99224" d="M450.546,66.457a1.275,1.275,0,1,1-1.273-1.217A1.247,1.247,0,0,1,450.546,66.457Z" transform="translate(-402.147 -65.239)" fill="#fff"/>
                  <ellipse id="Elipse_3957" data-name="Elipse 3957" cx="1.274" cy="1.218" rx="1.274" ry="1.218" transform="translate(57.315)" fill="#fff"/>
                  <path id="Trazado_99225" data-name="Trazado 99225" d="M467.44,66.457a1.275,1.275,0,1,1-1.274-1.217A1.248,1.248,0,0,1,467.44,66.457Z" transform="translate(-396.113 -65.239)" fill="#fff"/>
                  <ellipse id="Elipse_3958" data-name="Elipse 3958" cx="1.274" cy="1.218" rx="1.274" ry="1.218" transform="translate(80.242)" fill="#fff"/>
                  <ellipse id="Elipse_3959" data-name="Elipse 3959" cx="1.274" cy="1.218" rx="1.274" ry="1.218" transform="translate(91.705)" fill="#fff"/>
                  <path id="Trazado_99226" data-name="Trazado 99226" d="M492.778,66.457A1.275,1.275,0,1,1,491.5,65.24,1.248,1.248,0,0,1,492.778,66.457Z" transform="translate(-387.063 -65.239)" fill="#fff"/>
                  <path id="Trazado_99227" data-name="Trazado 99227" d="M501.224,66.457a1.275,1.275,0,1,1-1.274-1.217A1.248,1.248,0,0,1,501.224,66.457Z" transform="translate(-384.046 -65.239)" fill="#fff"/>
                </g>
                <g id="Grupo_53309" data-name="Grupo 53309" transform="translate(0 29.232)">
                  <ellipse id="Elipse_3960" data-name="Elipse 3960" cx="1.274" cy="1.218" rx="1.274" ry="1.218" transform="translate(0 0.001)" fill="#fff"/>
                  <path id="Trazado_99228" data-name="Trazado 99228" d="M425.207,73.966a1.275,1.275,0,1,1-1.273-1.219A1.246,1.246,0,0,1,425.207,73.966Z" transform="translate(-411.197 -72.747)" fill="#fff"/>
                  <ellipse id="Elipse_3961" data-name="Elipse 3961" cx="1.274" cy="1.218" rx="1.274" ry="1.218" transform="translate(22.926 0.001)" fill="#fff"/>
                  <path id="Trazado_99229" data-name="Trazado 99229" d="M442.1,73.966a1.275,1.275,0,1,1-1.274-1.219A1.247,1.247,0,0,1,442.1,73.966Z" transform="translate(-405.164 -72.747)" fill="#fff"/>
                  <path id="Trazado_99230" data-name="Trazado 99230" d="M450.546,73.966a1.275,1.275,0,1,1-1.273-1.219A1.246,1.246,0,0,1,450.546,73.966Z" transform="translate(-402.147 -72.747)" fill="#fff"/>
                  <ellipse id="Elipse_3962" data-name="Elipse 3962" cx="1.274" cy="1.218" rx="1.274" ry="1.218" transform="translate(57.315 0.001)" fill="#fff"/>
                  <path id="Trazado_99231" data-name="Trazado 99231" d="M467.44,73.966a1.275,1.275,0,1,1-1.274-1.219A1.247,1.247,0,0,1,467.44,73.966Z" transform="translate(-396.113 -72.747)" fill="#fff"/>
                  <ellipse id="Elipse_3963" data-name="Elipse 3963" cx="1.274" cy="1.218" rx="1.274" ry="1.218" transform="translate(80.242 0.001)" fill="#fff"/>
                  <ellipse id="Elipse_3964" data-name="Elipse 3964" cx="1.274" cy="1.218" rx="1.274" ry="1.218" transform="translate(91.705 0.001)" fill="#fff"/>
                  <path id="Trazado_99232" data-name="Trazado 99232" d="M492.778,73.966a1.275,1.275,0,1,1-1.274-1.219A1.247,1.247,0,0,1,492.778,73.966Z" transform="translate(-387.063 -72.747)" fill="#fff"/>
                  <path id="Trazado_99233" data-name="Trazado 99233" d="M501.224,73.966a1.275,1.275,0,1,1-1.274-1.219A1.247,1.247,0,0,1,501.224,73.966Z" transform="translate(-384.046 -72.747)" fill="#fff"/>
                </g>
                <g id="Grupo_53310" data-name="Grupo 53310" transform="translate(0 38.977)">
                  <path id="Trazado_99234" data-name="Trazado 99234" d="M416.761,81.474a1.275,1.275,0,1,1-1.275-1.219A1.247,1.247,0,0,1,416.761,81.474Z" transform="translate(-414.214 -80.255)" fill="#fff"/>
                  <path id="Trazado_99235" data-name="Trazado 99235" d="M425.207,81.474a1.275,1.275,0,1,1-1.273-1.219A1.246,1.246,0,0,1,425.207,81.474Z" transform="translate(-411.197 -80.255)" fill="#fff"/>
                  <path id="Trazado_99236" data-name="Trazado 99236" d="M433.653,81.474a1.275,1.275,0,1,1-1.273-1.219A1.246,1.246,0,0,1,433.653,81.474Z" transform="translate(-408.181 -80.255)" fill="#fff"/>
                  <path id="Trazado_99237" data-name="Trazado 99237" d="M442.1,81.474a1.275,1.275,0,1,1-1.274-1.219A1.247,1.247,0,0,1,442.1,81.474Z" transform="translate(-405.164 -80.255)" fill="#fff"/>
                  <path id="Trazado_99238" data-name="Trazado 99238" d="M450.546,81.474a1.275,1.275,0,1,1-1.273-1.219A1.246,1.246,0,0,1,450.546,81.474Z" transform="translate(-402.147 -80.255)" fill="#fff"/>
                  <path id="Trazado_99239" data-name="Trazado 99239" d="M458.992,81.474a1.275,1.275,0,1,1-1.273-1.219A1.246,1.246,0,0,1,458.992,81.474Z" transform="translate(-399.13 -80.255)" fill="#fff"/>
                  <path id="Trazado_99240" data-name="Trazado 99240" d="M467.44,81.474a1.275,1.275,0,1,1-1.274-1.219A1.247,1.247,0,0,1,467.44,81.474Z" transform="translate(-396.113 -80.255)" fill="#fff"/>
                  <path id="Trazado_99241" data-name="Trazado 99241" d="M475.886,81.474a1.275,1.275,0,1,1-1.273-1.219A1.246,1.246,0,0,1,475.886,81.474Z" transform="translate(-393.097 -80.255)" fill="#fff"/>
                  <path id="Trazado_99242" data-name="Trazado 99242" d="M484.332,81.474a1.275,1.275,0,1,1-1.273-1.219A1.246,1.246,0,0,1,484.332,81.474Z" transform="translate(-390.08 -80.255)" fill="#fff"/>
                  <path id="Trazado_99243" data-name="Trazado 99243" d="M492.778,81.474a1.275,1.275,0,1,1-1.274-1.219A1.247,1.247,0,0,1,492.778,81.474Z" transform="translate(-387.063 -80.255)" fill="#fff"/>
                  <path id="Trazado_99244" data-name="Trazado 99244" d="M501.224,81.474a1.275,1.275,0,1,1-1.274-1.219A1.247,1.247,0,0,1,501.224,81.474Z" transform="translate(-384.047 -80.255)" fill="#fff"/>
                </g>
                <g id="Grupo_53311" data-name="Grupo 53311" transform="translate(0 48.721)">
                  <ellipse id="Elipse_3965" data-name="Elipse 3965" cx="1.274" cy="1.218" rx="1.274" ry="1.218" transform="translate(0 0)" fill="#fff"/>
                  <path id="Trazado_99245" data-name="Trazado 99245" d="M425.207,88.982a1.275,1.275,0,1,1-1.273-1.219A1.246,1.246,0,0,1,425.207,88.982Z" transform="translate(-411.197 -87.763)" fill="#fff"/>
                  <ellipse id="Elipse_3966" data-name="Elipse 3966" cx="1.274" cy="1.218" rx="1.274" ry="1.218" transform="translate(22.926 0)" fill="#fff"/>
                  <path id="Trazado_99246" data-name="Trazado 99246" d="M442.1,88.982a1.275,1.275,0,1,1-1.274-1.219A1.247,1.247,0,0,1,442.1,88.982Z" transform="translate(-405.164 -87.763)" fill="#fff"/>
                  <path id="Trazado_99247" data-name="Trazado 99247" d="M450.546,88.982a1.275,1.275,0,1,1-1.273-1.219A1.246,1.246,0,0,1,450.546,88.982Z" transform="translate(-402.147 -87.763)" fill="#fff"/>
                  <ellipse id="Elipse_3967" data-name="Elipse 3967" cx="1.274" cy="1.218" rx="1.274" ry="1.218" transform="translate(57.315 0)" fill="#fff"/>
                  <path id="Trazado_99248" data-name="Trazado 99248" d="M467.44,88.982a1.275,1.275,0,1,1-1.274-1.219A1.247,1.247,0,0,1,467.44,88.982Z" transform="translate(-396.113 -87.763)" fill="#fff"/>
                  <ellipse id="Elipse_3968" data-name="Elipse 3968" cx="1.274" cy="1.218" rx="1.274" ry="1.218" transform="translate(80.242 0)" fill="#fff"/>
                  <ellipse id="Elipse_3969" data-name="Elipse 3969" cx="1.274" cy="1.218" rx="1.274" ry="1.218" transform="translate(91.705 0)" fill="#fff"/>
                  <path id="Trazado_99249" data-name="Trazado 99249" d="M492.778,88.982a1.275,1.275,0,1,1-1.274-1.219A1.247,1.247,0,0,1,492.778,88.982Z" transform="translate(-387.063 -87.763)" fill="#fff"/>
                  <path id="Trazado_99250" data-name="Trazado 99250" d="M501.224,88.982a1.275,1.275,0,1,1-1.274-1.219A1.247,1.247,0,0,1,501.224,88.982Z" transform="translate(-384.046 -87.763)" fill="#fff"/>
                </g>
                <g id="Grupo_53312" data-name="Grupo 53312" transform="translate(0 58.466)">
                  <ellipse id="Elipse_3970" data-name="Elipse 3970" cx="1.274" cy="1.218" rx="1.274" ry="1.218" fill="#fff"/>
                  <path id="Trazado_99251" data-name="Trazado 99251" d="M425.207,96.488a1.275,1.275,0,1,1-1.273-1.217A1.246,1.246,0,0,1,425.207,96.488Z" transform="translate(-411.197 -95.271)" fill="#fff"/>
                  <ellipse id="Elipse_3971" data-name="Elipse 3971" cx="1.274" cy="1.218" rx="1.274" ry="1.218" transform="translate(22.926)" fill="#fff"/>
                  <path id="Trazado_99252" data-name="Trazado 99252" d="M442.1,96.488a1.275,1.275,0,1,1-1.274-1.217A1.247,1.247,0,0,1,442.1,96.488Z" transform="translate(-405.164 -95.271)" fill="#fff"/>
                  <path id="Trazado_99253" data-name="Trazado 99253" d="M450.546,96.488a1.275,1.275,0,1,1-1.273-1.217A1.247,1.247,0,0,1,450.546,96.488Z" transform="translate(-402.147 -95.271)" fill="#fff"/>
                  <ellipse id="Elipse_3972" data-name="Elipse 3972" cx="1.274" cy="1.218" rx="1.274" ry="1.218" transform="translate(57.315)" fill="#fff"/>
                  <path id="Trazado_99254" data-name="Trazado 99254" d="M467.44,96.488a1.275,1.275,0,1,1-1.274-1.217A1.248,1.248,0,0,1,467.44,96.488Z" transform="translate(-396.113 -95.271)" fill="#fff"/>
                  <ellipse id="Elipse_3973" data-name="Elipse 3973" cx="1.274" cy="1.218" rx="1.274" ry="1.218" transform="translate(80.242)" fill="#fff"/>
                  <ellipse id="Elipse_3974" data-name="Elipse 3974" cx="1.274" cy="1.218" rx="1.274" ry="1.218" transform="translate(91.705)" fill="#fff"/>
                  <path id="Trazado_99255" data-name="Trazado 99255" d="M492.778,96.488a1.275,1.275,0,1,1-1.274-1.217A1.248,1.248,0,0,1,492.778,96.488Z" transform="translate(-387.063 -95.271)" fill="#fff"/>
                  <path id="Trazado_99256" data-name="Trazado 99256" d="M501.224,96.488a1.275,1.275,0,1,1-1.274-1.217A1.247,1.247,0,0,1,501.224,96.488Z" transform="translate(-384.046 -95.271)" fill="#fff"/>
                </g>
                <g id="Grupo_53313" data-name="Grupo 53313" transform="translate(0 68.21)">
                  <path id="Trazado_99257" data-name="Trazado 99257" d="M416.761,104a1.275,1.275,0,1,1-1.275-1.217A1.247,1.247,0,0,1,416.761,104Z" transform="translate(-414.214 -102.779)" fill="#fff"/>
                  <path id="Trazado_99258" data-name="Trazado 99258" d="M425.207,104a1.275,1.275,0,1,1-1.273-1.217A1.246,1.246,0,0,1,425.207,104Z" transform="translate(-411.197 -102.779)" fill="#fff"/>
                  <path id="Trazado_99259" data-name="Trazado 99259" d="M433.653,104a1.275,1.275,0,1,1-1.273-1.217A1.246,1.246,0,0,1,433.653,104Z" transform="translate(-408.181 -102.779)" fill="#fff"/>
                  <path id="Trazado_99260" data-name="Trazado 99260" d="M442.1,104a1.275,1.275,0,1,1-1.274-1.217A1.247,1.247,0,0,1,442.1,104Z" transform="translate(-405.164 -102.779)" fill="#fff"/>
                  <path id="Trazado_99261" data-name="Trazado 99261" d="M450.546,104a1.275,1.275,0,1,1-1.273-1.217A1.247,1.247,0,0,1,450.546,104Z" transform="translate(-402.147 -102.779)" fill="#fff"/>
                  <path id="Trazado_99262" data-name="Trazado 99262" d="M458.992,104a1.275,1.275,0,1,1-1.273-1.217A1.246,1.246,0,0,1,458.992,104Z" transform="translate(-399.13 -102.779)" fill="#fff"/>
                  <path id="Trazado_99263" data-name="Trazado 99263" d="M467.44,104a1.275,1.275,0,1,1-1.274-1.217A1.248,1.248,0,0,1,467.44,104Z" transform="translate(-396.113 -102.779)" fill="#fff"/>
                  <path id="Trazado_99264" data-name="Trazado 99264" d="M475.886,104a1.275,1.275,0,1,1-1.273-1.217A1.247,1.247,0,0,1,475.886,104Z" transform="translate(-393.097 -102.779)" fill="#fff"/>
                  <path id="Trazado_99265" data-name="Trazado 99265" d="M484.332,104a1.275,1.275,0,1,1-1.273-1.217A1.247,1.247,0,0,1,484.332,104Z" transform="translate(-390.08 -102.779)" fill="#fff"/>
                  <path id="Trazado_99266" data-name="Trazado 99266" d="M492.778,104a1.275,1.275,0,1,1-1.274-1.217A1.247,1.247,0,0,1,492.778,104Z" transform="translate(-387.063 -102.779)" fill="#fff"/>
                  <path id="Trazado_99267" data-name="Trazado 99267" d="M501.224,104a1.275,1.275,0,1,1-1.274-1.217A1.247,1.247,0,0,1,501.224,104Z" transform="translate(-384.047 -102.779)" fill="#fff"/>
                </g>
                <g id="Grupo_53314" data-name="Grupo 53314" transform="translate(0 77.955)">
                  <ellipse id="Elipse_3975" data-name="Elipse 3975" cx="1.274" cy="1.218" rx="1.274" ry="1.218" fill="#fff"/>
                  <path id="Trazado_99268" data-name="Trazado 99268" d="M425.207,111.5a1.275,1.275,0,1,1-1.273-1.217A1.247,1.247,0,0,1,425.207,111.5Z" transform="translate(-411.197 -110.286)" fill="#fff"/>
                  <ellipse id="Elipse_3976" data-name="Elipse 3976" cx="1.274" cy="1.218" rx="1.274" ry="1.218" transform="translate(22.926)" fill="#fff"/>
                  <path id="Trazado_99269" data-name="Trazado 99269" d="M442.1,111.5a1.275,1.275,0,1,1-1.274-1.217A1.248,1.248,0,0,1,442.1,111.5Z" transform="translate(-405.164 -110.286)" fill="#fff"/>
                  <path id="Trazado_99270" data-name="Trazado 99270" d="M450.546,111.5a1.275,1.275,0,1,1-1.273-1.217A1.247,1.247,0,0,1,450.546,111.5Z" transform="translate(-402.147 -110.286)" fill="#fff"/>
                  <ellipse id="Elipse_3977" data-name="Elipse 3977" cx="1.274" cy="1.218" rx="1.274" ry="1.218" transform="translate(57.315)" fill="#fff"/>
                  <path id="Trazado_99271" data-name="Trazado 99271" d="M467.44,111.5a1.275,1.275,0,1,1-1.274-1.217A1.248,1.248,0,0,1,467.44,111.5Z" transform="translate(-396.113 -110.286)" fill="#fff"/>
                  <ellipse id="Elipse_3978" data-name="Elipse 3978" cx="1.274" cy="1.218" rx="1.274" ry="1.218" transform="translate(80.242)" fill="#fff"/>
                  <ellipse id="Elipse_3979" data-name="Elipse 3979" cx="1.274" cy="1.218" rx="1.274" ry="1.218" transform="translate(91.705)" fill="#fff"/>
                  <path id="Trazado_99272" data-name="Trazado 99272" d="M492.778,111.5a1.275,1.275,0,1,1-1.274-1.217A1.248,1.248,0,0,1,492.778,111.5Z" transform="translate(-387.063 -110.286)" fill="#fff"/>
                  <path id="Trazado_99273" data-name="Trazado 99273" d="M501.224,111.5a1.275,1.275,0,1,1-1.274-1.217A1.248,1.248,0,0,1,501.224,111.5Z" transform="translate(-384.046 -110.286)" fill="#fff"/>
                </g>
                <g id="Grupo_53315" data-name="Grupo 53315" transform="translate(0 87.698)">
                  <path id="Trazado_99274" data-name="Trazado 99274" d="M416.761,119.013a1.275,1.275,0,1,1-1.275-1.219A1.248,1.248,0,0,1,416.761,119.013Z" transform="translate(-414.214 -117.794)" fill="#fff"/>
                  <path id="Trazado_99275" data-name="Trazado 99275" d="M425.207,119.013a1.275,1.275,0,1,1-1.273-1.219A1.247,1.247,0,0,1,425.207,119.013Z" transform="translate(-411.197 -117.794)" fill="#fff"/>
                  <path id="Trazado_99276" data-name="Trazado 99276" d="M433.653,119.013a1.275,1.275,0,1,1-1.273-1.219A1.247,1.247,0,0,1,433.653,119.013Z" transform="translate(-408.181 -117.794)" fill="#fff"/>
                  <path id="Trazado_99277" data-name="Trazado 99277" d="M442.1,119.013a1.275,1.275,0,1,1-1.274-1.219A1.248,1.248,0,0,1,442.1,119.013Z" transform="translate(-405.164 -117.794)" fill="#fff"/>
                  <path id="Trazado_99278" data-name="Trazado 99278" d="M450.546,119.013a1.275,1.275,0,1,1-1.273-1.219A1.247,1.247,0,0,1,450.546,119.013Z" transform="translate(-402.147 -117.794)" fill="#fff"/>
                  <path id="Trazado_99279" data-name="Trazado 99279" d="M458.992,119.013a1.275,1.275,0,1,1-1.273-1.219A1.247,1.247,0,0,1,458.992,119.013Z" transform="translate(-399.13 -117.794)" fill="#fff"/>
                  <path id="Trazado_99280" data-name="Trazado 99280" d="M467.44,119.013a1.275,1.275,0,1,1-1.274-1.219A1.248,1.248,0,0,1,467.44,119.013Z" transform="translate(-396.113 -117.794)" fill="#fff"/>
                  <path id="Trazado_99281" data-name="Trazado 99281" d="M475.886,119.013a1.275,1.275,0,1,1-1.273-1.219A1.247,1.247,0,0,1,475.886,119.013Z" transform="translate(-393.097 -117.794)" fill="#fff"/>
                  <path id="Trazado_99282" data-name="Trazado 99282" d="M484.332,119.013a1.275,1.275,0,1,1-1.273-1.219A1.247,1.247,0,0,1,484.332,119.013Z" transform="translate(-390.08 -117.794)" fill="#fff"/>
                  <path id="Trazado_99283" data-name="Trazado 99283" d="M492.778,119.013a1.275,1.275,0,1,1-1.274-1.219A1.248,1.248,0,0,1,492.778,119.013Z" transform="translate(-387.063 -117.794)" fill="#fff"/>
                  <path id="Trazado_99284" data-name="Trazado 99284" d="M501.224,119.013a1.275,1.275,0,1,1-1.274-1.219A1.248,1.248,0,0,1,501.224,119.013Z" transform="translate(-384.047 -117.794)" fill="#fff"/>
                </g>
                <g id="Grupo_53316" data-name="Grupo 53316" transform="translate(0 97.443)">
                  <ellipse id="Elipse_3980" data-name="Elipse 3980" cx="1.274" cy="1.218" rx="1.274" ry="1.218" transform="translate(0 0)" fill="#fff"/>
                  <path id="Trazado_99285" data-name="Trazado 99285" d="M425.207,126.521a1.275,1.275,0,1,1-1.273-1.219A1.246,1.246,0,0,1,425.207,126.521Z" transform="translate(-411.197 -125.302)" fill="#fff"/>
                  <ellipse id="Elipse_3981" data-name="Elipse 3981" cx="1.274" cy="1.218" rx="1.274" ry="1.218" transform="translate(22.926 0)" fill="#fff"/>
                  <path id="Trazado_99286" data-name="Trazado 99286" d="M442.1,126.521a1.275,1.275,0,1,1-1.274-1.219A1.247,1.247,0,0,1,442.1,126.521Z" transform="translate(-405.164 -125.302)" fill="#fff"/>
                  <path id="Trazado_99287" data-name="Trazado 99287" d="M450.546,126.521a1.275,1.275,0,1,1-1.273-1.219A1.246,1.246,0,0,1,450.546,126.521Z" transform="translate(-402.147 -125.302)" fill="#fff"/>
                  <ellipse id="Elipse_3982" data-name="Elipse 3982" cx="1.274" cy="1.218" rx="1.274" ry="1.218" transform="translate(57.315 0)" fill="#fff"/>
                  <path id="Trazado_99288" data-name="Trazado 99288" d="M467.44,126.521a1.275,1.275,0,1,1-1.274-1.219A1.247,1.247,0,0,1,467.44,126.521Z" transform="translate(-396.113 -125.302)" fill="#fff"/>
                  <ellipse id="Elipse_3983" data-name="Elipse 3983" cx="1.274" cy="1.218" rx="1.274" ry="1.218" transform="translate(80.242 0)" fill="#fff"/>
                  <ellipse id="Elipse_3984" data-name="Elipse 3984" cx="1.274" cy="1.218" rx="1.274" ry="1.218" transform="translate(91.705 0)" fill="#fff"/>
                  <path id="Trazado_99289" data-name="Trazado 99289" d="M492.778,126.521A1.275,1.275,0,1,1,491.5,125.3,1.247,1.247,0,0,1,492.778,126.521Z" transform="translate(-387.063 -125.302)" fill="#fff"/>
                  <path id="Trazado_99290" data-name="Trazado 99290" d="M501.224,126.521a1.275,1.275,0,1,1-1.274-1.219A1.247,1.247,0,0,1,501.224,126.521Z" transform="translate(-384.046 -125.302)" fill="#fff"/>
                </g>
                <g id="Grupo_53317" data-name="Grupo 53317" transform="translate(0 107.188)">
                  <ellipse id="Elipse_3985" data-name="Elipse 3985" cx="1.274" cy="1.218" rx="1.274" ry="1.218" transform="translate(0 0)" fill="#fff"/>
                  <path id="Trazado_99291" data-name="Trazado 99291" d="M425.207,134.029a1.275,1.275,0,1,1-1.273-1.219A1.246,1.246,0,0,1,425.207,134.029Z" transform="translate(-411.197 -132.81)" fill="#fff"/>
                  <ellipse id="Elipse_3986" data-name="Elipse 3986" cx="1.274" cy="1.218" rx="1.274" ry="1.218" transform="translate(22.926 0)" fill="#fff"/>
                  <path id="Trazado_99292" data-name="Trazado 99292" d="M442.1,134.029a1.275,1.275,0,1,1-1.274-1.219A1.247,1.247,0,0,1,442.1,134.029Z" transform="translate(-405.164 -132.81)" fill="#fff"/>
                  <path id="Trazado_99293" data-name="Trazado 99293" d="M450.546,134.029a1.275,1.275,0,1,1-1.273-1.219A1.246,1.246,0,0,1,450.546,134.029Z" transform="translate(-402.147 -132.81)" fill="#fff"/>
                  <ellipse id="Elipse_3987" data-name="Elipse 3987" cx="1.274" cy="1.218" rx="1.274" ry="1.218" transform="translate(57.315 0)" fill="#fff"/>
                  <path id="Trazado_99294" data-name="Trazado 99294" d="M467.44,134.029a1.275,1.275,0,1,1-1.274-1.219A1.247,1.247,0,0,1,467.44,134.029Z" transform="translate(-396.113 -132.81)" fill="#fff"/>
                  <ellipse id="Elipse_3988" data-name="Elipse 3988" cx="1.274" cy="1.218" rx="1.274" ry="1.218" transform="translate(80.242 0)" fill="#fff"/>
                  <ellipse id="Elipse_3989" data-name="Elipse 3989" cx="1.274" cy="1.218" rx="1.274" ry="1.218" transform="translate(91.705 0)" fill="#fff"/>
                  <path id="Trazado_99295" data-name="Trazado 99295" d="M492.778,134.029a1.275,1.275,0,1,1-1.274-1.219A1.247,1.247,0,0,1,492.778,134.029Z" transform="translate(-387.063 -132.81)" fill="#fff"/>
                  <path id="Trazado_99296" data-name="Trazado 99296" d="M501.224,134.029a1.275,1.275,0,1,1-1.274-1.219A1.247,1.247,0,0,1,501.224,134.029Z" transform="translate(-384.046 -132.81)" fill="#fff"/>
                </g>
              </g>
            </g>
          </g>
        </g>
      </g>
      <g id="Enmascarar_grupo_130580" data-name="Enmascarar grupo 130580" clip-path="url(#clip-path)">
        <rect id="_2205_w022_n001_639b_p15_639-_Convertido_" data-name="2205_w022_n001_639b_p15_639-[Convertido]" width="355" height="355.888" transform="translate(960 5132)" fill="#eef8ff"/>
      </g>
    </g>
    <g id="Grupo_162792" data-name="Grupo 162792" transform="translate(16680.863 1798.727)">
      <path id="Trazado_270395" data-name="Trazado 270395" d="M18.943,16H227.312a18.944,18.944,0,0,1,18.943,18.943V290.669a18.944,18.944,0,0,1-18.943,18.943H18.943A18.944,18.944,0,0,1,0,290.669V34.943A18.944,18.944,0,0,1,18.943,16Z" transform="translate(-1.836 -8.365)" fill="#ecce93"/>
      <path id="Trazado_270396" data-name="Trazado 270396" d="M32,241.348V48H240.369V303.726H94.378Z" transform="translate(-14.894 -21.422)" fill="#efefef"/>
      <path id="Trazado_270397" data-name="Trazado 270397" d="M94.378,374.625V437L32,374.625Z" transform="translate(-14.894 -154.699)" fill="#e76e54"/>
      <g id="Grupo_162790" data-name="Grupo 162790" transform="translate(54.992 73.934)">
        <path id="Trazado_270398" data-name="Trazado 270398" d="M169.471,128h75.771a9.471,9.471,0,0,1,0,18.943H169.471a9.471,9.471,0,1,1,0-18.943Z" transform="translate(-122.115 -128)" fill="#77959e"/>
        <path id="Trazado_270399" data-name="Trazado 270399" d="M96,128h18.943v18.943H96Z" transform="translate(-96 -128)" fill="#77959e"/>
        <path id="Trazado_270400" data-name="Trazado 270400" d="M96,192h18.943v18.943H96Z" transform="translate(-96 -154.115)" fill="#77959e"/>
        <path id="Trazado_270401" data-name="Trazado 270401" d="M96,256h18.943v18.943H96Z" transform="translate(-96 -180.229)" fill="#77959e"/>
        <path id="Trazado_270402" data-name="Trazado 270402" d="M96,320h18.943v18.943H96Z" transform="translate(-96 -206.344)" fill="#77959e"/>
        <path id="Trazado_270403" data-name="Trazado 270403" d="M169.471,192H226.3a9.471,9.471,0,1,1,0,18.943H169.471a9.471,9.471,0,1,1,0-18.943Z" transform="translate(-122.115 -154.115)" fill="#77959e"/>
        <path id="Trazado_270404" data-name="Trazado 270404" d="M169.471,256h18.943a9.471,9.471,0,1,1,0,18.943H169.471a9.471,9.471,0,1,1,0-18.943Z" transform="translate(-122.115 -180.229)" fill="#77959e"/>
      </g>
      <path id="Trazado_270405" data-name="Trazado 270405" d="M225.476,310.439H17.106A21.631,21.631,0,0,1-4.5,288.832V33.106A21.631,21.631,0,0,1,17.106,11.5H225.476a21.631,21.631,0,0,1,21.606,21.606V288.832A21.631,21.631,0,0,1,225.476,310.439ZM17.106,16.828A16.3,16.3,0,0,0,.828,33.106V288.832a16.3,16.3,0,0,0,16.279,16.279H225.476a16.3,16.3,0,0,0,16.279-16.279V33.106a16.3,16.3,0,0,0-16.279-16.279Z" transform="translate(0 -6.529)" fill="#1d1d1b"/>
      <path id="Trazado_270406" data-name="Trazado 270406" d="M241.2,304.554H91.438L27.5,240.616V43.5H241.2ZM93.645,299.226H235.869V48.828H32.828V238.409Z" transform="translate(-13.057 -19.586)" fill="#1d1d1b"/>
      <path id="Trazado_270407" data-name="Trazado 270407" d="M92.542,437.83a2.663,2.663,0,0,1-1.884-.78L28.28,374.672a2.664,2.664,0,0,1,1.884-4.547H92.541a2.664,2.664,0,0,1,2.664,2.664v62.378a2.665,2.665,0,0,1-2.663,2.664ZM36.595,375.453l53.283,53.283V375.453Z" transform="translate(-13.057 -152.863)" fill="#1d1d1b"/>
      <g id="Grupo_162791" data-name="Grupo 162791" transform="translate(52.328 71.271)">
        <path id="Trazado_270408" data-name="Trazado 270408" d="M243.406,147.77H167.635a12.135,12.135,0,1,1,0-24.27h75.771a12.135,12.135,0,0,1,0,24.27Zm-75.771-18.943a6.808,6.808,0,0,0,0,13.615h75.771a6.808,6.808,0,0,0,0-13.615Z" transform="translate(-117.615 -123.5)" fill="#1d1d1b"/>
        <path id="Trazado_270409" data-name="Trazado 270409" d="M115.77,147.77H91.5V123.5h24.27Zm-18.943-5.328h13.615V128.828H96.828Z" transform="translate(-91.5 -123.5)" fill="#1d1d1b"/>
        <path id="Trazado_270410" data-name="Trazado 270410" d="M115.77,211.77H91.5V187.5h24.27Zm-18.943-5.328h13.615V192.828H96.828Z" transform="translate(-91.5 -149.615)" fill="#1d1d1b"/>
        <path id="Trazado_270411" data-name="Trazado 270411" d="M115.77,275.77H91.5V251.5h24.27Zm-18.943-5.328h13.615V256.828H96.828Z" transform="translate(-91.5 -175.729)" fill="#1d1d1b"/>
        <path id="Trazado_270412" data-name="Trazado 270412" d="M115.77,339.77H91.5V315.5h24.27Zm-18.943-5.328h13.615V320.828H96.828Z" transform="translate(-91.5 -201.844)" fill="#1d1d1b"/>
        <path id="Trazado_270413" data-name="Trazado 270413" d="M224.463,211.77H167.635a12.135,12.135,0,1,1,0-24.27h56.828a12.135,12.135,0,1,1,0,24.27Zm-56.828-18.943a6.808,6.808,0,1,0,0,13.615h56.828a6.808,6.808,0,1,0,0-13.615Z" transform="translate(-117.615 -149.615)" fill="#1d1d1b"/>
        <path id="Trazado_270414" data-name="Trazado 270414" d="M186.578,275.77H167.635a12.135,12.135,0,0,1,0-24.27h18.943a12.135,12.135,0,0,1,0,24.27Zm-18.943-18.943a6.808,6.808,0,1,0,0,13.615h18.943a6.808,6.808,0,1,0,0-13.615Z" transform="translate(-117.615 -175.729)" fill="#1d1d1b"/>
      </g>
      <path id="Trazado_270415" data-name="Trazado 270415" d="M128,37.885V0h94.713V37.885a18.944,18.944,0,0,1-18.943,18.943H146.943A18.944,18.944,0,0,1,128,37.885Z" transform="translate(-54.066 -1.836)" fill="#e76e54"/>
      <path id="Trazado_270416" data-name="Trazado 270416" d="M201.934,57.656H145.106A21.631,21.631,0,0,1,123.5,36.049V-4.5H223.541V36.049A21.631,21.631,0,0,1,201.934,57.656ZM128.828.828V36.049a16.3,16.3,0,0,0,16.279,16.279h56.828a16.3,16.3,0,0,0,16.279-16.279V.828Z" transform="translate(-52.229)" fill="#1d1d1b"/>
      <path id="Trazado_270417" data-name="Trazado 270417" d="M394.484,309.242A85.242,85.242,0,1,1,309.242,224,85.244,85.244,0,0,1,394.484,309.242Z" transform="translate(-93.238 -93.238)" fill="#48c8ef"/>
      <path id="Trazado_270418" data-name="Trazado 270418" d="M307.406,395.312a87.906,87.906,0,1,1,87.906-87.906A88.005,88.005,0,0,1,307.406,395.312Zm0-170.484a82.578,82.578,0,1,0,82.578,82.578A82.671,82.671,0,0,0,307.406,224.828Z" transform="translate(-91.401 -91.401)" fill="#1d1d1b"/>
      <path id="Trazado_270419" data-name="Trazado 270419" d="M320.444,385.821l-18.355-18.364a9.47,9.47,0,0,1,13.393-13.393l6.137,6.128,42.9-35.754a9.475,9.475,0,0,1,12.133,14.556Z" transform="translate(-123.969 -133.323)" fill="#fff"/>
      <path id="Trazado_270420" data-name="Trazado 270420" d="M318.447,387.588,298.372,367.5a12.134,12.134,0,0,1,17.16-17.161l4.416,4.41,41.029-34.2A12.139,12.139,0,1,1,376.52,339.2Zm-11.5-35.467a6.8,6.8,0,0,0-4.811,11.616l16.635,16.644,54.334-45.27a6.811,6.811,0,1,0-8.721-10.465l-44.764,37.311-7.858-7.845A6.788,6.788,0,0,0,306.952,352.121Z" transform="translate(-122.137 -131.487)" fill="#1d1d1b"/>
    </g>
  </g>
</svg>
