<svg xmlns="http://www.w3.org/2000/svg" xmlns:xlink="http://www.w3.org/1999/xlink" width="500.037" height="355" viewBox="0 0 500.037 355">
  <defs>
    <linearGradient id="linear-gradient" x1="0.5" x2="0.5" y2="1" gradientUnits="objectBoundingBox">
      <stop offset="0" stop-color="#ba68c8"/>
      <stop offset="0.19" stop-color="#9139af"/>
      <stop offset="0.31" stop-color="#7b1fa2"/>
      <stop offset="1" stop-color="#45147b"/>
    </linearGradient>
    <linearGradient id="linear-gradient-2" x1="0.5" x2="0.5" y2="1" gradientUnits="objectBoundingBox">
      <stop offset="0" stop-color="#93eac2"/>
      <stop offset="1" stop-color="#20cb7d"/>
    </linearGradient>
    <clipPath id="clip-path">
      <ellipse id="Elipse_3994" data-name="Elipse 3994" cx="177.5" cy="177.5" rx="177.5" ry="177.5" transform="translate(960 5132)" fill="#fff"/>
    </clipPath>
  </defs>
  <g id="Grupo_172652" data-name="Grupo 172652" transform="translate(-861.732 -955)">
    <g id="Grupo_150206" data-name="Grupo 150206" transform="translate(0 -4177)">
      <g id="Grupo_130729" data-name="Grupo 130729" transform="translate(861.732 5141.368)">
        <g id="Grupo_79815" data-name="Grupo 79815" transform="translate(0 0)">
          <g id="Grupo_79776" data-name="Grupo 79776" transform="translate(0 0)">
            <g id="Grupo_79644" data-name="Grupo 79644">
              <path id="Trazado_145968" data-name="Trazado 145968" d="M93.8,0A93.8,93.8,0,1,1,0,93.8,93.8,93.8,0,0,1,93.8,0Z" transform="translate(280.445 144.754)" fill="#fda929" opacity="0.28" style="mix-blend-mode: multiply;isolation: isolate"/>
              <path id="Trazado_145969" data-name="Trazado 145969" d="M64.093,0A64.093,64.093,0,1,1,0,64.093,64.093,64.093,0,0,1,64.093,0Z" transform="translate(52.406 23.791)" opacity="0.6" fill="url(#linear-gradient)" style="mix-blend-mode: multiply;isolation: isolate"/>
              <rect id="Rectángulo_34812" data-name="Rectángulo 34812" width="500.037" height="345.632" fill="none"/>
              <path id="Trazado_145971" data-name="Trazado 145971" d="M40.514,0A40.514,40.514,0,1,1,0,40.514,40.514,40.514,0,0,1,40.514,0Z" transform="translate(69.62 229.682)" opacity="0.444" fill="url(#linear-gradient-2)" style="mix-blend-mode: multiply;isolation: isolate"/>
              <g id="Grupo_78276" data-name="Grupo 78276" transform="translate(315.655 189.6)">
                <g id="Grupo_53306" data-name="Grupo 53306" transform="translate(0)">
                  <path id="Trazado_99200" data-name="Trazado 99200" d="M416.761,51.441a1.275,1.275,0,1,1-1.275-1.217A1.247,1.247,0,0,1,416.761,51.441Z" transform="translate(-414.214 -50.224)" fill="#fff"/>
                  <path id="Trazado_99201" data-name="Trazado 99201" d="M425.207,51.441a1.275,1.275,0,1,1-1.273-1.217A1.246,1.246,0,0,1,425.207,51.441Z" transform="translate(-411.197 -50.224)" fill="#fff"/>
                  <path id="Trazado_99202" data-name="Trazado 99202" d="M433.653,51.441a1.275,1.275,0,1,1-1.273-1.217A1.246,1.246,0,0,1,433.653,51.441Z" transform="translate(-408.181 -50.224)" fill="#fff"/>
                  <path id="Trazado_99203" data-name="Trazado 99203" d="M442.1,51.441a1.275,1.275,0,1,1-1.274-1.217A1.247,1.247,0,0,1,442.1,51.441Z" transform="translate(-405.164 -50.224)" fill="#fff"/>
                  <path id="Trazado_99204" data-name="Trazado 99204" d="M450.546,51.441a1.275,1.275,0,1,1-1.273-1.217A1.247,1.247,0,0,1,450.546,51.441Z" transform="translate(-402.147 -50.224)" fill="#fff"/>
                  <path id="Trazado_99205" data-name="Trazado 99205" d="M458.992,51.441a1.275,1.275,0,1,1-1.273-1.217A1.246,1.246,0,0,1,458.992,51.441Z" transform="translate(-399.13 -50.224)" fill="#fff"/>
                  <path id="Trazado_99206" data-name="Trazado 99206" d="M467.44,51.441a1.275,1.275,0,1,1-1.274-1.217A1.248,1.248,0,0,1,467.44,51.441Z" transform="translate(-396.113 -50.224)" fill="#fff"/>
                  <path id="Trazado_99207" data-name="Trazado 99207" d="M475.886,51.441a1.275,1.275,0,1,1-1.273-1.217A1.247,1.247,0,0,1,475.886,51.441Z" transform="translate(-393.097 -50.224)" fill="#fff"/>
                  <path id="Trazado_99208" data-name="Trazado 99208" d="M484.332,51.441a1.275,1.275,0,1,1-1.273-1.217A1.247,1.247,0,0,1,484.332,51.441Z" transform="translate(-390.08 -50.224)" fill="#fff"/>
                  <path id="Trazado_99209" data-name="Trazado 99209" d="M492.778,51.441a1.275,1.275,0,1,1-1.274-1.217A1.247,1.247,0,0,1,492.778,51.441Z" transform="translate(-387.063 -50.224)" fill="#fff"/>
                  <path id="Trazado_99210" data-name="Trazado 99210" d="M501.224,51.441a1.275,1.275,0,1,1-1.274-1.217A1.247,1.247,0,0,1,501.224,51.441Z" transform="translate(-384.047 -50.224)" fill="#fff"/>
                </g>
                <g id="Grupo_53307" data-name="Grupo 53307" transform="translate(0 9.744)">
                  <path id="Trazado_99211" data-name="Trazado 99211" d="M416.761,58.949a1.275,1.275,0,1,1-1.275-1.217A1.247,1.247,0,0,1,416.761,58.949Z" transform="translate(-414.214 -57.732)" fill="#fff"/>
                  <path id="Trazado_99212" data-name="Trazado 99212" d="M425.207,58.949a1.275,1.275,0,1,1-1.273-1.217A1.246,1.246,0,0,1,425.207,58.949Z" transform="translate(-411.197 -57.732)" fill="#fff"/>
                  <path id="Trazado_99213" data-name="Trazado 99213" d="M433.653,58.949a1.275,1.275,0,1,1-1.273-1.217A1.246,1.246,0,0,1,433.653,58.949Z" transform="translate(-408.181 -57.732)" fill="#fff"/>
                  <path id="Trazado_99214" data-name="Trazado 99214" d="M442.1,58.949a1.275,1.275,0,1,1-1.274-1.217A1.247,1.247,0,0,1,442.1,58.949Z" transform="translate(-405.164 -57.732)" fill="#fff"/>
                  <path id="Trazado_99215" data-name="Trazado 99215" d="M450.546,58.949a1.275,1.275,0,1,1-1.273-1.217A1.247,1.247,0,0,1,450.546,58.949Z" transform="translate(-402.147 -57.732)" fill="#fff"/>
                  <path id="Trazado_99216" data-name="Trazado 99216" d="M458.992,58.949a1.275,1.275,0,1,1-1.273-1.217A1.246,1.246,0,0,1,458.992,58.949Z" transform="translate(-399.13 -57.732)" fill="#fff"/>
                  <path id="Trazado_99217" data-name="Trazado 99217" d="M467.44,58.949a1.275,1.275,0,1,1-1.274-1.217A1.248,1.248,0,0,1,467.44,58.949Z" transform="translate(-396.113 -57.732)" fill="#fff"/>
                  <path id="Trazado_99218" data-name="Trazado 99218" d="M475.886,58.949a1.275,1.275,0,1,1-1.273-1.217A1.247,1.247,0,0,1,475.886,58.949Z" transform="translate(-393.097 -57.732)" fill="#fff"/>
                  <path id="Trazado_99219" data-name="Trazado 99219" d="M484.332,58.949a1.275,1.275,0,1,1-1.273-1.217A1.247,1.247,0,0,1,484.332,58.949Z" transform="translate(-390.08 -57.732)" fill="#fff"/>
                  <path id="Trazado_99220" data-name="Trazado 99220" d="M492.778,58.949a1.275,1.275,0,1,1-1.274-1.217A1.247,1.247,0,0,1,492.778,58.949Z" transform="translate(-387.063 -57.732)" fill="#fff"/>
                  <path id="Trazado_99221" data-name="Trazado 99221" d="M501.224,58.949a1.275,1.275,0,1,1-1.274-1.217A1.247,1.247,0,0,1,501.224,58.949Z" transform="translate(-384.047 -57.732)" fill="#fff"/>
                </g>
                <g id="Grupo_53308" data-name="Grupo 53308" transform="translate(0 19.489)">
                  <ellipse id="Elipse_3955" data-name="Elipse 3955" cx="1.274" cy="1.218" rx="1.274" ry="1.218" fill="#fff"/>
                  <path id="Trazado_99222" data-name="Trazado 99222" d="M425.207,66.457a1.275,1.275,0,1,1-1.273-1.217A1.247,1.247,0,0,1,425.207,66.457Z" transform="translate(-411.197 -65.239)" fill="#fff"/>
                  <ellipse id="Elipse_3956" data-name="Elipse 3956" cx="1.274" cy="1.218" rx="1.274" ry="1.218" transform="translate(22.926)" fill="#fff"/>
                  <path id="Trazado_99223" data-name="Trazado 99223" d="M442.1,66.457a1.275,1.275,0,1,1-1.274-1.217A1.248,1.248,0,0,1,442.1,66.457Z" transform="translate(-405.164 -65.239)" fill="#fff"/>
                  <path id="Trazado_99224" data-name="Trazado 99224" d="M450.546,66.457a1.275,1.275,0,1,1-1.273-1.217A1.247,1.247,0,0,1,450.546,66.457Z" transform="translate(-402.147 -65.239)" fill="#fff"/>
                  <ellipse id="Elipse_3957" data-name="Elipse 3957" cx="1.274" cy="1.218" rx="1.274" ry="1.218" transform="translate(57.315)" fill="#fff"/>
                  <path id="Trazado_99225" data-name="Trazado 99225" d="M467.44,66.457a1.275,1.275,0,1,1-1.274-1.217A1.248,1.248,0,0,1,467.44,66.457Z" transform="translate(-396.113 -65.239)" fill="#fff"/>
                  <ellipse id="Elipse_3958" data-name="Elipse 3958" cx="1.274" cy="1.218" rx="1.274" ry="1.218" transform="translate(80.242)" fill="#fff"/>
                  <ellipse id="Elipse_3959" data-name="Elipse 3959" cx="1.274" cy="1.218" rx="1.274" ry="1.218" transform="translate(91.705)" fill="#fff"/>
                  <path id="Trazado_99226" data-name="Trazado 99226" d="M492.778,66.457A1.275,1.275,0,1,1,491.5,65.24,1.248,1.248,0,0,1,492.778,66.457Z" transform="translate(-387.063 -65.239)" fill="#fff"/>
                  <path id="Trazado_99227" data-name="Trazado 99227" d="M501.224,66.457a1.275,1.275,0,1,1-1.274-1.217A1.248,1.248,0,0,1,501.224,66.457Z" transform="translate(-384.046 -65.239)" fill="#fff"/>
                </g>
                <g id="Grupo_53309" data-name="Grupo 53309" transform="translate(0 29.232)">
                  <ellipse id="Elipse_3960" data-name="Elipse 3960" cx="1.274" cy="1.218" rx="1.274" ry="1.218" transform="translate(0 0.001)" fill="#fff"/>
                  <path id="Trazado_99228" data-name="Trazado 99228" d="M425.207,73.966a1.275,1.275,0,1,1-1.273-1.219A1.246,1.246,0,0,1,425.207,73.966Z" transform="translate(-411.197 -72.747)" fill="#fff"/>
                  <ellipse id="Elipse_3961" data-name="Elipse 3961" cx="1.274" cy="1.218" rx="1.274" ry="1.218" transform="translate(22.926 0.001)" fill="#fff"/>
                  <path id="Trazado_99229" data-name="Trazado 99229" d="M442.1,73.966a1.275,1.275,0,1,1-1.274-1.219A1.247,1.247,0,0,1,442.1,73.966Z" transform="translate(-405.164 -72.747)" fill="#fff"/>
                  <path id="Trazado_99230" data-name="Trazado 99230" d="M450.546,73.966a1.275,1.275,0,1,1-1.273-1.219A1.246,1.246,0,0,1,450.546,73.966Z" transform="translate(-402.147 -72.747)" fill="#fff"/>
                  <ellipse id="Elipse_3962" data-name="Elipse 3962" cx="1.274" cy="1.218" rx="1.274" ry="1.218" transform="translate(57.315 0.001)" fill="#fff"/>
                  <path id="Trazado_99231" data-name="Trazado 99231" d="M467.44,73.966a1.275,1.275,0,1,1-1.274-1.219A1.247,1.247,0,0,1,467.44,73.966Z" transform="translate(-396.113 -72.747)" fill="#fff"/>
                  <ellipse id="Elipse_3963" data-name="Elipse 3963" cx="1.274" cy="1.218" rx="1.274" ry="1.218" transform="translate(80.242 0.001)" fill="#fff"/>
                  <ellipse id="Elipse_3964" data-name="Elipse 3964" cx="1.274" cy="1.218" rx="1.274" ry="1.218" transform="translate(91.705 0.001)" fill="#fff"/>
                  <path id="Trazado_99232" data-name="Trazado 99232" d="M492.778,73.966a1.275,1.275,0,1,1-1.274-1.219A1.247,1.247,0,0,1,492.778,73.966Z" transform="translate(-387.063 -72.747)" fill="#fff"/>
                  <path id="Trazado_99233" data-name="Trazado 99233" d="M501.224,73.966a1.275,1.275,0,1,1-1.274-1.219A1.247,1.247,0,0,1,501.224,73.966Z" transform="translate(-384.046 -72.747)" fill="#fff"/>
                </g>
                <g id="Grupo_53310" data-name="Grupo 53310" transform="translate(0 38.977)">
                  <path id="Trazado_99234" data-name="Trazado 99234" d="M416.761,81.474a1.275,1.275,0,1,1-1.275-1.219A1.247,1.247,0,0,1,416.761,81.474Z" transform="translate(-414.214 -80.255)" fill="#fff"/>
                  <path id="Trazado_99235" data-name="Trazado 99235" d="M425.207,81.474a1.275,1.275,0,1,1-1.273-1.219A1.246,1.246,0,0,1,425.207,81.474Z" transform="translate(-411.197 -80.255)" fill="#fff"/>
                  <path id="Trazado_99236" data-name="Trazado 99236" d="M433.653,81.474a1.275,1.275,0,1,1-1.273-1.219A1.246,1.246,0,0,1,433.653,81.474Z" transform="translate(-408.181 -80.255)" fill="#fff"/>
                  <path id="Trazado_99237" data-name="Trazado 99237" d="M442.1,81.474a1.275,1.275,0,1,1-1.274-1.219A1.247,1.247,0,0,1,442.1,81.474Z" transform="translate(-405.164 -80.255)" fill="#fff"/>
                  <path id="Trazado_99238" data-name="Trazado 99238" d="M450.546,81.474a1.275,1.275,0,1,1-1.273-1.219A1.246,1.246,0,0,1,450.546,81.474Z" transform="translate(-402.147 -80.255)" fill="#fff"/>
                  <path id="Trazado_99239" data-name="Trazado 99239" d="M458.992,81.474a1.275,1.275,0,1,1-1.273-1.219A1.246,1.246,0,0,1,458.992,81.474Z" transform="translate(-399.13 -80.255)" fill="#fff"/>
                  <path id="Trazado_99240" data-name="Trazado 99240" d="M467.44,81.474a1.275,1.275,0,1,1-1.274-1.219A1.247,1.247,0,0,1,467.44,81.474Z" transform="translate(-396.113 -80.255)" fill="#fff"/>
                  <path id="Trazado_99241" data-name="Trazado 99241" d="M475.886,81.474a1.275,1.275,0,1,1-1.273-1.219A1.246,1.246,0,0,1,475.886,81.474Z" transform="translate(-393.097 -80.255)" fill="#fff"/>
                  <path id="Trazado_99242" data-name="Trazado 99242" d="M484.332,81.474a1.275,1.275,0,1,1-1.273-1.219A1.246,1.246,0,0,1,484.332,81.474Z" transform="translate(-390.08 -80.255)" fill="#fff"/>
                  <path id="Trazado_99243" data-name="Trazado 99243" d="M492.778,81.474a1.275,1.275,0,1,1-1.274-1.219A1.247,1.247,0,0,1,492.778,81.474Z" transform="translate(-387.063 -80.255)" fill="#fff"/>
                  <path id="Trazado_99244" data-name="Trazado 99244" d="M501.224,81.474a1.275,1.275,0,1,1-1.274-1.219A1.247,1.247,0,0,1,501.224,81.474Z" transform="translate(-384.047 -80.255)" fill="#fff"/>
                </g>
                <g id="Grupo_53311" data-name="Grupo 53311" transform="translate(0 48.721)">
                  <ellipse id="Elipse_3965" data-name="Elipse 3965" cx="1.274" cy="1.218" rx="1.274" ry="1.218" transform="translate(0 0)" fill="#fff"/>
                  <path id="Trazado_99245" data-name="Trazado 99245" d="M425.207,88.982a1.275,1.275,0,1,1-1.273-1.219A1.246,1.246,0,0,1,425.207,88.982Z" transform="translate(-411.197 -87.763)" fill="#fff"/>
                  <ellipse id="Elipse_3966" data-name="Elipse 3966" cx="1.274" cy="1.218" rx="1.274" ry="1.218" transform="translate(22.926 0)" fill="#fff"/>
                  <path id="Trazado_99246" data-name="Trazado 99246" d="M442.1,88.982a1.275,1.275,0,1,1-1.274-1.219A1.247,1.247,0,0,1,442.1,88.982Z" transform="translate(-405.164 -87.763)" fill="#fff"/>
                  <path id="Trazado_99247" data-name="Trazado 99247" d="M450.546,88.982a1.275,1.275,0,1,1-1.273-1.219A1.246,1.246,0,0,1,450.546,88.982Z" transform="translate(-402.147 -87.763)" fill="#fff"/>
                  <ellipse id="Elipse_3967" data-name="Elipse 3967" cx="1.274" cy="1.218" rx="1.274" ry="1.218" transform="translate(57.315 0)" fill="#fff"/>
                  <path id="Trazado_99248" data-name="Trazado 99248" d="M467.44,88.982a1.275,1.275,0,1,1-1.274-1.219A1.247,1.247,0,0,1,467.44,88.982Z" transform="translate(-396.113 -87.763)" fill="#fff"/>
                  <ellipse id="Elipse_3968" data-name="Elipse 3968" cx="1.274" cy="1.218" rx="1.274" ry="1.218" transform="translate(80.242 0)" fill="#fff"/>
                  <ellipse id="Elipse_3969" data-name="Elipse 3969" cx="1.274" cy="1.218" rx="1.274" ry="1.218" transform="translate(91.705 0)" fill="#fff"/>
                  <path id="Trazado_99249" data-name="Trazado 99249" d="M492.778,88.982a1.275,1.275,0,1,1-1.274-1.219A1.247,1.247,0,0,1,492.778,88.982Z" transform="translate(-387.063 -87.763)" fill="#fff"/>
                  <path id="Trazado_99250" data-name="Trazado 99250" d="M501.224,88.982a1.275,1.275,0,1,1-1.274-1.219A1.247,1.247,0,0,1,501.224,88.982Z" transform="translate(-384.046 -87.763)" fill="#fff"/>
                </g>
                <g id="Grupo_53312" data-name="Grupo 53312" transform="translate(0 58.466)">
                  <ellipse id="Elipse_3970" data-name="Elipse 3970" cx="1.274" cy="1.218" rx="1.274" ry="1.218" fill="#fff"/>
                  <path id="Trazado_99251" data-name="Trazado 99251" d="M425.207,96.488a1.275,1.275,0,1,1-1.273-1.217A1.246,1.246,0,0,1,425.207,96.488Z" transform="translate(-411.197 -95.271)" fill="#fff"/>
                  <ellipse id="Elipse_3971" data-name="Elipse 3971" cx="1.274" cy="1.218" rx="1.274" ry="1.218" transform="translate(22.926)" fill="#fff"/>
                  <path id="Trazado_99252" data-name="Trazado 99252" d="M442.1,96.488a1.275,1.275,0,1,1-1.274-1.217A1.247,1.247,0,0,1,442.1,96.488Z" transform="translate(-405.164 -95.271)" fill="#fff"/>
                  <path id="Trazado_99253" data-name="Trazado 99253" d="M450.546,96.488a1.275,1.275,0,1,1-1.273-1.217A1.247,1.247,0,0,1,450.546,96.488Z" transform="translate(-402.147 -95.271)" fill="#fff"/>
                  <ellipse id="Elipse_3972" data-name="Elipse 3972" cx="1.274" cy="1.218" rx="1.274" ry="1.218" transform="translate(57.315)" fill="#fff"/>
                  <path id="Trazado_99254" data-name="Trazado 99254" d="M467.44,96.488a1.275,1.275,0,1,1-1.274-1.217A1.248,1.248,0,0,1,467.44,96.488Z" transform="translate(-396.113 -95.271)" fill="#fff"/>
                  <ellipse id="Elipse_3973" data-name="Elipse 3973" cx="1.274" cy="1.218" rx="1.274" ry="1.218" transform="translate(80.242)" fill="#fff"/>
                  <ellipse id="Elipse_3974" data-name="Elipse 3974" cx="1.274" cy="1.218" rx="1.274" ry="1.218" transform="translate(91.705)" fill="#fff"/>
                  <path id="Trazado_99255" data-name="Trazado 99255" d="M492.778,96.488a1.275,1.275,0,1,1-1.274-1.217A1.248,1.248,0,0,1,492.778,96.488Z" transform="translate(-387.063 -95.271)" fill="#fff"/>
                  <path id="Trazado_99256" data-name="Trazado 99256" d="M501.224,96.488a1.275,1.275,0,1,1-1.274-1.217A1.247,1.247,0,0,1,501.224,96.488Z" transform="translate(-384.046 -95.271)" fill="#fff"/>
                </g>
                <g id="Grupo_53313" data-name="Grupo 53313" transform="translate(0 68.21)">
                  <path id="Trazado_99257" data-name="Trazado 99257" d="M416.761,104a1.275,1.275,0,1,1-1.275-1.217A1.247,1.247,0,0,1,416.761,104Z" transform="translate(-414.214 -102.779)" fill="#fff"/>
                  <path id="Trazado_99258" data-name="Trazado 99258" d="M425.207,104a1.275,1.275,0,1,1-1.273-1.217A1.246,1.246,0,0,1,425.207,104Z" transform="translate(-411.197 -102.779)" fill="#fff"/>
                  <path id="Trazado_99259" data-name="Trazado 99259" d="M433.653,104a1.275,1.275,0,1,1-1.273-1.217A1.246,1.246,0,0,1,433.653,104Z" transform="translate(-408.181 -102.779)" fill="#fff"/>
                  <path id="Trazado_99260" data-name="Trazado 99260" d="M442.1,104a1.275,1.275,0,1,1-1.274-1.217A1.247,1.247,0,0,1,442.1,104Z" transform="translate(-405.164 -102.779)" fill="#fff"/>
                  <path id="Trazado_99261" data-name="Trazado 99261" d="M450.546,104a1.275,1.275,0,1,1-1.273-1.217A1.247,1.247,0,0,1,450.546,104Z" transform="translate(-402.147 -102.779)" fill="#fff"/>
                  <path id="Trazado_99262" data-name="Trazado 99262" d="M458.992,104a1.275,1.275,0,1,1-1.273-1.217A1.246,1.246,0,0,1,458.992,104Z" transform="translate(-399.13 -102.779)" fill="#fff"/>
                  <path id="Trazado_99263" data-name="Trazado 99263" d="M467.44,104a1.275,1.275,0,1,1-1.274-1.217A1.248,1.248,0,0,1,467.44,104Z" transform="translate(-396.113 -102.779)" fill="#fff"/>
                  <path id="Trazado_99264" data-name="Trazado 99264" d="M475.886,104a1.275,1.275,0,1,1-1.273-1.217A1.247,1.247,0,0,1,475.886,104Z" transform="translate(-393.097 -102.779)" fill="#fff"/>
                  <path id="Trazado_99265" data-name="Trazado 99265" d="M484.332,104a1.275,1.275,0,1,1-1.273-1.217A1.247,1.247,0,0,1,484.332,104Z" transform="translate(-390.08 -102.779)" fill="#fff"/>
                  <path id="Trazado_99266" data-name="Trazado 99266" d="M492.778,104a1.275,1.275,0,1,1-1.274-1.217A1.247,1.247,0,0,1,492.778,104Z" transform="translate(-387.063 -102.779)" fill="#fff"/>
                  <path id="Trazado_99267" data-name="Trazado 99267" d="M501.224,104a1.275,1.275,0,1,1-1.274-1.217A1.247,1.247,0,0,1,501.224,104Z" transform="translate(-384.047 -102.779)" fill="#fff"/>
                </g>
                <g id="Grupo_53314" data-name="Grupo 53314" transform="translate(0 77.955)">
                  <ellipse id="Elipse_3975" data-name="Elipse 3975" cx="1.274" cy="1.218" rx="1.274" ry="1.218" fill="#fff"/>
                  <path id="Trazado_99268" data-name="Trazado 99268" d="M425.207,111.5a1.275,1.275,0,1,1-1.273-1.217A1.247,1.247,0,0,1,425.207,111.5Z" transform="translate(-411.197 -110.286)" fill="#fff"/>
                  <ellipse id="Elipse_3976" data-name="Elipse 3976" cx="1.274" cy="1.218" rx="1.274" ry="1.218" transform="translate(22.926)" fill="#fff"/>
                  <path id="Trazado_99269" data-name="Trazado 99269" d="M442.1,111.5a1.275,1.275,0,1,1-1.274-1.217A1.248,1.248,0,0,1,442.1,111.5Z" transform="translate(-405.164 -110.286)" fill="#fff"/>
                  <path id="Trazado_99270" data-name="Trazado 99270" d="M450.546,111.5a1.275,1.275,0,1,1-1.273-1.217A1.247,1.247,0,0,1,450.546,111.5Z" transform="translate(-402.147 -110.286)" fill="#fff"/>
                  <ellipse id="Elipse_3977" data-name="Elipse 3977" cx="1.274" cy="1.218" rx="1.274" ry="1.218" transform="translate(57.315)" fill="#fff"/>
                  <path id="Trazado_99271" data-name="Trazado 99271" d="M467.44,111.5a1.275,1.275,0,1,1-1.274-1.217A1.248,1.248,0,0,1,467.44,111.5Z" transform="translate(-396.113 -110.286)" fill="#fff"/>
                  <ellipse id="Elipse_3978" data-name="Elipse 3978" cx="1.274" cy="1.218" rx="1.274" ry="1.218" transform="translate(80.242)" fill="#fff"/>
                  <ellipse id="Elipse_3979" data-name="Elipse 3979" cx="1.274" cy="1.218" rx="1.274" ry="1.218" transform="translate(91.705)" fill="#fff"/>
                  <path id="Trazado_99272" data-name="Trazado 99272" d="M492.778,111.5a1.275,1.275,0,1,1-1.274-1.217A1.248,1.248,0,0,1,492.778,111.5Z" transform="translate(-387.063 -110.286)" fill="#fff"/>
                  <path id="Trazado_99273" data-name="Trazado 99273" d="M501.224,111.5a1.275,1.275,0,1,1-1.274-1.217A1.248,1.248,0,0,1,501.224,111.5Z" transform="translate(-384.046 -110.286)" fill="#fff"/>
                </g>
                <g id="Grupo_53315" data-name="Grupo 53315" transform="translate(0 87.698)">
                  <path id="Trazado_99274" data-name="Trazado 99274" d="M416.761,119.013a1.275,1.275,0,1,1-1.275-1.219A1.248,1.248,0,0,1,416.761,119.013Z" transform="translate(-414.214 -117.794)" fill="#fff"/>
                  <path id="Trazado_99275" data-name="Trazado 99275" d="M425.207,119.013a1.275,1.275,0,1,1-1.273-1.219A1.247,1.247,0,0,1,425.207,119.013Z" transform="translate(-411.197 -117.794)" fill="#fff"/>
                  <path id="Trazado_99276" data-name="Trazado 99276" d="M433.653,119.013a1.275,1.275,0,1,1-1.273-1.219A1.247,1.247,0,0,1,433.653,119.013Z" transform="translate(-408.181 -117.794)" fill="#fff"/>
                  <path id="Trazado_99277" data-name="Trazado 99277" d="M442.1,119.013a1.275,1.275,0,1,1-1.274-1.219A1.248,1.248,0,0,1,442.1,119.013Z" transform="translate(-405.164 -117.794)" fill="#fff"/>
                  <path id="Trazado_99278" data-name="Trazado 99278" d="M450.546,119.013a1.275,1.275,0,1,1-1.273-1.219A1.247,1.247,0,0,1,450.546,119.013Z" transform="translate(-402.147 -117.794)" fill="#fff"/>
                  <path id="Trazado_99279" data-name="Trazado 99279" d="M458.992,119.013a1.275,1.275,0,1,1-1.273-1.219A1.247,1.247,0,0,1,458.992,119.013Z" transform="translate(-399.13 -117.794)" fill="#fff"/>
                  <path id="Trazado_99280" data-name="Trazado 99280" d="M467.44,119.013a1.275,1.275,0,1,1-1.274-1.219A1.248,1.248,0,0,1,467.44,119.013Z" transform="translate(-396.113 -117.794)" fill="#fff"/>
                  <path id="Trazado_99281" data-name="Trazado 99281" d="M475.886,119.013a1.275,1.275,0,1,1-1.273-1.219A1.247,1.247,0,0,1,475.886,119.013Z" transform="translate(-393.097 -117.794)" fill="#fff"/>
                  <path id="Trazado_99282" data-name="Trazado 99282" d="M484.332,119.013a1.275,1.275,0,1,1-1.273-1.219A1.247,1.247,0,0,1,484.332,119.013Z" transform="translate(-390.08 -117.794)" fill="#fff"/>
                  <path id="Trazado_99283" data-name="Trazado 99283" d="M492.778,119.013a1.275,1.275,0,1,1-1.274-1.219A1.248,1.248,0,0,1,492.778,119.013Z" transform="translate(-387.063 -117.794)" fill="#fff"/>
                  <path id="Trazado_99284" data-name="Trazado 99284" d="M501.224,119.013a1.275,1.275,0,1,1-1.274-1.219A1.248,1.248,0,0,1,501.224,119.013Z" transform="translate(-384.047 -117.794)" fill="#fff"/>
                </g>
                <g id="Grupo_53316" data-name="Grupo 53316" transform="translate(0 97.443)">
                  <ellipse id="Elipse_3980" data-name="Elipse 3980" cx="1.274" cy="1.218" rx="1.274" ry="1.218" transform="translate(0 0)" fill="#fff"/>
                  <path id="Trazado_99285" data-name="Trazado 99285" d="M425.207,126.521a1.275,1.275,0,1,1-1.273-1.219A1.246,1.246,0,0,1,425.207,126.521Z" transform="translate(-411.197 -125.302)" fill="#fff"/>
                  <ellipse id="Elipse_3981" data-name="Elipse 3981" cx="1.274" cy="1.218" rx="1.274" ry="1.218" transform="translate(22.926 0)" fill="#fff"/>
                  <path id="Trazado_99286" data-name="Trazado 99286" d="M442.1,126.521a1.275,1.275,0,1,1-1.274-1.219A1.247,1.247,0,0,1,442.1,126.521Z" transform="translate(-405.164 -125.302)" fill="#fff"/>
                  <path id="Trazado_99287" data-name="Trazado 99287" d="M450.546,126.521a1.275,1.275,0,1,1-1.273-1.219A1.246,1.246,0,0,1,450.546,126.521Z" transform="translate(-402.147 -125.302)" fill="#fff"/>
                  <ellipse id="Elipse_3982" data-name="Elipse 3982" cx="1.274" cy="1.218" rx="1.274" ry="1.218" transform="translate(57.315 0)" fill="#fff"/>
                  <path id="Trazado_99288" data-name="Trazado 99288" d="M467.44,126.521a1.275,1.275,0,1,1-1.274-1.219A1.247,1.247,0,0,1,467.44,126.521Z" transform="translate(-396.113 -125.302)" fill="#fff"/>
                  <ellipse id="Elipse_3983" data-name="Elipse 3983" cx="1.274" cy="1.218" rx="1.274" ry="1.218" transform="translate(80.242 0)" fill="#fff"/>
                  <ellipse id="Elipse_3984" data-name="Elipse 3984" cx="1.274" cy="1.218" rx="1.274" ry="1.218" transform="translate(91.705 0)" fill="#fff"/>
                  <path id="Trazado_99289" data-name="Trazado 99289" d="M492.778,126.521A1.275,1.275,0,1,1,491.5,125.3,1.247,1.247,0,0,1,492.778,126.521Z" transform="translate(-387.063 -125.302)" fill="#fff"/>
                  <path id="Trazado_99290" data-name="Trazado 99290" d="M501.224,126.521a1.275,1.275,0,1,1-1.274-1.219A1.247,1.247,0,0,1,501.224,126.521Z" transform="translate(-384.046 -125.302)" fill="#fff"/>
                </g>
                <g id="Grupo_53317" data-name="Grupo 53317" transform="translate(0 107.188)">
                  <ellipse id="Elipse_3985" data-name="Elipse 3985" cx="1.274" cy="1.218" rx="1.274" ry="1.218" transform="translate(0 0)" fill="#fff"/>
                  <path id="Trazado_99291" data-name="Trazado 99291" d="M425.207,134.029a1.275,1.275,0,1,1-1.273-1.219A1.246,1.246,0,0,1,425.207,134.029Z" transform="translate(-411.197 -132.81)" fill="#fff"/>
                  <ellipse id="Elipse_3986" data-name="Elipse 3986" cx="1.274" cy="1.218" rx="1.274" ry="1.218" transform="translate(22.926 0)" fill="#fff"/>
                  <path id="Trazado_99292" data-name="Trazado 99292" d="M442.1,134.029a1.275,1.275,0,1,1-1.274-1.219A1.247,1.247,0,0,1,442.1,134.029Z" transform="translate(-405.164 -132.81)" fill="#fff"/>
                  <path id="Trazado_99293" data-name="Trazado 99293" d="M450.546,134.029a1.275,1.275,0,1,1-1.273-1.219A1.246,1.246,0,0,1,450.546,134.029Z" transform="translate(-402.147 -132.81)" fill="#fff"/>
                  <ellipse id="Elipse_3987" data-name="Elipse 3987" cx="1.274" cy="1.218" rx="1.274" ry="1.218" transform="translate(57.315 0)" fill="#fff"/>
                  <path id="Trazado_99294" data-name="Trazado 99294" d="M467.44,134.029a1.275,1.275,0,1,1-1.274-1.219A1.247,1.247,0,0,1,467.44,134.029Z" transform="translate(-396.113 -132.81)" fill="#fff"/>
                  <ellipse id="Elipse_3988" data-name="Elipse 3988" cx="1.274" cy="1.218" rx="1.274" ry="1.218" transform="translate(80.242 0)" fill="#fff"/>
                  <ellipse id="Elipse_3989" data-name="Elipse 3989" cx="1.274" cy="1.218" rx="1.274" ry="1.218" transform="translate(91.705 0)" fill="#fff"/>
                  <path id="Trazado_99295" data-name="Trazado 99295" d="M492.778,134.029a1.275,1.275,0,1,1-1.274-1.219A1.247,1.247,0,0,1,492.778,134.029Z" transform="translate(-387.063 -132.81)" fill="#fff"/>
                  <path id="Trazado_99296" data-name="Trazado 99296" d="M501.224,134.029a1.275,1.275,0,1,1-1.274-1.219A1.247,1.247,0,0,1,501.224,134.029Z" transform="translate(-384.046 -132.81)" fill="#fff"/>
                </g>
              </g>
            </g>
          </g>
        </g>
      </g>
      <g id="Enmascarar_grupo_130580" data-name="Enmascarar grupo 130580" clip-path="url(#clip-path)">
        <rect id="_2205_w022_n001_639b_p15_639-_Convertido_" data-name="2205_w022_n001_639b_p15_639-[Convertido]" width="355" height="355.888" transform="translate(960 5132)" fill="#eef8ff"/>
      </g>
    </g>
    <g id="Filled_outline" data-name="Filled outline" transform="translate(965.999 933)">
      <path id="Trazado_271317" data-name="Trazado 271317" d="M301.2,96v10.267H280.667V96H260.133v10.267H239.6V96H116.4v10.267H95.867V96H75.333v10.267H54.8V96H34.267A10.266,10.266,0,0,0,24,106.267v184.8a10.266,10.266,0,0,0,10.267,10.267h87.267V291.067h20.533v10.267H162.6V291.067h20.533v10.267H311.467a10.266,10.266,0,0,0,10.267-10.267v-184.8A10.266,10.266,0,0,0,311.467,96Z" transform="translate(-2.867 -2.867)" fill="#55b56a"/>
      <path id="Trazado_271318" data-name="Trazado 271318" d="M24,144H65.067V298H24Z" transform="translate(-2.867 -20.067)" fill="#cfdfe8"/>
      <path id="Trazado_271319" data-name="Trazado 271319" d="M88,168h20.533v20.533H88Z" transform="translate(-25.8 -28.667)" fill="#ffd782"/>
      <path id="Trazado_271320" data-name="Trazado 271320" d="M88,200h20.533v20.533H88Z" transform="translate(-25.8 -40.133)" fill="#f9bb4b"/>
      <path id="Trazado_271321" data-name="Trazado 271321" d="M88,232h20.533v20.533H88Z" transform="translate(-25.8 -51.6)" fill="#ffd782"/>
      <path id="Trazado_271322" data-name="Trazado 271322" d="M88,264h20.533v20.533H88Z" transform="translate(-25.8 -63.067)" fill="#f9bb4b"/>
      <path id="Trazado_271323" data-name="Trazado 271323" d="M88,296h20.533v20.533H88Z" transform="translate(-25.8 -74.533)" fill="#ffd782"/>
      <path id="Trazado_271324" data-name="Trazado 271324" d="M88,328h20.533v20.533H88Z" transform="translate(-25.8 -86)" fill="#f9bb4b"/>
      <g id="Grupo_163366" data-name="Grupo 163366" transform="translate(123.8 113.667)">
        <path id="Trazado_271325" data-name="Trazado 271325" d="M200,128h10.267v15.4H200Z" transform="translate(-189.733 -128)" fill="#394d5c"/>
        <path id="Trazado_271326" data-name="Trazado 271326" d="M232,128h10.267v15.4H232Z" transform="translate(-201.2 -128)" fill="#394d5c"/>
        <path id="Trazado_271327" data-name="Trazado 271327" d="M264,128h10.267v15.4H264Z" transform="translate(-212.667 -128)" fill="#394d5c"/>
        <path id="Trazado_271328" data-name="Trazado 271328" d="M296,128h10.267v15.4H296Z" transform="translate(-224.133 -128)" fill="#394d5c"/>
        <path id="Trazado_271329" data-name="Trazado 271329" d="M200,248h10.267v15.4H200Z" transform="translate(-189.733 -171)" fill="#394d5c"/>
        <path id="Trazado_271330" data-name="Trazado 271330" d="M232,248h10.267v15.4H232Z" transform="translate(-201.2 -171)" fill="#394d5c"/>
        <path id="Trazado_271331" data-name="Trazado 271331" d="M264,248h10.267v15.4H264Z" transform="translate(-212.667 -171)" fill="#394d5c"/>
        <path id="Trazado_271332" data-name="Trazado 271332" d="M296,248h10.267v15.4H296Z" transform="translate(-224.133 -171)" fill="#394d5c"/>
        <path id="Trazado_271333" data-name="Trazado 271333" d="M184,144h15.4v10.267H184Z" transform="translate(-184 -133.733)" fill="#394d5c"/>
        <path id="Trazado_271334" data-name="Trazado 271334" d="M184,176h15.4v10.267H184Z" transform="translate(-184 -145.2)" fill="#394d5c"/>
        <path id="Trazado_271335" data-name="Trazado 271335" d="M184,208h15.4v10.267H184Z" transform="translate(-184 -156.667)" fill="#394d5c"/>
        <path id="Trazado_271336" data-name="Trazado 271336" d="M184,240h15.4v10.267H184Z" transform="translate(-184 -168.133)" fill="#394d5c"/>
        <path id="Trazado_271337" data-name="Trazado 271337" d="M304,144h15.4v10.267H304Z" transform="translate(-227 -133.733)" fill="#394d5c"/>
        <path id="Trazado_271338" data-name="Trazado 271338" d="M304,176h15.4v10.267H304Z" transform="translate(-227 -145.2)" fill="#394d5c"/>
        <path id="Trazado_271339" data-name="Trazado 271339" d="M304,208h15.4v10.267H304Z" transform="translate(-227 -156.667)" fill="#394d5c"/>
        <path id="Trazado_271340" data-name="Trazado 271340" d="M304,240h15.4v10.267H304Z" transform="translate(-227 -168.133)" fill="#394d5c"/>
      </g>
      <path id="Trazado_271341" data-name="Trazado 271341" d="M176.467,268.4h-30.8a5.134,5.134,0,0,1-5.133-5.133v-77H120V176h25.667a5.134,5.134,0,0,1,5.133,5.133v77h25.667Z" transform="translate(-37.267 -31.533)" fill="#cfdfe8"/>
      <path id="Trazado_271342" data-name="Trazado 271342" d="M120,208h25.667v10.267H120Z" transform="translate(-37.267 -43)" fill="#cfdfe8"/>
      <path id="Trazado_271343" data-name="Trazado 271343" d="M120,240h25.667v10.267H120Z" transform="translate(-37.267 -54.467)" fill="#cfdfe8"/>
      <path id="Trazado_271344" data-name="Trazado 271344" d="M120,272h25.667v10.267H120Z" transform="translate(-37.267 -65.933)" fill="#cfdfe8"/>
      <path id="Trazado_271345" data-name="Trazado 271345" d="M145.667,334.8H120V324.533h20.533V314.267H120V304h25.667a5.134,5.134,0,0,1,5.133,5.133v20.533A5.134,5.134,0,0,1,145.667,334.8Z" transform="translate(-37.267 -77.4)" fill="#cfdfe8"/>
      <path id="Trazado_271346" data-name="Trazado 271346" d="M208,296h41.067v46.2H208Z" transform="translate(-68.8 -74.533)" fill="#f4f4e6"/>
      <path id="Trazado_271347" data-name="Trazado 271347" d="M362.267,160h0a10.266,10.266,0,0,1,10.267,10.267V283.2a10.266,10.266,0,0,1-10.267,10.267h0A10.266,10.266,0,0,1,352,283.2V170.267A10.266,10.266,0,0,1,362.267,160Z" transform="translate(-120.4 -25.8)" fill="#cfdfe8"/>
      <path id="Trazado_271348" data-name="Trazado 271348" d="M296,288h10.267v10.267H296Z" transform="translate(-100.333 -71.667)" fill="#fcf05a"/>
      <path id="Trazado_271349" data-name="Trazado 271349" d="M296,320h10.267v10.267H296Z" transform="translate(-100.333 -83.133)" fill="#fcf05a"/>
      <path id="Trazado_271350" data-name="Trazado 271350" d="M296,352h10.267v10.267H296Z" transform="translate(-100.333 -94.6)" fill="#fcf05a"/>
      <path id="Trazado_271351" data-name="Trazado 271351" d="M144,136h10.267v10.267H144Z" transform="translate(-45.867 -17.2)" fill="#8ec13f"/>
      <path id="Trazado_271352" data-name="Trazado 271352" d="M144,368h10.267v10.267H144Z" transform="translate(-45.867 -100.333)" fill="#8ec13f"/>
      <path id="Trazado_271353" data-name="Trazado 271353" d="M360,136h10.267v15.4H360Z" transform="translate(-123.267 -17.2)" fill="#3d7c48"/>
      <path id="Trazado_271354" data-name="Trazado 271354" d="M426.267,352H462.2v20.533H426.267a10.267,10.267,0,1,1,0-20.533Z" transform="translate(-143.333 -94.6)" fill="#cfdfe8"/>
      <path id="Trazado_271355" data-name="Trazado 271355" d="M360,368h10.267v15.4H360Z" transform="translate(-123.267 -100.333)" fill="#3d7c48"/>
      <path id="Trazado_271356" data-name="Trazado 271356" d="M24,176H44.533v20.533H24Z" transform="translate(-2.867 -31.533)" fill="#7d8d9c"/>
      <path id="Trazado_271357" data-name="Trazado 271357" d="M24,240H44.533v20.533H24Z" transform="translate(-2.867 -54.467)" fill="#7d8d9c"/>
      <path id="Trazado_271358" data-name="Trazado 271358" d="M48,304H58.267v10.267H48Z" transform="translate(-11.467 -77.4)" fill="#8ec13f"/>
      <path id="Trazado_271359" data-name="Trazado 271359" d="M48,336H58.267v10.267H48Z" transform="translate(-11.467 -88.867)" fill="#8ec13f"/>
      <ellipse id="Elipse_6511" data-name="Elipse 6511" cx="10" cy="10.5" rx="10" ry="10.5" transform="translate(278 216)" fill="#ffd782"/>
      <ellipse id="Elipse_6512" data-name="Elipse 6512" cx="10" cy="10.5" rx="10" ry="10.5" transform="translate(278 175)" fill="#ffd782"/>
      <path id="Trazado_271360" data-name="Trazado 271360" d="M416,184h10.267v10.267H416Z" transform="translate(-143.333 -34.4)" fill="#fcf05a"/>
      <path id="Trazado_271361" data-name="Trazado 271361" d="M448,184h10.267v10.267H448Z" transform="translate(-154.8 -34.4)" fill="#fcf05a"/>
      <path id="Trazado_271362" data-name="Trazado 271362" d="M448,152h10.267v10.267H448Z" transform="translate(-154.8 -22.933)" fill="#fcf05a"/>
      <path id="Trazado_271363" data-name="Trazado 271363" d="M416,152h10.267v10.267H416Z" transform="translate(-143.333 -22.933)" fill="#fcf05a"/>
      <path id="Trazado_271364" data-name="Trazado 271364" d="M208,152h61.6v61.6H208Z" transform="translate(-68.8 -22.933)" fill="#f4f4e6"/>
      <path id="Trazado_271365" data-name="Trazado 271365" d="M242.267,196.533H232V176h20.533v10.267H242.267Z" transform="translate(-77.4 -31.533)" fill="#aabece"/>
      <path id="Trazado_271366" data-name="Trazado 271366" d="M308.6,88H293.2V98.267H282.933V88h-30.8V98.267H241.867V88H108.4V98.267H98.133V88h-30.8V98.267H57.067V88H31.4A15.4,15.4,0,0,0,16,103.4V288.2a15.4,15.4,0,0,0,15.4,15.4h92.4V293.333h10.267V303.6h30.8V293.333h10.267V303.6H308.6A15.4,15.4,0,0,0,324,288.2V103.4A15.4,15.4,0,0,0,308.6,88ZM26.267,149.6H36.533v10.267H26.267Zm0,41.067H36.533v10.267H26.267Zm0,20.533H46.8V180.4H26.267V170.133H46.8v-30.8H26.267V129.067h30.8V272.8h-30.8Zm287.467,61.6h-30.8a5.133,5.133,0,1,1,0-10.267h30.8Zm0-20.533h-30.8a15.4,15.4,0,0,0,0,30.8h30.8V288.2a5.134,5.134,0,0,1-5.133,5.133H185.4V283.067H154.6v10.267H144.333V283.067h-30.8v10.267H31.4a5.134,5.134,0,0,1-5.133-5.133v-5.133H67.333v-15.4h15.4a5.134,5.134,0,0,0,5.133-5.133V257.4H108.4a5.134,5.134,0,0,0,5.133-5.133v-15.4h20.533V272.8H185.4V216.333H134.067V226.6H113.533v-77a5.134,5.134,0,0,0-5.133-5.133H87.867v-5.133a5.134,5.134,0,0,0-5.133-5.133h-15.4V118.8H26.267V103.4A5.134,5.134,0,0,1,31.4,98.267H46.8v10.267H77.6V98.267H87.867v10.267h30.8V98.267H231.6v10.267h30.8V98.267h10.267v10.267h30.8V98.267H308.6a5.134,5.134,0,0,1,5.133,5.133ZM77.6,165v10.267H67.333V165ZM67.333,154.733V144.467H77.6v10.267Zm10.267,30.8V195.8H67.333V185.533Zm0,20.533v10.267H67.333V206.067Zm0,20.533v10.267H67.333V226.6Zm0,20.533V257.4H67.333V247.133Zm25.667-71.867v10.267h-15.4V175.267ZM87.867,165V154.733h15.4V165Zm15.4,30.8v10.267h-15.4V195.8Zm0,20.533V226.6h-15.4V216.333Zm0,20.533v10.267h-15.4V236.867Zm41.067,25.667V226.6h30.8v35.933Z"/>
      <path id="Trazado_271367" data-name="Trazado 271367" d="M266.133,128H255.867v10.267H245.6V128H235.333v10.267H225.067V128H214.8v10.267H204.533V128H194.267v10.267H184v10.267h10.267V158.8H184v10.267h10.267v10.267H184V189.6h10.267v10.267H184v10.267h10.267V220.4h10.267V210.133H214.8V220.4h10.267V210.133h10.267V220.4H245.6V210.133h10.267V220.4h10.267V210.133H276.4V199.867H266.133V189.6H276.4V179.333H266.133V169.067H276.4V158.8H266.133V148.533H276.4V138.267H266.133Zm-10.267,71.867H204.533V148.533h51.333Z" transform="translate(-60.2 -14.333)"/>
      <path id="Trazado_271368" data-name="Trazado 271368" d="M242.267,186.267h10.267V176H232v20.533h10.267Z" transform="translate(-77.4 -31.533)"/>
      <path id="Trazado_271369" data-name="Trazado 271369" d="M364.533,147.211V136H354.267v11.211A15.4,15.4,0,0,0,344,161.667V274.6a15.4,15.4,0,0,0,10.267,14.455v11.211h10.267V289.055A15.4,15.4,0,0,0,374.8,274.6V161.667A15.4,15.4,0,0,0,364.533,147.211Zm0,127.389a5.133,5.133,0,0,1-10.267,0V161.667a5.133,5.133,0,1,1,10.267,0Z" transform="translate(-117.533 -17.2)"/>
      <path id="Trazado_271370" data-name="Trazado 271370" d="M296,288h10.267v10.267H296Z" transform="translate(-100.333 -71.667)"/>
      <path id="Trazado_271371" data-name="Trazado 271371" d="M296,320h10.267v10.267H296Z" transform="translate(-100.333 -83.133)"/>
      <path id="Trazado_271372" data-name="Trazado 271372" d="M296,352h10.267v10.267H296Z" transform="translate(-100.333 -94.6)"/>
      <path id="Trazado_271373" data-name="Trazado 271373" d="M144,136h10.267v10.267H144Z" transform="translate(-45.867 -17.2)"/>
      <path id="Trazado_271374" data-name="Trazado 271374" d="M144,368h10.267v10.267H144Z" transform="translate(-45.867 -100.333)"/>
      <path id="Trazado_271375" data-name="Trazado 271375" d="M48,304H58.267v10.267H48Z" transform="translate(-11.467 -77.4)"/>
      <path id="Trazado_271376" data-name="Trazado 271376" d="M48,336H58.267v10.267H48Z" transform="translate(-11.467 -88.867)"/>
      <path id="Trazado_271377" data-name="Trazado 271377" d="M431.4,280a15.4,15.4,0,1,0,15.4,15.4A15.4,15.4,0,0,0,431.4,280Zm0,20.533a5.133,5.133,0,1,1,5.133-5.133A5.134,5.134,0,0,1,431.4,300.533Z" transform="translate(-143.333 -68.8)"/>
      <path id="Trazado_271378" data-name="Trazado 271378" d="M431.4,216a15.4,15.4,0,1,0,15.4,15.4A15.4,15.4,0,0,0,431.4,216Zm0,20.533a5.133,5.133,0,1,1,5.133-5.133A5.134,5.134,0,0,1,431.4,236.533Z" transform="translate(-143.333 -45.867)"/>
      <path id="Trazado_271379" data-name="Trazado 271379" d="M416,184h10.267v10.267H416Z" transform="translate(-143.333 -34.4)"/>
      <path id="Trazado_271380" data-name="Trazado 271380" d="M448,184h10.267v10.267H448Z" transform="translate(-154.8 -34.4)"/>
      <path id="Trazado_271381" data-name="Trazado 271381" d="M448,152h10.267v10.267H448Z" transform="translate(-154.8 -22.933)"/>
      <path id="Trazado_271382" data-name="Trazado 271382" d="M416,152h10.267v10.267H416Z" transform="translate(-143.333 -22.933)"/>
    </g>
  </g>
</svg>
