<svg xmlns="http://www.w3.org/2000/svg" xmlns:xlink="http://www.w3.org/1999/xlink" width="295" height="231.676" viewBox="0 0 295 231.676">
  <defs>
    <clipPath id="clip-path">
      <rect id="Rectángulo_295868" data-name="Rectángulo 295868" width="259.977" height="226.484" fill="none"/>
    </clipPath>
    <clipPath id="clip-path-2">
      <path id="Trazado_267381" data-name="Trazado 267381" d="M1153.428,969.71l1.131,2.341s-3.614,71.213-8.121,105.053l12.056,9.585,9.146-10.266-7.957-104.665,2.007-4.506L1156.905,964Z" transform="translate(-1146.438 -964.001)" fill="#f9a21b"/>
    </clipPath>
  </defs>
  <g id="Grupo_158945" data-name="Grupo 158945" transform="translate(-168.095 -162.598)">
    <g id="BACK" transform="translate(184.134 167.587)">
      <g id="Grupo_158690" data-name="Grupo 158690" transform="translate(0 0)">
        <g id="Grupo_158689" data-name="Grupo 158689">
          <g id="Grupo_158688" data-name="Grupo 158688">
            <g id="Grupo_158687" data-name="Grupo 158687" clip-path="url(#clip-path)">
              <path id="Trazado_267301" data-name="Trazado 267301" d="M546.9,317.208,435.478,325.86l106.255-34.647-9.448-22.81-99.633,50.634,84.908-72.672L500.1,228.908,427.43,313.816l50.634-99.633-22.81-9.448L420.607,310.99l8.652-111.426H404.57l8.652,111.426L378.575,204.735l-22.81,9.448L406.4,313.816l-72.672-84.908L316.27,246.366l84.908,72.672L301.545,268.4l-9.448,22.81L398.351,325.86l-111.426-8.652V341.9l111.426-8.652L292.1,367.892l9.448,22.81,99.633-50.634L316.27,412.74,333.727,430.2,406.4,345.29l-50.634,99.633,22.81,9.448,34.647-106.255L404.57,459.541h24.689l-8.652-111.426L455.254,454.37l22.81-9.448L427.43,345.29,500.1,430.2l17.458-17.458-84.908-72.672L532.284,390.7l9.448-22.81L435.478,333.245,546.9,341.9Z" transform="translate(-286.926 -199.564)" fill="#f0f2f5"/>
            </g>
          </g>
        </g>
      </g>
    </g>
    <g id="CHARACTER" transform="translate(199.673 191.351)">
      <g id="Grupo_158836" data-name="Grupo 158836" transform="translate(0 0)">
        <g id="Grupo_158691" data-name="Grupo 158691" transform="translate(0 55.045)">
          <path id="Trazado_267302" data-name="Trazado 267302" d="M585.789,931.123l-8.847-36.4V861.128l5.892-7.106s29.745,3.906,41.988-3.53c0,0,14.121-1.728,7.136-18.1l-10.339-29.371S617.639,786.5,608.3,783.762c-4.477-1.313-9.431,1.011-17.009,15.8l9.826,10.719,2.3,4.418a24.762,24.762,0,0,0,.752,7.715,15.938,15.938,0,0,0-7.3-1.147l-9.716-5.914s-.418-4.307-6.775-3.764c0,0-8.38-13.576-13-11.24.537-1.765-16.28-.276-28.458-1.957l-10.407-6.234-32.041,5.537-13.206,9.941s-20.49,2.895-21.581,5.925c0,0-2.248-1.138-5.514,6.3L438.216,836.6s-8.055.186-10.942,3.632l-2.188-11.966,4.889-15.179s-8.307-8.06-16.67-8.7a7.292,7.292,0,0,0-7.04,3.953,39.88,39.88,0,0,0-4.143,20.373l.361,32.1s-2.612,12.408,12.734,10.448c0,0,15.982,2.093,38.892-6.17l4.131,4.056,4.052,32.975-2.73,29.007Z" transform="translate(-402.054 -783.446)" fill="#fda929"/>
        </g>
        <g id="Grupo_158692" data-name="Grupo 158692" transform="translate(91.305 59.924)">
          <path id="Trazado_267303" data-name="Trazado 267303" d="M1078.522,962.393c1.49-17.409,1.576-40.016,1.576-62.836,0-5.58-.006-11.173,0-16.706q0-1.9.01-3.78c.055-18.494.318-36.119,1.525-50.106l-.314-1.755a3.531,3.531,0,0,1,2.765-4.081l27.075-3.533c3.552,0,3.725,4.36,3.844,6.175,2.261,34.451,7.705,80.431,20.125,136.622Z" transform="translate(-1078.522 -819.596)" fill="#29398a"/>
        </g>
        <g id="Grupo_158743" data-name="Grupo 158743" transform="translate(81.408)">
          <g id="Grupo_158727" data-name="Grupo 158727" transform="translate(3.496 6.92)">
            <g id="Grupo_158697" data-name="Grupo 158697" transform="translate(2.913)">
              <g id="Grupo_158693" data-name="Grupo 158693" transform="translate(7.215 39.167)">
                <path id="Trazado_267304" data-name="Trazado 267304" d="M1135.862,737.38c-4.444,7.883-13.817,13.024-13.817,13.024s-10.119-4.6-13.635-10.611l-2.275-19.531,27.362-3.187Z" transform="translate(-1106.135 -717.076)" fill="#ffc89f"/>
              </g>
              <g id="Grupo_158694" data-name="Grupo 158694">
                <path id="Trazado_267305" data-name="Trazado 267305" d="M1075.744,485.726h0a18.346,18.346,0,0,1-20.345-16.1l-2.593-22.261a18.346,18.346,0,0,1,16.1-20.345h0a18.346,18.346,0,0,1,20.345,16.1l2.593,22.261A18.346,18.346,0,0,1,1075.744,485.726Z" transform="translate(-1052.681 -426.894)" fill="#ffc89f"/>
              </g>
              <g id="Grupo_158695" data-name="Grupo 158695" transform="translate(6.361 51.75)">
                <path id="Trazado_267306" data-name="Trazado 267306" d="M1116.513,817.389a15.34,15.34,0,0,1-4.766.192c-.4-.039-.794-.115-1.191-.178s-.783-.177-1.176-.264c-.2-.039-.386-.112-.579-.169l-.575-.182c-.382-.126-.751-.287-1.128-.429s-.728-.344-1.092-.514-.7-.388-1.054-.585-.671-.443-1.007-.663-.639-.486-.956-.732a15.254,15.254,0,0,1-3.178-3.558,23.361,23.361,0,0,0,3.495,3.15c.324.217.64.444.964.66.334.2.66.412,1,.6s.679.378,1.028.548.7.336,1.06.483.716.3,1.083.428.735.252,1.108.359.747.217,1.127.3l.571.119c.191.038.379.093.573.116A23.426,23.426,0,0,0,1116.513,817.389Z" transform="translate(-1099.811 -810.307)" fill="#ff9a6c"/>
              </g>
              <g id="Grupo_158696" data-name="Grupo 158696" transform="translate(32.423 46.907)">
                <path id="Trazado_267307" data-name="Trazado 267307" d="M1298.656,774.426a10.488,10.488,0,0,1-.788,2.4c-.089.191-.181.382-.278.57l-.305.556c-.107.183-.223.359-.335.54l-.355.526a13.071,13.071,0,0,1-1.67,1.908,10.451,10.451,0,0,1-2.021,1.514c.562-.629,1.117-1.24,1.646-1.869s1.029-1.276,1.507-1.939l.355-.5c.114-.17.223-.342.341-.51l.335-.515c.1-.176.214-.349.325-.523C1297.84,775.881,1298.241,775.16,1298.656,774.426Z" transform="translate(-1292.903 -774.426)" fill="#ff9a6c"/>
              </g>
            </g>
            <g id="Grupo_158709" data-name="Grupo 158709" transform="translate(10.848 18.004)">
              <g id="Grupo_158700" data-name="Grupo 158700" transform="translate(17.748 5.549)">
                <g id="Grupo_158698" data-name="Grupo 158698" transform="translate(1.306 1.607)">
                  <circle id="Elipse_6383" data-name="Elipse 6383" cx="1.651" cy="1.651" r="1.651" transform="matrix(0.621, -0.784, 0.784, 0.621, 0, 2.59)" fill="#1b1b2f"/>
                </g>
                <g id="Grupo_158699" data-name="Grupo 158699">
                  <path id="Trazado_267308" data-name="Trazado 267308" d="M1249.737,602.381a5.242,5.242,0,0,0-.83-.392c-.142-.054-.287-.1-.431-.148s-.292-.082-.441-.109a5.187,5.187,0,0,0-1.8-.071,3.273,3.273,0,0,0-.444.08l-.221.047c-.073.017-.143.047-.215.069l-.43.143c-.136.065-.274.128-.413.189l-.208.094-.2.117-.393.235c-.257.165-.493.361-.75.534.223-.211.449-.424.688-.622l.383-.266.192-.133.206-.11c.137-.074.276-.147.416-.217s.294-.109.44-.164c.074-.026.147-.056.223-.076l.23-.051a3.375,3.375,0,0,1,.462-.089,4.658,4.658,0,0,1,1.866.125A4.6,4.6,0,0,1,1249.737,602.381Z" transform="translate(-1242.968 -601.399)" fill="#1b1b2f"/>
                </g>
              </g>
              <g id="Grupo_158703" data-name="Grupo 158703" transform="translate(0.533 7.554)">
                <g id="Grupo_158701" data-name="Grupo 158701" transform="translate(1.308 1.609)">
                  <circle id="Elipse_6384" data-name="Elipse 6384" cx="1.651" cy="1.651" r="1.651" transform="matrix(0.614, -0.789, 0.789, 0.614, 0, 2.606)" fill="#1b1b2f"/>
                </g>
                <g id="Grupo_158702" data-name="Grupo 158702">
                  <path id="Trazado_267309" data-name="Trazado 267309" d="M1122.191,617.236a5.239,5.239,0,0,0-.83-.392c-.142-.054-.287-.1-.432-.148s-.292-.082-.442-.109a5.189,5.189,0,0,0-1.8-.071,3.258,3.258,0,0,0-.443.08l-.221.047c-.073.018-.143.048-.215.069l-.43.143c-.136.065-.274.128-.413.19l-.208.094-.2.117-.393.235c-.256.166-.493.361-.75.534.223-.21.449-.424.687-.622l.383-.266.192-.133.206-.11c.137-.074.276-.147.416-.217s.293-.109.44-.164c.074-.026.147-.056.223-.076l.23-.052a3.425,3.425,0,0,1,.462-.089,4.66,4.66,0,0,1,1.866.125A4.6,4.6,0,0,1,1122.191,617.236Z" transform="translate(-1115.422 -616.254)" fill="#1b1b2f"/>
                </g>
              </g>
              <g id="Grupo_158704" data-name="Grupo 158704" transform="translate(14.955 14.777)">
                <path id="Trazado_267310" data-name="Trazado 267310" d="M1222.566,669.769c.225.68.426,1.365.624,2.051s.384,1.376.567,2.066a4.6,4.6,0,0,1,.2,1.073,2.91,2.91,0,0,1-.16,1.088,1.9,1.9,0,0,1-.63.9c-.3.2-.587.407-.888.6.27-.235.55-.458.822-.689a1.771,1.771,0,0,0,.534-.864,2.986,2.986,0,0,0,.113-1.025,4.541,4.541,0,0,0-.2-1.027c-.178-.692-.356-1.383-.517-2.079S1222.7,670.471,1222.566,669.769Z" transform="translate(-1222.276 -669.769)" fill="#1b1b2f"/>
              </g>
              <g id="Grupo_158705" data-name="Grupo 158705" transform="translate(8.979 25.88)">
                <path id="Trazado_267311" data-name="Trazado 267311" d="M1185.785,752.03a2.807,2.807,0,0,1-.126.838,3.587,3.587,0,0,1-.345.776,4.049,4.049,0,0,1-.518.69l-.133.144c-.068.062-.133.12-.2.17-.123.1-.231.179-.314.247l-.08.04a3.69,3.69,0,0,1-.409.235c-.041.021-.086.04-.132.061l-.127.05c-.061.025-.15.059-.232.084a3.882,3.882,0,0,1-1.049.2,4.054,4.054,0,0,1-2.034-.448,4.158,4.158,0,0,1-.835-.567,4.074,4.074,0,0,1-.642-.722,3.584,3.584,0,0,1-.448-.848,2.609,2.609,0,0,1-.167-.938c.286.154.539.293.787.413q.071.036.142.067l.081.038c.172.08.338.151.5.218.235.095.469.182.691.258s.434.133.644.179a5.358,5.358,0,0,0,1.206.136,4.3,4.3,0,0,0,.585-.047c.052-.009.095-.013.166-.028l.044-.009.027,0,.064-.01c.09-.018.517-.138.6-.163.043-.013.082-.022.114-.03.052-.022.113-.049.169-.071.09-.035.179-.068.271-.105.111-.046.226-.095.343-.149l.009,0c.206-.092.414-.2.635-.312Z" transform="translate(-1177.998 -752.03)" fill="#e43f5a"/>
              </g>
              <g id="Grupo_158706" data-name="Grupo 158706" transform="translate(9.909 26.367)">
                <path id="Trazado_267312" data-name="Trazado 267312" d="M1190.406,755.847c-.022.03-.044.056-.067.081-.126.153-.229.265-.3.36l-.107.07a2.7,2.7,0,0,1-.406.334,1.121,1.121,0,0,1-.141.087l-.135.073a2.12,2.12,0,0,1-.238.12,2.856,2.856,0,0,1-1.123.249,3.518,3.518,0,0,1-2.2-.795,4.794,4.794,0,0,1-.8-.787l.081.039c.172.08.338.151.5.218.235.095.469.182.691.258s.434.133.644.179a5.36,5.36,0,0,0,1.206.136,4.3,4.3,0,0,0,.585-.047c.052-.009.095-.013.166-.028l.044-.009.027,0,.064-.01c.09-.018.517-.138.6-.163.043-.013.081-.022.114-.03.052-.022.113-.049.169-.071.09-.035.179-.068.271-.105.111-.046.227-.095.343-.149Z" transform="translate(-1184.888 -755.638)" fill="#fff"/>
              </g>
              <g id="Grupo_158707" data-name="Grupo 158707" transform="translate(17.215)">
                <path id="Trazado_267313" data-name="Trazado 267313" d="M1245.792,562.244c-.761.044-1.339.063-1.885.11s-1.013.081-1.487.154a.818.818,0,0,0-.178.025l-.178.029c-.06.007-.12.015-.182.02s-.12.027-.182.035c-.122.025-.249.039-.379.055s-.256.056-.393.076c-.068.012-.139.017-.211.027s-.136.035-.209.047c-.143.03-.294.052-.452.074a7.033,7.033,0,0,1-1.033.137,2.929,2.929,0,0,1,.164-.531,3.01,3.01,0,0,1,.24-.488c.1-.146.207-.29.323-.427.056-.072.117-.136.178-.2s.133-.121.2-.177c.139-.115.285-.225.435-.33s.323-.174.491-.252c.084-.039.168-.079.256-.109l.269-.078a3.213,3.213,0,0,1,.55-.115,3.751,3.751,0,0,1,2.177.35,1.976,1.976,0,0,1,.24.135c.078.048.156.094.23.148a3.767,3.767,0,0,1,.416.354A2.413,2.413,0,0,1,1245.792,562.244Z" transform="translate(-1239.023 -560.284)" fill="#1b1b2f"/>
              </g>
              <g id="Grupo_158708" data-name="Grupo 158708" transform="translate(0 2.005)">
                <path id="Trazado_267314" data-name="Trazado 267314" d="M1118.245,577.1c-.761.044-1.339.063-1.885.11s-1.013.081-1.487.154a.8.8,0,0,0-.178.024l-.178.029c-.06.007-.12.015-.182.02s-.12.027-.182.036c-.122.025-.249.039-.379.055s-.256.056-.393.076c-.068.012-.139.017-.21.027s-.136.035-.209.047c-.143.029-.294.052-.452.074a7.024,7.024,0,0,1-1.034.136,2.959,2.959,0,0,1,.164-.531,3.017,3.017,0,0,1,.24-.488c.1-.146.207-.29.323-.427.056-.071.117-.136.178-.2s.133-.121.2-.177c.139-.115.285-.225.435-.33s.323-.174.491-.252c.084-.039.168-.079.256-.11l.269-.078a3.21,3.21,0,0,1,.55-.115,3.752,3.752,0,0,1,2.177.35,1.986,1.986,0,0,1,.24.135c.078.047.156.094.23.147a3.714,3.714,0,0,1,.416.354A2.409,2.409,0,0,1,1118.245,577.1Z" transform="translate(-1111.476 -575.14)" fill="#1b1b2f"/>
              </g>
            </g>
            <g id="Grupo_158726" data-name="Grupo 158726" transform="translate(0 24.509)">
              <g id="Grupo_158717" data-name="Grupo 158717" transform="translate(36.8)">
                <g id="Grupo_158716" data-name="Grupo 158716" transform="translate(0)">
                  <g id="Grupo_158711" data-name="Grupo 158711">
                    <g id="Grupo_158710" data-name="Grupo 158710">
                      <rect id="Rectángulo_295869" data-name="Rectángulo 295869" width="7.78" height="12.919" rx="3.89" transform="translate(9.223 12.832) rotate(173.357)" fill="#ffc89f"/>
                    </g>
                  </g>
                  <g id="Grupo_158713" data-name="Grupo 158713" transform="translate(4.016 2.617)">
                    <g id="Grupo_158712" data-name="Grupo 158712">
                      <path id="Trazado_267315" data-name="Trazado 267315" d="M1333.51,627.872a2.818,2.818,0,0,1,1.643.624,3.107,3.107,0,0,1,1.022,1.493,4.251,4.251,0,0,1,.154.888c.021.287.05.573.063.861a16.87,16.87,0,0,1,.029,1.734,16.948,16.948,0,0,1-.371-1.694c-.054-.283-.091-.568-.136-.853a4.2,4.2,0,0,0-.16-.8,2.922,2.922,0,0,0-.33-.731,3.49,3.49,0,0,0-.5-.638A3.872,3.872,0,0,0,1333.51,627.872Z" transform="translate(-1333.51 -627.872)" fill="#ff9a6c"/>
                    </g>
                  </g>
                  <g id="Grupo_158715" data-name="Grupo 158715" transform="translate(4.055 7.405)">
                    <g id="Grupo_158714" data-name="Grupo 158714">
                      <path id="Trazado_267316" data-name="Trazado 267316" d="M1334.862,665.321a1.333,1.333,0,0,1-.517-.314,1.8,1.8,0,0,1-.538-1.057,1.324,1.324,0,0,1,.052-.6c.114.176.2.342.281.5l.241.474.241.474C1334.7,664.961,1334.786,665.125,1334.862,665.321Z" transform="translate(-1333.794 -663.346)" fill="#ff9a6c"/>
                    </g>
                  </g>
                </g>
              </g>
              <g id="Grupo_158725" data-name="Grupo 158725" transform="translate(0 4.286)">
                <g id="Grupo_158724" data-name="Grupo 158724" transform="translate(0 0)">
                  <g id="Grupo_158719" data-name="Grupo 158719">
                    <g id="Grupo_158718" data-name="Grupo 158718">
                      <path id="Rectángulo_295870" data-name="Rectángulo 295870" d="M3.89,0h0A3.89,3.89,0,0,1,7.78,3.89V9.029a3.89,3.89,0,0,1-3.89,3.89h0A3.89,3.89,0,0,1,0,9.029V3.89A3.89,3.89,0,0,1,3.89,0Z" transform="translate(0 0.9) rotate(-6.643)" fill="#ffc89f"/>
                    </g>
                  </g>
                  <g id="Grupo_158721" data-name="Grupo 158721" transform="translate(2.099 2.69)">
                    <g id="Grupo_158720" data-name="Grupo 158720">
                      <path id="Trazado_267317" data-name="Trazado 267317" d="M1048.571,660.162a3.958,3.958,0,0,0-1.066,1.216,3.411,3.411,0,0,0-.413,1.495,5.555,5.555,0,0,0,.046.8c.02.278.048.555.06.834a15.907,15.907,0,0,1,.022,1.68,15.845,15.845,0,0,1-.364-1.64c-.053-.274-.089-.55-.133-.826-.02-.14-.039-.271-.053-.419a3.661,3.661,0,0,1-.019-.445,3.122,3.122,0,0,1,.563-1.661A2.8,2.8,0,0,1,1048.571,660.162Z" transform="translate(-1046.652 -660.162)" fill="#ff9a6c"/>
                    </g>
                  </g>
                  <g id="Grupo_158723" data-name="Grupo 158723" transform="translate(4.692 7.278)">
                    <g id="Grupo_158722" data-name="Grupo 158722">
                      <path id="Trazado_267318" data-name="Trazado 267318" d="M1065.864,696.308c.029-.207.075-.387.115-.564l.125-.517.125-.517c.045-.176.087-.357.157-.554a1.325,1.325,0,0,1,.189.575,1.8,1.8,0,0,1-.281,1.153A1.328,1.328,0,0,1,1065.864,696.308Z" transform="translate(-1065.864 -694.156)" fill="#ff9a6c"/>
                    </g>
                  </g>
                </g>
              </g>
            </g>
          </g>
          <g id="Grupo_158728" data-name="Grupo 158728">
            <path id="Trazado_267319" data-name="Trazado 267319" d="M1013.964,402.472l.687-.46-.214,4.522-1.931,2.481s1.374,8.62,1.252,8.634a48.955,48.955,0,0,1-4.8-14.722s-1.953,2.23,1.255,5.065c0,0-4.027-.123-2.558-3.749a26.933,26.933,0,0,0,1.312-4.012q.017-.074.036-.15l-.888,1.549s-.933-1.337.41-3.986c0,0-3.278,3.124-2.879,6.965a7.032,7.032,0,0,1,2.136-7.926s-.809-2.594,1.454-7.01a7.488,7.488,0,0,0-2.242,3.763s-1.865-4.785,5.784-7.477c0,0,.912-4.058,6.328-2.738,0,0-2.463-5.838,4.715-7.6,0,0-5.27,2.176-3.7,6.912,0,0,1.4-8.265,9.424-6.19a3.427,3.427,0,0,1,3.881,1.862s4.361,1.633,6.617-.771a2.59,2.59,0,0,1-3.628,1.753,6.2,6.2,0,0,0,3.888.473c2.086-.475,3.235,1.648,3.235,1.648s5.152-1.109,5.712,5.14c0,0,7.538,3.231,6.111,9.062,0,0-.276-4.9-6.366-6.914,0,0,7.315,6.23,4.807,10.024,0,0,.336-2.263-2.25-4.281l-.824,4.4s2.738,3.325,1.781,5c0,0-.874-3.542-1.93-4.7,0,0,1.485,7.341-1.225,11.771l-.515-5.764-2.365-2.875-1.251-6.268s-4.8-2.326-4.645-2.344a12.643,12.643,0,0,0,1.235-.571s-2.527-3.82-8.147-1.135l.074-.7-2.142,1.265.3-1.424-1.74,1.592-1.974-.411.5.689-3.871-.564.53.526s-6.946,1.13-10.912,6.4l1.138-.507Z" transform="translate(-1005.198 -375.623)" fill="#1b1b2f"/>
          </g>
          <g id="Grupo_158729" data-name="Grupo 158729" transform="translate(13.487 5.392)">
            <path id="Trazado_267320" data-name="Trazado 267320" d="M1105.14,415.571a6.246,6.246,0,0,0,.358,1.579c.077.258.193.5.292.751s.232.484.35.725a14.165,14.165,0,0,0,1.841,2.632,23.473,23.473,0,0,0,2.281,2.288l1.252,1.038c.433.328.867.655,1.293,1-.478-.263-.948-.544-1.419-.824q-.679-.461-1.344-.948c-.213-.173-.425-.348-.635-.526s-.426-.348-.619-.546l-.589-.58c-.2-.191-.37-.41-.555-.614a11.705,11.705,0,0,1-1.814-2.767c-.105-.257-.217-.51-.31-.771s-.177-.525-.231-.8A5.062,5.062,0,0,1,1105.14,415.571Z" transform="translate(-1105.123 -415.571)" fill="#1f4068"/>
          </g>
          <g id="Grupo_158730" data-name="Grupo 158730" transform="translate(16.626 4.319)">
            <path id="Trazado_267321" data-name="Trazado 267321" d="M1128.8,407.619a5.785,5.785,0,0,0-.156,1.4,8.327,8.327,0,0,0,.112,1.389,10.651,10.651,0,0,0,.829,2.647c.1.21.189.425.295.632l.341.61c.057.1.108.207.17.306l.191.294c.129.2.254.393.379.591l.828,1.142c.3.365.6.73.885,1.112-.357-.313-.7-.641-1.048-.97-.318-.354-.641-.708-.942-1.08a12.156,12.156,0,0,1-1.5-2.456,8.9,8.9,0,0,1-.767-2.784,6.832,6.832,0,0,1,.014-1.446A4.485,4.485,0,0,1,1128.8,407.619Z" transform="translate(-1128.381 -407.619)" fill="#1f4068"/>
          </g>
          <g id="Grupo_158731" data-name="Grupo 158731" transform="translate(26.166 5.47)">
            <path id="Trazado_267322" data-name="Trazado 267322" d="M1199.061,425c.435-.673.83-1.36,1.192-2.061a17.764,17.764,0,0,0,.936-2.16l.183-.557c.06-.186.1-.378.15-.566.025-.094.052-.188.075-.283l.052-.288.053-.288a2.164,2.164,0,0,0,.047-.289,10.8,10.8,0,0,0,.035-2.362,6.609,6.609,0,0,1,.307,2.395,9.058,9.058,0,0,1-.486,2.384,11.569,11.569,0,0,1-1.054,2.183A9.9,9.9,0,0,1,1199.061,425Z" transform="translate(-1199.061 -416.148)" fill="#1f4068"/>
          </g>
          <g id="Grupo_158732" data-name="Grupo 158732" transform="translate(23.443 9.481)">
            <path id="Trazado_267323" data-name="Trazado 267323" d="M1179.667,450.772a5.268,5.268,0,0,1-.482-1.166,7.517,7.517,0,0,1-.253-1.236,6.568,6.568,0,0,1-.028-1.265,4.449,4.449,0,0,1,.261-1.239c.035.424.048.831.084,1.239s.073.81.122,1.215l.15,1.216C1179.574,449.942,1179.627,450.351,1179.667,450.772Z" transform="translate(-1178.886 -445.866)" fill="#1f4068"/>
          </g>
          <g id="Grupo_158733" data-name="Grupo 158733" transform="translate(27.738 5.6)">
            <path id="Trazado_267324" data-name="Trazado 267324" d="M1210.707,424.635a20.406,20.406,0,0,1,2.2-2.729,21.408,21.408,0,0,1,2.612-2.355,14,14,0,0,1,3.044-1.785,7.513,7.513,0,0,1,3.444-.636,9.341,9.341,0,0,0-3.3.95,14.026,14.026,0,0,0-1.5.839c-.486.306-.961.631-1.417.983a31.041,31.041,0,0,0-2.635,2.246Q1211.888,423.344,1210.707,424.635Z" transform="translate(-1210.707 -417.113)" fill="#1f4068"/>
          </g>
          <g id="Grupo_158734" data-name="Grupo 158734" transform="translate(33.517 9.403)">
            <path id="Trazado_267325" data-name="Trazado 267325" d="M1253.523,446.595a7.72,7.72,0,0,1,2.885-1.1,12.341,12.341,0,0,1,6.157.446,9.668,9.668,0,0,1,2.74,1.43,14.841,14.841,0,0,0-2.841-1.1,15.971,15.971,0,0,0-6-.436A10.528,10.528,0,0,0,1253.523,446.595Z" transform="translate(-1253.523 -445.291)" fill="#1f4068"/>
          </g>
          <g id="Grupo_158735" data-name="Grupo 158735" transform="translate(41.234 15.705)">
            <path id="Trazado_267326" data-name="Trazado 267326" d="M1317.341,496.646c-.476-.5-.973-.97-1.487-1.415a18.665,18.665,0,0,0-1.6-1.249,17.938,17.938,0,0,0-1.721-1.079c-.59-.34-1.21-.62-1.834-.927a8.82,8.82,0,0,1,1.987.619,10.123,10.123,0,0,1,.938.465c.155.082.3.182.447.273s.3.185.437.288a10.541,10.541,0,0,1,1.587,1.361A7.761,7.761,0,0,1,1317.341,496.646Z" transform="translate(-1310.695 -491.977)" fill="#1f4068"/>
          </g>
          <g id="Grupo_158736" data-name="Grupo 158736" transform="translate(5.244 9.945)">
            <path id="Trazado_267327" data-name="Trazado 267327" d="M1044.051,450.733a5.512,5.512,0,0,1,1.553-.919c.141-.054.283-.111.427-.158l.437-.13a8.178,8.178,0,0,1,.9-.168,4.018,4.018,0,0,1,.456-.038c.152,0,.3-.018.457-.015a6.6,6.6,0,0,1,.909.083,5.738,5.738,0,0,1,1.721.545,14.978,14.978,0,0,0-1.756-.2,9.407,9.407,0,0,0-1.733.066,10.615,10.615,0,0,0-1.7.342A13.262,13.262,0,0,0,1044.051,450.733Z" transform="translate(-1044.051 -449.305)" fill="#1f4068"/>
          </g>
          <g id="Grupo_158737" data-name="Grupo 158737" transform="translate(8.833 14.768)">
            <path id="Trazado_267328" data-name="Trazado 267328" d="M1081.156,486.629a28.057,28.057,0,0,0-2.787-.779c-.469-.1-.939-.193-1.412-.253a11.942,11.942,0,0,0-1.42-.12,8.35,8.35,0,0,0-1.409.078,5.411,5.411,0,0,0-1.352.36,4.475,4.475,0,0,0-1.2.725,5.489,5.489,0,0,0-.936,1.085,4.356,4.356,0,0,1,.786-1.241,4.2,4.2,0,0,1,1.205-.883,6.274,6.274,0,0,1,2.914-.566,11.665,11.665,0,0,1,2.906.481A13.061,13.061,0,0,1,1081.156,486.629Z" transform="translate(-1070.643 -485.036)" fill="#1f4068"/>
          </g>
          <g id="Grupo_158738" data-name="Grupo 158738" transform="translate(3.808 17.12)">
            <path id="Trazado_267329" data-name="Trazado 267329" d="M1049.75,502.554c-.786.013-1.569.053-2.348.133s-1.555.171-2.324.3-1.534.283-2.286.478a20.361,20.361,0,0,0-2.226.686,17.846,17.846,0,0,0-2.125.939,15.356,15.356,0,0,0-1.958,1.242,12.814,12.814,0,0,0-1.7,1.579,12.5,12.5,0,0,0-1.371,1.9,10.7,10.7,0,0,1,1.2-2.035,11.386,11.386,0,0,1,1.656-1.71,13.866,13.866,0,0,1,1.974-1.341,17.386,17.386,0,0,1,2.171-.985,20.965,20.965,0,0,1,4.616-1.09A21.976,21.976,0,0,1,1049.75,502.554Z" transform="translate(-1033.409 -502.466)" fill="#1f4068"/>
          </g>
          <g id="Grupo_158739" data-name="Grupo 158739" transform="translate(1.331 19.119)">
            <path id="Trazado_267330" data-name="Trazado 267330" d="M1015.06,520.6a5.665,5.665,0,0,1,1.049-1.331,7.358,7.358,0,0,1,1.354-1.036c.243-.15.5-.272.757-.4a7.142,7.142,0,0,1,.8-.3,5.72,5.72,0,0,1,1.675-.262c-.533.192-1.057.355-1.556.585a11.426,11.426,0,0,0-1.452.749,13.389,13.389,0,0,0-1.357.918C1015.9,519.861,1015.474,520.216,1015.06,520.6Z" transform="translate(-1015.06 -517.276)" fill="#1f4068"/>
          </g>
          <g id="Grupo_158740" data-name="Grupo 158740" transform="translate(38.857 19.72)">
            <path id="Trazado_267331" data-name="Trazado 267331" d="M1293.082,521.73a11.187,11.187,0,0,1,1.644.549c.535.217,1.056.465,1.568.731s1.01.556,1.492.875a12.378,12.378,0,0,1,1.391,1.034c-.536-.225-1.049-.481-1.562-.736s-1.018-.52-1.525-.783-1.01-.533-1.51-.811S1293.577,522.033,1293.082,521.73Z" transform="translate(-1293.082 -521.73)" fill="#1f4068"/>
          </g>
          <g id="Grupo_158741" data-name="Grupo 158741" transform="translate(3.311 24.716)">
            <path id="Trazado_267332" data-name="Trazado 267332" d="M1029.728,562.2a2.727,2.727,0,0,1,.379-1.129,5.021,5.021,0,0,1,.711-.956,6.176,6.176,0,0,1,.889-.782c.16-.115.328-.219.495-.323s.348-.187.531-.263c-.126.156-.263.294-.4.434s-.268.279-.4.413c-.266.276-.535.543-.791.821s-.512.554-.75.847A7.9,7.9,0,0,0,1029.728,562.2Z" transform="translate(-1029.728 -558.745)" fill="#1f4068"/>
          </g>
          <g id="Grupo_158742" data-name="Grupo 158742" transform="translate(6.068 25.834)">
            <path id="Trazado_267333" data-name="Trazado 267333" d="M1050.154,573.066a16.574,16.574,0,0,1,.631-1.589c.23-.52.483-1.029.741-1.535s.535-1,.828-1.49a16.431,16.431,0,0,1,.936-1.43,16.6,16.6,0,0,1-.632,1.592c-.23.52-.483,1.027-.74,1.532s-.534,1-.827,1.487A16.762,16.762,0,0,1,1050.154,573.066Z" transform="translate(-1050.154 -567.022)" fill="#1f4068"/>
          </g>
        </g>
        <g id="Grupo_158744" data-name="Grupo 158744" transform="translate(202.015 56.144)" opacity="0.4" style="mix-blend-mode: multiply;isolation: isolate">
          <path id="Trazado_267334" data-name="Trazado 267334" d="M1902.8,794.361s-1.737-3.332-4.032-2.692Z" transform="translate(-1898.766 -791.588)" fill="#a65b3c"/>
        </g>
        <g id="Grupo_158745" data-name="Grupo 158745" transform="translate(174.888 118.61)" opacity="0.4" style="mix-blend-mode: multiply;isolation: isolate">
          <path id="Trazado_267335" data-name="Trazado 267335" d="M1697.786,1268.512l5.892-7.106s-4.193-.518-5.5-7.01Z" transform="translate(-1697.786 -1254.396)" fill="#a65b3c"/>
        </g>
        <g id="Grupo_158746" data-name="Grupo 158746" transform="translate(201.94 98.707)" opacity="0.4" style="mix-blend-mode: multiply;isolation: isolate">
          <path id="Trazado_267336" data-name="Trazado 267336" d="M1899.464,1106.932a61.086,61.086,0,0,1,1.011,14.206S1896.138,1116.881,1899.464,1106.932Z" transform="translate(-1898.209 -1106.932)" fill="#a65b3c"/>
        </g>
        <g id="Grupo_158747" data-name="Grupo 158747" transform="translate(8.653 76.193)" opacity="0.4" style="mix-blend-mode: multiply;isolation: isolate">
          <path id="Trazado_267337" data-name="Trazado 267337" d="M466.172,942.518s-.22-2.33,1.814-2.39S466.172,942.518,466.172,942.518Z" transform="translate(-466.165 -940.127)" fill="#a65b3c"/>
        </g>
        <g id="Grupo_158748" data-name="Grupo 158748" transform="translate(52.056 124.746)" opacity="0.4" style="mix-blend-mode: multiply;isolation: isolate">
          <path id="Trazado_267338" data-name="Trazado 267338" d="M791.86,1315.848l-.724-15.993s.666,10.361-3.407,11.937Z" transform="translate(-787.729 -1299.855)" fill="#a65b3c"/>
        </g>
        <g id="Grupo_158749" data-name="Grupo 158749" transform="translate(26.063 115.653)" opacity="0.4" style="mix-blend-mode: multiply;isolation: isolate">
          <path id="Trazado_267339" data-name="Trazado 267339" d="M595.154,1232.486a72.921,72.921,0,0,1,.774,14.164S600.053,1247.174,595.154,1232.486Z" transform="translate(-595.154 -1232.486)" fill="#a65b3c"/>
        </g>
        <g id="Grupo_158750" data-name="Grupo 158750" transform="translate(26.367 112.129)" opacity="0.4" style="mix-blend-mode: multiply;isolation: isolate">
          <path id="Trazado_267340" data-name="Trazado 267340" d="M609.826,1212.9s-6.422-4.822-12.422-6.411C597.4,1206.489,601.754,1205.005,609.826,1212.9Z" transform="translate(-597.404 -1206.378)" fill="#a65b3c"/>
        </g>
        <g id="Grupo_158751" data-name="Grupo 158751" transform="translate(103.404 82.805)" opacity="0.4" style="mix-blend-mode: multiply;isolation: isolate">
          <path id="Trazado_267341" data-name="Trazado 267341" d="M1175.156,992.051l1.131,2.341s-3.614,71.213-8.121,105.053l12.056,9.585,9.145-10.266-9.837-105.231.894-4.42Z" transform="translate(-1168.166 -989.114)" fill="#1f4168"/>
        </g>
        <g id="Grupo_158752" data-name="Grupo 158752" transform="translate(91.305 139.885)" opacity="0.4" style="mix-blend-mode: multiply;isolation: isolate">
          <path id="Trazado_267342" data-name="Trazado 267342" d="M1083.682,1474.854h-5.16c1.49-17.409,1.576-40.016,1.576-62.836Z" transform="translate(-1078.522 -1412.018)" fill="#1f4168"/>
        </g>
        <g id="Grupo_158753" data-name="Grupo 158753" transform="translate(92.884 119.399)" opacity="0.4" style="mix-blend-mode: multiply;isolation: isolate">
          <path id="Trazado_267343" data-name="Trazado 267343" d="M1095.979,1270.641a24.8,24.8,0,0,1-5.7-6.532c-.019-.031-.038-.061-.055-.09q0-1.9.01-3.78C1092.033,1267.444,1095.855,1270.543,1095.979,1270.641Z" transform="translate(-1090.223 -1260.239)" fill="#1f4168"/>
        </g>
        <g id="Grupo_158754" data-name="Grupo 158754" transform="translate(105.925 85.124)" opacity="0.4" style="mix-blend-mode: multiply;isolation: isolate">
          <path id="Trazado_267344" data-name="Trazado 267344" d="M1188.381,1006.3l.948,1.961-2.484,1.12Z" transform="translate(-1186.845 -1006.298)" fill="#1f4168"/>
        </g>
        <g id="Grupo_158755" data-name="Grupo 158755" transform="translate(189.934 94.459)" opacity="0.4" style="mix-blend-mode: multiply;isolation: isolate">
          <path id="Trazado_267345" data-name="Trazado 267345" d="M1820.283,1075.465s-5.435-.142-11.028,7.437A36.816,36.816,0,0,1,1820.283,1075.465Z" transform="translate(-1809.255 -1075.464)" fill="#a65b3c"/>
        </g>
        <g id="Grupo_158756" data-name="Grupo 158756" transform="translate(85.741 181.864)" opacity="0.4" style="mix-blend-mode: multiply;isolation: isolate">
          <path id="Trazado_267346" data-name="Trazado 267346" d="M1040.25,1743.894s-.7-13.569-1.481-20.857a136.968,136.968,0,0,1-1.465,20.857Z" transform="translate(-1037.304 -1723.037)" fill="#a65b3c"/>
        </g>
        <g id="Grupo_158757" data-name="Grupo 158757" transform="translate(143.546 90.064)">
          <path id="Trazado_267347" data-name="Trazado 267347" d="M1465.584,1042.9l3.437,1.258.859.315.43.157a2.785,2.785,0,0,1,.428.186,2.193,2.193,0,0,1,.7.618,2.181,2.181,0,0,1,.43,1.327,3.147,3.147,0,0,1-.044.465l-.125.906-.237,1.813-.446,3.631q-.431,3.633-.8,7.273t-.721,7.281q-.349,3.642-.648,7.289-.149,1.823-.286,3.648l-.25,3.651c-.164,2.434-.284,4.87-.4,7.307s-.2,4.875-.27,7.313c-.264,9.752-.225,19.515.305,29.254.134,2.435.314,4.866.517,7.3s.455,4.855.757,7.274.662,4.832,1.089,7.232.91,4.792,1.495,7.161l-.026.007q-.926-3.541-1.6-7.143t-1.151-7.231c-.646-4.839-1.084-9.706-1.359-14.58s-.405-9.755-.428-14.636q-.021-3.661.051-7.321t.2-7.318q.128-3.658.312-7.313c.122-2.437.272-4.872.414-7.308l.235-3.652.249-3.651q.261-3.651.572-7.3t.7-7.287q.389-3.639.832-7.273c.149-1.211.3-2.421.469-3.63l.255-1.812.135-.906a3.078,3.078,0,0,0,.047-.444,2.034,2.034,0,0,0-.388-1.243,2.06,2.06,0,0,0-.654-.588,2.78,2.78,0,0,0-.407-.185l-.427-.165-.853-.331-3.412-1.322Z" transform="translate(-1465.575 -1042.899)" fill="#a65b3c"/>
        </g>
        <g id="Grupo_158758" data-name="Grupo 158758" transform="translate(137.587 70.908)">
          <path id="Trazado_267348" data-name="Trazado 267348" d="M1421.42,900.971c.626.748,1.238,1.506,1.857,2.259l1.834,2.276c1.221,1.519,2.423,3.054,3.635,4.579l1.8,2.307a2.269,2.269,0,0,1,.508,1.423,2.2,2.2,0,0,1-.128.755,3.14,3.14,0,0,1-.358.663l-1.578,2.461c-.534.815-1.061,1.635-1.6,2.446.49-.843.994-1.677,1.49-2.516l1.514-2.5a2.913,2.913,0,0,0,.321-.627,2,2,0,0,0,.108-.679,2.026,2.026,0,0,0-.468-1.273l-1.814-2.292c-1.195-1.54-2.4-3.072-3.585-4.618l-1.776-2.323C1422.589,902.531,1422,901.756,1421.42,900.971Z" transform="translate(-1421.42 -900.971)" fill="#a65b3c"/>
        </g>
        <g id="Grupo_158759" data-name="Grupo 158759" transform="translate(71.814 99.395)">
          <path id="Trazado_267349" data-name="Trazado 267349" d="M940.2,1112.059l-3.17,1.228-1.585.614a1.8,1.8,0,0,0-1.1,1.143,1.774,1.774,0,0,0-.062.806,2.432,2.432,0,0,0,.1.4l.127.406.5,1.625c.329,1.085.654,2.171.964,3.262q.937,3.27,1.807,6.558.435,1.644.847,3.294l.412,1.65.4,1.652c.529,2.2,1.029,4.416,1.521,6.629s.957,4.432,1.419,6.651c.917,4.44,1.8,8.888,2.612,13.348s1.561,8.934,2.22,13.42,1.259,8.982,1.761,13.489q1.511,13.52,2.017,27.125h-.027c-.134-2.263-.255-4.526-.418-6.786-.139-2.262-.328-4.521-.5-6.78-.2-2.257-.393-4.515-.631-6.769-.22-2.255-.466-4.508-.714-6.76-1.042-9-2.3-17.982-3.851-26.915-.772-4.466-1.614-8.921-2.557-13.355s-1.974-8.848-3.066-13.247c-.534-2.2-1.107-4.395-1.673-6.589s-1.163-4.38-1.777-6.561l-.937-3.267-.485-1.629-.123-.406a2.58,2.58,0,0,1-.1-.424,1.92,1.92,0,0,1,1.266-2.085l1.6-.585,3.193-1.17Z" transform="translate(-934.12 -1112.034)" fill="#a65b3c"/>
        </g>
        <g id="Grupo_158760" data-name="Grupo 158760" transform="translate(74.04 80.88)">
          <path id="Trazado_267350" data-name="Trazado 267350" d="M956.9,974.853c-.388.789-.791,1.571-1.185,2.356l-1.21,2.343c-.809,1.561-1.64,3.11-2.459,4.666l-.627,1.16-.314.58a2.451,2.451,0,0,0-.137.282,1.746,1.746,0,0,0-.085.3,1.728,1.728,0,0,0,.2,1.191l.683,1.123,1.363,2.258c.446.758.9,1.511,1.339,2.273-.491-.73-.967-1.469-1.451-2.2l-1.427-2.218c-.238-.371-.475-.735-.708-1.117a1.979,1.979,0,0,1-.14-1.692,2.663,2.663,0,0,1,.147-.312l.308-.583.617-1.166c.839-1.545,1.666-3.1,2.515-4.636l1.277-2.308C956.032,976.383,956.458,975.614,956.9,974.853Z" transform="translate(-950.607 -974.853)" fill="#a65b3c"/>
        </g>
        <g id="Grupo_158761" data-name="Grupo 158761" transform="translate(165.037 73.682)">
          <path id="Trazado_267351" data-name="Trazado 267351" d="M1624.8,921.527c.063,1.647.22,3.288.42,4.922l.15,1.226.177,1.222c.11.816.255,1.627.391,2.438.559,3.245,1.256,6.465,2.066,9.656.429,1.589.824,3.188,1.31,4.762l.349,1.184c.12.394.225.792.359,1.182l.759,2.35.378,1.176.411,1.165.822,2.33c.13.391.28.775.427,1.159l.44,1.155.875,2.312-.942-2.286-.469-1.144c-.156-.381-.315-.762-.456-1.15l-.858-2.319-.429-1.16-.4-1.171-.785-2.346c-.135-.39-.243-.788-.365-1.182l-.356-1.185c-.494-1.574-.9-3.174-1.336-4.765-.79-3.2-1.492-6.43-2.009-9.689A68.543,68.543,0,0,1,1624.8,921.527Z" transform="translate(-1624.801 -921.527)" fill="#a65b3c"/>
        </g>
        <g id="Grupo_158762" data-name="Grupo 158762" transform="translate(94.418 69.293)">
          <path id="Trazado_267352" data-name="Trazado 267352" d="M1101.589,889.008c.23.936.505,1.859.811,2.771s.631,1.818.989,2.71.732,1.778,1.141,2.647.842,1.728,1.3,2.571.94,1.675,1.446,2.492,1.053,1.607,1.613,2.388c.136.2.284.387.427.581s.285.387.435.574c.3.376.594.756.908,1.12.606.748,1.265,1.449,1.922,2.155-.7-.662-1.381-1.347-2.022-2.068s-1.251-1.471-1.838-2.238l-.433-.581c-.143-.194-.277-.4-.416-.594-.28-.394-.537-.8-.8-1.206-.516-.817-1.011-1.647-1.475-2.495a43.834,43.834,0,0,1-2.4-5.272A34.362,34.362,0,0,1,1101.589,889.008Z" transform="translate(-1101.589 -889.008)" fill="#1b1a2e"/>
        </g>
        <g id="Grupo_158763" data-name="Grupo 158763" transform="translate(92.939 123.269)">
          <path id="Trazado_267353" data-name="Trazado 267353" d="M1090.627,1288.912a13.673,13.673,0,0,0,1.009,1.5c.358.482.746.942,1.138,1.4a33.177,33.177,0,0,0,2.528,2.562l.67.6c.224.2.461.385.69.579.453.4.938.751,1.408,1.126.233.191.481.36.723.539l.728.535c.49.349.993.68,1.484,1.033q-.392-.225-.781-.457c-.259-.155-.521-.305-.777-.466l-.756-.5c-.251-.168-.505-.332-.746-.515-.488-.357-.979-.711-1.444-1.1-.234-.192-.473-.378-.7-.577l-.68-.6a26,26,0,0,1-2.506-2.626c-.382-.47-.75-.951-1.085-1.455A11.412,11.412,0,0,1,1090.627,1288.912Z" transform="translate(-1090.627 -1288.912)" fill="#1b1a2e"/>
        </g>
        <g id="Grupo_158764" data-name="Grupo 158764" transform="translate(92.939 103.56)">
          <path id="Trazado_267354" data-name="Trazado 267354" d="M1090.627,1142.888c.477.13.951.263,1.43.383l1.431.373q1.432.365,2.867.719l2.873.7c.959.229,1.918.461,2.875.7-.49-.068-.976-.151-1.464-.228s-.973-.172-1.456-.271c-.969-.19-1.933-.408-2.893-.641s-1.913-.493-2.859-.778S1091.546,1143.252,1090.627,1142.888Z" transform="translate(-1090.627 -1142.888)" fill="#1b1a2e"/>
        </g>
        <g id="Grupo_158765" data-name="Grupo 158765" transform="translate(124.577 115.752)">
          <path id="Trazado_267355" data-name="Trazado 267355" d="M1325.037,1234.666c.653-.2,1.316-.374,1.982-.528s1.336-.289,2.007-.414,1.347-.229,2.026-.314,1.359-.155,2.042-.19c-.669.146-1.339.27-2.009.4l-2.011.372-2.014.354C1326.388,1234.459,1325.715,1234.571,1325.037,1234.666Z" transform="translate(-1325.037 -1233.22)" fill="#1b1a2e"/>
        </g>
        <g id="Grupo_158766" data-name="Grupo 158766" transform="translate(113.025 143.706)">
          <path id="Trazado_267356" data-name="Trazado 267356" d="M1239.449,1440.325c.25,2.453.477,4.909.707,7.364l.652,7.369c.424,4.913.807,9.831,1.187,14.748l.526,7.379.251,3.69c.083,1.23.166,2.46.238,3.691.148,2.462.3,4.923.431,7.385s.251,4.926.362,7.389c-.172-2.46-.316-4.922-.494-7.381-.16-2.46-.333-4.92-.506-7.38-.352-4.919-.7-9.838-1.077-14.754-.358-4.918-.745-9.834-1.125-14.751Z" transform="translate(-1239.449 -1440.325)" fill="#1b1a2e"/>
        </g>
        <g id="Grupo_158767" data-name="Grupo 158767" transform="translate(124.004 139.085)">
          <path id="Trazado_267357" data-name="Trazado 267357" d="M1332.718,1406.09c-.363.579-.772,1.127-1.181,1.675s-.85,1.071-1.3,1.586-.915,1.017-1.384,1.514l-.725.726c-.241.242-.5.471-.743.708l-.376.35-.387.338c-.259.223-.512.454-.776.671-.536.426-1.058.868-1.617,1.263a32.192,32.192,0,0,1-3.438,2.229c1.128-.77,2.248-1.545,3.311-2.4.541-.413,1.057-.856,1.58-1.291.259-.22.51-.449.766-.673l.382-.338.372-.349c1-.92,1.957-1.89,2.88-2.891S1331.893,1407.178,1332.718,1406.09Z" transform="translate(-1320.79 -1406.09)" fill="#1b1a2e"/>
        </g>
        <g id="Grupo_158768" data-name="Grupo 158768" transform="translate(174.872 118.61)">
          <path id="Trazado_267358" data-name="Trazado 267358" d="M1698.075,1254.4q.029,1.767.006,3.532c-.011,1.177-.039,2.354-.069,3.53s-.074,2.352-.128,3.528-.119,2.351-.2,3.526q-.029-1.767-.006-3.532c.011-1.177.038-2.353.069-3.53s.074-2.352.129-3.528S1697.99,1255.571,1698.075,1254.4Z" transform="translate(-1697.663 -1254.396)" fill="#a65b3c"/>
        </g>
        <g id="Grupo_158769" data-name="Grupo 158769" transform="translate(202.117 94.013)">
          <path id="Trazado_267359" data-name="Trazado 267359" d="M1899.52,1072.154a41.409,41.409,0,0,1,1.171,4.631c.159.781.288,1.568.417,2.354l.168,1.184c.056.395.1.792.144,1.187l.066.594.052.6c.032.4.073.794.1,1.192.04.8.1,1.591.1,2.389a46.845,46.845,0,0,1-.129,4.775c.005-1.592.005-3.181-.082-4.768-.07-1.587-.2-3.17-.377-4.748s-.4-3.151-.667-4.716S1899.906,1073.7,1899.52,1072.154Z" transform="translate(-1899.52 -1072.154)" fill="#a65b3c"/>
        </g>
        <g id="Grupo_158770" data-name="Grupo 158770" transform="translate(207.349 60.274)">
          <path id="Trazado_267360" data-name="Trazado 267360" d="M1938.286,822.191a29.235,29.235,0,0,1,3.276,3.389,46.4,46.4,0,0,1,2.832,3.775l.64.991.318.5.3.506.6,1.015.566,1.035.282.518c.092.174.178.351.266.526l.523,1.057c.088.175.17.354.248.535l.24.539q.241.538.474,1.078c-.369-.694-.706-1.4-1.08-2.092l-.561-1.034c-.095-.172-.184-.346-.28-.517l-.295-.509-.587-1.018-.615-1-.306-.5-.319-.493-.642-.983q-1.312-1.948-2.77-3.793l-.366-.459-.375-.452c-.126-.15-.249-.3-.377-.451l-.386-.443C1939.38,823.316,1938.846,822.741,1938.286,822.191Z" transform="translate(-1938.286 -822.191)" fill="#a65b3c"/>
        </g>
        <g id="Grupo_158771" data-name="Grupo 158771" transform="translate(55.268 92.434)">
          <path id="Trazado_267361" data-name="Trazado 267361" d="M815.429,1060.458c-.1,1.008-.233,2.013-.356,3.019l-.409,3.013c-.282,2.007-.6,4.009-.915,6.011l-.511,3c-.175,1-.342,2-.533,2.993l-.567,2.987c-.2.994-.4,1.987-.611,2.978.152-1,.324-2,.48-3l.493-3,.983-6c.338-2,.651-4,.977-6Z" transform="translate(-811.527 -1060.458)" fill="#a65b3c"/>
        </g>
        <g id="Grupo_158772" data-name="Grupo 158772" transform="translate(55.268 120.429)">
          <path id="Trazado_267362" data-name="Trazado 267362" d="M811.527,1267.873c.069.845.12,1.691.181,2.536l.152,2.537c.1,1.691.173,3.384.261,5.076.066,1.693.144,3.385.2,5.079l.077,2.541c.016.847.041,1.694.049,2.542-.069-.845-.12-1.69-.181-2.536l-.152-2.537c-.1-1.691-.174-3.384-.261-5.076-.065-1.693-.144-3.385-.2-5.079l-.077-2.54C811.56,1269.567,811.535,1268.721,811.527,1267.873Z" transform="translate(-811.527 -1267.873)" fill="#a65b3c"/>
        </g>
        <g id="Grupo_158773" data-name="Grupo 158773" transform="translate(25.221 111.83)">
          <path id="Trazado_267363" data-name="Trazado 267363" d="M588.912,1204.158a37.127,37.127,0,0,1,1,4.423q.377,2.238.569,4.5c.116,1.508.207,3.019.205,4.532.017.756-.012,1.512-.028,2.268-.007.378-.037.755-.056,1.132s-.044.754-.07,1.131c-.012-.756.011-1.51-.006-2.265s-.016-1.509-.051-2.262l-.04-1.13-.063-1.129c-.017-.376-.044-.752-.073-1.128s-.051-.752-.087-1.127l-.1-1.126c-.035-.375-.083-.749-.121-1.124s-.087-.748-.134-1.122-.1-.748-.15-1.121l-.079-.56-.088-.558c-.055-.373-.121-.744-.184-1.116Q589.159,1205.264,588.912,1204.158Z" transform="translate(-588.912 -1204.158)" fill="#a65b3c"/>
        </g>
        <g id="Grupo_158774" data-name="Grupo 158774" transform="translate(8.707 100.292)">
          <path id="Trazado_267364" data-name="Trazado 267364" d="M480.341,1118.679c-1.28,1.057-2.515,2.165-3.73,3.292s-2.4,2.287-3.548,3.481c-.585.587-1.139,1.2-1.708,1.8-.55.619-1.115,1.225-1.649,1.859l-.809.944-.788.961c-.132.16-.267.318-.4.48l-.382.491q-.381.492-.769.979c.939-1.369,1.913-2.718,2.983-3.991l.394-.483c.133-.16.272-.314.407-.472l.819-.94c.565-.61,1.12-1.229,1.7-1.821s1.171-1.18,1.766-1.76l.909-.853c.3-.283.616-.558.925-.836C477.712,1120.712,479,1119.654,480.341,1118.679Z" transform="translate(-466.562 -1118.679)" fill="#a65b3c"/>
        </g>
        <g id="Grupo_158775" data-name="Grupo 158775" transform="translate(36.163 108.002)">
          <path id="Trazado_267365" data-name="Trazado 267365" d="M669.98,1176a16.711,16.711,0,0,1,2.738-.2c.459,0,.917.023,1.375.054s.914.09,1.369.156a14.838,14.838,0,0,1,2.676.66,11.563,11.563,0,0,1,1.27.536,10.025,10.025,0,0,1,1.18.705,13.756,13.756,0,0,0-2.516-1.042,18.817,18.817,0,0,0-2.651-.593,25.929,25.929,0,0,0-2.709-.267C671.8,1175.97,670.893,1175.955,669.98,1176Z" transform="translate(-669.98 -1175.801)" fill="#a65b3c"/>
        </g>
        <g id="Grupo_158776" data-name="Grupo 158776" transform="translate(4.288 81.282)">
          <path id="Trazado_267366" data-name="Trazado 267366" d="M436.85,977.837c-.173.855-.349,1.709-.508,2.567s-.328,1.713-.482,2.571c-.307,1.716-.605,3.433-.859,5.157-.279,1.72-.493,3.45-.7,5.18l-.144,1.3c-.05.433-.079.868-.122,1.3-.1.867-.136,1.738-.213,2.607q.01-.654.028-1.309c.007-.437.031-.872.053-1.308s.046-.872.084-1.307l.108-1.305c.033-.436.086-.869.133-1.3s.1-.868.154-1.3l.168-1.3.187-1.3c.277-1.724.571-3.445.923-5.156.179-.854.361-1.708.556-2.559S436.618,978.678,436.85,977.837Z" transform="translate(-433.821 -977.837)" fill="#a65b3c"/>
        </g>
        <g id="Grupo_158777" data-name="Grupo 158777" transform="translate(26.367 112.074)">
          <path id="Trazado_267367" data-name="Trazado 267367" d="M597.4,1206.136a3.256,3.256,0,0,1,.909-.159c.154-.012.309,0,.464,0s.309.016.463.036a9.47,9.47,0,0,1,1.81.4,16.578,16.578,0,0,1,3.339,1.605,26.325,26.325,0,0,1,3,2.182c.481.388.937.8,1.4,1.214.228.208.45.423.675.634s.45.423.665.644a64.27,64.27,0,0,1,4.889,5.551c.19.243.384.482.57.728l.556.739.556.739c.183.248.361.5.541.749.72,1,1.412,2.019,2.1,3.042q-.55-.742-1.093-1.489c-.358-.5-.741-.983-1.11-1.475l-.556-.736-.57-.726-.569-.726c-.191-.241-.389-.476-.583-.715a69.415,69.415,0,0,0-4.917-5.49c-.213-.222-.435-.433-.657-.645s-.442-.427-.667-.635c-.457-.409-.907-.827-1.382-1.215a29.574,29.574,0,0,0-2.949-2.195,16.509,16.509,0,0,0-3.272-1.656,9.364,9.364,0,0,0-1.776-.455c-.151-.025-.3-.034-.457-.05s-.306-.018-.459-.012A3.234,3.234,0,0,0,597.4,1206.136Z" transform="translate(-597.404 -1205.971)" fill="#a65b3c"/>
        </g>
        <g id="Grupo_158778" data-name="Grupo 158778" transform="translate(202.117 87.871)">
          <path id="Trazado_267368" data-name="Trazado 267368" d="M1899.52,1026.65a13.826,13.826,0,0,0,.794,1.519,16.163,16.163,0,0,0,.95,1.419,12.472,12.472,0,0,0,2.365,2.43,9.244,9.244,0,0,0,1.421.919,8.913,8.913,0,0,0,1.562.654c.067.021.134.046.2.064l.206.052c.138.033.274.074.413.1.279.051.557.113.841.138a11.163,11.163,0,0,0,1.71.08,8.8,8.8,0,0,1-3.431-.234,8.9,8.9,0,0,1-3.089-1.561,11.365,11.365,0,0,1-2.371-2.52A12.363,12.363,0,0,1,1899.52,1026.65Z" transform="translate(-1899.52 -1026.65)" fill="#a65b3c"/>
        </g>
        <g id="Grupo_158779" data-name="Grupo 158779" transform="translate(181.182 94.46)">
          <path id="Trazado_267369" data-name="Trazado 267369" d="M1764.195,1075.465a5.439,5.439,0,0,0-1.04.137,9.329,9.329,0,0,0-1.011.279,12.561,12.561,0,0,0-1.919.837,18.175,18.175,0,0,0-3.413,2.413,26.561,26.561,0,0,0-2.889,3.03c-.111.135-.226.266-.333.4l-.319.416c-.21.279-.431.55-.628.84l-.6.857c-.2.29-.382.586-.574.878a53.984,53.984,0,0,0-3.966,7.394c-.283.641-.58,1.276-.839,1.927l-.4.972c-.066.162-.135.323-.2.487l-.187.491-.379.981c-.126.327-.256.653-.37.985l-.711,1.981.644-2c.1-.335.225-.665.342-1l.351-.993.178-.5c.06-.165.127-.327.19-.491l.384-.981c.248-.657.534-1.3.806-1.947s.574-1.283.871-1.92l.224-.477.239-.47.479-.94c.154-.316.335-.618.5-.928s.337-.617.513-.922l.542-.906.272-.452.288-.443c.195-.293.384-.59.583-.88l.613-.86c.2-.29.424-.562.637-.842l.323-.417c.108-.139.226-.271.338-.406a24.56,24.56,0,0,1,2.942-3.03,18.23,18.23,0,0,1,3.488-2.375,12.639,12.639,0,0,1,1.958-.788A7.1,7.1,0,0,1,1764.195,1075.465Z" transform="translate(-1744.415 -1075.465)" fill="#a65b3c"/>
        </g>
        <g id="Grupo_158780" data-name="Grupo 158780" transform="translate(174.974 85.678)">
          <path id="Trazado_267370" data-name="Trazado 267370" d="M1707.753,1011.124a4.347,4.347,0,0,0-2.93-.47,5.988,5.988,0,0,0-2.665,1.323,12.184,12.184,0,0,0-2.064,2.217,28.673,28.673,0,0,0-1.673,2.565,17.6,17.6,0,0,1,1.5-2.687,13,13,0,0,1,.947-1.224,9.809,9.809,0,0,1,1.118-1.08,5.822,5.822,0,0,1,2.8-1.32,4.34,4.34,0,0,1,1.557.054,4.228,4.228,0,0,1,.738.242A3.1,3.1,0,0,1,1707.753,1011.124Z" transform="translate(-1698.421 -1010.401)" fill="#a65b3c"/>
        </g>
        <g id="Grupo_158781" data-name="Grupo 158781" transform="translate(183.609 92.865)">
          <path id="Trazado_267371" data-name="Trazado 267371" d="M1773.6,1063.654c-.486.1-.972.19-1.453.3s-.963.222-1.442.339c-.958.241-1.909.5-2.849.8l-.7.226-.7.245c-.234.078-.464.166-.693.256s-.462.172-.688.269l-.681.289c-.229.092-.447.207-.672.309-.456.193-.88.447-1.326.665a17.533,17.533,0,0,1,2.6-1.456,25.022,25.022,0,0,1,2.786-1.06c.949-.293,1.911-.547,2.883-.747A24.723,24.723,0,0,1,1773.6,1063.654Z" transform="translate(-1762.395 -1063.654)" fill="#a65b3c"/>
        </g>
        <g id="Grupo_158782" data-name="Grupo 158782" transform="translate(166.3 180.02)">
          <path id="Trazado_267372" data-name="Trazado 267372" d="M1634.155,1711.375q1.477-.327,2.962-.6c.99-.188,1.982-.361,2.974-.53s1.988-.326,2.985-.472,2-.282,3-.4q-1.477.328-2.962.6c-.99.188-1.982.361-2.975.53s-1.988.326-2.985.471S1635.157,1711.259,1634.155,1711.375Z" transform="translate(-1634.155 -1709.372)" fill="#a65b3c"/>
        </g>
        <g id="Grupo_158783" data-name="Grupo 158783" transform="translate(166.3 182.023)">
          <path id="Trazado_267373" data-name="Trazado 267373" d="M1648.62,1732.687c-.419.093-.84.176-1.26.262s-.842.167-1.263.247l-1.264.24c-.421.08-.845.149-1.267.225s-.84.152-1.272.217a5.889,5.889,0,0,1-1.312.041,6.258,6.258,0,0,1-2.491-.773,7.281,7.281,0,0,1-2.008-1.655,8.073,8.073,0,0,1-1.337-2.224,9.053,9.053,0,0,1-.4-1.236c-.107-.42-.159-.85-.224-1.272-.125-.849-.255-1.7-.373-2.547.166.842.321,1.686.48,2.528l.12.632.064.313.077.31a8.866,8.866,0,0,0,.416,1.2,8.2,8.2,0,0,0,1.347,2.142,7.045,7.045,0,0,0,1.953,1.586,6.045,6.045,0,0,0,2.392.725,5.646,5.646,0,0,0,1.254-.03c.417-.059.845-.134,1.267-.2s.846-.139,1.271-.2l1.273-.187c.424-.063.849-.125,1.274-.18S1648.194,1732.737,1648.62,1732.687Z" transform="translate(-1634.155 -1724.211)" fill="#a65b3c"/>
        </g>
        <g id="Grupo_158784" data-name="Grupo 158784" transform="translate(59.108 185.732)">
          <path id="Trazado_267374" data-name="Trazado 267374" d="M853.351,1753.1q-1.679-.1-3.354-.246c-1.116-.1-2.231-.206-3.346-.321s-2.228-.242-3.34-.38-2.223-.286-3.332-.455q1.68.1,3.354.246c1.116.1,2.231.207,3.346.321s2.228.242,3.34.38S852.242,1752.928,853.351,1753.1Z" transform="translate(-839.98 -1751.695)" fill="#a65b3c"/>
        </g>
        <g id="Grupo_158785" data-name="Grupo 158785" transform="translate(58.1 187.134)">
          <path id="Trazado_267375" data-name="Trazado 267375" d="M832.513,1771.387c.438.025.876.059,1.314.091s.875.065,1.312.1c.874.076,1.749.145,2.621.235l1.31.129a6.124,6.124,0,0,0,1.287.014,6.009,6.009,0,0,0,2.429-.79,7.022,7.022,0,0,0,1.943-1.685,8.181,8.181,0,0,0,1.277-2.249,8.559,8.559,0,0,0,.364-1.25c.089-.426.137-.858.192-1.295.109-.871.213-1.742.33-2.611-.067.875-.145,1.749-.219,2.623a12.651,12.651,0,0,1-.155,1.313,8.741,8.741,0,0,1-.341,1.282,7.964,7.964,0,0,1-1.266,2.332,7.268,7.268,0,0,1-2,1.759,6.116,6.116,0,0,1-2.531.837,6.321,6.321,0,0,1-1.339-.025l-1.308-.146c-.872-.092-1.742-.206-2.613-.313q-.653-.079-1.305-.17C833.382,1771.512,832.947,1771.454,832.513,1771.387Z" transform="translate(-832.513 -1762.08)" fill="#a65b3c"/>
        </g>
        <g id="Grupo_158786" data-name="Grupo 158786" transform="translate(120.111 67.726)">
          <path id="Trazado_267376" data-name="Trazado 267376" d="M1299.73,877.4a27.821,27.821,0,0,1-.623,5.089c-.171.84-.392,1.668-.636,2.49s-.522,1.634-.837,2.432-.671,1.58-1.066,2.341a21.409,21.409,0,0,1-1.294,2.223c-.231.361-.489.7-.739,1.053-.127.173-.264.338-.4.507s-.264.337-.407.5l-.423.483-.444.464-.222.231-.233.221-.468.437a23.138,23.138,0,0,0,1.688-1.921c.066-.084.135-.164.2-.249l.19-.257c.125-.172.256-.34.377-.515.238-.353.483-.7.7-1.065s.436-.73.653-1.1c.1-.185.2-.374.3-.56l.151-.281.142-.286c.385-.758.724-1.539,1.035-2.33a33.579,33.579,0,0,0,1.522-4.867q.3-1.242.5-2.505T1299.73,877.4Z" transform="translate(-1291.943 -877.396)" fill="#1b1a2e"/>
        </g>
        <g id="Grupo_158787" data-name="Grupo 158787" transform="translate(105.412 79.415)">
          <path id="Trazado_267377" data-name="Trazado 267377" d="M1188.568,964c-.251.4-.5.8-.74,1.209s-.483.812-.721,1.219q-.71,1.224-1.4,2.462c-.226.414-.457.826-.677,1.243l-.337.623-.331.626-1.324,2.507c.174-.44.359-.875.544-1.312s.383-.866.592-1.29c.4-.857.845-1.695,1.3-2.526s.941-1.644,1.453-2.441A27.087,27.087,0,0,1,1188.568,964Z" transform="translate(-1183.041 -964.001)" fill="#1b1a2e"/>
        </g>
        <g id="Grupo_158788" data-name="Grupo 158788" transform="translate(110.939 79.415)">
          <path id="Trazado_267378" data-name="Trazado 267378" d="M1223.988,964c.835.459,1.649.957,2.445,1.48s1.578,1.068,2.347,1.632c.384.282.761.573,1.14.863s.75.589,1.112.9c.737.6,1.442,1.247,2.129,1.906-.756-.58-1.5-1.167-2.26-1.742s-1.513-1.148-2.28-1.709-1.533-1.121-2.305-1.676S1224.768,964.548,1223.988,964Z" transform="translate(-1223.988 -964.001)" fill="#1b1a2e"/>
        </g>
        <g id="Grupo_158789" data-name="Grupo 158789" transform="translate(206.726 64.727)">
          <circle id="Elipse_6385" data-name="Elipse 6385" cx="1.506" cy="1.506" r="1.506" transform="translate(0 2.129) rotate(-45)" fill="#1f4168"/>
        </g>
        <g id="Grupo_158790" data-name="Grupo 158790" transform="translate(211.301 71.178)">
          <circle id="Elipse_6386" data-name="Elipse 6386" cx="1.506" cy="1.506" r="1.506" transform="translate(0 2.972) rotate(-80.783)" fill="#1f4168"/>
        </g>
        <g id="Grupo_158791" data-name="Grupo 158791" transform="translate(7.66 87.534)">
          <circle id="Elipse_6387" data-name="Elipse 6387" cx="1.506" cy="1.506" r="1.506" transform="translate(0 2.85) rotate(-71.174)" fill="#1f4168"/>
        </g>
        <g id="Grupo_158792" data-name="Grupo 158792" transform="translate(6.971 95.206)">
          <path id="Trazado_267379" data-name="Trazado 267379" d="M453.854,1083.16a1.506,1.506,0,1,0,.692-2.014A1.505,1.505,0,0,0,453.854,1083.16Z" transform="translate(-453.701 -1080.993)" fill="#1f4168"/>
        </g>
        <g id="Grupo_158811" data-name="Grupo 158811" transform="translate(100.472 79.415)">
          <g id="Grupo_158809" data-name="Grupo 158809">
            <path id="Trazado_267380" data-name="Trazado 267380" d="M1153.428,969.71l1.131,2.341s-3.614,71.213-8.121,105.053l12.056,9.585,9.146-10.266-7.957-104.665,2.007-4.506L1156.905,964Z" transform="translate(-1146.438 -964.001)" fill="#f9a21b"/>
            <g id="Grupo_158808" data-name="Grupo 158808" clip-path="url(#clip-path-2)">
              <g id="Grupo_158807" data-name="Grupo 158807" transform="translate(-10.675 -13.919)">
                <g id="Grupo_158793" data-name="Grupo 158793" transform="translate(11.025 0)">
                  <rect id="Rectángulo_295871" data-name="Rectángulo 295871" width="0.135" height="36.474" transform="translate(0 0.113) rotate(-57.092)" fill="#fff"/>
                </g>
                <g id="Grupo_158794" data-name="Grupo 158794" transform="translate(10.177 10.449)">
                  <rect id="Rectángulo_295872" data-name="Rectángulo 295872" width="0.135" height="37.007" transform="matrix(0.543, -0.84, 0.84, 0.543, 0, 0.113)" fill="#fff"/>
                </g>
                <g id="Grupo_158795" data-name="Grupo 158795" transform="translate(9.329 20.898)">
                  <rect id="Rectángulo_295873" data-name="Rectángulo 295873" width="0.135" height="37.543" transform="matrix(0.543, -0.84, 0.84, 0.543, 0, 0.113)" fill="#fff"/>
                </g>
                <g id="Grupo_158796" data-name="Grupo 158796" transform="translate(8.482 31.349)">
                  <rect id="Rectángulo_295874" data-name="Rectángulo 295874" width="0.135" height="38.077" transform="translate(0 0.113) rotate(-57.092)" fill="#fff"/>
                </g>
                <g id="Grupo_158797" data-name="Grupo 158797" transform="translate(7.633 41.798)">
                  <rect id="Rectángulo_295875" data-name="Rectángulo 295875" width="0.135" height="38.614" transform="matrix(0.543, -0.84, 0.84, 0.543, 0, 0.113)" fill="#fff"/>
                </g>
                <g id="Grupo_158798" data-name="Grupo 158798" transform="translate(6.786 52.249)">
                  <rect id="Rectángulo_295876" data-name="Rectángulo 295876" width="0.135" height="39.147" transform="matrix(0.543, -0.84, 0.84, 0.543, 0, 0.113)" fill="#fff"/>
                </g>
                <g id="Grupo_158799" data-name="Grupo 158799" transform="translate(5.937 62.699)">
                  <rect id="Rectángulo_295877" data-name="Rectángulo 295877" width="0.135" height="39.683" transform="matrix(0.543, -0.84, 0.84, 0.543, 0, 0.113)" fill="#fff"/>
                </g>
                <g id="Grupo_158800" data-name="Grupo 158800" transform="translate(5.09 73.148)">
                  <rect id="Rectángulo_295878" data-name="Rectángulo 295878" width="0.135" height="40.217" transform="translate(0 0.113) rotate(-57.091)" fill="#fff"/>
                </g>
                <g id="Grupo_158801" data-name="Grupo 158801" transform="translate(4.241 83.599)">
                  <rect id="Rectángulo_295879" data-name="Rectángulo 295879" width="0.135" height="40.754" transform="matrix(0.543, -0.84, 0.84, 0.543, 0, 0.113)" fill="#fff"/>
                </g>
                <g id="Grupo_158802" data-name="Grupo 158802" transform="translate(3.394 94.048)">
                  <rect id="Rectángulo_295880" data-name="Rectángulo 295880" width="0.135" height="41.288" transform="matrix(0.543, -0.84, 0.84, 0.543, 0, 0.113)" fill="#fff"/>
                </g>
                <g id="Grupo_158803" data-name="Grupo 158803" transform="translate(2.545 104.499)">
                  <rect id="Rectángulo_295881" data-name="Rectángulo 295881" width="0.135" height="38.798" transform="matrix(0.543, -0.84, 0.84, 0.543, 0, 0.113)" fill="#fff"/>
                </g>
                <g id="Grupo_158804" data-name="Grupo 158804" transform="translate(1.696 114.95)">
                  <rect id="Rectángulo_295882" data-name="Rectángulo 295882" width="0.135" height="33.834" transform="translate(0 0.113) rotate(-57.093)" fill="#fff"/>
                </g>
                <g id="Grupo_158805" data-name="Grupo 158805" transform="translate(0.849 125.399)">
                  <rect id="Rectángulo_295883" data-name="Rectángulo 295883" width="0.135" height="28.869" transform="matrix(0.543, -0.84, 0.84, 0.543, 0, 0.113)" fill="#fff"/>
                </g>
                <g id="Grupo_158806" data-name="Grupo 158806" transform="translate(0 135.849)">
                  <rect id="Rectángulo_295884" data-name="Rectángulo 295884" width="0.135" height="23.903" transform="translate(0 0.113) rotate(-57.092)" fill="#fff"/>
                </g>
              </g>
            </g>
          </g>
          <g id="Grupo_158810" data-name="Grupo 158810" transform="translate(10.397 31.518)">
            <rect id="Rectángulo_295885" data-name="Rectángulo 295885" width="8.175" height="2.068" transform="matrix(0.998, 0.059, -0.059, 0.998, 0.122, 0)" fill="#fff"/>
          </g>
        </g>
        <g id="Grupo_158823" data-name="Grupo 158823" transform="translate(159.097 54.468)">
          <g id="Grupo_158812" data-name="Grupo 158812" transform="translate(31.788)">
            <path id="Trazado_267382" data-name="Trazado 267382" d="M1831.467,783.623l-6.389-4.449s-9.853,3.032-8.675,17l.524.358C1836.025,795.728,1831.467,783.623,1831.467,783.623Z" transform="translate(-1816.304 -779.174)" fill="#1f4168"/>
          </g>
          <g id="Grupo_158813" data-name="Grupo 158813" transform="translate(0 1.265)">
            <path id="Trazado_267383" data-name="Trazado 267383" d="M1621.406,788.632s2.354,14.089-9.48,15.78v2.453a1.686,1.686,0,0,1-1.034,1.554,18.753,18.753,0,0,1-3.076,1.013,2.381,2.381,0,0,1-2.164-.622l-.509-.492a2.194,2.194,0,0,1-2.55-1.649,4.622,4.622,0,0,1-2.833,1.088,3.546,3.546,0,0,1-2.814,2.793,1.616,1.616,0,0,1-1.836-1.938,18.526,18.526,0,0,0,.424-3.863,2.334,2.334,0,0,1,.579-1.553l1.47-1.666-.429-1.462a22.149,22.149,0,0,0-6.985,5.4s-4.162,5.758-7.494,6.3a1.648,1.648,0,0,1-1.481-2.714l7.306-8.421,6.48-7.17a3.628,3.628,0,0,0,.494-.7h0a3.643,3.643,0,0,1,3.1-1.894l1.508-.042a3.625,3.625,0,0,0,.512-.051C1602.641,790.423,1616.653,788.076,1621.406,788.632Z" transform="translate(-1580.787 -788.547)" fill="#ffc89f"/>
          </g>
          <g id="Grupo_158814" data-name="Grupo 158814" transform="translate(19.17 11.656)">
            <path id="Trazado_267384" data-name="Trazado 267384" d="M1725.453,873.265c-.067-.338-.125-.677-.187-1.016l-.206-1.01c-.084-.333-.152-.67-.239-1s-.172-.665-.28-.991a15.614,15.614,0,0,0-.7-1.933c-.135-.315-.288-.622-.454-.922a5.171,5.171,0,0,0-.571-.855,6.512,6.512,0,0,1,1.12,1.735,14.04,14.04,0,0,1,.734,1.938c.2.662.355,1.335.491,2.011l.17,1.02C1725.371,872.581,1725.416,872.923,1725.453,873.265Z" transform="translate(-1722.816 -865.535)" fill="#ff9a6c"/>
          </g>
          <g id="Grupo_158815" data-name="Grupo 158815" transform="translate(15.781 9.556)">
            <path id="Trazado_267385" data-name="Trazado 267385" d="M1698.719,854.666q-.112-.279-.213-.563c-.063-.19-.128-.381-.185-.573-.12-.384-.215-.774-.3-1.166s-.158-.789-.211-1.187a10.164,10.164,0,0,1-.1-1.2c.031.2.062.4.1.593s.067.395.106.591c.077.392.152.785.24,1.175s.176.779.272,1.168S1698.622,854.277,1698.719,854.666Z" transform="translate(-1697.704 -849.976)" fill="#ff9a6c"/>
          </g>
          <g id="Grupo_158816" data-name="Grupo 158816" transform="translate(16.796 14.247)">
            <path id="Trazado_267386" data-name="Trazado 267386" d="M1705.229,884.727c.112.57.211,1.142.316,1.713l.157.855c.053.285.112.569.171.852a14.392,14.392,0,0,0,.428,1.678,2.65,2.65,0,0,0,.37.769.864.864,0,0,0,.317.274,1.119,1.119,0,0,0,.419.086,1.032,1.032,0,0,1-.433-.054.914.914,0,0,1-.354-.265,2.7,2.7,0,0,1-.416-.775,12.517,12.517,0,0,1-.463-1.686c-.11-.571-.215-1.143-.3-1.719-.039-.288-.082-.575-.118-.863S1705.257,885.016,1705.229,884.727Z" transform="translate(-1705.229 -884.727)" fill="#ff9a6c"/>
          </g>
          <g id="Grupo_158817" data-name="Grupo 158817" transform="translate(23.271 14.696)">
            <path id="Trazado_267387" data-name="Trazado 267387" d="M1753.276,888.054c.007.272,0,.543.007.814l.02.812.043.81.036.4.018.2.026.2a11.486,11.486,0,0,0,.277,1.594,7.11,7.11,0,0,0,.233.774,3.511,3.511,0,0,0,.35.729,4.324,4.324,0,0,1-.683-1.477,10.125,10.125,0,0,1-.311-1.605l-.023-.2-.015-.2-.03-.407c-.011-.272-.024-.544-.024-.816s.008-.544.018-.815S1753.252,888.324,1753.276,888.054Z" transform="translate(-1753.2 -888.054)" fill="#ff9a6c"/>
          </g>
          <g id="Grupo_158818" data-name="Grupo 158818" transform="translate(27.78 17.13)">
            <path id="Trazado_267388" data-name="Trazado 267388" d="M1786.607,906.926c.074.02.148.04.22.062.036.01.072.023.109.031l.112.016c.075.01.147.029.222.033l.224.007a3.27,3.27,0,0,0,.88-.142,4.919,4.919,0,0,0,.826-.354,4.47,4.47,0,0,0,.39-.231c.13-.079.253-.168.376-.259a3.593,3.593,0,0,1-.714.579,3.671,3.671,0,0,1-.838.394,2.722,2.722,0,0,1-.922.117A2.18,2.18,0,0,1,1786.607,906.926Z" transform="translate(-1786.607 -906.088)" fill="#ff9a6c"/>
          </g>
          <g id="Grupo_158819" data-name="Grupo 158819" transform="translate(28.142 18.169)">
            <path id="Trazado_267389" data-name="Trazado 267389" d="M1789.29,916.532a2.181,2.181,0,0,0,.453-.578,2.686,2.686,0,0,0,.224-.691,4.137,4.137,0,0,0,.059-.732,6.429,6.429,0,0,0-.045-.744,3.15,3.15,0,0,1,.118,1.5,2.208,2.208,0,0,1-.265.719A1.606,1.606,0,0,1,1789.29,916.532Z" transform="translate(-1789.29 -913.787)" fill="#ff9a6c"/>
          </g>
          <g id="Grupo_158820" data-name="Grupo 158820" transform="translate(15.781 5.118)">
            <path id="Trazado_267390" data-name="Trazado 267390" d="M1697.7,819.359c.009-.079.019-.158.031-.238a1.206,1.206,0,0,1,.047-.236l.074-.231c.027-.076.069-.146.1-.22a2.158,2.158,0,0,1,.624-.744,2.849,2.849,0,0,1,.86-.445,3.061,3.061,0,0,1,.947-.155,3.739,3.739,0,0,0-.464.1,3.624,3.624,0,0,0-.448.148,3.4,3.4,0,0,0-.813.454,2.39,2.39,0,0,0-.616.687c-.038.068-.083.133-.115.2l-.089.218a1.171,1.171,0,0,0-.075.224C1697.75,819.206,1697.727,819.282,1697.7,819.359Z" transform="translate(-1697.704 -817.09)" fill="#ff9a6c"/>
          </g>
          <g id="Grupo_158821" data-name="Grupo 158821" transform="translate(18.63 7.463)">
            <path id="Trazado_267391" data-name="Trazado 267391" d="M1718.814,837.006a2.092,2.092,0,0,1,.19-.963,2.337,2.337,0,0,1,.6-.79,3.258,3.258,0,0,1,.841-.521,3.538,3.538,0,0,1,.944-.268,4.83,4.83,0,0,0-.459.163,4.54,4.54,0,0,0-.441.2,4.014,4.014,0,0,0-.8.529,2.62,2.62,0,0,0-.6.734,2.091,2.091,0,0,0-.182.442A2.843,2.843,0,0,0,1718.814,837.006Z" transform="translate(-1718.812 -834.464)" fill="#ff9a6c"/>
          </g>
          <g id="Grupo_158822" data-name="Grupo 158822" transform="translate(23.318 10.923)">
            <path id="Trazado_267392" data-name="Trazado 267392" d="M1753.545,863.031c.01-.154.019-.31.041-.464a3.833,3.833,0,0,1,.107-.456,3.142,3.142,0,0,1,.4-.851,3.046,3.046,0,0,1,.63-.7,3.537,3.537,0,0,1,.384-.27,2.4,2.4,0,0,1,.424-.194,3.688,3.688,0,0,0-.739.542,3.777,3.777,0,0,0-.586.693,2.014,2.014,0,0,0-.12.193,1.957,1.957,0,0,0-.109.2l-.1.2-.084.212A5.824,5.824,0,0,0,1753.545,863.031Z" transform="translate(-1753.545 -860.101)" fill="#ff9a6c"/>
          </g>
        </g>
        <g id="Grupo_158835" data-name="Grupo 158835" transform="translate(8.66 68.061)">
          <g id="Grupo_158824" data-name="Grupo 158824" transform="translate(0 3.828)">
            <path id="Trazado_267393" data-name="Trazado 267393" d="M466.217,914.941l4.51-6.694s10.376.044,13.832,13.632l-.62.95C467.778,925.423,466.217,914.941,466.217,914.941Z" transform="translate(-466.217 -908.247)" fill="#1f4168"/>
          </g>
          <g id="Grupo_158825" data-name="Grupo 158825" transform="translate(4.971)">
            <path id="Trazado_267394" data-name="Trazado 267394" d="M503.044,885.408s2.382,14.085,14.118,11.813l.8,2.318a1.686,1.686,0,0,0,1.485,1.131,18.752,18.752,0,0,0,3.238-.048,2.381,2.381,0,0,0,1.841-1.3l.32-.631s1.781-.12,1.871-2.393a4.621,4.621,0,0,0,3.033.1,3.546,3.546,0,0,0,3.573,1.72,1.616,1.616,0,0,0,1.1-2.432,18.529,18.529,0,0,1-1.663-3.512,2.334,2.334,0,0,0-1.055-1.279l-1.934-1.094-.073-1.522a22.147,22.147,0,0,1,8.365,2.817s5.816,4.081,9.141,3.5a1.648,1.648,0,0,0,.512-3.048l-9.658-5.57-8.469-4.657a3.648,3.648,0,0,1-.694-.5h0a3.642,3.642,0,0,0-3.545-.778l-1.438.453a3.62,3.62,0,0,1-.5.12C521.363,880.965,507.354,883.328,503.044,885.408Z" transform="translate(-503.044 -879.884)" fill="#ffc89f"/>
          </g>
          <g id="Grupo_158826" data-name="Grupo 158826" transform="translate(28.047 8.25)">
            <path id="Trazado_267395" data-name="Trazado 267395" d="M674.611,949.177c-.077-.336-.146-.673-.22-1.01l-.173-1.02c-.093-.684-.165-1.371-.193-2.061a14.036,14.036,0,0,1,.06-2.071,6.511,6.511,0,0,1,.491-2.005,5.161,5.161,0,0,0-.26.995,10.241,10.241,0,0,0-.127,1.02,15.592,15.592,0,0,0-.029,2.056c0,.343.037.685.059,1.028s.073.683.1,1.025l.136,1.023C674.507,948.5,674.563,948.835,674.611,949.177Z" transform="translate(-674.011 -941.009)" fill="#ff9a6c"/>
          </g>
          <g id="Grupo_158827" data-name="Grupo 158827" transform="translate(31.127 5.157)">
            <path id="Trazado_267396" data-name="Trazado 267396" d="M697.409,922.86c-.035-.4-.06-.8-.1-1.2s-.077-.8-.124-1.193-.1-.793-.157-1.189c-.027-.2-.06-.4-.093-.593s-.066-.395-.1-.593a10.2,10.2,0,0,1,.3,1.168c.08.394.141.792.189,1.191s.082.8.094,1.2c.009.2.01.4.013.6S697.419,922.659,697.409,922.86Z" transform="translate(-696.835 -918.095)" fill="#ff9a6c"/>
          </g>
          <g id="Grupo_158828" data-name="Grupo 158828" transform="translate(31.679 9.922)">
            <path id="Trazado_267397" data-name="Trazado 267397" d="M700.948,953.4c.068.282.128.567.193.85s.114.57.171.855c.11.571.2,1.145.281,1.721a12.542,12.542,0,0,1,.114,1.745,2.7,2.7,0,0,1-.14.869.912.912,0,0,1-.248.366,1.033,1.033,0,0,1-.392.192,1.112,1.112,0,0,0,.368-.219.86.86,0,0,0,.21-.362,2.645,2.645,0,0,0,.1-.848,14.372,14.372,0,0,0-.144-1.726c-.038-.287-.075-.575-.117-.861l-.131-.86C701.123,954.544,701.029,953.972,700.948,953.4Z" transform="translate(-700.927 -953.396)" fill="#ff9a6c"/>
          </g>
          <g id="Grupo_158829" data-name="Grupo 158829" transform="translate(25.657 12.488)">
            <path id="Trazado_267398" data-name="Trazado 267398" d="M656.3,972.409c.111.248.214.5.321.749s.189.51.283.765.165.519.244.779l.1.395.052.2.044.2a10.131,10.131,0,0,1,.231,1.619,4.327,4.327,0,0,1-.163,1.619,3.5,3.5,0,0,0,.092-.8,7.115,7.115,0,0,0-.033-.808,11.446,11.446,0,0,0-.259-1.6l-.041-.2-.049-.2-.1-.393-.224-.78-.247-.774C656.478,972.924,656.388,972.668,656.3,972.409Z" transform="translate(-656.305 -972.409)" fill="#ff9a6c"/>
          </g>
          <g id="Grupo_158830" data-name="Grupo 158830" transform="translate(19.089 17.03)">
            <path id="Trazado_267399" data-name="Trazado 267399" d="M611.093,1006.055a2.181,2.181,0,0,1-.754.528,2.717,2.717,0,0,1-.91.191,3.659,3.659,0,0,1-.921-.1,3.583,3.583,0,0,1-.864-.314c.146.046.292.089.44.122a4.4,4.4,0,0,0,.444.091,4.917,4.917,0,0,0,.9.065,3.262,3.262,0,0,0,.878-.153l.21-.08c.07-.028.132-.07.2-.1l.1-.052c.032-.02.062-.043.093-.064Q611,1006.119,611.093,1006.055Z" transform="translate(-607.645 -1006.055)" fill="#ff9a6c"/>
          </g>
          <g id="Grupo_158831" data-name="Grupo 158831" transform="translate(21.607 17.565)">
            <path id="Trazado_267400" data-name="Trazado 267400" d="M627.853,1012.388a1.606,1.606,0,0,1-.687-.319,2.208,2.208,0,0,1-.486-.593,3.148,3.148,0,0,1-.379-1.457,6.4,6.4,0,0,0,.2.718,4.138,4.138,0,0,0,.3.673,2.683,2.683,0,0,0,.437.58A2.184,2.184,0,0,0,627.853,1012.388Z" transform="translate(-626.301 -1010.02)" fill="#ff9a6c"/>
          </g>
          <g id="Grupo_158832" data-name="Grupo 158832" transform="translate(27.138 1.676)">
            <path id="Trazado_267401" data-name="Trazado 267401" d="M670.557,893.735q-.071-.1-.137-.2a1.172,1.172,0,0,0-.144-.187l-.155-.176c-.053-.057-.118-.1-.175-.155a2.389,2.389,0,0,0-.807-.448,3.4,3.4,0,0,0-.917-.164,3.634,3.634,0,0,0-.472.006,3.755,3.755,0,0,0-.473.053,3.059,3.059,0,0,1,.946-.164,2.847,2.847,0,0,1,.959.14,2.157,2.157,0,0,1,.833.5c.056.059.118.112.169.175l.145.194a1.207,1.207,0,0,1,.121.208Q670.506,893.628,670.557,893.735Z" transform="translate(-667.277 -892.305)" fill="#ff9a6c"/>
          </g>
          <g id="Grupo_158833" data-name="Grupo 158833" transform="translate(25.314 4.887)">
            <path id="Trazado_267402" data-name="Trazado 267402" d="M657.031,917.717a2.836,2.836,0,0,0-.25-.415,2.085,2.085,0,0,0-.316-.358,2.621,2.621,0,0,0-.8-.5,4,4,0,0,0-.926-.239,4.539,4.539,0,0,0-.482-.044,4.829,4.829,0,0,0-.487,0,3.534,3.534,0,0,1,.98-.055,3.255,3.255,0,0,1,.965.217,2.335,2.335,0,0,1,.827.55A2.093,2.093,0,0,1,657.031,917.717Z" transform="translate(-653.765 -916.092)" fill="#ff9a6c"/>
          </g>
          <g id="Grupo_158834" data-name="Grupo 158834" transform="translate(22.577 9.561)">
            <path id="Trazado_267403" data-name="Trazado 267403" d="M636.32,952.842a5.815,5.815,0,0,0-.523-.757l-.148-.173-.161-.161a1.971,1.971,0,0,0-.168-.153,2.079,2.079,0,0,0-.176-.143,3.785,3.785,0,0,0-.781-.463,3.68,3.68,0,0,0-.876-.27,2.39,2.39,0,0,1,.464.045,3.508,3.508,0,0,1,.451.129,3.052,3.052,0,0,1,.823.452,3.143,3.143,0,0,1,.653.674,3.787,3.787,0,0,1,.25.4C636.2,952.556,636.261,952.7,636.32,952.842Z" transform="translate(-633.488 -950.721)" fill="#ff9a6c"/>
          </g>
        </g>
      </g>
    </g>
    <g id="ARROW" transform="translate(168.095 187.436)">
      <g id="Grupo_158879" data-name="Grupo 158879" transform="translate(0 0)">
        <g id="Grupo_158843" data-name="Grupo 158843" transform="translate(234.443 150.313)">
          <g id="Grupo_158837" data-name="Grupo 158837">
            <path id="Trazado_267404" data-name="Trazado 267404" d="M1916.491,1474.406v10.3h-6.544v-10.3h-4.886l8.158-14.128,8.158,14.128Z" transform="translate(-1905.061 -1460.279)" fill="#20cb7d"/>
          </g>
          <g id="Grupo_158842" data-name="Grupo 158842" transform="translate(4.886 24.427)">
            <g id="Grupo_158838" data-name="Grupo 158838">
              <rect id="Rectángulo_295886" data-name="Rectángulo 295886" width="6.544" height="2.248" fill="#20cb7d"/>
            </g>
            <g id="Grupo_158839" data-name="Grupo 158839" transform="translate(0 3.06)">
              <rect id="Rectángulo_295887" data-name="Rectángulo 295887" width="6.544" height="1.64" fill="#20cb7d"/>
            </g>
            <g id="Grupo_158840" data-name="Grupo 158840" transform="translate(0 6.119)">
              <rect id="Rectángulo_295888" data-name="Rectángulo 295888" width="6.544" height="1.032" fill="#20cb7d"/>
            </g>
            <g id="Grupo_158841" data-name="Grupo 158841" transform="translate(0 9.179)">
              <rect id="Rectángulo_295889" data-name="Rectángulo 295889" width="6.544" height="0.424" fill="#20cb7d"/>
            </g>
          </g>
        </g>
        <g id="Grupo_158850" data-name="Grupo 158850" transform="translate(47.875 159.972)">
          <g id="Grupo_158844" data-name="Grupo 158844">
            <path id="Trazado_267405" data-name="Trazado 267405" d="M534.229,1545.97v10.3h-6.544v-10.3H522.8l8.158-14.128,8.158,14.128Z" transform="translate(-522.799 -1531.842)" fill="#20cb7d"/>
          </g>
          <g id="Grupo_158849" data-name="Grupo 158849" transform="translate(4.886 24.427)">
            <g id="Grupo_158845" data-name="Grupo 158845">
              <rect id="Rectángulo_295890" data-name="Rectángulo 295890" width="6.544" height="2.248" fill="#20cb7d"/>
            </g>
            <g id="Grupo_158846" data-name="Grupo 158846" transform="translate(0 3.06)">
              <rect id="Rectángulo_295891" data-name="Rectángulo 295891" width="6.544" height="1.64" fill="#20cb7d"/>
            </g>
            <g id="Grupo_158847" data-name="Grupo 158847" transform="translate(0 6.119)">
              <rect id="Rectángulo_295892" data-name="Rectángulo 295892" width="6.544" height="1.032" fill="#20cb7d"/>
            </g>
            <g id="Grupo_158848" data-name="Grupo 158848" transform="translate(0 9.179)">
              <rect id="Rectángulo_295893" data-name="Rectángulo 295893" width="6.544" height="0.424" fill="#20cb7d"/>
            </g>
          </g>
        </g>
        <g id="Grupo_158857" data-name="Grupo 158857" transform="translate(234.443)">
          <g id="Grupo_158851" data-name="Grupo 158851">
            <path id="Trazado_267406" data-name="Trazado 267406" d="M1916.491,360.751v10.3h-6.544v-10.3h-4.886l8.158-14.128,8.158,14.128Z" transform="translate(-1905.061 -346.623)" fill="#20cb7d"/>
          </g>
          <g id="Grupo_158856" data-name="Grupo 158856" transform="translate(4.886 24.427)">
            <g id="Grupo_158852" data-name="Grupo 158852">
              <rect id="Rectángulo_295894" data-name="Rectángulo 295894" width="6.544" height="2.248" fill="#20cb7d"/>
            </g>
            <g id="Grupo_158853" data-name="Grupo 158853" transform="translate(0 3.06)">
              <rect id="Rectángulo_295895" data-name="Rectángulo 295895" width="6.544" height="1.64" fill="#20cb7d"/>
            </g>
            <g id="Grupo_158854" data-name="Grupo 158854" transform="translate(0 6.119)">
              <rect id="Rectángulo_295896" data-name="Rectángulo 295896" width="6.544" height="1.032" fill="#20cb7d"/>
            </g>
            <g id="Grupo_158855" data-name="Grupo 158855" transform="translate(0 9.179)">
              <rect id="Rectángulo_295897" data-name="Rectángulo 295897" width="6.544" height="0.424" fill="#20cb7d"/>
            </g>
          </g>
        </g>
        <g id="Grupo_158864" data-name="Grupo 158864" transform="translate(47.875 9.659)">
          <g id="Grupo_158858" data-name="Grupo 158858">
            <path id="Trazado_267407" data-name="Trazado 267407" d="M534.229,432.314v10.3h-6.544v-10.3H522.8l8.158-14.128,8.158,14.128Z" transform="translate(-522.799 -418.187)" fill="#20cb7d"/>
          </g>
          <g id="Grupo_158863" data-name="Grupo 158863" transform="translate(4.886 24.427)">
            <g id="Grupo_158859" data-name="Grupo 158859">
              <rect id="Rectángulo_295898" data-name="Rectángulo 295898" width="6.544" height="2.248" fill="#20cb7d"/>
            </g>
            <g id="Grupo_158860" data-name="Grupo 158860" transform="translate(0 3.06)">
              <rect id="Rectángulo_295899" data-name="Rectángulo 295899" width="6.544" height="1.64" fill="#20cb7d"/>
            </g>
            <g id="Grupo_158861" data-name="Grupo 158861" transform="translate(0 6.119)">
              <rect id="Rectángulo_295900" data-name="Rectángulo 295900" width="6.544" height="1.032" fill="#20cb7d"/>
            </g>
            <g id="Grupo_158862" data-name="Grupo 158862" transform="translate(0 9.179)">
              <rect id="Rectángulo_295901" data-name="Rectángulo 295901" width="6.544" height="0.424" fill="#20cb7d"/>
            </g>
          </g>
        </g>
        <g id="Grupo_158871" data-name="Grupo 158871" transform="translate(0 82.134)">
          <g id="Grupo_158865" data-name="Grupo 158865" transform="translate(0 0)">
            <path id="Trazado_267408" data-name="Trazado 267408" d="M176.1,965.045v7.215h-4.585v-7.215H168.1l5.715-9.9,5.715,9.9Z" transform="translate(-168.095 -955.148)" fill="#20cb7d"/>
          </g>
          <g id="Grupo_158870" data-name="Grupo 158870" transform="translate(3.423 17.112)">
            <g id="Grupo_158866" data-name="Grupo 158866">
              <rect id="Rectángulo_295902" data-name="Rectángulo 295902" width="4.585" height="1.575" fill="#20cb7d"/>
            </g>
            <g id="Grupo_158867" data-name="Grupo 158867" transform="translate(0 2.144)">
              <rect id="Rectángulo_295903" data-name="Rectángulo 295903" width="4.585" height="1.149" fill="#20cb7d"/>
            </g>
            <g id="Grupo_158868" data-name="Grupo 158868" transform="translate(0 4.287)">
              <rect id="Rectángulo_295904" data-name="Rectángulo 295904" width="4.585" height="0.723" fill="#20cb7d"/>
            </g>
            <g id="Grupo_158869" data-name="Grupo 158869" transform="translate(0 6.431)">
              <rect id="Rectángulo_295905" data-name="Rectángulo 295905" width="4.585" height="0.297" fill="#20cb7d"/>
            </g>
          </g>
        </g>
        <g id="Grupo_158878" data-name="Grupo 158878" transform="translate(283.57 82.134)">
          <g id="Grupo_158872" data-name="Grupo 158872" transform="translate(0 0)">
            <path id="Trazado_267409" data-name="Trazado 267409" d="M2277.046,965.045v7.215h-4.585v-7.215h-3.423l5.715-9.9,5.715,9.9Z" transform="translate(-2269.039 -955.148)" fill="#20cb7d"/>
          </g>
          <g id="Grupo_158877" data-name="Grupo 158877" transform="translate(3.423 17.112)">
            <g id="Grupo_158873" data-name="Grupo 158873">
              <rect id="Rectángulo_295906" data-name="Rectángulo 295906" width="4.585" height="1.575" fill="#20cb7d"/>
            </g>
            <g id="Grupo_158874" data-name="Grupo 158874" transform="translate(0 2.144)">
              <rect id="Rectángulo_295907" data-name="Rectángulo 295907" width="4.585" height="1.149" fill="#20cb7d"/>
            </g>
            <g id="Grupo_158875" data-name="Grupo 158875" transform="translate(0 4.287)">
              <rect id="Rectángulo_295908" data-name="Rectángulo 295908" width="4.585" height="0.723" fill="#20cb7d"/>
            </g>
            <g id="Grupo_158876" data-name="Grupo 158876" transform="translate(0 6.431)">
              <rect id="Rectángulo_295909" data-name="Rectángulo 295909" width="4.585" height="0.297" fill="#20cb7d"/>
            </g>
          </g>
        </g>
      </g>
    </g>
    <g id="SPRAKLE" transform="translate(190.319 162.598)">
      <g id="Grupo_158892" data-name="Grupo 158892" transform="translate(0 0)">
        <g id="Grupo_158880" data-name="Grupo 158880" transform="translate(90.47)">
          <path id="Trazado_267410" data-name="Trazado 267410" d="M1007.84,164.95l1.092.6-1.092.6a3.17,3.17,0,0,0-1.26,1.26l-.6,1.092-.6-1.092a3.17,3.17,0,0,0-1.26-1.26l-1.092-.6,1.092-.6a3.17,3.17,0,0,0,1.26-1.26l.6-1.092.6,1.092A3.171,3.171,0,0,0,1007.84,164.95Z" transform="translate(-1003.033 -162.598)" fill="#1f4168"/>
        </g>
        <g id="Grupo_158881" data-name="Grupo 158881" transform="translate(65.019 33.034)">
          <path id="Trazado_267411" data-name="Trazado 267411" d="M815.977,410.6l-1.509.825,1.509.825a4.379,4.379,0,0,1,1.741,1.741l.825,1.509.825-1.509a4.38,4.38,0,0,1,1.741-1.741l1.509-.825-1.509-.825a4.38,4.38,0,0,1-1.741-1.741l-.825-1.509-.825,1.509A4.379,4.379,0,0,1,815.977,410.6Z" transform="translate(-814.468 -407.346)" fill="#1f4168"/>
        </g>
        <g id="Grupo_158882" data-name="Grupo 158882" transform="translate(0 85.399)">
          <path id="Trazado_267412" data-name="Trazado 267412" d="M334.258,798.557l-1.509.825,1.509.825A4.38,4.38,0,0,1,336,801.948l.825,1.509.825-1.509a4.38,4.38,0,0,1,1.741-1.741l1.509-.825-1.509-.825a4.378,4.378,0,0,1-1.741-1.741l-.825-1.509L336,796.817A4.378,4.378,0,0,1,334.258,798.557Z" transform="translate(-332.749 -795.308)" fill="#1f4168"/>
        </g>
        <g id="Grupo_158883" data-name="Grupo 158883" transform="translate(53.079 77.428)">
          <path id="Trazado_267413" data-name="Trazado 267413" d="M726.852,738.078l-.846.463.846.463a2.455,2.455,0,0,1,.976.976l.463.846.463-.846a2.456,2.456,0,0,1,.976-.976l.846-.463-.846-.463a2.456,2.456,0,0,1-.976-.976l-.463-.846-.463.846A2.454,2.454,0,0,1,726.852,738.078Z" transform="translate(-726.006 -736.256)" fill="#1f4168"/>
        </g>
        <g id="Grupo_158884" data-name="Grupo 158884" transform="translate(47.775 10.866)">
          <path id="Trazado_267414" data-name="Trazado 267414" d="M687.557,244.925l-.846.463.846.463a2.455,2.455,0,0,1,.976.976l.463.846.463-.846a2.454,2.454,0,0,1,.976-.976l.846-.463-.846-.463a2.454,2.454,0,0,1-.976-.976L689,243.1l-.463.846A2.454,2.454,0,0,1,687.557,244.925Z" transform="translate(-686.711 -243.103)" fill="#1f4168"/>
        </g>
        <g id="Grupo_158885" data-name="Grupo 158885" transform="translate(2.664 40.792)">
          <path id="Trazado_267415" data-name="Trazado 267415" d="M353.331,466.647l-.846.463.846.463a2.455,2.455,0,0,1,.976.976l.463.846.463-.846a2.456,2.456,0,0,1,.976-.976l.846-.463-.846-.463a2.456,2.456,0,0,1-.976-.976l-.463-.846-.463.846A2.455,2.455,0,0,1,353.331,466.647Z" transform="translate(-352.485 -464.825)" fill="#1f4168"/>
        </g>
        <g id="Grupo_158886" data-name="Grupo 158886" transform="translate(135.161)">
          <path id="Trazado_267416" data-name="Trazado 267416" d="M1335.233,164.95l-1.092.6,1.092.6a3.172,3.172,0,0,1,1.26,1.26l.6,1.092.6-1.092a3.169,3.169,0,0,1,1.26-1.26l1.092-.6-1.092-.6a3.17,3.17,0,0,1-1.26-1.26l-.6-1.092-.6,1.092A3.172,3.172,0,0,1,1335.233,164.95Z" transform="translate(-1334.141 -162.598)" fill="#1f4168"/>
        </g>
        <g id="Grupo_158887" data-name="Grupo 158887" transform="translate(166.362 33.034)">
          <path id="Trazado_267417" data-name="Trazado 267417" d="M1571.951,410.6l1.509.825-1.509.825a4.378,4.378,0,0,0-1.741,1.741l-.825,1.509-.825-1.509a4.38,4.38,0,0,0-1.741-1.741l-1.509-.825,1.509-.825a4.38,4.38,0,0,0,1.741-1.741l.825-1.509.825,1.509A4.378,4.378,0,0,0,1571.951,410.6Z" transform="translate(-1565.31 -407.346)" fill="#1f4168"/>
        </g>
        <g id="Grupo_158888" data-name="Grupo 158888" transform="translate(233.049 85.399)">
          <path id="Trazado_267418" data-name="Trazado 267418" d="M2066.029,798.557l1.509.825-1.509.825a4.382,4.382,0,0,0-1.741,1.741l-.825,1.509-.825-1.509a4.381,4.381,0,0,0-1.741-1.741l-1.509-.825,1.509-.825a4.379,4.379,0,0,0,1.741-1.741l.825-1.509.825,1.509A4.38,4.38,0,0,0,2066.029,798.557Z" transform="translate(-2059.388 -795.308)" fill="#1f4168"/>
        </g>
        <g id="Grupo_158889" data-name="Grupo 158889" transform="translate(191.467 66.17)">
          <path id="Trazado_267419" data-name="Trazado 267419" d="M1755.036,654.666l.846.463-.846.463a2.453,2.453,0,0,0-.976.976l-.463.846-.463-.846a2.455,2.455,0,0,0-.976-.976l-.846-.463.846-.463a2.457,2.457,0,0,0,.976-.976l.463-.846.463.846A2.455,2.455,0,0,0,1755.036,654.666Z" transform="translate(-1751.313 -652.844)" fill="#1f4168"/>
        </g>
        <g id="Grupo_158890" data-name="Grupo 158890" transform="translate(187.186 10.866)">
          <path id="Trazado_267420" data-name="Trazado 267420" d="M1723.317,244.925l.846.463-.846.463a2.454,2.454,0,0,0-.976.976l-.463.846-.463-.846a2.456,2.456,0,0,0-.976-.976l-.846-.463.846-.463a2.455,2.455,0,0,0,.976-.976l.463-.846.463.846A2.454,2.454,0,0,0,1723.317,244.925Z" transform="translate(-1719.594 -243.103)" fill="#1f4168"/>
        </g>
        <g id="Grupo_158891" data-name="Grupo 158891" transform="translate(234.839 46.189)">
          <path id="Trazado_267421" data-name="Trazado 267421" d="M2076.375,506.627l.846.463-.846.463a2.456,2.456,0,0,0-.976.976l-.462.846-.463-.846a2.456,2.456,0,0,0-.976-.976l-.846-.463.846-.463a2.456,2.456,0,0,0,.976-.976l.463-.846.462.846A2.456,2.456,0,0,0,2076.375,506.627Z" transform="translate(-2072.652 -504.805)" fill="#1f4168"/>
        </g>
      </g>
    </g>
    <g id="FRONT" transform="translate(199.054 216.642)">
      <g id="Grupo_158943" data-name="Grupo 158943" transform="translate(63.675)">
        <g id="Grupo_158917" data-name="Grupo 158917" transform="translate(73.911)">
          <g id="Grupo_158911" data-name="Grupo 158911">
            <g id="Grupo_158910" data-name="Grupo 158910">
              <g id="Grupo_158896" data-name="Grupo 158896" transform="translate(0 0.061)">
                <g id="Grupo_158895" data-name="Grupo 158895">
                  <g id="Grupo_158894" data-name="Grupo 158894">
                    <g id="Grupo_158893" data-name="Grupo 158893">
                      <path id="Trazado_267422" data-name="Trazado 267422" d="M1434.349,565.41a10.354,10.354,0,0,0-14.869,13.825l-2.66,3.861,5.432-.884a10.352,10.352,0,1,0,12.1-16.8Z" transform="translate(-1416.82 -563.458)" fill="#fff"/>
                    </g>
                  </g>
                </g>
              </g>
              <g id="Grupo_158909" data-name="Grupo 158909">
                <g id="Grupo_158900" data-name="Grupo 158900" transform="translate(0 15.838)">
                  <g id="Grupo_158899" data-name="Grupo 158899">
                    <g id="Grupo_158898" data-name="Grupo 158898">
                      <g id="Grupo_158897" data-name="Grupo 158897">
                        <path id="Trazado_267423" data-name="Trazado 267423" d="M1416.82,684.21q.31-.5.635-.986c.216-.326.436-.649.656-.971s.446-.642.674-.959.458-.633.7-.945q-.31.5-.635.986c-.215.326-.436.649-.656.971s-.446.642-.674.959S1417.056,683.9,1416.82,684.21Z" transform="translate(-1416.82 -680.349)" fill="#1b1a2e"/>
                      </g>
                    </g>
                  </g>
                </g>
                <g id="Grupo_158904" data-name="Grupo 158904" transform="translate(0 18.815)">
                  <g id="Grupo_158903" data-name="Grupo 158903">
                    <g id="Grupo_158902" data-name="Grupo 158902">
                      <g id="Grupo_158901" data-name="Grupo 158901">
                        <path id="Trazado_267424" data-name="Trazado 267424" d="M1422.251,702.4q-.674.138-1.352.257c-.452.081-.9.157-1.356.231s-.906.144-1.359.211-.908.129-1.364.185q.675-.138,1.352-.257c.451-.081.9-.157,1.356-.231s.906-.145,1.359-.211S1421.8,702.46,1422.251,702.4Z" transform="translate(-1416.82 -702.404)" fill="#1b1a2e"/>
                      </g>
                    </g>
                  </g>
                </g>
                <g id="Grupo_158908" data-name="Grupo 158908" transform="translate(1.103)">
                  <g id="Grupo_158907" data-name="Grupo 158907">
                    <g id="Grupo_158906" data-name="Grupo 158906">
                      <g id="Grupo_158905" data-name="Grupo 158905">
                        <path id="Trazado_267425" data-name="Trazado 267425" d="M1426.548,578.842a10.364,10.364,0,0,1-1.374-3.534,10.387,10.387,0,0,1,11.087-12.269,10.278,10.278,0,0,1,3.674,1.014,10.629,10.629,0,0,1,1.636.993,10.165,10.165,0,0,1,1.43,1.273,10.384,10.384,0,0,1-13.682,15.5,10.357,10.357,0,0,0,10.808.742,10.253,10.253,0,0,0,4.073-3.862,10.408,10.408,0,0,0,.817-1.7,10.2,10.2,0,0,0,.637-3.711,10.311,10.311,0,0,0-2.757-6.867,10.071,10.071,0,0,0-1.409-1.258,10.5,10.5,0,0,0-1.613-.983,10.148,10.148,0,0,0-3.626-1.007,10.33,10.33,0,0,0-11.042,12.135,10.354,10.354,0,0,0,1.34,3.54Z" transform="translate(-1424.991 -563.003)" fill="#1b1a2e"/>
                      </g>
                    </g>
                  </g>
                </g>
              </g>
            </g>
          </g>
          <g id="Grupo_158916" data-name="Grupo 158916" transform="translate(7.843 7.882)">
            <g id="Grupo_158915" data-name="Grupo 158915">
              <g id="Grupo_158914" data-name="Grupo 158914">
                <g id="Grupo_158913" data-name="Grupo 158913">
                  <g id="Grupo_158912" data-name="Grupo 158912">
                    <path id="Trazado_267426" data-name="Trazado 267426" d="M1477.4,626.826l-2.472-2.472.755-.756,1.716,1.716,3.912-3.912.755.756Z" transform="translate(-1474.931 -621.403)" fill="#1f4068"/>
                  </g>
                </g>
              </g>
            </g>
          </g>
        </g>
        <g id="Grupo_158942" data-name="Grupo 158942" transform="translate(0 13.543)">
          <g id="Grupo_158936" data-name="Grupo 158936">
            <g id="Grupo_158935" data-name="Grupo 158935">
              <g id="Grupo_158921" data-name="Grupo 158921" transform="translate(0.048 0.043)">
                <g id="Grupo_158920" data-name="Grupo 158920">
                  <g id="Grupo_158919" data-name="Grupo 158919">
                    <g id="Grupo_158918" data-name="Grupo 158918">
                      <path id="Trazado_267427" data-name="Trazado 267427" d="M870.875,667.152a7.785,7.785,0,0,1,14.136,5.764l2.9,2.007-4.055.824a7.784,7.784,0,1,1-12.979-8.6Z" transform="translate(-869.58 -663.665)" fill="#fff"/>
                    </g>
                  </g>
                </g>
              </g>
              <g id="Grupo_158934" data-name="Grupo 158934">
                <g id="Grupo_158925" data-name="Grupo 158925" transform="translate(15.479 9.294)">
                  <g id="Grupo_158924" data-name="Grupo 158924">
                    <g id="Grupo_158923" data-name="Grupo 158923">
                      <g id="Grupo_158922" data-name="Grupo 158922">
                        <path id="Trazado_267428" data-name="Trazado 267428" d="M986.8,734.213q-.35-.268-.709-.525c-.238-.172-.479-.34-.72-.508s-.484-.333-.729-.5-.491-.323-.74-.479q.35.268.709.524c.238.172.479.34.72.508s.484.333.729.5S986.554,734.057,986.8,734.213Z" transform="translate(-983.905 -732.206)" fill="#1b1a2e"/>
                      </g>
                    </g>
                  </g>
                </g>
                <g id="Grupo_158929" data-name="Grupo 158929" transform="translate(14.322 11.301)">
                  <g id="Grupo_158928" data-name="Grupo 158928">
                    <g id="Grupo_158927" data-name="Grupo 158927">
                      <g id="Grupo_158926" data-name="Grupo 158926">
                        <path id="Trazado_267429" data-name="Trazado 267429" d="M975.335,747.9q.511-.083,1.019-.179c.339-.063.677-.13,1.015-.2s.675-.139,1.012-.214.673-.151,1.008-.233q-.511.083-1.019.179c-.339.063-.677.13-1.015.2s-.675.139-1.012.214S975.67,747.819,975.335,747.9Z" transform="translate(-975.335 -747.077)" fill="#1b1a2e"/>
                      </g>
                    </g>
                  </g>
                </g>
                <g id="Grupo_158933" data-name="Grupo 158933">
                  <g id="Grupo_158932" data-name="Grupo 158932">
                    <g id="Grupo_158931" data-name="Grupo 158931">
                      <g id="Grupo_158930" data-name="Grupo 158930">
                        <path id="Trazado_267430" data-name="Trazado 267430" d="M884.7,672.64a7.8,7.8,0,0,0,.026-2.851,7.81,7.81,0,0,0-11.062-5.677,7.729,7.729,0,0,0-2.314,1.691,7.994,7.994,0,0,0-.886,1.134,7.637,7.637,0,0,0-.667,1.276,7.808,7.808,0,0,0,13.746,7.257,7.788,7.788,0,0,1-7.4,3.4,7.708,7.708,0,0,1-3.892-1.631,7.827,7.827,0,0,1-1.028-.982,7.667,7.667,0,0,1-1.436-2.44,7.753,7.753,0,0,1,.111-5.563,7.57,7.57,0,0,1,.656-1.26,7.883,7.883,0,0,1,.873-1.121,7.63,7.63,0,0,1,2.282-1.673,7.767,7.767,0,0,1,10.995,5.594,7.786,7.786,0,0,1,0,2.846Z" transform="translate(-869.222 -663.346)" fill="#1b1a2e"/>
                      </g>
                    </g>
                  </g>
                </g>
              </g>
            </g>
          </g>
          <g id="Grupo_158941" data-name="Grupo 158941" transform="translate(5.193 5.906)">
            <g id="Grupo_158940" data-name="Grupo 158940">
              <g id="Grupo_158939" data-name="Grupo 158939">
                <g id="Grupo_158938" data-name="Grupo 158938">
                  <g id="Grupo_158937" data-name="Grupo 158937">
                    <path id="Trazado_267431" data-name="Trazado 267431" d="M909.555,711.184l-1.859-1.858.568-.568,1.29,1.29,2.942-2.942.568.568Z" transform="translate(-907.696 -707.106)" fill="#1f4068"/>
                  </g>
                </g>
              </g>
            </g>
          </g>
        </g>
      </g>
      <g id="Grupo_158944" data-name="Grupo 158944" transform="translate(0 177.227)">
        <rect id="Rectángulo_295910" data-name="Rectángulo 295910" width="230.138" height="0.405" fill="#1b1a2e"/>
      </g>
    </g>
  </g>
</svg>
