<svg xmlns="http://www.w3.org/2000/svg" width="1229" height="189" viewBox="0 0 1229 189">
  <g id="Grupo_172656" data-name="Grupo 172656" transform="translate(-186 -1848)">
    <g id="Rectángulo_298424" data-name="Rectángulo 298424" transform="translate(186 1935)" fill="#fda929" stroke="#c9c9c9" stroke-width="3">
      <path d="M20,0H219a20,20,0,0,1,20,20V56a0,0,0,0,1,0,0H0a0,0,0,0,1,0,0V20A20,20,0,0,1,20,0Z" stroke="none"/>
      <path d="M20,1.5H219A18.5,18.5,0,0,1,237.5,20V54.5a0,0,0,0,1,0,0H1.5a0,0,0,0,1,0,0V20A18.5,18.5,0,0,1,20,1.5Z" fill="none"/>
    </g>
    <g id="Rectángulo_298426" data-name="Rectángulo 298426" transform="translate(433 1935)" fill="#7453d8" stroke="#c9c9c9" stroke-width="3">
      <path d="M20,0H219a20,20,0,0,1,20,20V56a0,0,0,0,1,0,0H0a0,0,0,0,1,0,0V20A20,20,0,0,1,20,0Z" stroke="none"/>
      <path d="M20,1.5H219A18.5,18.5,0,0,1,237.5,20V54.5a0,0,0,0,1,0,0H1.5a0,0,0,0,1,0,0V20A18.5,18.5,0,0,1,20,1.5Z" fill="none"/>
    </g>
    <g id="Rectángulo_298428" data-name="Rectángulo 298428" transform="translate(680 1935)" fill="#20cb7d" stroke="#c9c9c9" stroke-width="3">
      <path d="M20,0H219a20,20,0,0,1,20,20V56a0,0,0,0,1,0,0H0a0,0,0,0,1,0,0V20A20,20,0,0,1,20,0Z" stroke="none"/>
      <path d="M20,1.5H219A18.5,18.5,0,0,1,237.5,20V54.5a0,0,0,0,1,0,0H1.5a0,0,0,0,1,0,0V20A18.5,18.5,0,0,1,20,1.5Z" fill="none"/>
    </g>
    <g id="Rectángulo_298430" data-name="Rectángulo 298430" transform="translate(928 1935)" fill="#fda929" stroke="#c9c9c9" stroke-width="3">
      <path d="M20,0H219a20,20,0,0,1,20,20V56a0,0,0,0,1,0,0H0a0,0,0,0,1,0,0V20A20,20,0,0,1,20,0Z" stroke="none"/>
      <path d="M20,1.5H219A18.5,18.5,0,0,1,237.5,20V54.5a0,0,0,0,1,0,0H1.5a0,0,0,0,1,0,0V20A18.5,18.5,0,0,1,20,1.5Z" fill="none"/>
    </g>
    <g id="Rectángulo_298432" data-name="Rectángulo 298432" transform="translate(1176 1935)" fill="#7453d8" stroke="#c9c9c9" stroke-width="3">
      <path d="M20,0H219a20,20,0,0,1,20,20V56a0,0,0,0,1,0,0H0a0,0,0,0,1,0,0V20A20,20,0,0,1,20,0Z" stroke="none"/>
      <path d="M20,1.5H219A18.5,18.5,0,0,1,237.5,20V54.5a0,0,0,0,1,0,0H1.5a0,0,0,0,1,0,0V20A18.5,18.5,0,0,1,20,1.5Z" fill="none"/>
    </g>
    <text id="Imperfecciones" transform="translate(301 1970)" fill="#12263f" font-size="20" font-family="Roboto-Black, Roboto" font-weight="800"><tspan x="-70.62" y="0">Imperfecciones</tspan></text>
    <text id="Diseño_y_ensamble" data-name="Diseño y ensamble" transform="translate(553 1970)" fill="#fff" font-size="20" font-family="Roboto-Black, Roboto" font-weight="800"><tspan x="-85.146" y="0">Diseño y ensamble</tspan></text>
    <text id="Recomendaciones" transform="translate(800 1970)" fill="#fff" font-size="20" font-family="Roboto-Black, Roboto" font-weight="800"><tspan x="-83.174" y="0">Recomendaciones</tspan></text>
    <text id="Inspeccionar" transform="translate(1048 1970)" fill="#12263f" font-size="20" font-family="Roboto-Black, Roboto" font-weight="800"><tspan x="-58.345" y="0">Inspeccionar</tspan></text>
    <text id="Almacenamiento" transform="translate(1296 1970)" fill="#fff" font-size="20" font-family="Roboto-Black, Roboto" font-weight="800"><tspan x="-76.416" y="0">Almacenamiento</tspan></text>
    <g id="Grupo_162793" data-name="Grupo 162793" transform="translate(5 -182)">
      <circle id="Elipse_6485" data-name="Elipse 6485" cx="27.5" cy="27.5" r="27.5" transform="translate(265 2164)" fill="#fda929"/>
      <text id="_1" data-name="1" transform="translate(293 2203)" fill="#12263f" font-size="32" font-family="Roboto-Black, Roboto" font-weight="800"><tspan x="-9.266" y="0">1</tspan></text>
    </g>
    <g id="Grupo_162794" data-name="Grupo 162794" transform="translate(260 -182)">
      <circle id="Elipse_6485-2" data-name="Elipse 6485" cx="27.5" cy="27.5" r="27.5" transform="translate(265 2164)" fill="#7453d8"/>
      <text id="_2" data-name="2" transform="translate(293 2203)" fill="#fff" font-size="32" font-family="Roboto-Black, Roboto" font-weight="800"><tspan x="-9.266" y="0">2</tspan></text>
    </g>
    <g id="Grupo_162795" data-name="Grupo 162795" transform="translate(507 -182)">
      <circle id="Elipse_6485-3" data-name="Elipse 6485" cx="27.5" cy="27.5" r="27.5" transform="translate(265 2164)" fill="#20cb7d"/>
      <text id="_3" data-name="3" transform="translate(293 2203)" fill="#12263f" font-size="32" font-family="Roboto-Black, Roboto" font-weight="800"><tspan x="-9.266" y="0">3</tspan></text>
    </g>
    <g id="Grupo_162796" data-name="Grupo 162796" transform="translate(755 -182)">
      <circle id="Elipse_6485-4" data-name="Elipse 6485" cx="27.5" cy="27.5" r="27.5" transform="translate(265 2164)" fill="#fda929"/>
      <text id="_4" data-name="4" transform="translate(293 2203)" fill="#12263f" font-size="32" font-family="Roboto-Black, Roboto" font-weight="800"><tspan x="-9.266" y="0">4</tspan></text>
    </g>
    <g id="Grupo_162797" data-name="Grupo 162797" transform="translate(1003 -182)">
      <circle id="Elipse_6485-5" data-name="Elipse 6485" cx="27.5" cy="27.5" r="27.5" transform="translate(265 2164)" fill="#7453d8"/>
      <text id="_5" data-name="5" transform="translate(293 2203)" fill="#fff" font-size="32" font-family="Roboto-Black, Roboto" font-weight="800"><tspan x="-9.266" y="0">5</tspan></text>
    </g>
    <g id="Grupo_163427" data-name="Grupo 163427" transform="translate(-12738 -280)">
      <circle id="Elipse_6525" data-name="Elipse 6525" cx="50" cy="50" r="50" transform="translate(12994 2128)" fill="#fda929"/>
      <g id="Grupo_163418" data-name="Grupo 163418" transform="translate(13006 2140)">
        <path id="Trazado_271520" data-name="Trazado 271520" d="M901.14,4327.435a1.163,1.163,0,0,0-1.257,1.065,4.577,4.577,0,0,1-7.752,2.9,1.165,1.165,0,1,0-1.626,1.669,6.919,6.919,0,0,0,4.252,1.934c.192.017.382.024.571.024a6.9,6.9,0,0,0,5.046-2.206,3.241,3.241,0,0,1,2.07,2.291,1.166,1.166,0,0,0,1.136.912,1.135,1.135,0,0,0,.254-.028,1.165,1.165,0,0,0,.885-1.39,5.468,5.468,0,0,0-3.056-3.763,6.86,6.86,0,0,0,.544-2.157A1.165,1.165,0,0,0,901.14,4327.435Z" transform="translate(-865.704 -4280.236)" fill="#12263f"/>
        <path id="Trazado_271521" data-name="Trazado 271521" d="M880.007,4273.221a4.581,4.581,0,0,1-2.982.828,1.165,1.165,0,0,0-.174,2.324q.256.019.511.019a6.9,6.9,0,0,0,6.217-3.9,6.9,6.9,0,0,0,2.965.954c.19.017.38.024.569.024.03,0,.06,0,.09,0a4.517,4.517,0,0,1,.68,5.134,1.165,1.165,0,0,0,1.994,1.207,6.6,6.6,0,0,0,.809-2.575,6.739,6.739,0,0,0-.982-4.27,6.9,6.9,0,0,0,2.3-1.525,1.165,1.165,0,0,0-1.651-1.646,4.574,4.574,0,0,1-6.118.331A6.85,6.85,0,0,0,883,4265.5a1.165,1.165,0,0,0-1.9,1.346,4.576,4.576,0,0,1-1.092,6.378Z" transform="translate(-856.624 -4240.815)" fill="#12263f"/>
        <path id="Trazado_271522" data-name="Trazado 271522" d="M975.224,4326.59a1.165,1.165,0,0,0-1.278,1.04,7.929,7.929,0,0,1-14.434,3.665,1.165,1.165,0,0,0-1.924,1.314,10.278,10.278,0,0,0,11.441,4.032,9.471,9.471,0,0,1-7.793,5.1,1.165,1.165,0,0,0,.094,2.327.914.914,0,0,0,.1,0,13.23,13.23,0,0,0,1.873-.291c.023.02.042.043.068.062a12.717,12.717,0,0,1,4.612,9.723,1.165,1.165,0,0,0,1.143,1.188h.023a1.165,1.165,0,0,0,1.165-1.143,14.775,14.775,0,0,0-4.5-10.7,11.721,11.721,0,0,0,4.482-3.866,13.846,13.846,0,0,0,1.92-4,10.242,10.242,0,0,0,4.053-7.16A1.166,1.166,0,0,0,975.224,4326.59Z" transform="translate(-908.16 -4279.701)" fill="#12263f"/>
        <path id="Trazado_271523" data-name="Trazado 271523" d="M870.375,4293.46a7.478,7.478,0,0,1-4.523-2.822h.02a23.4,23.4,0,0,0,5.818-.734,1.165,1.165,0,1,0-.579-2.257,20.3,20.3,0,0,1-11.778-.437,1.163,1.163,0,0,0-1.393.391,1.022,1.022,0,0,0-.1.079,9.518,9.518,0,0,1-6.638,2.6c-4.889,0-8.865-3.45-8.865-7.689a7.108,7.108,0,0,1,2.309-5.17,6.926,6.926,0,0,0,5.628-4.817,20,20,0,0,0,5.084,1.184,17.668,17.668,0,0,0,8.276-1.147,5.47,5.47,0,0,1,1.32,4.758,1.165,1.165,0,0,0,2.278.488,7.681,7.681,0,0,0-1.442-6.283,19.127,19.127,0,0,0,3.2-2.284,1.166,1.166,0,0,0-1.537-1.752,15.173,15.173,0,0,1-11.78,3.908,16.792,16.792,0,0,1-5.725-1.551,1.166,1.166,0,0,0-1.712.954,4.576,4.576,0,1,1-9.134-.582,1.165,1.165,0,1,0-2.326-.148,6.858,6.858,0,0,0,.772,3.619,4.47,4.47,0,0,1-4.541-.977,1.165,1.165,0,0,0-1.707,1.586,6.6,6.6,0,0,0,2.255,1.484,6.675,6.675,0,0,0,2.5.487,7.371,7.371,0,0,0,2.973-.655,6.87,6.87,0,0,0,2.722,1.525,9.2,9.2,0,0,0-1.741,5.372,9.023,9.023,0,0,0,.116,1.436c-6.04.57-10.376-1.3-12.549-5.433a13.826,13.826,0,0,1-.417-11.293c.053.057.1.117.157.172a1.166,1.166,0,0,0,1.641-1.656,4.576,4.576,0,1,1,6.442-6.5,1.165,1.165,0,0,0,1.64-1.655,6.87,6.87,0,0,0-4.371-1.975,7.64,7.64,0,0,1,2.346-4.134,8.11,8.11,0,0,1,5.29-1.763c-.119.209-.18.34-.189.36a1.165,1.165,0,0,0,.574,1.544,1.149,1.149,0,0,0,.485.106,1.165,1.165,0,0,0,1.06-.68,8.832,8.832,0,0,1,2.508-2.868,1.165,1.165,0,0,0-1.411-1.855,12.258,12.258,0,0,0-1.278,1.125c-3.592-.306-6.479.46-8.584,2.286a10.157,10.157,0,0,0-3.22,6.131,6.9,6.9,0,0,0-4.494,9.163,12.354,12.354,0,0,0-1.9,6.151,16.01,16.01,0,0,0,1.662,8.425,11.957,11.957,0,0,0,5.5,5.334,16.134,16.134,0,0,0,7.045,1.453,24.813,24.813,0,0,0,2.749-.161,11.268,11.268,0,0,0,10.4,6.306,11.919,11.919,0,0,0,7.966-2.98,20.819,20.819,0,0,0,4,.852c.506,1.373,2.053,4.04,6.615,5.235,5.482,1.436,9.442,4.588,10.088,8.032a1.165,1.165,0,0,0,1.144.951,1.209,1.209,0,0,0,.216-.02,1.165,1.165,0,0,0,.931-1.36C881.352,4298.993,876.725,4295.123,870.375,4293.46Z" transform="translate(-823.81 -4228.913)" fill="#12263f"/>
        <path id="Trazado_271524" data-name="Trazado 271524" d="M938.892,4220.271a5.485,5.485,0,0,0-6.658-3.98l-2.172.546a3.154,3.154,0,0,1-3.477-4.678l1.149-1.922a5.485,5.485,0,0,0-9.416-5.63l-1.149,1.923a3.154,3.154,0,0,1-5.767-.849l-.546-2.172a5.485,5.485,0,0,0-10.638,2.678l.547,2.172a3.154,3.154,0,0,1-4.678,3.477l-1.923-1.149a5.485,5.485,0,1,0-5.629,9.416l1.922,1.15a1.166,1.166,0,0,0,1.2-2l-1.923-1.15a3.154,3.154,0,0,1,3.237-5.415l1.923,1.149a5.485,5.485,0,0,0,8.134-6.046l-.547-2.173a3.154,3.154,0,0,1,6.118-1.539l.547,2.172a5.485,5.485,0,0,0,10.027,1.476l1.149-1.923a3.154,3.154,0,0,1,5.415,3.237l-1.149,1.923a5.485,5.485,0,0,0,6.047,8.133l2.172-.547a3.155,3.155,0,0,1,1.54,6.119l-2.172.546a5.485,5.485,0,0,0-1.475,10.027l1.923,1.149a3.154,3.154,0,1,1-3.237,5.415l-1.922-1.15c-2.052-1.227-4.238-1.021-6.682.632a1.165,1.165,0,1,0,1.305,1.93c2.13-1.44,3.353-1.056,4.18-.562l1.922,1.149a5.485,5.485,0,1,0,5.629-9.416l-1.923-1.149a3.154,3.154,0,0,1,.849-5.766l2.172-.547a5.485,5.485,0,0,0,3.98-6.658Z" transform="translate(-862.997 -4199.364)" fill="#12263f"/>
        <path id="Trazado_271525" data-name="Trazado 271525" d="M942.592,4258.576a9.79,9.79,0,0,0-18.481-4.508,7.88,7.88,0,0,0-4.416-.414,1.166,1.166,0,0,0,.486,2.28,4.9,4.9,0,0,1,5.711,3.272,1.168,1.168,0,0,0,1.172.783c.051,0,5.173-.265,8.291,2.779,1.735,1.694,2.56,4.144,2.451,7.282a1.165,1.165,0,0,0,1.124,1.206h.041a1.165,1.165,0,0,0,1.164-1.125,14.535,14.535,0,0,0-.5-4.542A9.791,9.791,0,0,0,942.592,4258.576Zm-5.622,2.512c-3.045-2.962-7.365-3.394-9.19-3.435a7.1,7.1,0,0,0-1.683-2.341,7.457,7.457,0,1,1,12.534,7.914A9.807,9.807,0,0,0,936.97,4261.088Z" transform="translate(-883.778 -4230.573)" fill="#12263f"/>
      </g>
    </g>
    <g id="Grupo_163424" data-name="Grupo 163424" transform="translate(-12738 -280)">
      <circle id="Elipse_6528" data-name="Elipse 6528" cx="50" cy="50" r="50" transform="translate(13982 2128)" fill="#7453d8"/>
      <g id="Grupo_163419" data-name="Grupo 163419" transform="translate(13994 2141)">
        <path id="Trazado_271526" data-name="Trazado 271526" d="M2141.565,4239.2a18.156,18.156,0,0,1-12.2-11.1,1.165,1.165,0,1,0-.881,2.157,7.658,7.658,0,0,1,4.7,5.989,5.78,5.78,0,0,0-3.01.157,1.165,1.165,0,0,0,.73,2.213,3.471,3.471,0,0,1,3.569.883,3.43,3.43,0,0,1,.653,3.832,1.165,1.165,0,1,0,2.119.971,5.742,5.742,0,0,0-.261-5.321,7.67,7.67,0,0,1,5.131,7.375,7.794,7.794,0,0,1-7.829,7.553h-3.6a1.165,1.165,0,1,0,0,2.33h3.6a10.135,10.135,0,0,0,10.16-9.844A9.946,9.946,0,0,0,2141.565,4239.2Z" transform="translate(-2067.599 -4191.325)" fill="#fff"/>
        <path id="Trazado_271527" data-name="Trazado 271527" d="M2090.9,4243.187a5.812,5.812,0,0,0-6.056,1.114,1.165,1.165,0,1,0,1.577,1.715,3.472,3.472,0,0,1,3.615-.666,3.433,3.433,0,0,1,2.173,3.225,1.166,1.166,0,0,0,1.159,1.171h.006a1.165,1.165,0,0,0,1.165-1.159A5.748,5.748,0,0,0,2090.9,4243.187Z" transform="translate(-2040.263 -4200.653)" fill="#fff"/>
        <path id="Trazado_271528" data-name="Trazado 271528" d="M2041.023,4143.088a1.165,1.165,0,0,0,1.165,1.151h.014a1.164,1.164,0,0,0,1.151-1.178l-.015-1.288a3.336,3.336,0,0,1,1.989-3.023l2.3-1.012a5.422,5.422,0,0,0,7.746-.053l2.417,1.064a3.336,3.336,0,0,1,1.989,3.023l-.015,1.288a1.164,1.164,0,0,0,1.151,1.179h.014a1.165,1.165,0,0,0,1.165-1.151l.015-1.3v-.02a5.672,5.672,0,0,0-3.38-5.154l-2.123-.935a5.437,5.437,0,1,0-10.239.064l-1.977.87a5.671,5.671,0,0,0-3.38,5.154v.02Zm10.45-12.291a3.106,3.106,0,1,1-2.54,4.888c-.017-.026-.033-.051-.052-.074a3.1,3.1,0,0,1,2.591-4.813Z" transform="translate(-2012.821 -4128.467)" fill="#fff"/>
        <path id="Trazado_271529" data-name="Trazado 271529" d="M2017.538,4194.9h-2.131a4.657,4.657,0,0,1-4.535-3.632h.575l10.777-.092a4,4,0,0,0,0-7.995l-5.834,0h0a1.165,1.165,0,0,0,0,2.331l5.835,0a1.666,1.666,0,1,1-.01,3.333l-9.438.082,1.515-11.013a1.166,1.166,0,0,0-1.154-1.324h-19.926a1.166,1.166,0,0,0-1.154,1.324l1.516,11.013-9.279-.081a1.666,1.666,0,1,1,0-3.333l5.834,0a1.165,1.165,0,0,0,0-2.331h0l-5.834,0a4,4,0,0,0-.01,7.995l2.048.018a8.143,8.143,0,0,0-1.819,3.753,10.009,10.009,0,0,0-11.079,8.846,10.017,10.017,0,0,0-8.909,10.126,10.134,10.134,0,0,0,10.159,9.844h9.988v3.117a5.025,5.025,0,0,0,5.019,5.019H2019.5a5.025,5.025,0,0,0,5.019-5.019v-25A6.99,6.99,0,0,0,2017.538,4194.9Zm-5.739-15.981-1.378,10.019h-14.5l-1.379-10.019Zm-25.965,38.81a1.18,1.18,0,1,1,1.18-1.18A1.181,1.181,0,0,1,1985.833,4217.731Zm8.973-7.442a1.18,1.18,0,1,1,1.18-1.181A1.182,1.182,0,0,1,1994.806,4210.289Zm16.3,2.787a1.18,1.18,0,1,1,1.18-1.18A1.181,1.181,0,0,1,2011.109,4213.076Zm11.08,8.358h-6.523a1.165,1.165,0,1,0,0,2.33h6.523v3.117a2.692,2.692,0,0,1-2.689,2.688h-7.226V4215.2a3.51,3.51,0,1,0-2.33,0v6.23h-4.352a1.489,1.489,0,0,1-1.487-1.487v-18.176a1.165,1.165,0,1,0-2.33,0v18.176a1.489,1.489,0,0,1-1.486,1.487h-1.045a1.165,1.165,0,1,0,0,2.33h1.045a3.8,3.8,0,0,1,5.3,0h4.352v5.805h-13.973v-17.154a3.51,3.51,0,1,0-2.331,0v9.019h-3.119a1.165,1.165,0,1,0,0,2.33h3.119v5.805h-3.953a2.692,2.692,0,0,1-2.689-2.688v-7.022a3.51,3.51,0,1,0-2.33,0v1.575h-9.988a7.794,7.794,0,0,1-7.829-7.553,7.68,7.68,0,0,1,7.639-7.813,5.559,5.559,0,0,1,4.312,3.205,5.743,5.743,0,0,0-1.425,5.479,1.166,1.166,0,0,0,1.126.869,1.18,1.18,0,0,0,.3-.039,1.165,1.165,0,0,0,.83-1.423,3.433,3.433,0,0,1,1.3-3.664,3.473,3.473,0,0,1,3.667-.256,1.166,1.166,0,0,0,1.1-2.056,5.82,5.82,0,0,0-4.936-.24,7.694,7.694,0,0,0-5-3.985,7.671,7.671,0,0,1,9.364-6.54,7.007,7.007,0,0,1,3.627,2.818,5.768,5.768,0,0,0-1.585,2.694,1.165,1.165,0,1,0,2.253.6,3.432,3.432,0,0,1,2.939-2.544,3.469,3.469,0,0,1,3.317,1.587,1.165,1.165,0,1,0,1.97-1.245,5.783,5.783,0,0,0-6.92-2.328,9.213,9.213,0,0,0-3.967-3.44,5.456,5.456,0,0,1,3.532-4.327l4.605.04h6.762v5.717a1.165,1.165,0,0,0,2.33,0v-5.717h4.517a6.988,6.988,0,0,0,6.9,5.963h2.131a4.656,4.656,0,0,1,4.651,4.651Z" transform="translate(-1964.52 -4158.856)" fill="#fff"/>
      </g>
    </g>
    <g id="Grupo_163425" data-name="Grupo 163425" transform="translate(-12738 -280)">
      <circle id="Elipse_6526" data-name="Elipse 6526" cx="50" cy="50" r="50" transform="translate(13488 2128)" fill="#20cb7d"/>
      <g id="Grupo_163420" data-name="Grupo 163420" transform="translate(13503 2140)">
        <path id="Trazado_271530" data-name="Trazado 271530" d="M1648.354,4240.521a1.165,1.165,0,1,0,0-2.33h-.925a1.165,1.165,0,1,0,0,2.33Z" transform="translate(-1592.44 -4204.129)" fill="#12263f"/>
        <path id="Trazado_271531" data-name="Trazado 271531" d="M1569.442,4230.9l-6.36-3.645a8.635,8.635,0,0,0,.24-2.016v-3.15h1.845a2.577,2.577,0,0,0,2.517-2.627,2.674,2.674,0,0,0-2.387-2.712v-2.122a6.919,6.919,0,0,0-1.9-4.759c-.164-4.9-3.341-5.641-5.256-5.641h-2.388a4.07,4.07,0,0,0-3.855,2.783,8.465,8.465,0,0,0-7.515,7.388,1.165,1.165,0,1,0,2.313.28,6.135,6.135,0,0,1,4.991-5.288v5.256a1.165,1.165,0,1,0,2.331,0V4208.3a1.738,1.738,0,0,1,1.736-1.735h2.388a2.443,2.443,0,0,1,2.6,1.555,6.914,6.914,0,0,0-2.4-.436h-.977a1.89,1.89,0,0,0-1.888,1.888v2.966a1.165,1.165,0,0,0,2.331,0v-2.523h.534a4.626,4.626,0,0,1,4.621,4.62v2.116h-.676a1.165,1.165,0,1,0,0,2.33h2.866a.46.46,0,0,1,.2.389c0,.181-.111.3-.187.3h-20.7c-.076,0-.187-.115-.187-.3v-.141c0-.147.075-.248.187-.248h8.382a1.165,1.165,0,1,0,0-2.33h-8.382a2.52,2.52,0,0,0-2.517,2.577v.141a2.577,2.577,0,0,0,2.517,2.627h1.548v3.15a8.637,8.637,0,0,0,.318,2.317l-3.832,1.916a5.667,5.667,0,0,0-3.149,5.1v9.608l-5.535,1.537L1530.392,4235a1.165,1.165,0,0,0-1.11-.811h-23.315a1.165,1.165,0,0,0-1.1,1.555l7.772,21.94a1.165,1.165,0,0,0,1.1.776h52.774a5.9,5.9,0,0,0,5.891-5.891v-16.554A5.9,5.9,0,0,0,1569.442,4230.9Zm-8.451-8.811v3.15a6.32,6.32,0,0,1-12.641,0v-3.15Zm-46.428,34.036-6.947-19.61h20.816l6.275,19.61Zm55.511-3.561a3.564,3.564,0,0,1-3.561,3.561h-21.691a2.653,2.653,0,1,1,0-5.306h17.524a1.166,1.166,0,0,0,1.165-1.166v-8.325a1.165,1.165,0,1,0-2.331,0v7.16H1547.9v-8.729a1.165,1.165,0,0,0-2.331,0v8.729h-.744a4.974,4.974,0,0,0-4.211,7.637h-3.459l-2.621-8.192,6.3-1.749a1.167,1.167,0,0,0,.854-1.124v-10.494a3.347,3.347,0,0,1,1.861-3.01l3.713-1.857a8.645,8.645,0,0,0,14.963-.25l6.059,3.472a3.569,3.569,0,0,1,1.791,3.089Z" transform="translate(-1503.108 -4182.684)" fill="#12263f"/>
        <path id="Trazado_271532" data-name="Trazado 271532" d="M1508.019,4188.578h18.922a3.113,3.113,0,0,1,3.919,0h5.026a1.165,1.165,0,0,0,0-2.331h-5.026a.794.794,0,0,1-.794-.794v-13.618a1.165,1.165,0,1,0-2.331,0v13.618a.794.794,0,0,1-.794.794h-4.65a2.245,2.245,0,1,1,0-4.489,1.165,1.165,0,1,0,0-2.33,4.569,4.569,0,0,0-3.983,6.819h-10.289a5.453,5.453,0,0,1-5.48-5.282,5.369,5.369,0,0,1,5.326-5.463,3.807,3.807,0,0,1,2.84,2,4.542,4.542,0,0,0-.987,4.183,1.165,1.165,0,0,0,1.126.87,1.18,1.18,0,0,0,.3-.039,1.166,1.166,0,0,0,.831-1.424,2.232,2.232,0,0,1,.846-2.383,2.261,2.261,0,0,1,2.387-.167,1.165,1.165,0,1,0,1.1-2.055,4.6,4.6,0,0,0-3.645-.289,5.959,5.959,0,0,0-3.5-2.78,5.362,5.362,0,0,1,6.51-4.32,4.88,4.88,0,0,1,2.361,1.745,4.576,4.576,0,0,0-1.078,1.953,1.165,1.165,0,1,0,2.253.6,2.231,2.231,0,0,1,1.913-1.655,2.257,2.257,0,0,1,2.158,1.032,1.165,1.165,0,0,0,1.971-1.244,4.562,4.562,0,0,0-5.242-1.922,7.049,7.049,0,0,0-2.392-2.178,4.705,4.705,0,0,1,3.374-3.339,4.765,4.765,0,0,1,4.811,1.521,1.165,1.165,0,0,0,1.777-1.508,7.02,7.02,0,0,0-1.826-1.524,3.713,3.713,0,1,1,7.232.8,1.165,1.165,0,1,0,2.219.714,6.045,6.045,0,1,0-11.776-2.373,7.049,7.049,0,0,0-6.276,1.983h-1.214a1.278,1.278,0,0,1,0-2.557h1.269a3.609,3.609,0,0,0,2.553-6.16l-.9-.9a1.278,1.278,0,1,1,1.809-1.807l.9.9a3.609,3.609,0,0,0,6.162-2.549v-1.268a1.278,1.278,0,0,1,1.278-1.278h0a1.279,1.279,0,0,1,1.277,1.28v1.267a3.609,3.609,0,0,0,6.16,2.555l.9-.9a1.265,1.265,0,0,1,.9-.375h0a1.278,1.278,0,0,1,.9,2.182l-.9.9a3.608,3.608,0,0,0,2.549,6.161h1.267a1.278,1.278,0,1,1,0,2.557H1540.8a3.745,3.745,0,0,0-3.446,2.4,4.556,4.556,0,0,0-1-.112h0a4.552,4.552,0,0,0-4.258,2.906,1.165,1.165,0,0,0,2.17.851,2.233,2.233,0,0,1,2.089-1.427h0a2.259,2.259,0,0,1,2.024,1.273,1.165,1.165,0,1,0,2.1-1.011,4.548,4.548,0,0,0-1.062-1.409c.482-1,.948-1.141,1.381-1.141h1.269a3.609,3.609,0,0,0,0-7.218H1540.8a1.278,1.278,0,0,1-.9-2.183l.9-.9a3.609,3.609,0,0,0-2.549-6.162h0a3.583,3.583,0,0,0-2.551,1.057l-.9.9a1.278,1.278,0,0,1-2.182-.906v-1.267a3.614,3.614,0,0,0-3.608-3.61h0a3.613,3.613,0,0,0-3.609,3.608v1.266a1.279,1.279,0,0,1-2.183.9l-.9-.9a3.609,3.609,0,1,0-5.106,5.1l.9.9a1.279,1.279,0,0,1-.9,2.183h-1.269a3.607,3.607,0,0,0-.3,7.2,7.018,7.018,0,0,0-.232.667,7.681,7.681,0,0,0-8.578,6.554,7.709,7.709,0,0,0-6.615,7.76A7.794,7.794,0,0,0,1508.019,4188.578Z" transform="translate(-1500.207 -4145.762)" fill="#12263f"/>
        <path id="Trazado_271533" data-name="Trazado 271533" d="M1590.327,4221.965a1.165,1.165,0,0,0-1.123-2.042,4.55,4.55,0,0,0-2.334,4.6,1.166,1.166,0,0,0,1.154,1.018,1.121,1.121,0,0,0,.15-.01,1.165,1.165,0,0,0,1.007-1.3A2.233,2.233,0,0,1,1590.327,4221.965Z" transform="translate(-1554.909 -4192.502)" fill="#12263f"/>
      </g>
    </g>
    <g id="Grupo_163426" data-name="Grupo 163426" transform="translate(-12738 -280)">
      <circle id="Elipse_6524" data-name="Elipse 6524" cx="50" cy="50" r="50" transform="translate(13241 2128)" fill="#7453d8"/>
      <g id="Grupo_163421" data-name="Grupo 163421" transform="translate(13256 2140)">
        <path id="Trazado_271534" data-name="Trazado 271534" d="M1312.251,4191.354l-1.442-3.631a7.149,7.149,0,1,0-1.648,2.166l.923,2.326a9.29,9.29,0,0,1,.659,3.444v52.713a1.755,1.755,0,0,1-3.487.279l-1.59-32.659a1.165,1.165,0,0,0-2.328.114l1.593,32.715c0,.033,0,.066.009.1a4.085,4.085,0,0,0,8.134-.549v-52.713A11.618,11.618,0,0,0,1312.251,4191.354Zm-7.825-1.98a4.793,4.793,0,1,1,4.793-4.792A4.8,4.8,0,0,1,1304.427,4189.375Z" transform="translate(-1242.355 -4177.458)" fill="#fff"/>
        <path id="Trazado_271535" data-name="Trazado 271535" d="M1267.611,4234.033h10.421a2.626,2.626,0,0,0,2.495-1.8l3.57-10.3a1.165,1.165,0,1,0-2.2-.762l-3.572,10.311-.006.016a.3.3,0,0,1-.284.206h-10.421a3.636,3.636,0,0,0,0,7.271h14.1a3.005,3.005,0,0,0,2.8-1.9l2.96-7.408a1.165,1.165,0,1,0-2.164-.865l-2.96,7.408a.686.686,0,0,1-.64.433h-14.1a1.305,1.305,0,1,1,0-2.61Z" transform="translate(-1221.309 -4204.565)" fill="#fff"/>
        <path id="Trazado_271536" data-name="Trazado 271536" d="M1253.078,4237.732a1.166,1.166,0,0,0,0,1.648.854.854,0,0,1-1.208,1.208l-1.4-1.4a3.185,3.185,0,0,0-5.436,2.252v1.975a.854.854,0,0,1-1.708,0v-1.975a3.185,3.185,0,0,0-5.437-2.252l-1.4,1.4a.854.854,0,1,1-1.208-1.208l1.4-1.4a3.184,3.184,0,0,0-2.252-5.437h-1.975a.854.854,0,0,1,0-1.709h1.975a3.184,3.184,0,0,0,2.252-5.436l-1.4-1.4a.854.854,0,1,1,1.208-1.207l1.4,1.4a3.185,3.185,0,0,0,5.437-2.251v-1.976a.854.854,0,0,1,1.708,0v1.976a3.184,3.184,0,0,0,5.436,2.251l1.4-1.4a.854.854,0,1,1,1.208,1.207l-1.4,1.4a1.165,1.165,0,0,0,1.649,1.647l1.4-1.4a3.185,3.185,0,0,0-4.5-4.5l-1.4,1.4a.854.854,0,0,1-1.458-.6v-1.976a3.185,3.185,0,0,0-6.37,0v1.976a.854.854,0,0,1-1.458.6l-1.4-1.4a3.185,3.185,0,0,0-4.5,4.5l1.4,1.4a.854.854,0,0,1-.6,1.458h-1.975a3.185,3.185,0,1,0,0,6.37h1.975a.854.854,0,0,1,.6,1.458l-1.4,1.4a3.185,3.185,0,1,0,4.5,4.5l1.4-1.4a.854.854,0,0,1,1.458.6v1.975a3.185,3.185,0,1,0,6.37,0v-1.975a.854.854,0,0,1,1.458-.6l1.4,1.4a3.185,3.185,0,0,0,4.5-4.5A1.166,1.166,0,0,0,1253.078,4237.732Z" transform="translate(-1199.395 -4202.292)" fill="#fff"/>
        <path id="Trazado_271537" data-name="Trazado 271537" d="M1305.858,4318.13a2.325,2.325,0,0,1-1.739-2.221l-.333-28.662a1.165,1.165,0,0,0-1.165-1.152h-.014a1.165,1.165,0,0,0-1.152,1.179l.333,28.661a4.66,4.66,0,0,0,3.485,4.451,1.166,1.166,0,0,0,.584-2.257Z" transform="translate(-1244.977 -4246.061)" fill="#fff"/>
        <path id="Trazado_271538" data-name="Trazado 271538" d="M1233.341,4334.993a1.358,1.358,0,0,1-1.356-1.356,1.165,1.165,0,1,0-2.331,0,3.687,3.687,0,1,0,3.686-3.687,1.165,1.165,0,0,0,0,2.33,1.356,1.356,0,1,1,0,2.712Z" transform="translate(-1199.636 -4273.754)" fill="#fff"/>
        <path id="Trazado_271539" data-name="Trazado 271539" d="M1200.1,4251.6h-3.985v-25.01a1.165,1.165,0,1,0-2.331,0v25.01H1186.9a15.535,15.535,0,0,0-1.032-4.011,9.988,9.988,0,0,0,3.642-15.645,1.165,1.165,0,0,0-1.774,1.512,7.66,7.66,0,0,1-10.316,11.175,1.165,1.165,0,1,0-1.366,1.888,9.954,9.954,0,0,0,7.569,1.739,12.969,12.969,0,0,1,.929,3.341h-12.184c-.595-2.607-1.464-4.357-2.7-5.408l3.881-1.016a1.164,1.164,0,0,0,.87-1.127,11.43,11.43,0,0,1,6.046-10.094l7.726-4.137a1.164,1.164,0,0,0,.615-1.027v-5.812a1.165,1.165,0,0,0-1.165-1.166h-5.576a7.654,7.654,0,0,1-7.646-7.646v-8.466a7.6,7.6,0,0,1,2.24-5.406l5.919-5.919a9.789,9.789,0,0,0,2.886-6.968v-6.865a1.166,1.166,0,0,0-1.158-1.166h-.276c-8.32,0-14.785,2.234-19.218,6.64-6.816,6.776-6.816,16.646-6.816,19.89,0,3.813-3.424,6.763-6.176,9.135-1.654,1.425-2.961,2.55-3.424,3.75a2.972,2.972,0,0,0,.086,2.357c.748,1.632,2.869,2.794,4.145,3.369a4.668,4.668,0,0,1-.983,2.025,1.838,1.838,0,0,0-.7,1.4c-.042,1.168.991,2.484,1.805,3.333-1.113,2.459-.935,2.992-.836,3.29.171.512.586.851,1.76,1.755.366.283.971.749,1.319,1.066a12.581,12.581,0,0,0,.05,7.333,5.3,5.3,0,0,0,3.859,3.359,10.573,10.573,0,0,0,4.72-.325c1.7-.379,3.175-.706,4.261,0,.875.571,1.574,1.863,2.086,3.842h-5.555a1.165,1.165,0,1,0,0,2.331H1200.1a1.165,1.165,0,0,0,0-2.331Zm-36.273-6.289c-.042.011-.083.024-.122.039l-.588.129a8.816,8.816,0,0,1-3.687.331,2.929,2.929,0,0,1-2.068-1.608c-1.095-2.171-.33-5.731-.074-6.358a1.4,1.4,0,0,0-.141-1.536,4.057,4.057,0,0,0-.6-.652c-.409-.375-.94-.784-1.453-1.179-.259-.2-.6-.466-.846-.667.1-.322.293-.807.521-1.332l2.658.948a1.165,1.165,0,1,0,.783-2.195l-3.432-1.224a7.459,7.459,0,0,1-1.457-1.836,8.717,8.717,0,0,0,1.818-4.15,1.166,1.166,0,0,0-.757-1.3c-1.019-.362-3.283-1.461-3.779-2.541a.646.646,0,0,1-.031-.548,12.259,12.259,0,0,1,2.771-2.823c2.948-2.54,6.985-6.018,6.985-10.9,0-3,0-12.144,6.128-18.237,3.824-3.8,9.431-5.8,16.678-5.953v5.691a7.472,7.472,0,0,1-2.2,5.319l-5.92,5.919a9.912,9.912,0,0,0-2.922,7.055v8.466a9.988,9.988,0,0,0,9.976,9.977h4.411v3.95l-7.111,3.808a13.755,13.755,0,0,0-7.247,11.242Z" transform="translate(-1148.196 -4178.672)" fill="#fff"/>
      </g>
    </g>
    <g id="Grupo_163423" data-name="Grupo 163423" transform="translate(-12738 -280)">
      <circle id="Elipse_6527" data-name="Elipse 6527" cx="50" cy="50" r="50" transform="translate(13736 2128)" fill="#fda929"/>
      <g id="Grupo_163422" data-name="Grupo 163422" transform="translate(13749 2141)">
        <path id="Trazado_271540" data-name="Trazado 271540" d="M1810.285,4184.455a15.535,15.535,0,0,1,5.38,8.551,1.225,1.225,0,0,0,1.192.949,1.259,1.259,0,0,0,.277-.031,1.225,1.225,0,0,0,.917-1.47,17.914,17.914,0,0,0-16.306-13.818v-4.977a22.886,22.886,0,0,1,21.464,19.308,1.226,1.226,0,0,0,1.208,1.037,1.255,1.255,0,0,0,.19-.015,1.225,1.225,0,0,0,1.022-1.4,25.343,25.343,0,0,0-23.883-21.387v-4.919a1.225,1.225,0,0,0-2.45,0v17.31a1.225,1.225,0,0,0,2.45,0v-2.505A15.274,15.274,0,0,1,1810.285,4184.455Z" transform="translate(-1768.841 -4165.06)" fill="#12263f"/>
        <path id="Trazado_271541" data-name="Trazado 271541" d="M1827.255,4265.175a24.78,24.78,0,0,0,5.923-15.025h4.906a1.225,1.225,0,1,0,0-2.449h-17.309a1.225,1.225,0,1,0,0,2.449h2.519a15.081,15.081,0,0,1-11.561,13.535,1.225,1.225,0,1,0,.61,2.372,18.261,18.261,0,0,0,9.61-6.114,17.1,17.1,0,0,0,3.8-9.792h4.977a21.99,21.99,0,0,1-5.329,13.43,23.152,23.152,0,0,1-13.36,7.629,1.224,1.224,0,0,0,.22,2.429,1.2,1.2,0,0,0,.223-.02A25.611,25.611,0,0,0,1827.255,4265.175Z" transform="translate(-1776.114 -4217.246)" fill="#12263f"/>
        <path id="Trazado_271542" data-name="Trazado 271542" d="M1872.653,4314.248l-17.521-17.521a1.225,1.225,0,0,0-1.732,1.732l17.521,17.521a1.793,1.793,0,0,1-2.536,2.536l-17.521-17.521a1.225,1.225,0,0,0-1.732,1.732l17.521,17.521a4.243,4.243,0,0,0,6-6Z" transform="translate(-1800.086 -4247.979)" fill="#12263f"/>
        <path id="Trazado_271543" data-name="Trazado 271543" d="M1759.785,4266.832a1.225,1.225,0,0,0-1.225,1.226v2.232a15.034,15.034,0,0,1-8.7-3.306,14.646,14.646,0,0,1-5.149-8.564,1.225,1.225,0,0,0-2.4.491,17.21,17.21,0,0,0,16.246,13.833v4.973a22.633,22.633,0,0,1-13.876-5.405,22.328,22.328,0,0,1-7.46-13.666,1.225,1.225,0,0,0-2.423.357,24.776,24.776,0,0,0,8.282,15.164,25.088,25.088,0,0,0,15.476,6v5.2a1.225,1.225,0,0,0,2.45,0v-17.309A1.225,1.225,0,0,0,1759.785,4266.832Z" transform="translate(-1728.106 -4223.397)" fill="#12263f"/>
        <path id="Trazado_271544" data-name="Trazado 271544" d="M1736.414,4207.688a1.225,1.225,0,0,0-1.225-1.226h-2.218a15.117,15.117,0,0,1,11.965-14.15,1.225,1.225,0,1,0-.5-2.4,17.549,17.549,0,0,0-13.924,16.549h-4.974a22.891,22.891,0,0,1,19.416-21.628,1.225,1.225,0,0,0-.366-2.422,25.336,25.336,0,0,0-21.5,24.051h-5.214a1.225,1.225,0,1,0,0,2.45h17.309A1.225,1.225,0,0,0,1736.414,4207.688Z" transform="translate(-1716.655 -4176.009)" fill="#12263f"/>
      </g>
    </g>
  </g>
</svg>
